<svg width="97" height="97" viewBox="0 0 97 97" fill="none" xmlns="http://www.w3.org/2000/svg">
<circle cx="48.865" cy="48.0605" r="48" fill="white"/>
<g clip-path="url(#clip0_104_79)">
<path d="M27.6281 58.5361C25.84 58.5361 24.0015 59.9689 24.0015 62.4768C24.0015 64.7696 25.618 66.389 27.6281 66.389C29.2873 66.389 30.0267 65.2753 30.0267 65.2753V65.7607C30.0267 65.9902 30.2437 66.2462 30.5122 66.2462H31.7115V58.7075H30.0267V59.6641C30.0267 59.6641 29.2811 58.5361 27.6281 58.5361ZM27.9282 60.0777C29.4001 60.0777 30.1722 61.3722 30.1722 62.4763C30.1722 63.7061 29.2555 64.8741 27.9313 64.8741C26.8244 64.8741 25.7155 63.9776 25.7155 62.4601C25.7155 61.0902 26.6698 60.0777 27.9282 60.0777Z" fill="black"/>
<path d="M34.0531 66.246C33.7942 66.246 33.5676 66.0604 33.5676 65.7606V58.7073H35.2524V59.6402C35.6342 59.0664 36.38 58.5337 37.5249 58.5337C39.3961 58.5337 40.3925 60.0253 40.3925 61.4201V66.246H39.2217C38.9147 66.246 38.7077 65.989 38.7077 65.732V61.7913C38.7077 61.0182 38.234 60.0792 37.1384 60.0792C35.9563 60.0792 35.2524 61.1964 35.2524 62.2482V66.246L34.0531 66.246Z" fill="black"/>
<path d="M45.3041 58.536C43.516 58.536 41.6775 59.9688 41.6775 62.4767C41.6775 64.7694 43.294 66.3888 45.3041 66.3888C46.9633 66.3888 47.7027 65.2752 47.7027 65.2752V65.7606C47.7027 65.9901 47.9197 66.2461 48.1882 66.2461H49.3875V54.938H47.7027V59.664C47.7027 59.664 46.9571 58.536 45.3041 58.536ZM45.6042 60.0775C47.0761 60.0775 47.8482 61.372 47.8482 62.4762C47.8482 63.706 46.9315 64.874 45.6073 64.874C44.5004 64.874 43.3916 63.9775 43.3916 62.4599C43.3916 61.0901 44.3458 60.0775 45.6042 60.0775Z" fill="black"/>
<path d="M51.7291 66.246C51.4702 66.246 51.2437 66.0603 51.2437 65.7605V58.7072H52.9284V59.9637C53.2184 59.2598 53.8442 58.6216 54.9559 58.6216C55.2658 58.6216 55.5556 58.6787 55.5556 58.6787V60.4206C55.5556 60.4206 55.1937 60.2778 54.756 60.2778C53.5739 60.2778 52.9284 61.395 52.9284 62.4468V66.246H51.7291Z" fill="black"/>
<path d="M65.7784 66.2457C65.5196 66.2457 65.293 66.0601 65.293 65.7603V58.707H66.9778V66.2457L65.7784 66.2457Z" fill="black"/>
<path d="M71.9179 58.536C70.1298 58.536 68.2913 59.9688 68.2913 62.4767C68.2913 64.7694 69.9078 66.3888 71.9179 66.3888C73.577 66.3888 74.3165 65.2752 74.3165 65.2752V65.7606C74.3165 65.9901 74.5335 66.2461 74.802 66.2461H76.0013V54.938H74.3165V59.664C74.3165 59.664 73.5709 58.536 71.9179 58.536ZM72.218 60.0775C73.6899 60.0775 74.462 61.372 74.462 62.4762C74.462 63.706 73.5453 64.874 72.2211 64.874C71.1142 64.874 70.0053 63.9775 70.0053 62.4599C70.0053 61.0901 70.9595 60.0775 72.218 60.0775Z" fill="black"/>
<path d="M66.1235 57.0815C66.7388 57.0815 67.2375 56.5828 67.2375 55.9675C67.2375 55.3523 66.7388 54.8535 66.1235 54.8535C65.5083 54.8535 65.0095 55.3523 65.0095 55.9675C65.0095 56.5828 65.5083 57.0815 66.1235 57.0815Z" fill="black"/>
<path d="M59.9989 58.5332C58.1264 58.5332 56.0691 59.931 56.0691 62.463C56.0691 64.7704 57.8214 66.3888 59.9948 66.3888C62.6734 66.3888 63.9812 64.2356 63.9812 62.4776C63.9812 60.3205 62.2971 58.5332 59.9989 58.5332ZM60.005 60.1066C61.2999 60.1066 62.2658 61.1502 62.2658 62.4678C62.2658 63.8081 61.2405 64.8425 60.0089 64.8425C58.8656 64.8425 57.7542 63.912 57.7542 62.4903C57.7542 61.0448 58.8112 60.1066 60.005 60.1066Z" fill="black"/>
<path d="M62.6916 29.7794L67.0022 22.3122C67.2454 21.8935 67.0984 21.3618 66.6854 21.1185C66.2724 20.8753 65.735 21.0167 65.4974 21.4353L61.1302 28.9987C57.7982 27.477 54.0476 26.6284 50.0142 26.6284C45.9807 26.6284 42.2301 27.477 38.8981 28.9987L34.5309 21.4353C34.2877 21.0167 33.7559 20.8753 33.3373 21.1185C32.9187 21.3618 32.7772 21.8935 33.0205 22.3122L37.3311 29.7794C29.8978 33.8072 24.8631 41.331 24.0315 50.1389H75.9969C75.1653 41.331 70.1305 33.8071 62.6916 29.7794ZM38.0835 42.8414C36.8786 42.8414 35.9056 41.8628 35.9056 40.6635C35.9056 39.4585 36.8842 38.4855 38.0835 38.4855C39.2885 38.4855 40.2615 39.4642 40.2615 40.6635C40.2671 41.8628 39.2885 42.8414 38.0835 42.8414ZM61.9392 42.8414C60.7343 42.8414 59.7613 41.8628 59.7613 40.6635C59.7613 39.4585 60.7399 38.4855 61.9392 38.4855C63.1442 38.4855 64.1172 39.4642 64.1172 40.6635C64.1228 41.8628 63.1442 42.8414 61.9392 42.8414Z" fill="#32DE84"/>
</g>
<defs>
<clipPath id="clip0_104_79">
<rect width="52" height="45.3898" fill="white" transform="translate(24.0002 21)"/>
</clipPath>
</defs>
</svg>
