<svg width="95" height="95" viewBox="0 0 95 95" fill="none" xmlns="http://www.w3.org/2000/svg">
<circle cx="47.1553" cy="47.1553" r="47.1553" fill="black"/>
<g clip-path="url(#clip0_103_496)">
<path d="M29.7825 58.7901C28.4111 58.7901 27.001 59.889 27.001 61.8125C27.001 63.571 28.2408 64.8131 29.7825 64.8131C31.0551 64.8131 31.6223 63.9589 31.6223 63.9589V64.3312C31.6223 64.5072 31.7887 64.7036 31.9946 64.7036H32.9145V58.9215H31.6223V59.6552C31.6223 59.6552 31.0504 58.7901 29.7825 58.7901ZM30.0127 59.9724C31.1417 59.9724 31.7339 60.9652 31.7339 61.8121C31.7339 62.7553 31.0307 63.6512 30.0151 63.6512C29.1661 63.6512 28.3157 62.9636 28.3157 61.7996C28.3157 60.749 29.0475 59.9724 30.0127 59.9724Z" fill="white"/>
<path d="M34.7107 64.7034C34.5122 64.7034 34.3384 64.561 34.3384 64.331V58.9213H35.6306V59.6368C35.9234 59.1967 36.4955 58.7881 37.3736 58.7881C38.8087 58.7881 39.5729 59.9321 39.5729 61.0019V64.7034H38.675C38.4395 64.7034 38.2807 64.5062 38.2807 64.3091V61.2867C38.2807 60.6937 37.9174 59.9735 37.0771 59.9735C36.1705 59.9735 35.6306 60.8304 35.6306 61.6371V64.7034L34.7107 64.7034Z" fill="white"/>
<path d="M43.3396 58.7899C41.9683 58.7899 40.5581 59.8889 40.5581 61.8124C40.5581 63.5709 41.798 64.813 43.3396 64.813C44.6122 64.813 45.1794 63.9588 45.1794 63.9588V64.3311C45.1794 64.5071 45.3458 64.7034 45.5517 64.7034H46.4716V56.0303H45.1794V59.655C45.1794 59.655 44.6075 58.7899 43.3396 58.7899ZM43.5698 59.9723C44.6988 59.9723 45.291 60.9651 45.291 61.812C45.291 62.7552 44.5878 63.651 43.5722 63.6511C42.7232 63.6511 41.8728 62.9635 41.8728 61.7995C41.8728 60.7489 42.6046 59.9723 43.5698 59.9723Z" fill="white"/>
<path d="M48.2678 64.7033C48.0693 64.7033 47.8955 64.5609 47.8955 64.3309V58.9212H49.1877V59.8849C49.4101 59.345 49.8901 58.8555 50.7428 58.8555C50.9805 58.8555 51.2027 58.8993 51.2027 58.8993V60.2353C51.2027 60.2353 50.9252 60.1258 50.5894 60.1258C49.6828 60.1258 49.1877 60.9826 49.1877 61.7894V64.7033H48.2678Z" fill="white"/>
<path d="M59.0432 64.704C58.8447 64.704 58.6709 64.5616 58.6709 64.3316V58.9219H59.9631V64.704L59.0432 64.704Z" fill="white"/>
<path d="M63.7523 58.7899C62.3809 58.7899 60.9707 59.8889 60.9707 61.8124C60.9707 63.5709 62.2106 64.813 63.7523 64.813C65.0248 64.813 65.592 63.9588 65.592 63.9588V64.3311C65.592 64.5071 65.7584 64.7034 65.9644 64.7034H66.8842V56.0303H65.592V59.655C65.592 59.655 65.0201 58.7899 63.7523 58.7899ZM63.9824 59.9723C65.1114 59.9723 65.7036 60.9651 65.7036 61.812C65.7036 62.7552 65.0005 63.651 63.9848 63.6511C63.1358 63.6511 62.2854 62.9635 62.2854 61.7995C62.2854 60.7489 63.0173 59.9723 63.9824 59.9723Z" fill="white"/>
<path d="M59.308 57.6747C59.7799 57.6747 60.1625 57.2921 60.1625 56.8202C60.1625 56.3484 59.7799 55.9658 59.308 55.9658C58.8362 55.9658 58.4536 56.3484 58.4536 56.8202C58.4536 57.2921 58.8362 57.6747 59.308 57.6747Z" fill="white"/>
<path d="M54.6108 58.7881C53.1746 58.7881 51.5967 59.8601 51.5967 61.8022C51.5967 63.5719 52.9407 64.8133 54.6077 64.8133C56.6621 64.8133 57.6652 63.1617 57.6652 61.8134C57.6652 60.1589 56.3735 58.7881 54.6108 58.7881ZM54.6155 59.9948C55.6087 59.9948 56.3495 60.7953 56.3495 61.8058C56.3495 62.8339 55.5631 63.6272 54.6185 63.6272C53.7416 63.6272 52.8891 62.9136 52.8891 61.8231C52.8891 60.7145 53.6999 59.9948 54.6155 59.9948Z" fill="white"/>
<path d="M56.6758 36.7341L59.982 31.0068C60.1685 30.6857 60.0557 30.2779 59.739 30.0913C59.4223 29.9047 59.0101 30.0132 58.8278 30.3343L55.4782 36.1353C52.9226 34.9682 50.046 34.3173 46.9523 34.3173C43.8587 34.3173 40.9821 34.9681 38.4265 36.1353L35.0769 30.3343C34.8903 30.0132 34.4824 29.9047 34.1614 30.0913C33.8403 30.2779 33.7318 30.6857 33.9184 31.0068L37.2246 36.7341C31.5233 39.8234 27.6617 45.594 27.0239 52.3496H66.8808C66.243 45.594 62.3814 39.8233 56.6758 36.7341ZM37.8017 46.7525C36.8775 46.7525 36.1312 46.0019 36.1312 45.0821C36.1312 44.1579 36.8818 43.4116 37.8017 43.4116C38.7259 43.4116 39.4721 44.1622 39.4721 45.0821C39.4765 46.0019 38.7259 46.7525 37.8017 46.7525ZM56.0987 46.7525C55.1745 46.7525 54.4283 46.0019 54.4283 45.0821C54.4283 44.1579 55.1789 43.4116 56.0987 43.4116C57.0229 43.4116 57.7692 44.1622 57.7692 45.0821C57.7735 46.0019 57.0229 46.7525 56.0987 46.7525Z" fill="white"/>
</g>
<defs>
<clipPath id="clip0_103_496">
<rect width="39.8834" height="34.8134" fill="white" transform="translate(27 30)"/>
</clipPath>
</defs>
</svg>
