<svg width="77" height="39" viewBox="0 0 77 39" fill="none" xmlns="http://www.w3.org/2000/svg">
<g clip-path="url(#clip0_1_4232)">
<path d="M0 0H19.25L20.0441 0.794062H56.9559L57.75 0H77V38.5H57.75L56.9559 37.7059H20.0441L19.25 38.5H0V0Z" fill="#FF0000"/>
<path d="M19.25 0H57.75V38.5H19.25V0ZM39.2219 35.5323L38.8609 28.6103C38.8557 28.4965 38.876 28.3829 38.9205 28.278C38.9649 28.1731 39.0324 28.0794 39.1178 28.004C39.2032 27.9286 39.3045 27.8733 39.4141 27.8422C39.5237 27.8111 39.6389 27.805 39.7512 27.8243L46.6411 29.0354L45.7107 26.4688C45.673 26.3666 45.6681 26.2552 45.6969 26.1502C45.7257 26.0452 45.7866 25.9519 45.8711 25.8832L53.4188 19.7714L51.7183 18.9773C51.6035 18.923 51.5124 18.8287 51.4622 18.712C51.412 18.5953 51.4061 18.4644 51.4456 18.3436L52.9375 13.7557L48.5902 14.6781C48.4724 14.7027 48.3498 14.6857 48.2431 14.6302C48.1364 14.5746 48.0521 14.4839 48.0047 14.3733L47.1625 12.3922L43.7697 16.0336C43.6921 16.1155 43.5901 16.1699 43.4789 16.1889C43.3678 16.2078 43.2535 16.1902 43.1532 16.1387C43.0529 16.0872 42.972 16.0046 42.9226 15.9032C42.8732 15.8018 42.8581 15.6872 42.8794 15.5765L44.5156 7.13854L41.8928 8.65448C41.8312 8.69057 41.7629 8.71363 41.692 8.72224C41.6212 8.73084 41.5493 8.7248 41.4809 8.7045C41.4125 8.6842 41.3489 8.65006 41.2942 8.60421C41.2395 8.55835 41.1948 8.50175 41.1629 8.43792L38.5 3.20833L35.8371 8.43792C35.8052 8.50175 35.7605 8.55835 35.7058 8.60421C35.6511 8.65006 35.5875 8.6842 35.5191 8.7045C35.4507 8.7248 35.3788 8.73084 35.308 8.72224C35.2371 8.71363 35.1688 8.69057 35.1072 8.65448L32.4844 7.13854L34.1206 15.5765C34.1419 15.6872 34.1268 15.8018 34.0774 15.9032C34.028 16.0046 33.9471 16.0872 33.8468 16.1387C33.7465 16.1902 33.6322 16.2078 33.5211 16.1889C33.4099 16.1699 33.3079 16.1155 33.2303 16.0336L29.8375 12.3922L28.9953 14.3733C28.9479 14.4839 28.8636 14.5746 28.7569 14.6302C28.6502 14.6857 28.5276 14.7027 28.4098 14.6781L24.0625 13.7557L25.5544 18.3436C25.5939 18.4644 25.588 18.5953 25.5378 18.712C25.4876 18.8287 25.3965 18.923 25.2817 18.9773L23.5812 19.7714L31.1289 25.8832C31.2134 25.9519 31.2743 26.0452 31.3031 26.1502C31.3319 26.2552 31.327 26.3666 31.2893 26.4688L30.3589 29.0354L37.2487 27.8243C37.3611 27.805 37.4763 27.8111 37.5859 27.8422C37.6955 27.8733 37.7968 27.9286 37.8822 28.004C37.9676 28.0794 38.0351 28.1731 38.0795 28.278C38.124 28.3829 38.1443 28.4965 38.1391 28.6103L37.7781 35.5323H39.2219Z" fill="white"/>
</g>
<defs>
<clipPath id="clip0_1_4232">
<rect width="77" height="38.5" fill="white"/>
</clipPath>
</defs>
</svg>
