<svg width="77" height="41" viewBox="0 0 77 41" fill="none" xmlns="http://www.w3.org/2000/svg">
<g clip-path="url(#clip0_1_4182)">
<path d="M76.1979 13.5469H0V27.0927H76.1979V13.5469Z" fill="white"/>
<path d="M76.1979 0H0V13.5471H76.1979V0Z" fill="#F19A37"/>
<path d="M76.1979 27.0918H0V40.6378H76.1979V27.0918Z" fill="#3D8C2E"/>
<path d="M38.103 19.2623L37.915 18.3569L38.103 15.1602L38.2908 18.3569L38.103 19.2623Z" fill="#2C4897"/>
<path d="M39.0098 20.3214L39.916 20.1348L43.1154 20.3214L39.916 20.508L39.0098 20.3214Z" fill="#2C4897"/>
<path d="M39.001 20.0127L39.845 19.6371L43.0133 19.1406L39.9256 20.0023L39.001 20.0127Z" fill="#2C4897"/>
<path d="M38.9258 19.7708L39.6325 19.1741L42.5345 17.8125L39.8123 19.5036L38.9258 19.7708Z" fill="#2C4897"/>
<path d="M38.8096 19.5785L39.3146 18.8033L41.699 16.6641L39.5821 19.0671L38.8096 19.5785Z" fill="#2C4897"/>
<path d="M38.584 19.4252L38.8986 18.5555L40.7389 15.9336L39.2182 18.7536L38.584 19.4252Z" fill="#2C4897"/>
<path d="M38.3662 19.3338L38.4364 18.4111L39.5007 15.3906L38.7974 18.5159L38.3662 19.3338Z" fill="#2C4897"/>
<path d="M37.1917 20.3214L36.2866 20.1348L33.0859 20.3214L36.2866 20.508L37.1917 20.3214Z" fill="#2C4897"/>
<path d="M37.1901 20.0127L36.3437 19.6371L33.1777 19.1406L36.2642 20.0023L37.1901 20.0127Z" fill="#2C4897"/>
<path d="M37.2719 19.7708L36.5642 19.1741L33.6621 17.8125L36.3853 19.5036L37.2719 19.7708Z" fill="#2C4897"/>
<path d="M37.3953 19.5785L36.8903 18.8033L34.5059 16.6641L36.624 19.0671L37.3953 19.5785Z" fill="#2C4897"/>
<path d="M37.615 19.4213L37.298 18.5516L35.459 15.9297L36.9797 18.7497L37.615 19.4213Z" fill="#2C4897"/>
<path d="M37.8364 19.3377L37.7684 18.415L36.7041 15.3945L37.4063 18.5198L37.8364 19.3377Z" fill="#2C4897"/>
<path d="M38.103 21.377L38.2908 22.2824L38.103 25.4802L37.915 22.2824L38.103 21.377Z" fill="#2C4897"/>
<path d="M37.1901 20.625L36.3437 20.9994L33.1777 21.4959L36.2642 20.6342L37.1901 20.625Z" fill="#2C4897"/>
<path d="M37.2719 20.8711L36.5642 21.4677L33.6621 22.8306L36.3853 21.1383L37.2719 20.8711Z" fill="#2C4897"/>
<path d="M37.3953 21.0625L36.8903 21.8378L34.5059 23.9769L36.624 21.5728L37.3953 21.0625Z" fill="#2C4897"/>
<path d="M37.615 21.2168L37.298 22.0853L35.459 24.7084L36.9797 21.8896L37.615 21.2168Z" fill="#2C4897"/>
<path d="M37.8364 21.3008L37.7684 22.2234L36.7041 25.2439L37.4063 22.1199L37.8364 21.3008Z" fill="#2C4897"/>
<path d="M39.001 20.625L39.845 20.9994L43.0133 21.4959L39.9256 20.6342L39.001 20.625Z" fill="#2C4897"/>
<path d="M38.9258 20.8711L39.6325 21.4677L42.5345 22.8306L39.8123 21.1383L38.9258 20.8711Z" fill="#2C4897"/>
<path d="M38.8096 21.0625L39.3146 21.8378L41.699 23.9769L39.5821 21.5728L38.8096 21.0625Z" fill="#2C4897"/>
<path d="M38.584 21.2168L38.8986 22.0853L40.7389 24.7084L39.2182 21.8896L38.584 21.2168Z" fill="#2C4897"/>
<path d="M38.3662 21.3047L38.4364 22.2273L39.5007 25.2478L38.7974 22.1238L38.3662 21.3047Z" fill="#2C4897"/>
<path d="M39.1611 20.3195C39.1611 20.9093 38.6837 21.3839 38.0947 21.3839C37.5067 21.3839 37.0293 20.9093 37.0293 20.3195C37.0293 19.732 37.5067 19.2539 38.0947 19.2539C38.6837 19.2539 39.1611 19.732 39.1611 20.3195Z" fill="#2C4897"/>
<path d="M38.0971 14.8477C35.0764 14.8477 32.6182 17.3036 32.6182 20.3229C32.6182 23.3411 35.0764 25.7983 38.0971 25.7983C41.1202 25.7983 43.5772 23.3422 43.5772 20.3229C43.5761 17.3036 41.1202 14.8477 38.0971 14.8477ZM41.5273 24.122C41.465 24.0356 41.3647 23.9781 41.2494 23.9781C41.0591 23.9781 40.9046 24.1312 40.9046 24.3237C40.9046 24.4078 40.9359 24.485 40.9887 24.546C40.8227 24.6589 40.652 24.7613 40.4724 24.8559C40.4193 24.7361 40.2993 24.6531 40.1599 24.6531C39.9685 24.6531 39.814 24.8075 39.814 24.9977C39.814 25.0471 39.8243 25.092 39.8427 25.1335C39.6226 25.2152 39.3942 25.2798 39.1602 25.3294C39.1313 25.1658 38.9918 25.0426 38.8201 25.0426C38.6287 25.0426 38.4742 25.1968 38.4742 25.388C38.4742 25.4009 38.4764 25.4122 38.4787 25.425C38.3532 25.433 38.224 25.44 38.0948 25.44C37.9714 25.44 37.8482 25.4342 37.7271 25.4272C37.7282 25.4122 37.7305 25.4009 37.7305 25.388C37.7305 25.1968 37.5759 25.0426 37.3857 25.0426C37.214 25.0426 37.0722 25.1682 37.0467 25.3316C36.8117 25.2845 36.5832 25.2176 36.3619 25.1393C36.3803 25.0954 36.3931 25.0484 36.3931 24.9977C36.3931 24.8075 36.2384 24.6531 36.0483 24.6531C35.9065 24.6531 35.7844 24.7395 35.7313 24.8617C35.5525 24.7695 35.3795 24.667 35.2148 24.553C35.27 24.4918 35.3035 24.4125 35.3035 24.3248C35.3035 24.1336 35.1489 23.9794 34.9587 23.9794C34.84 23.9794 34.7363 24.038 34.6738 24.1291C34.5263 23.9965 34.3868 23.8549 34.2566 23.7062C34.3338 23.6429 34.3857 23.5473 34.3857 23.4378C34.3857 23.2489 34.2313 23.0934 34.042 23.0934C33.9648 23.0934 33.8944 23.12 33.8358 23.1625C33.7054 22.9645 33.5843 22.7583 33.4818 22.5416C33.6074 22.4898 33.6962 22.3677 33.6962 22.2225C33.6962 22.0313 33.5417 21.8781 33.3516 21.8781C33.3065 21.8781 33.265 21.8873 33.2258 21.9012C33.1623 21.7087 33.1129 21.5107 33.0725 21.3102C33.2316 21.2791 33.3516 21.1397 33.3516 20.9715C33.3516 20.7814 33.1969 20.627 33.0079 20.627C32.9997 20.627 32.994 20.6282 32.9861 20.6282C32.9803 20.5268 32.9769 20.4255 32.9769 20.3218C32.9769 20.2515 32.979 20.1812 32.9826 20.1121C32.9905 20.1121 32.9987 20.1144 33.0079 20.1144C33.1969 20.1144 33.3516 19.9601 33.3516 19.7711C33.3516 19.5961 33.2235 19.4544 33.0541 19.4313C33.0956 19.2044 33.1486 18.9832 33.2177 18.7689C33.2581 18.7851 33.3043 18.7943 33.3516 18.7943C33.5417 18.7943 33.6962 18.6399 33.6962 18.4498C33.6962 18.3012 33.6029 18.1757 33.4703 18.1273C33.5798 17.8981 33.7066 17.6769 33.8472 17.4672C33.9026 17.5052 33.9706 17.5271 34.0433 17.5271C34.2324 17.5271 34.3868 17.3728 34.3868 17.1827C34.3868 17.0802 34.3408 16.9892 34.2681 16.9258C34.4018 16.7749 34.5459 16.632 34.6959 16.4973C34.7605 16.5721 34.855 16.6228 34.9598 16.6228C35.1502 16.6228 35.3046 16.4685 35.3046 16.2772C35.3046 16.2024 35.2804 16.1333 35.2389 16.0768C35.4004 15.9674 35.5664 15.8694 35.7392 15.7807C35.7957 15.8959 35.9133 15.9754 36.0494 15.9754C36.2397 15.9754 36.3942 15.8211 36.3942 15.6298C36.3942 15.5849 36.385 15.5434 36.37 15.5043C36.589 15.4259 36.8138 15.3626 37.0457 15.3142C37.0596 15.4905 37.2069 15.6298 37.3868 15.6298C37.5759 15.6298 37.7316 15.4755 37.7316 15.2877C37.7316 15.2647 37.7293 15.2416 37.7258 15.2209C37.8482 15.2105 37.9714 15.2059 38.0961 15.2059C38.2263 15.2059 38.3553 15.2117 38.4821 15.2209C38.4777 15.2428 38.4753 15.2647 38.4753 15.2877C38.4753 15.4766 38.6297 15.6298 38.8212 15.6298C39.001 15.6298 39.1463 15.4916 39.1612 15.3165C39.3942 15.3672 39.6202 15.4305 39.8369 15.51C39.8232 15.5481 39.814 15.5884 39.814 15.6298C39.814 15.8211 39.9685 15.9754 40.1599 15.9754C40.2925 15.9754 40.4089 15.8994 40.4653 15.7865C40.6371 15.8764 40.8043 15.9743 40.9658 16.0826C40.9265 16.139 40.9046 16.2058 40.9046 16.2784C40.9046 16.4696 41.0591 16.624 41.2494 16.624C41.3519 16.624 41.443 16.5779 41.5065 16.5065C41.6471 16.632 41.7809 16.7657 41.9065 16.9051C41.8201 16.9684 41.7626 17.0698 41.7626 17.1838C41.7626 17.3739 41.9146 17.5283 42.1071 17.5283C42.1938 17.5283 42.2697 17.496 42.3298 17.4453C42.4784 17.6619 42.6111 17.8935 42.7253 18.1319C42.5995 18.1837 42.5107 18.307 42.5107 18.4498C42.5107 18.6399 42.6652 18.7943 42.8566 18.7943C42.9004 18.7943 42.9396 18.7862 42.9777 18.7712C43.0446 18.9844 43.0977 19.2009 43.1379 19.4256C43.1299 19.4256 43.1207 19.4233 43.1113 19.4233C42.9201 19.4233 42.7668 19.5776 42.7668 19.7677C42.7668 19.9589 42.9201 20.1121 43.1113 20.1121C43.146 20.1121 43.1796 20.1064 43.2106 20.0948C43.2153 20.1709 43.2164 20.2469 43.2164 20.3229C43.2164 20.4301 43.2117 20.5361 43.2048 20.6432C43.1749 20.634 43.1436 20.6282 43.1103 20.6282C42.9188 20.6282 42.7655 20.7826 42.7655 20.9726C42.7655 21.1616 42.9188 21.3171 43.1103 21.3171L43.1195 21.3159C43.0803 21.5141 43.0283 21.7087 42.9685 21.8989C42.9327 21.8862 42.8947 21.8792 42.8555 21.8792C42.6641 21.8792 42.5097 22.0325 42.5097 22.2238C42.5097 22.363 42.5937 22.4828 42.7148 22.5369C42.6111 22.7501 42.4947 22.9553 42.3642 23.1499C42.3078 23.1108 42.2397 23.0877 42.1672 23.0877C41.9758 23.0877 41.8212 23.2408 41.8212 23.432C41.8212 23.5381 41.8708 23.6314 41.9469 23.696C41.8154 23.8444 41.6759 23.9873 41.5273 24.122Z" fill="#2C4897"/>
</g>
<defs>
<clipPath id="clip0_1_4182">
<rect width="77" height="40.6389" fill="white"/>
</clipPath>
</defs>
</svg>
