<svg width="20" height="20" viewBox="0 0 20 20" fill="none" xmlns="http://www.w3.org/2000/svg">
<path fill-rule="evenodd" clip-rule="evenodd" d="M6.53324 3.6C4.91131 3.6 3.6 4.9109 3.6 6.52364V13.9709C3.6 15.5837 4.91131 16.8946 6.53324 16.8946H13.9997C15.6217 16.8946 16.933 15.5837 16.933 13.9709V6.52364C16.933 4.9109 15.6217 3.6 13.9997 3.6H6.53324ZM2 6.52364C2 4.02336 4.03155 2 6.53324 2H13.9997C16.5014 2 18.533 4.02336 18.533 6.52364V13.9709C18.533 16.4712 16.5014 18.4946 13.9997 18.4946H6.53324C4.03155 18.4946 2 16.4712 2 13.9709V6.52364ZM10.6193 8.05916C10.1639 7.9918 9.69891 8.06942 9.29049 8.2808C8.88209 8.49216 8.5513 8.82638 8.3448 9.23558C8.13832 9.64476 8.06652 10.1083 8.13944 10.5603C8.21237 11.0123 8.42638 11.4302 8.75143 11.7545C9.07651 12.0787 9.49609 12.2927 9.95061 12.3656C10.4052 12.4386 10.8711 12.3667 11.2821 12.1604C11.6931 11.954 12.028 11.6239 12.2396 11.2173C12.4511 10.8106 12.5286 10.348 12.4613 9.89515C12.3926 9.43318 12.1768 9.00517 11.8452 8.67447C11.5136 8.34373 11.0839 8.12787 10.6193 8.05916ZM8.55507 6.85983C9.26184 6.49404 10.0661 6.35992 10.8535 6.47638C11.6566 6.59517 12.4005 6.96851 12.9751 7.54164C13.5498 8.1148 13.9246 8.8574 14.0439 9.65986C14.1609 10.4466 14.0261 11.25 13.659 11.9557C13.2919 12.6613 12.7112 13.2332 12 13.5903C11.2888 13.9473 10.4829 14.0716 9.69706 13.9454C8.91116 13.8193 8.18484 13.4492 7.62152 12.8873C7.05817 12.3254 6.68654 11.6003 6.55986 10.8151C6.43319 10.0299 6.558 9.22494 6.91637 8.51476C7.27473 7.80461 7.84827 7.22563 8.55507 6.85983ZM14.3703 5.35156C13.9285 5.35156 13.5703 5.70973 13.5703 6.15156C13.5703 6.59339 13.9285 6.95156 14.3703 6.95156H14.3776C14.8194 6.95156 15.1776 6.59339 15.1776 6.15156C15.1776 5.70973 14.8194 5.35156 14.3776 5.35156H14.3703Z" fill="black"/>
</svg>
