<svg width="20" height="20" viewBox="0 0 20 20" fill="none" xmlns="http://www.w3.org/2000/svg">
<path fill-rule="evenodd" clip-rule="evenodd" d="M3.75024 5.33492C3.75024 4.45817 4.4666 3.74365 5.34562 3.74365C6.22809 3.74365 6.94099 4.45817 6.94099 5.33492C6.94099 6.21167 6.22809 6.94 5.34562 6.94C4.4666 6.94 3.75024 6.21512 3.75024 5.33492ZM17.0359 16.9997L17.0393 12.1396C17.0393 9.76134 16.5271 7.92845 13.7378 7.92845C12.3986 7.92845 11.4988 8.66368 11.1319 9.35749H11.0939V8.14936H8.44992V16.9997H11.2012V12.616C11.2012 11.4631 11.4192 10.3481 12.8519 10.3481C14.2639 10.3481 14.2846 11.6633 14.2846 12.6919V16.9997H17.0359ZM6.72303 8.14908H3.96833V16.9994H6.72303V8.14908Z" fill="black"/>
</svg>
