<svg width="20" height="20" viewBox="0 0 20 20" fill="none" xmlns="http://www.w3.org/2000/svg">
<path d="M18.5411 5.38385C17.9286 5.64979 17.2742 5.82392 16.5907 5.9094C17.2935 5.49782 17.8287 4.85196 18.0801 4.07312C17.4257 4.45621 16.7036 4.72532 15.9331 4.87728C15.3141 4.22825 14.4276 3.82617 13.4637 3.82617C11.5907 3.82617 10.0819 5.32053 10.0819 7.15047C10.0819 7.41325 10.1045 7.66653 10.1593 7.90715C7.34495 7.77418 4.8562 6.44762 3.18306 4.43088C2.8897 4.92794 2.71884 5.49782 2.71884 6.11203C2.71884 7.26445 3.32168 8.2839 4.22112 8.87278C3.6763 8.86328 3.14438 8.70815 2.69305 8.46437C2.69305 8.47386 2.69305 8.48653 2.69305 8.50236C2.69305 10.117 3.8665 11.4594 5.40424 11.7665C5.13022 11.8393 4.82719 11.8773 4.5177 11.8773C4.30171 11.8773 4.08249 11.8647 3.87617 11.8203C4.31461 13.1374 5.55898 14.103 7.03869 14.1347C5.88781 15.018 4.42421 15.553 2.84457 15.553C2.56732 15.553 2.29975 15.5404 2.0354 15.5087C3.53445 16.4585 5.31075 16.9999 7.22567 16.9999C13.454 16.9999 16.8583 11.9343 16.8583 7.54306C16.8583 7.39742 16.8518 7.25495 16.8454 7.11248C17.5159 6.64391 18.0801 6.0582 18.5411 5.38385Z" fill="black"/>
</svg>
