<svg width="20" height="20" viewBox="0 0 20 20" fill="none" xmlns="http://www.w3.org/2000/svg">
<path fill-rule="evenodd" clip-rule="evenodd" d="M17.9114 4.88296C18.1714 5.1504 18.3562 5.48156 18.4469 5.84299C18.6891 7.18235 18.8067 8.54118 18.7981 9.90213C18.8029 11.2427 18.6854 12.581 18.4469 13.9003C18.3562 14.2618 18.1714 14.5929 17.9114 14.8604C17.6513 15.1278 17.3251 15.3221 16.9656 15.4235C15.6523 15.7738 10.3993 15.7738 10.3993 15.7738C10.3993 15.7738 5.14618 15.7738 3.83291 15.4235C3.48078 15.3274 3.15946 15.1423 2.89998 14.8862C2.64051 14.63 2.45165 14.3115 2.35166 13.9613C2.10944 12.6219 1.99187 11.2631 2.00044 9.90213C1.99374 8.55135 2.11131 7.20281 2.35166 5.87345C2.44236 5.51202 2.62708 5.18086 2.88716 4.91343C3.14724 4.64599 3.47347 4.45175 3.83291 4.35032C5.14618 4 10.3993 4 10.3993 4C10.3993 4 15.6523 4 16.9656 4.31986C17.3251 4.42129 17.6513 4.61553 17.9114 4.88296ZM13.07 9.90243L8.67969 12.3927V7.41211L13.07 9.90243Z" fill="black"/>
</svg>
