<svg width="97" height="97" viewBox="0 0 97 97" fill="none" xmlns="http://www.w3.org/2000/svg">
<circle cx="48.8652" cy="48.0605" r="48" fill="white"/>
<path d="M64.3924 41.9919C64.1604 42.1719 60.064 44.4801 60.064 49.6126C60.064 55.5492 65.2765 57.6494 65.4325 57.7014C65.4085 57.8294 64.6044 60.5777 62.6842 63.378C60.972 65.8422 59.1839 68.3025 56.4636 68.3025C53.7433 68.3025 53.0432 66.7223 49.9029 66.7223C46.8426 66.7223 45.7545 68.3545 43.2663 68.3545C40.778 68.3545 39.0419 66.0743 37.0457 63.274C34.7334 59.9857 32.8652 54.8771 32.8652 50.0287C32.8652 42.2519 37.9217 38.1275 42.8982 38.1275C45.5425 38.1275 47.7467 39.8636 49.4069 39.8636C50.987 39.8636 53.4513 38.0235 56.4596 38.0235C57.5997 38.0235 61.6961 38.1275 64.3924 41.9919ZM55.0314 34.7311C56.2756 33.255 57.1557 31.2068 57.1557 29.1586C57.1557 28.8745 57.1317 28.5865 57.0797 28.3545C55.0555 28.4305 52.6472 29.7026 51.1951 31.3868C50.055 32.6829 48.9908 34.7311 48.9908 36.8073C48.9908 37.1194 49.0429 37.4314 49.0669 37.5314C49.1949 37.5554 49.4029 37.5834 49.6109 37.5834C51.4271 37.5834 53.7113 36.3673 55.0314 34.7311Z" fill="black"/>
</svg>
