<svg width="56" height="56" viewBox="0 0 56 56" fill="none" xmlns="http://www.w3.org/2000/svg">
<path d="M28 56C43.464 56 56 43.464 56 28C56 12.536 43.464 0 28 0C12.536 0 0 12.536 0 28C0 43.464 12.536 56 28 56Z" fill="#FFA735" fill-opacity="0.1"/>
<mask id="mask0_1_1534" style="mask-type:luminance" maskUnits="userSpaceOnUse" x="14" y="14" width="28" height="28">
<path d="M41.2646 14.7363H14.7383V41.2626H41.2646V14.7363Z" fill="white"/>
</mask>
<g mask="url(#mask0_1_1534)">
<path d="M35.2333 41.2619C34.9791 41.2619 34.7286 41.1971 34.5038 41.073L28.1876 37.6022C28.1297 37.5702 28.0653 37.5536 27.9999 37.5536C27.9344 37.5536 27.87 37.5702 27.8123 37.6022L21.4936 41.073C21.2357 41.2145 20.9449 41.2779 20.6543 41.2558C20.3638 41.2337 20.085 41.127 19.8494 40.9479C19.6137 40.7689 19.4308 40.5244 19.3212 40.2423C19.2116 39.9602 19.1796 39.6517 19.229 39.3516L20.4347 32.0009C20.4452 31.9337 20.4405 31.8649 20.4206 31.8C20.4007 31.7352 20.3665 31.6761 20.3207 31.6277L15.2102 26.4234C15.0015 26.2109 14.8537 25.9415 14.7839 25.6459C14.7139 25.3503 14.7247 25.0399 14.8147 24.7502C14.9047 24.4606 15.0704 24.2029 15.293 24.0066C15.5159 23.8101 15.7867 23.6828 16.0751 23.6389L23.1354 22.5659C23.2005 22.5568 23.2626 22.531 23.3161 22.4907C23.3694 22.4505 23.4126 22.3972 23.4416 22.3354L26.5996 15.6483C26.7285 15.3752 26.9281 15.1452 27.1756 14.9844C27.4231 14.8235 27.7087 14.7383 28.0002 14.7383C28.2917 14.7383 28.5774 14.8235 28.825 14.9844C29.0726 15.1452 29.2721 15.3752 29.4011 15.6483L32.5589 22.3354C32.588 22.3972 32.6309 22.4505 32.6844 22.4907C32.7379 22.531 32.8 22.5568 32.8652 22.5659L39.927 23.6389C40.2154 23.6827 40.4863 23.8098 40.7092 24.0061C40.932 24.2024 41.098 24.46 41.1882 24.7496C41.2784 25.0393 41.2893 25.3495 41.2196 25.6453C41.15 25.9411 41.0028 26.2106 40.7943 26.4234L35.6837 31.6277C35.6365 31.6753 35.6013 31.7341 35.5808 31.7991C35.5602 31.8641 35.5549 31.9332 35.5656 32.0009L36.7739 39.3516C36.8119 39.5858 36.8006 39.8258 36.7409 40.055C36.6812 40.2842 36.5747 40.4971 36.4285 40.679C36.2821 40.8607 36.0997 41.007 35.8938 41.1077C35.6881 41.2083 35.4635 41.2611 35.2363 41.2619H35.2333Z" fill="#FFA735"/>
</g>
</svg>
