<svg width="150" height="150" viewBox="0 0 150 150" fill="none" xmlns="http://www.w3.org/2000/svg">
<circle cx="75" cy="75" r="75" fill="white"/>
<path d="M73.6724 23.548L104.789 23.5137L52.5839 75.6922L38.9782 89.2216L23.498 73.7224L73.6724 23.548ZM73.3829 70.1371C73.7867 69.6037 74.5297 69.8666 75.0936 69.798L104.762 69.8057L77.7225 96.8188L62.1623 81.3539L73.3829 70.1371Z" fill="#44D1FD"/>
<path d="M46.6523 96.8471L62.163 81.3555L77.7232 96.8204L77.788 96.889L62.1668 112.365L46.6523 96.8471Z" fill="#1FBCFD"/>
<path d="M62.1582 112.367L77.7794 96.8906L104.766 123.904C94.6007 123.927 84.4393 123.896 74.2779 123.919C73.6988 124.049 73.3407 123.519 72.9711 123.191L62.1582 112.367Z" fill="#08589C"/>
</svg>
