<svg width="30" height="30" viewBox="0 0 30 30" fill="none" xmlns="http://www.w3.org/2000/svg">
<g clip-path="url(#clip0_1_1425)">
<path d="M1.11133 15.0002C1.11133 16.8241 1.47057 18.6302 2.16856 20.3153C2.86654 22.0003 3.88959 23.5314 5.17929 24.8211C6.46899 26.1108 8.00009 27.1339 9.68517 27.8319C11.3702 28.5299 13.1763 28.8891 15.0002 28.8891C16.8241 28.8891 18.6302 28.5299 20.3153 27.8319C22.0003 27.1339 23.5314 26.1108 24.8211 24.8211C26.1108 23.5314 27.1339 22.0003 27.8319 20.3153C28.5299 18.6302 28.8891 16.8241 28.8891 15.0002C28.8891 13.1763 28.5299 11.3702 27.8319 9.68517C27.1339 8.00009 26.1108 6.46899 24.8211 5.17929C23.5314 3.88959 22.0003 2.86654 20.3153 2.16856C18.6302 1.47058 16.8241 1.11133 15.0002 1.11133C13.1763 1.11133 11.3702 1.47058 9.68517 2.16856C8.00009 2.86654 6.46899 3.88959 5.17929 5.17929C3.88959 6.46899 2.86654 8.00009 2.16856 9.68517C1.47057 11.3702 1.11133 13.1763 1.11133 15.0002Z" stroke="#0099FF" stroke-width="3" stroke-linecap="round" stroke-linejoin="round"/>
<path d="M2.22266 10H27.7782" stroke="#FFA735" stroke-width="3" stroke-linecap="round" stroke-linejoin="round"/>
<path d="M2.22266 20H27.7782" stroke="#FFA735" stroke-width="3" stroke-linecap="round" stroke-linejoin="round"/>
<path d="M14.4444 1.11133C11.5399 5.2774 10 10.0895 10 15.0002C10 19.9109 11.5399 24.723 14.4444 28.8891" stroke="#0099FF" stroke-width="3" stroke-linecap="round" stroke-linejoin="round"/>
<path d="M15.5547 1.11133C18.4593 5.2774 19.9991 10.0895 19.9991 15.0002C19.9991 19.9109 18.4593 24.723 15.5547 28.8891" stroke="#0099FF" stroke-width="3" stroke-linecap="round" stroke-linejoin="round"/>
</g>
<defs>
<clipPath id="clip0_1_1425">
<rect width="30" height="30" fill="white"/>
</clipPath>
</defs>
</svg>
