<svg width="398" height="362" viewBox="0 0 398 362" fill="none" xmlns="http://www.w3.org/2000/svg">
<mask id="mask0_126_75" style="mask-type:alpha" maskUnits="userSpaceOnUse" x="0" y="0" width="398" height="362">
<rect width="398" height="362" fill="#D9D9D9"/>
</mask>
<g mask="url(#mask0_126_75)">
<path fill-rule="evenodd" clip-rule="evenodd" d="M283.838 324.046L369.773 265.624C354.102 244.997 339.581 223.519 326.278 201.291L234.864 249.023C234.863 249.022 234.863 249.021 234.862 249.021L174.412 280.585C190.625 308.838 208.38 336.177 227.598 362.479L283.835 324.045C283.508 323.595 283.181 323.145 282.854 322.694C283.182 323.145 283.51 323.596 283.838 324.046Z" fill="#31E7B6"/>
<path fill-rule="evenodd" clip-rule="evenodd" d="M208.471 236.369L385.554 141.496C359.612 98.6556 336.056 54.414 314.993 8.97607L129.383 82.2488C129.383 82.2491 129.384 82.2494 129.384 82.2497L6.91846 130.595C32.3519 188.206 60.9371 244.375 92.5441 298.844L208.472 236.37C208.471 236.37 208.471 236.37 208.471 236.369Z" fill="#2417C0"/>
</g>
</svg>
