<svg width="36" height="18" viewBox="0 0 36 18" fill="none" xmlns="http://www.w3.org/2000/svg">
<g clip-path="url(#clip0_374_587)">
<path d="M0 0H9L9.37125 0.37125H26.6287L27 0H36V18H27L26.6287 17.6287H9.37125L9 18H0V0Z" fill="#FF0000"/>
<path d="M9 0H27V18H9V0ZM18.3375 16.6125L18.1687 13.3762C18.1663 13.323 18.1758 13.2699 18.1966 13.2209C18.2174 13.1718 18.2489 13.128 18.2888 13.0928C18.3288 13.0575 18.3761 13.0317 18.4274 13.0171C18.4786 13.0026 18.5325 12.9997 18.585 13.0087L21.8062 13.575L21.3713 12.375C21.3536 12.3273 21.3513 12.2752 21.3648 12.2261C21.3782 12.177 21.4067 12.1333 21.4462 12.1012L24.975 9.24375L24.18 8.8725C24.1263 8.84713 24.0837 8.80303 24.0602 8.74848C24.0368 8.69393 24.034 8.63269 24.0525 8.57625L24.75 6.43125L22.7175 6.8625C22.6624 6.87398 22.6051 6.86606 22.5552 6.84009C22.5053 6.81412 22.4659 6.77169 22.4437 6.72L22.05 5.79375L20.4637 7.49625C20.4275 7.53451 20.3798 7.55997 20.3278 7.56883C20.2758 7.57769 20.2224 7.56946 20.1755 7.54538C20.1286 7.5213 20.0908 7.48266 20.0677 7.43527C20.0446 7.38787 20.0375 7.33427 20.0475 7.2825L20.8125 3.3375L19.5862 4.04625C19.5575 4.06312 19.5255 4.07391 19.4924 4.07793C19.4593 4.08195 19.4257 4.07913 19.3937 4.06964C19.3617 4.06015 19.332 4.04419 19.3064 4.02275C19.2808 4.00131 19.2599 3.97484 19.245 3.945L18 1.5L16.755 3.945C16.7401 3.97484 16.7192 4.00131 16.6936 4.02275C16.668 4.04419 16.6383 4.06015 16.6063 4.06964C16.5743 4.07913 16.5407 4.08195 16.5076 4.07793C16.4745 4.07391 16.4425 4.06312 16.4137 4.04625L15.1875 3.3375L15.9525 7.2825C15.9625 7.33427 15.9554 7.38787 15.9323 7.43527C15.9092 7.48266 15.8714 7.5213 15.8245 7.54538C15.7776 7.56946 15.7242 7.57769 15.6722 7.56883C15.6202 7.55997 15.5725 7.53451 15.5362 7.49625L13.95 5.79375L13.5563 6.72C13.5341 6.77169 13.4947 6.81412 13.4448 6.84009C13.3949 6.86606 13.3376 6.87398 13.2825 6.8625L11.25 6.43125L11.9475 8.57625C11.966 8.63269 11.9632 8.69393 11.9398 8.74848C11.9163 8.80303 11.8737 8.84713 11.82 8.8725L11.025 9.24375L14.5538 12.1012C14.5933 12.1333 14.6218 12.177 14.6352 12.2261C14.6487 12.2752 14.6464 12.3273 14.6287 12.375L14.1937 13.575L17.415 13.0087C17.4675 12.9997 17.5214 13.0026 17.5726 13.0171C17.6239 13.0317 17.6712 13.0575 17.7112 13.0928C17.7511 13.128 17.7826 13.1718 17.8034 13.2209C17.8242 13.2699 17.8337 13.323 17.8313 13.3762L17.6625 16.6125H18.3375Z" fill="white"/>
</g>
<defs>
<clipPath id="clip0_374_587">
<rect width="36" height="18" fill="white"/>
</clipPath>
</defs>
</svg>
