<svg width="36" height="20" viewBox="0 0 36 20" fill="none" xmlns="http://www.w3.org/2000/svg">
<g clip-path="url(#clip0_374_540)">
<path d="M35.625 6.83594H0V13.169H35.625V6.83594Z" fill="white"/>
<path d="M35.625 0.5H0V6.83369H35.625V0.5Z" fill="#F19A37"/>
<path d="M35.625 13.1641H0V19.4973H35.625V13.1641Z" fill="#3D8C2E"/>
<path d="M17.8145 9.50382L17.7266 9.0805L17.8145 7.58594L17.9023 9.0805L17.8145 9.50382Z" fill="#2C4897"/>
<path d="M18.2383 10.0013L18.662 9.91406L20.1578 10.0013L18.662 10.0886L18.2383 10.0013Z" fill="#2C4897"/>
<path d="M18.2344 9.86083L18.629 9.68525L20.1103 9.45312L18.6667 9.85598L18.2344 9.86083Z" fill="#2C4897"/>
<path d="M18.1992 9.7437L18.5296 9.46472L19.8864 8.82812L18.6137 9.61875L18.1992 9.7437Z" fill="#2C4897"/>
<path d="M18.1445 9.65167L18.3806 9.2892L19.4954 8.28906L18.5057 9.41254L18.1445 9.65167Z" fill="#2C4897"/>
<path d="M18.0391 9.58557L18.1862 9.17893L19.0466 7.95312L18.3356 9.27158L18.0391 9.58557Z" fill="#2C4897"/>
<path d="M17.9375 9.53886L17.9703 9.10746L18.4679 7.69531L18.1391 9.15647L17.9375 9.53886Z" fill="#2C4897"/>
<path d="M17.3883 10.0013L16.9651 9.91406L15.4688 10.0013L16.9651 10.0886L17.3883 10.0013Z" fill="#2C4897"/>
<path d="M17.3876 9.86083L16.9919 9.68525L15.5117 9.45312L16.9547 9.85598L17.3876 9.86083Z" fill="#2C4897"/>
<path d="M17.426 9.7437L17.0951 9.46472L15.7383 8.82812L17.0115 9.61875L17.426 9.7437Z" fill="#2C4897"/>
<path d="M17.4837 9.65167L17.2476 9.2892L16.1328 8.28906L17.1231 9.41254L17.4837 9.65167Z" fill="#2C4897"/>
<path d="M17.5861 9.57775L17.4379 9.17112L16.5781 7.94531L17.2891 9.26376L17.5861 9.57775Z" fill="#2C4897"/>
<path d="M17.6896 9.53886L17.6578 9.10746L17.1602 7.69531L17.4885 9.15647L17.6896 9.53886Z" fill="#2C4897"/>
<path d="M17.8145 10.4922L17.9023 10.9155L17.8145 12.4106L17.7266 10.9155L17.8145 10.4922Z" fill="#2C4897"/>
<path d="M17.3876 10.1406L16.9919 10.3157L15.5117 10.5478L16.9547 10.1449L17.3876 10.1406Z" fill="#2C4897"/>
<path d="M17.426 10.2578L17.0951 10.5368L15.7383 11.174L17.0115 10.3828L17.426 10.2578Z" fill="#2C4897"/>
<path d="M17.4837 10.3438L17.2476 10.7062L16.1328 11.7063L17.1231 10.5823L17.4837 10.3438Z" fill="#2C4897"/>
<path d="M17.5861 10.4219L17.4379 10.8279L16.5781 12.0543L17.2891 10.7364L17.5861 10.4219Z" fill="#2C4897"/>
<path d="M17.6896 10.4609L17.6578 10.8923L17.1602 12.3045L17.4885 10.8439L17.6896 10.4609Z" fill="#2C4897"/>
<path d="M18.2344 10.1406L18.629 10.3157L20.1103 10.5478L18.6667 10.1449L18.2344 10.1406Z" fill="#2C4897"/>
<path d="M18.1992 10.2578L18.5296 10.5368L19.8864 11.174L18.6137 10.3828L18.1992 10.2578Z" fill="#2C4897"/>
<path d="M18.1445 10.3438L18.3806 10.7062L19.4954 11.7063L18.5057 10.5823L18.1445 10.3438Z" fill="#2C4897"/>
<path d="M18.0391 10.4219L18.1862 10.8279L19.0466 12.0543L18.3356 10.7364L18.0391 10.4219Z" fill="#2C4897"/>
<path d="M17.9375 10.4609L17.9703 10.8923L18.4679 12.3045L18.1391 10.8439L17.9375 10.4609Z" fill="#2C4897"/>
<path d="M18.3092 9.99818C18.3092 10.2739 18.086 10.4958 17.8106 10.4958C17.5357 10.4958 17.3125 10.2739 17.3125 9.99818C17.3125 9.72351 17.5357 9.5 17.8106 9.5C18.086 9.5 18.3092 9.72351 18.3092 9.99818Z" fill="#2C4897"/>
<path d="M17.8116 7.4375C16.3993 7.4375 15.25 8.58575 15.25 9.99737C15.25 11.4085 16.3993 12.5573 17.8116 12.5573C19.225 12.5573 20.3737 11.409 20.3737 9.99737C20.3732 8.58575 19.225 7.4375 17.8116 7.4375ZM19.4153 11.7736C19.3862 11.7332 19.3393 11.7063 19.2854 11.7063C19.1964 11.7063 19.1242 11.7779 19.1242 11.8679C19.1242 11.9072 19.1388 11.9433 19.1635 11.9718C19.0859 12.0246 19.0061 12.0725 18.9221 12.1167C18.8973 12.0607 18.8412 12.0219 18.776 12.0219C18.6865 12.0219 18.6143 12.0941 18.6143 12.183C18.6143 12.2061 18.6191 12.2271 18.6277 12.2465C18.5248 12.2847 18.418 12.3149 18.3086 12.3381C18.2951 12.2616 18.2299 12.204 18.1496 12.204C18.0601 12.204 17.9879 12.2761 17.9879 12.3655C17.9879 12.3715 17.9889 12.3768 17.99 12.3828C17.9313 12.3865 17.8709 12.3898 17.8105 12.3898C17.7528 12.3898 17.6952 12.3871 17.6386 12.3838C17.6391 12.3768 17.6402 12.3715 17.6402 12.3655C17.6402 12.2761 17.5679 12.204 17.479 12.204C17.3987 12.204 17.3324 12.2627 17.3205 12.3391C17.2106 12.3171 17.1038 12.2858 17.0003 12.2492C17.0089 12.2287 17.0149 12.2067 17.0149 12.183C17.0149 12.0941 16.9426 12.0219 16.8537 12.0219C16.7874 12.0219 16.7303 12.0623 16.7055 12.1194C16.6219 12.0763 16.541 12.0284 16.464 11.9751C16.4898 11.9465 16.5055 11.9094 16.5055 11.8684C16.5055 11.779 16.4332 11.7069 16.3443 11.7069C16.2888 11.7069 16.2403 11.7343 16.2111 11.7769C16.1421 11.7149 16.0769 11.6487 16.016 11.5792C16.0521 11.5496 16.0764 11.5049 16.0764 11.4537C16.0764 11.3654 16.0042 11.2927 15.9157 11.2927C15.8796 11.2927 15.8467 11.3051 15.8193 11.325C15.7583 11.2324 15.7017 11.136 15.6538 11.0347C15.7125 11.0105 15.754 10.9534 15.754 10.8855C15.754 10.7961 15.6818 10.7245 15.5929 10.7245C15.5718 10.7245 15.5524 10.7288 15.5341 10.7353C15.5044 10.6453 15.4813 10.5527 15.4624 10.4589C15.5368 10.4444 15.5929 10.3792 15.5929 10.3006C15.5929 10.2117 15.5206 10.1396 15.4322 10.1396C15.4284 10.1396 15.4257 10.1401 15.422 10.1401C15.4193 10.0927 15.4177 10.0453 15.4177 9.99683C15.4177 9.96398 15.4187 9.93112 15.4204 9.89881C15.4241 9.89881 15.4279 9.89989 15.4322 9.89989C15.5206 9.89989 15.5929 9.82772 15.5929 9.73939C15.5929 9.65753 15.533 9.59128 15.4538 9.58051C15.4732 9.47441 15.498 9.371 15.5303 9.27083C15.5492 9.27837 15.5708 9.28267 15.5929 9.28267C15.6818 9.28267 15.754 9.21051 15.754 9.12164C15.754 9.05216 15.7104 8.99346 15.6484 8.97084C15.6996 8.86366 15.7589 8.76025 15.8246 8.66223C15.8505 8.68 15.8823 8.69024 15.9163 8.69024C16.0047 8.69024 16.0769 8.61807 16.0769 8.5292C16.0769 8.48127 16.0554 8.43872 16.0214 8.4091C16.0839 8.33854 16.1513 8.27176 16.2214 8.20875C16.2516 8.24375 16.2958 8.26745 16.3448 8.26745C16.4338 8.26745 16.506 8.19528 16.506 8.10588C16.506 8.07087 16.4947 8.03856 16.4753 8.01217C16.5508 7.961 16.6284 7.91522 16.7092 7.87375C16.7356 7.92761 16.7906 7.96477 16.8542 7.96477C16.9432 7.96477 17.0154 7.8926 17.0154 7.8032C17.0154 7.78219 17.0111 7.7628 17.0041 7.74449C17.1065 7.70787 17.2116 7.67825 17.32 7.65563C17.3265 7.73803 17.3954 7.8032 17.4795 7.8032C17.5679 7.8032 17.6407 7.73103 17.6407 7.64324C17.6407 7.63247 17.6396 7.6217 17.638 7.612C17.6952 7.60715 17.7528 7.605 17.8111 7.605C17.872 7.605 17.9323 7.60769 17.9916 7.612C17.9895 7.62224 17.9884 7.63247 17.9884 7.64324C17.9884 7.73157 18.0606 7.8032 18.1501 7.8032C18.2342 7.8032 18.3021 7.73857 18.3091 7.6567C18.418 7.6804 18.5237 7.71002 18.625 7.74719C18.6186 7.76496 18.6143 7.78381 18.6143 7.8032C18.6143 7.8926 18.6865 7.96477 18.776 7.96477C18.838 7.96477 18.8924 7.92922 18.9188 7.87644C18.9991 7.91845 19.0773 7.96423 19.1528 8.01486C19.1344 8.04125 19.1242 8.07249 19.1242 8.10642C19.1242 8.19582 19.1964 8.26799 19.2854 8.26799C19.3333 8.26799 19.3759 8.24645 19.4056 8.21306C19.4713 8.27176 19.5339 8.33424 19.5926 8.3994C19.5522 8.42903 19.5253 8.47642 19.5253 8.52974C19.5253 8.61861 19.5964 8.69078 19.6864 8.69078C19.7269 8.69078 19.7624 8.6757 19.7905 8.652C19.86 8.75325 19.922 8.86151 19.9754 8.97299C19.9166 8.99723 19.8751 9.05486 19.8751 9.12164C19.8751 9.21051 19.9473 9.28267 20.0368 9.28267C20.0573 9.28267 20.0756 9.2789 20.0934 9.2719C20.1247 9.37154 20.1495 9.47279 20.1683 9.57782C20.1646 9.57782 20.1603 9.57674 20.1559 9.57674C20.0665 9.57674 19.9948 9.64891 19.9948 9.73777C19.9948 9.82718 20.0665 9.89881 20.1559 9.89881C20.1721 9.89881 20.1878 9.89612 20.2023 9.89073C20.2045 9.92628 20.205 9.96182 20.205 9.99737C20.205 10.0475 20.2028 10.097 20.1996 10.1471C20.1856 10.1428 20.171 10.1401 20.1554 10.1401C20.0659 10.1401 19.9942 10.2123 19.9942 10.3011C19.9942 10.3895 20.0659 10.4622 20.1554 10.4622L20.1597 10.4616C20.1414 10.5543 20.1171 10.6453 20.0891 10.7342C20.0724 10.7283 20.0546 10.725 20.0363 10.725C19.9468 10.725 19.8746 10.7967 19.8746 10.8861C19.8746 10.9512 19.9139 11.0072 19.9705 11.0325C19.922 11.1322 19.8676 11.2281 19.8066 11.3191C19.7802 11.3008 19.7484 11.29 19.7145 11.29C19.625 11.29 19.5527 11.3616 19.5527 11.451C19.5527 11.5006 19.5759 11.5442 19.6115 11.5744C19.55 11.6438 19.4848 11.7106 19.4153 11.7736Z" fill="#2C4897"/>
</g>
<defs>
<clipPath id="clip0_374_540">
<rect width="36" height="19" fill="white" transform="translate(0 0.5)"/>
</clipPath>
</defs>
</svg>
