<svg width="56" height="56" viewBox="0 0 56 56" fill="none" xmlns="http://www.w3.org/2000/svg">
<path d="M28 56C43.464 56 56 43.464 56 28C56 12.536 43.464 0 28 0C12.536 0 0 12.536 0 28C0 43.464 12.536 56 28 56Z" fill="#0099FF" fill-opacity="0.2"/>
<mask id="mask0_314_78" style="mask-type:luminance" maskUnits="userSpaceOnUse" x="14" y="14" width="28" height="28">
<path d="M41.2646 14.7363H14.7383V41.2626H41.2646V14.7363Z" fill="white"/>
</mask>
<g mask="url(#mask0_314_78)">
<g clip-path="url(#clip0_314_78)">
<path d="M40.0453 15.9483C39.7067 15.6106 39.2974 15.3521 38.8469 15.1915C38.3964 15.031 37.9158 14.9724 37.4399 15.0199C34.4142 15.3124 24.2384 16.5723 20.3081 20.4983C18.4293 22.3822 17.3152 24.8954 17.181 27.5526C17.0467 30.2098 17.9018 32.8225 19.5812 34.8861L31.5628 22.9044C31.7671 22.7071 32.0408 22.5979 32.3248 22.6004C32.6089 22.6028 32.8806 22.7168 33.0815 22.9176C33.2823 23.1185 33.3962 23.3902 33.3987 23.6742C33.4012 23.9583 33.292 24.2319 33.0947 24.4363L21.1173 36.4179C23.1802 38.0983 25.7927 38.9544 28.45 38.8209C31.1073 38.6875 33.6209 37.5739 35.5051 35.6953C39.4874 31.7119 40.7051 21.5676 40.9857 18.5538C41.0315 18.077 40.971 17.5959 40.8084 17.1454C40.6457 16.6948 40.3851 16.286 40.0453 15.9483ZM20.3081 35.6953C20.5666 35.9532 20.8349 36.1955 21.113 36.4223L16.8447 40.6906C16.6398 40.8874 16.3658 40.9959 16.0817 40.9927C15.7976 40.9894 15.5262 40.8747 15.3259 40.6733C15.1256 40.4718 15.0124 40.1997 15.0108 39.9156C15.0091 39.6315 15.1192 39.3582 15.3172 39.1544L19.5855 34.8861C19.8123 35.1634 20.0531 35.4332 20.3081 35.6953Z" fill="#0099FF"/>
</g>
</g>
<defs>
<clipPath id="clip0_314_78">
<rect width="26" height="26" fill="white" transform="translate(15 15.0039)"/>
</clipPath>
</defs>
</svg>
