<svg width="56" height="56" viewBox="0 0 56 56" fill="none" xmlns="http://www.w3.org/2000/svg">
<path d="M28 56C43.464 56 56 43.464 56 28C56 12.536 43.464 0 28 0C12.536 0 0 12.536 0 28C0 43.464 12.536 56 28 56Z" fill="#C8FBF1"/>
<mask id="mask0_314_47" style="mask-type:luminance" maskUnits="userSpaceOnUse" x="14" y="14" width="28" height="28">
<path d="M41.2646 14.7363H14.7383V41.2626H41.2646V14.7363Z" fill="white"/>
</mask>
<g mask="url(#mask0_314_47)">
<g clip-path="url(#clip0_314_47)">
<path d="M40.2633 19.4456C39.6458 18.6872 38.725 18.2539 37.75 18.2539H22.8433L22.8 17.8747C22.605 16.2389 21.2183 15.0039 19.5717 15.0039H18.25C17.6542 15.0039 17.1667 15.4914 17.1667 16.0872C17.1667 16.6831 17.6542 17.1706 18.25 17.1706H19.5717C20.1242 17.1706 20.5792 17.5822 20.6442 18.1239L22.1392 30.7989C22.4642 33.5289 24.7717 35.5872 27.5233 35.5872H36.6667C37.2625 35.5872 37.75 35.0997 37.75 34.5039C37.75 33.9081 37.2625 33.4206 36.6667 33.4206H27.5233C26.1258 33.4206 24.9233 32.5214 24.4683 31.2539H34.6733C37.2517 31.2539 39.4833 29.4231 39.9817 26.8989L40.935 22.1431C41.13 21.1897 40.8808 20.2039 40.2633 19.4456ZM26.9167 38.8372C26.9167 40.0289 25.9417 41.0039 24.75 41.0039C23.5583 41.0039 22.5833 40.0289 22.5833 38.8372C22.5833 37.6456 23.5583 36.6706 24.75 36.6706C25.9417 36.6706 26.9167 37.6456 26.9167 38.8372ZM36.6667 38.8372C36.6667 40.0289 35.6917 41.0039 34.5 41.0039C33.3083 41.0039 32.3333 40.0289 32.3333 38.8372C32.3333 37.6456 33.3083 36.6706 34.5 36.6706C35.6917 36.6706 36.6667 37.6456 36.6667 38.8372ZM15 21.5039C15 20.9081 15.4875 20.4206 16.0833 20.4206H17.7517C18.3475 20.4206 18.835 20.9081 18.835 21.5039C18.835 22.0997 18.3475 22.5872 17.7517 22.5872H16.0833C15.4875 22.5872 15 22.0997 15 21.5039ZM15 25.8372C15 25.2414 15.4875 24.7539 16.0833 24.7539H18.25C18.8458 24.7539 19.3333 25.2414 19.3333 25.8372C19.3333 26.4331 18.8458 26.9206 18.25 26.9206H16.0833C15.4875 26.9206 15 26.4331 15 25.8372ZM20.4167 30.1706C20.4167 30.7664 19.9292 31.2539 19.3333 31.2539H16.0833C15.4875 31.2539 15 30.7664 15 30.1706C15 29.5747 15.4875 29.0872 16.0833 29.0872H19.3333C19.9292 29.0872 20.4167 29.5747 20.4167 30.1706Z" fill="#37C99E"/>
</g>
</g>
<defs>
<clipPath id="clip0_314_47">
<rect width="26" height="26" fill="white" transform="translate(15 15.0039)"/>
</clipPath>
</defs>
</svg>
