<svg width="56" height="56" viewBox="0 0 56 56" fill="none" xmlns="http://www.w3.org/2000/svg">
<path d="M28 56C43.464 56 56 43.464 56 28C56 12.536 43.464 0 28 0C12.536 0 0 12.536 0 28C0 43.464 12.536 56 28 56Z" fill="#0099FF" fill-opacity="0.2"/>
<mask id="mask0_314_140" style="mask-type:luminance" maskUnits="userSpaceOnUse" x="14" y="14" width="28" height="28">
<path d="M41.2646 14.7363H14.7383V41.2626H41.2646V14.7363Z" fill="white"/>
</mask>
<g mask="url(#mask0_314_140)">
<g clip-path="url(#clip0_314_140)">
<path d="M32.3333 15.0039H23.6667C22.2306 15.0056 20.8539 15.5769 19.8384 16.5923C18.823 17.6078 18.2517 18.9845 18.25 20.4206V35.5872C18.2517 37.0233 18.823 38.4001 19.8384 39.4155C20.8539 40.431 22.2306 41.0022 23.6667 41.0039H32.3333C33.7694 41.0022 35.1461 40.431 36.1616 39.4155C37.177 38.4001 37.7483 37.0233 37.75 35.5872V20.4206C37.7483 18.9845 37.177 17.6078 36.1616 16.5923C35.1461 15.5769 33.7694 15.0056 32.3333 15.0039ZM24.75 23.6706C24.75 22.8086 25.0924 21.982 25.7019 21.3725C26.3114 20.763 27.138 20.4206 28 20.4206C28.862 20.4206 29.6886 20.763 30.2981 21.3725C30.9076 21.982 31.25 22.8086 31.25 23.6706V28.0039C31.25 28.2912 31.1359 28.5668 30.9327 28.7699C30.7295 28.9731 30.454 29.0872 30.1667 29.0872C29.8793 29.0872 29.6038 28.9731 29.4006 28.7699C29.1975 28.5668 29.0833 28.2912 29.0833 28.0039V26.9206H26.9167V28.0039C26.9167 28.2912 26.8025 28.5668 26.5994 28.7699C26.3962 28.9731 26.1207 29.0872 25.8333 29.0872C25.546 29.0872 25.2705 28.9731 25.0673 28.7699C24.8641 28.5668 24.75 28.2912 24.75 28.0039V23.6706ZM28 38.8372C27.7857 38.8372 27.5763 38.7737 27.3981 38.6547C27.22 38.5356 27.0811 38.3664 26.9991 38.1685C26.9171 37.9705 26.8957 37.7527 26.9375 37.5426C26.9793 37.3324 27.0825 37.1394 27.234 36.9879C27.3855 36.8364 27.5785 36.7332 27.7887 36.6914C27.9988 36.6496 28.2166 36.671 28.4146 36.753C28.6125 36.835 28.7817 36.9739 28.9008 37.152C29.0198 37.3302 29.0833 37.5396 29.0833 37.7539C29.0833 38.0412 28.9692 38.3168 28.766 38.5199C28.5629 38.7231 28.2873 38.8372 28 38.8372ZM31.25 33.4206H24.75C24.4627 33.4206 24.1871 33.3064 23.984 33.1033C23.7808 32.9001 23.6667 32.6246 23.6667 32.3372C23.6667 32.0499 23.7808 31.7744 23.984 31.5712C24.1871 31.368 24.4627 31.2539 24.75 31.2539H31.25C31.5373 31.2539 31.8129 31.368 32.016 31.5712C32.2192 31.7744 32.3333 32.0499 32.3333 32.3372C32.3333 32.6246 32.2192 32.9001 32.016 33.1033C31.8129 33.3064 31.5373 33.4206 31.25 33.4206ZM26.9167 24.7539V23.6706C26.9167 23.3833 27.0308 23.1077 27.234 22.9045C27.4371 22.7014 27.7127 22.5872 28 22.5872C28.2873 22.5872 28.5629 22.7014 28.766 22.9045C28.9692 23.1077 29.0833 23.3833 29.0833 23.6706V24.7539H26.9167Z" fill="#0099FF"/>
</g>
</g>
<defs>
<clipPath id="clip0_314_140">
<rect width="26" height="26" fill="white" transform="translate(15 15.0039)"/>
</clipPath>
</defs>
</svg>
