<svg width="56" height="56" viewBox="0 0 56 56" fill="none" xmlns="http://www.w3.org/2000/svg">
<path d="M28 56C43.464 56 56 43.464 56 28C56 12.536 43.464 0 28 0C12.536 0 0 12.536 0 28C0 43.464 12.536 56 28 56Z" fill="#FFA735" fill-opacity="0.1"/>
<mask id="mask0_314_103" style="mask-type:luminance" maskUnits="userSpaceOnUse" x="14" y="14" width="28" height="28">
<path d="M41.2646 14.7363H14.7383V41.2626H41.2646V14.7363Z" fill="white"/>
</mask>
<g mask="url(#mask0_314_103)">
</g>
<g clip-path="url(#clip0_314_103)">
<path d="M27.1771 41.002C26.8221 41.0007 26.4717 40.9224 26.1501 40.7723C25.6247 40.5384 25.2027 40.1207 24.9633 39.5977C24.724 39.0748 24.6837 38.4824 24.8501 37.9318L26.5412 32.3353H22.5567C22.049 32.336 21.5483 32.2176 21.0946 31.9899C20.6409 31.7621 20.2469 31.4312 19.9441 31.0238C19.6413 30.6163 19.4382 30.1436 19.351 29.6435C19.2638 29.1434 19.295 28.6298 19.4421 28.1439L22.7181 17.3106C22.9178 16.6405 23.3294 16.0533 23.8912 15.637C24.4529 15.2208 25.1346 14.998 25.8337 15.002H29.8345C30.2892 15.0024 30.7371 15.1129 31.1399 15.324C31.5426 15.5351 31.8883 15.8406 32.1473 16.2144C32.4063 16.5881 32.5709 17.019 32.6272 17.4703C32.6834 17.9215 32.6296 18.3797 32.4702 18.8056L30.647 23.6687H33.4171C34.0075 23.6686 34.5869 23.8295 35.0928 24.1339C35.5988 24.4383 36.0123 24.8748 36.2888 25.3965C36.5654 25.9182 36.6946 26.5054 36.6625 27.095C36.6305 27.6846 36.4384 28.2543 36.107 28.743L29.1737 39.9013C28.9593 40.237 28.6643 40.5136 28.3155 40.7059C27.9667 40.8982 27.5753 41 27.1771 41.002Z" fill="#FFA735"/>
</g>
<defs>
<clipPath id="clip0_314_103">
<rect width="26" height="26" fill="white" transform="translate(15 15.002)"/>
</clipPath>
</defs>
</svg>
