<svg width="56" height="56" viewBox="0 0 56 56" fill="none" xmlns="http://www.w3.org/2000/svg">
<path d="M28 56C43.464 56 56 43.464 56 28C56 12.536 43.464 0 28 0C12.536 0 0 12.536 0 28C0 43.464 12.536 56 28 56Z" fill="#0099FF" fill-opacity="0.2"/>
<mask id="mask0_314_166" style="mask-type:luminance" maskUnits="userSpaceOnUse" x="14" y="14" width="28" height="28">
<path d="M41.2646 14.7363H14.7383V41.2626H41.2646V14.7363Z" fill="white"/>
</mask>
<g mask="url(#mask0_314_166)">
<g clip-path="url(#clip0_314_166)">
<path d="M29.211 15.0676C32.2269 15.3455 35.0504 16.67 37.1919 18.8116C39.3335 20.9532 40.6581 23.7767 40.9359 26.7925C39.3411 27.0301 37.7128 26.891 36.1814 26.3865C34.6499 25.882 33.2579 25.026 32.1165 23.887C30.9773 22.7459 30.1211 21.3538 29.6165 19.8223C29.112 18.2908 28.9731 16.6624 29.211 15.0676ZM39.4312 29.087C37.6604 29.0878 35.9097 28.712 34.2952 27.9846C32.6807 27.2572 31.2393 26.1949 30.0667 24.868C28.8941 23.541 28.017 21.98 27.4937 20.2883C26.9704 18.5966 26.8128 16.8129 27.0314 15.0557C23.9244 15.2781 21.0019 16.6142 18.801 18.8186C16.6001 21.0229 15.2685 23.9473 15.0508 27.0547C16.9371 26.7928 18.8585 26.9718 20.664 27.5775C22.4696 28.1833 24.1101 29.1994 25.4568 30.5459C26.8035 31.8925 27.8197 33.533 28.4256 35.3385C29.0315 37.1439 29.2106 39.0653 28.9489 40.9517C32.054 40.7348 34.9768 39.4053 37.1807 37.2071C39.3846 35.009 40.7218 32.0897 40.9468 28.9852C40.4441 29.0497 39.938 29.0837 39.4312 29.087ZM23.9254 32.0781C22.7801 30.9351 21.3792 30.081 19.8385 29.5866C18.2977 29.0921 16.6615 28.9713 15.0649 29.2343C15.348 32.2416 16.6716 35.0559 18.8074 37.1917C20.9433 39.3276 23.7576 40.6512 26.7649 40.9343C27.0281 39.3387 26.9079 37.7034 26.4142 36.1635C25.9205 34.6235 25.0674 33.2231 23.9254 32.0781Z" fill="#0099FF"/>
</g>
</g>
<defs>
<clipPath id="clip0_314_166">
<rect width="26" height="26" fill="white" transform="translate(15 15.0039)"/>
</clipPath>
</defs>
</svg>
