<svg width="56" height="56" viewBox="0 0 56 56" fill="none" xmlns="http://www.w3.org/2000/svg">
<path d="M28 56C43.464 56 56 43.464 56 28C56 12.536 43.464 0 28 0C12.536 0 0 12.536 0 28C0 43.464 12.536 56 28 56Z" fill="#FFA735" fill-opacity="0.1"/>
<g clip-path="url(#clip0_314_69)">
<path d="M15.315 24.2644C15.0816 23.8314 14.9735 23.3419 15.0027 22.8509C15.032 22.3599 15.1976 21.8867 15.4808 21.4845C15.9437 20.8054 16.5635 20.248 17.2878 19.8595L25.4139 15.6302C26.2126 15.2149 27.0996 14.998 27.9998 14.998C28.9 14.998 29.787 15.2149 30.5857 15.6302L38.7107 19.8628C39.435 20.2512 40.0548 20.8087 40.5177 21.4878C40.8009 21.89 40.9665 22.3631 40.9958 22.8541C41.025 23.3452 40.9169 23.8346 40.6835 24.2676C40.4321 24.743 40.0552 25.1403 39.5937 25.4164C39.1322 25.6924 38.6039 25.8365 38.0661 25.833H17.9335C17.3952 25.8364 16.8664 25.6919 16.4046 25.4153C15.9429 25.1386 15.566 24.7405 15.315 24.2644ZM39.9165 38.833C39.9165 38.2584 39.6882 37.7073 39.2819 37.301C38.8755 36.8946 38.3244 36.6664 37.7498 36.6664V27.9997H35.5831V36.6664H32.3331V27.9997H30.1665V36.6664H25.8331V27.9997H23.6665V36.6664H20.4165V27.9997H18.2498V36.6664C17.6752 36.6664 17.1241 36.8946 16.7177 37.301C16.3114 37.7073 16.0831 38.2584 16.0831 38.833C15.7958 38.833 15.5203 38.9472 15.3171 39.1503C15.1139 39.3535 14.9998 39.629 14.9998 39.9164C14.9998 40.2037 15.1139 40.4792 15.3171 40.6824C15.5203 40.8856 15.7958 40.9997 16.0831 40.9997H39.9165C40.2038 40.9997 40.4793 40.8856 40.6825 40.6824C40.8857 40.4792 40.9998 40.2037 40.9998 39.9164C40.9998 39.629 40.8857 39.3535 40.6825 39.1503C40.4793 38.9472 40.2038 38.833 39.9165 38.833Z" fill="#FFA735"/>
</g>
<defs>
<clipPath id="clip0_314_69">
<rect width="26" height="26" fill="white" transform="translate(15 15)"/>
</clipPath>
</defs>
</svg>
