<svg width="56" height="56" viewBox="0 0 56 56" fill="none" xmlns="http://www.w3.org/2000/svg">
<path d="M28 56C43.464 56 56 43.464 56 28C56 12.536 43.464 0 28 0C12.536 0 0 12.536 0 28C0 43.464 12.536 56 28 56Z" fill="#C8FBF1"/>
<mask id="mask0_314_127" style="mask-type:luminance" maskUnits="userSpaceOnUse" x="14" y="14" width="28" height="28">
<path d="M41.2646 14.7363H14.7383V41.2626H41.2646V14.7363Z" fill="white"/>
</mask>
<g mask="url(#mask0_314_127)">
<g clip-path="url(#clip0_314_127)">
<path d="M30.1667 39.9206C30.1667 40.5164 29.6792 41.0039 29.0833 41.0039H16.0833C15.4875 41.0039 15 40.5164 15 39.9206C15 35.7281 18.3908 32.3372 22.5833 32.3372C26.7758 32.3372 30.1667 35.7281 30.1667 39.9206ZM26.9167 25.8372C26.9167 23.4431 24.9775 21.5039 22.5833 21.5039C20.1892 21.5039 18.25 23.4431 18.25 25.8372C18.25 28.2314 20.1892 30.1706 22.5833 30.1706C24.9775 30.1706 26.9167 28.2314 26.9167 25.8372ZM35.5833 15.0039H24.75C21.8358 15.0039 19.4742 17.3222 19.355 20.2039C20.3083 19.6514 21.4025 19.3372 22.5833 19.3372C25.5517 19.3372 28.0433 21.3306 28.8233 24.0497L31.25 26.4764L35.1392 22.5872H33.4167C32.8208 22.5872 32.3333 22.0997 32.3333 21.5039C32.3333 20.9081 32.8208 20.4206 33.4167 20.4206H36.6667C37.8583 20.4206 38.8333 21.3956 38.8333 22.5872V25.8372C38.8333 26.4331 38.3458 26.9206 37.75 26.9206C37.1542 26.9206 36.6667 26.4331 36.6667 25.8372V24.1147L32.7775 28.0039C31.9325 28.8489 30.5567 28.8489 29.7117 28.0039L28.9317 27.2239C28.9317 27.2239 28.9317 27.2347 28.9317 27.2456C28.5958 28.7731 27.7183 30.0947 26.5158 31.0047C28.2167 31.7522 29.6575 32.9764 30.6867 34.5039H35.5942C38.5842 34.5039 41.0108 32.0772 41.0108 29.0872V20.4206C41.0108 17.4306 38.5842 15.0039 35.5942 15.0039H35.5833Z" fill="#37C99E"/>
</g>
</g>
<defs>
<clipPath id="clip0_314_127">
<rect width="26" height="26" fill="white" transform="translate(15 15.0039)"/>
</clipPath>
</defs>
</svg>
