<svg width="56" height="56" viewBox="0 0 56 56" fill="none" xmlns="http://www.w3.org/2000/svg">
<path d="M28 56C43.464 56 56 43.464 56 28C56 12.536 43.464 0 28 0C12.536 0 0 12.536 0 28C0 43.464 12.536 56 28 56Z" fill="#FFA735" fill-opacity="0.1"/>
<mask id="mask0_314_153" style="mask-type:luminance" maskUnits="userSpaceOnUse" x="14" y="14" width="28" height="28">
<path d="M41.2646 14.7363H14.7383V41.2626H41.2646V14.7363Z" fill="white"/>
</mask>
<g mask="url(#mask0_314_153)">
<g clip-path="url(#clip0_314_153)">
<path d="M35.5833 20.4202H32.3333V19.3369C32.3333 18.475 31.9909 17.6483 31.3814 17.0388C30.7719 16.4293 29.9453 16.0869 29.0833 16.0869H26.9167C26.0547 16.0869 25.2281 16.4293 24.6186 17.0388C24.0091 17.6483 23.6667 18.475 23.6667 19.3369V20.4202H20.4167C18.9806 20.422 17.6039 20.9932 16.5884 22.0087C15.573 23.0241 15.0017 24.4009 15 25.8369L15 34.5036C15.0017 35.9396 15.573 37.3164 16.5884 38.3318C17.6039 39.3473 18.9806 39.9185 20.4167 39.9202H35.5833C37.0194 39.9185 38.3961 39.3473 39.4116 38.3318C40.427 37.3164 40.9983 35.9396 41 34.5036V25.8369C40.9983 24.4009 40.427 23.0241 39.4116 22.0087C38.3961 20.9932 37.0194 20.422 35.5833 20.4202ZM25.8333 19.3369C25.8333 19.0496 25.9475 18.774 26.1506 18.5709C26.3538 18.3677 26.6293 18.2536 26.9167 18.2536H29.0833C29.3707 18.2536 29.6462 18.3677 29.8494 18.5709C30.0525 18.774 30.1667 19.0496 30.1667 19.3369V20.4202H25.8333V19.3369ZM31.25 31.2536H29.0833V33.4202C29.0833 33.7076 28.9692 33.9831 28.766 34.1863C28.5629 34.3894 28.2873 34.5036 28 34.5036C27.7127 34.5036 27.4371 34.3894 27.234 34.1863C27.0308 33.9831 26.9167 33.7076 26.9167 33.4202V31.2536H24.75C24.4627 31.2536 24.1871 31.1394 23.984 30.9363C23.7808 30.7331 23.6667 30.4576 23.6667 30.1702C23.6667 29.8829 23.7808 29.6074 23.984 29.4042C24.1871 29.2011 24.4627 29.0869 24.75 29.0869H26.9167V26.9202C26.9167 26.6329 27.0308 26.3574 27.234 26.1542C27.4371 25.9511 27.7127 25.8369 28 25.8369C28.2873 25.8369 28.5629 25.9511 28.766 26.1542C28.9692 26.3574 29.0833 26.6329 29.0833 26.9202V29.0869H31.25C31.5373 29.0869 31.8129 29.2011 32.016 29.4042C32.2192 29.6074 32.3333 29.8829 32.3333 30.1702C32.3333 30.4576 32.2192 30.7331 32.016 30.9363C31.8129 31.1394 31.5373 31.2536 31.25 31.2536Z" fill="#FFA735"/>
</g>
</g>
<defs>
<clipPath id="clip0_314_153">
<rect width="26" height="26" fill="white" transform="translate(15 15.0039)"/>
</clipPath>
</defs>
</svg>
