<svg width="56" height="56" viewBox="0 0 56 56" fill="none" xmlns="http://www.w3.org/2000/svg">
<path d="M28 56C43.464 56 56 43.464 56 28C56 12.536 43.464 0 28 0C12.536 0 0 12.536 0 28C0 43.464 12.536 56 28 56Z" fill="#CCEBFF"/>
<mask id="mask0_314_179" style="mask-type:luminance" maskUnits="userSpaceOnUse" x="14" y="14" width="28" height="28">
<path d="M41.2646 14.7363H14.7383V41.2626H41.2646V14.7363Z" fill="white"/>
</mask>
<g mask="url(#mask0_314_179)">
<g clip-path="url(#clip0_314_179)">
<path d="M40.2612 22.7172C39.8062 22.5006 39.2786 22.5591 38.8388 22.9133L35.5833 26.9206V23.8905C35.5844 23.3857 35.3027 22.935 34.8467 22.7162C34.3917 22.4995 33.8641 22.558 33.4243 22.9122L30.1678 26.9217V23.8916C30.1688 23.3867 29.8872 22.9361 29.4311 22.7172C28.9761 22.5006 28.4485 22.5591 28.0087 22.9133L23.9754 26.9336L21.864 16.7123C21.6506 15.7222 20.759 15.0039 19.7472 15.0039H17.1667C15.9696 15.0039 15 15.9735 15 17.1706V35.5872C15 38.5783 17.4256 41.0039 20.4167 41.0039H35.5833C38.5744 41.0039 41 38.5783 41 35.5872V23.8916C41 23.3867 40.7173 22.9361 40.2612 22.7172ZM25.8333 34.5039C25.8333 35.1019 25.348 35.5872 24.75 35.5872H23.6667C23.0687 35.5872 22.5833 35.1019 22.5833 34.5039V33.4206C22.5833 32.8226 23.0687 32.3372 23.6667 32.3372H24.75C25.348 32.3372 25.8333 32.8226 25.8333 33.4206V34.5039ZM31.25 34.5039C31.25 35.1019 30.7647 35.5872 30.1667 35.5872H29.0833C28.4853 35.5872 28 35.1019 28 34.5039V33.4206C28 32.8226 28.4853 32.3372 29.0833 32.3372H30.1667C30.7647 32.3372 31.25 32.8226 31.25 33.4206V34.5039ZM36.6667 34.5039C36.6667 35.1019 36.1813 35.5872 35.5833 35.5872H34.5C33.902 35.5872 33.4167 35.1019 33.4167 34.5039V33.4206C33.4167 32.8226 33.902 32.3372 34.5 32.3372H35.5833C36.1813 32.3372 36.6667 32.8226 36.6667 33.4206V34.5039Z" fill="#0099FF"/>
</g>
</g>
<defs>
<clipPath id="clip0_314_179">
<rect width="26" height="26" fill="white" transform="translate(15 15.0039)"/>
</clipPath>
</defs>
</svg>
