<svg width="56" height="56" viewBox="0 0 56 56" fill="none" xmlns="http://www.w3.org/2000/svg">
<path d="M28 56C43.464 56 56 43.464 56 28C56 12.536 43.464 0 28 0C12.536 0 0 12.536 0 28C0 43.464 12.536 56 28 56Z" fill="#FFA735" fill-opacity="0.1"/>
<mask id="mask0_314_91" style="mask-type:luminance" maskUnits="userSpaceOnUse" x="14" y="14" width="28" height="28">
<path d="M41.2646 14.7363H14.7383V41.2626H41.2646V14.7363Z" fill="white"/>
</mask>
<g mask="url(#mask0_314_91)">
</g>
<path d="M33.3235 16.085H35.5833C36.2561 16.085 36.8996 16.2085 37.4943 16.4338L31.3432 22.585H26.8235L33.3235 16.085ZM41 22.585V21.5016C41 19.985 40.3728 18.6113 39.3642 17.6276L34.4068 22.585H41ZM26.3988 16.085L19.8078 22.585H23.7598L30.2598 16.085H26.3988ZM16.7225 22.585L23.3135 16.085H20.4167C17.4299 16.085 15 18.5149 15 21.5016V22.585H16.7225ZM41 24.7516V34.5016C41 37.4884 38.5701 39.9183 35.5833 39.9183H20.4167C17.4299 39.9183 15 37.4884 15 34.5016V24.7516H41ZM31.3009 31.4683L26.2808 28.7816C25.6069 28.3775 24.75 28.8629 24.75 29.6483V35.0227C24.75 35.8081 25.6069 36.2935 26.2808 35.8894L31.3009 33.2027C31.9552 32.8105 31.9552 31.8615 31.3009 31.4694V31.4683Z" fill="#FFA735"/>
</svg>
