<svg width="56" height="56" viewBox="0 0 56 56" fill="none" xmlns="http://www.w3.org/2000/svg">
<path d="M28 56C43.464 56 56 43.464 56 28C56 12.536 43.464 0 28 0C12.536 0 0 12.536 0 28C0 43.464 12.536 56 28 56Z" fill="#C8FBF1"/>
<g clip-path="url(#clip0_314_60)">
<path d="M38.8337 25.8333C38.7852 27.8921 38.273 29.9135 37.3352 31.747C36.3973 33.5804 35.058 35.1787 33.417 36.4229V39.9167C33.417 40.204 33.3029 40.4795 33.0997 40.6827C32.8965 40.8859 32.621 41 32.3337 41C32.0463 41 31.7708 40.8859 31.5676 40.6827C31.3645 40.4795 31.2503 40.204 31.2503 39.9167V17.1667C31.2406 16.7596 31.3518 16.3588 31.5699 16.015C31.788 15.6712 32.1032 15.3998 32.4756 15.2351C32.9033 15.0611 33.3725 15.0154 33.8258 15.1037C34.279 15.192 34.6968 15.4105 35.0279 15.7323C37.5405 18.4894 38.9023 22.1037 38.8337 25.8333ZM26.917 15C26.6297 15 26.3541 15.1141 26.151 15.3173C25.9478 15.5205 25.8337 15.796 25.8337 16.0833V22.5833C25.8309 23.2531 25.6212 23.9057 25.2334 24.4518C24.8456 24.9978 24.2985 25.4107 23.667 25.634V16.0833C23.667 15.796 23.5529 15.5205 23.3497 15.3173C23.1465 15.1141 22.871 15 22.5837 15C22.2963 15 22.0208 15.1141 21.8176 15.3173C21.6145 15.5205 21.5003 15.796 21.5003 16.0833V25.634C20.8688 25.4107 20.3218 24.9978 19.9339 24.4518C19.5461 23.9057 19.3364 23.2531 19.3337 22.5833V16.0833C19.3337 15.796 19.2195 15.5205 19.0164 15.3173C18.8132 15.1141 18.5376 15 18.2503 15C17.963 15 17.6875 15.1141 17.4843 15.3173C17.2811 15.5205 17.167 15.796 17.167 16.0833V22.5833C17.1686 23.8316 17.6004 25.0411 18.3898 26.008C19.1791 26.975 20.2777 27.6402 21.5003 27.8917V39.9167C21.5003 40.204 21.6145 40.4795 21.8176 40.6827C22.0208 40.8859 22.2963 41 22.5837 41C22.871 41 23.1465 40.8859 23.3497 40.6827C23.5529 40.4795 23.667 40.204 23.667 39.9167V27.8917C24.8896 27.6402 25.9882 26.975 26.7775 26.008C27.5669 25.0411 27.9987 23.8316 28.0003 22.5833V16.0833C28.0003 15.796 27.8862 15.5205 27.683 15.3173C27.4799 15.1141 27.2043 15 26.917 15Z" fill="#37C99E"/>
</g>
<defs>
<clipPath id="clip0_314_60">
<rect width="26" height="26" fill="white" transform="translate(15 15)"/>
</clipPath>
</defs>
</svg>
