<svg width="56" height="56" viewBox="0 0 56 56" fill="none" xmlns="http://www.w3.org/2000/svg">
<path d="M28 56C43.464 56 56 43.464 56 28C56 12.536 43.464 0 28 0C12.536 0 0 12.536 0 28C0 43.464 12.536 56 28 56Z" fill="#C8FBF1"/>
<mask id="mask0_314_115" style="mask-type:luminance" maskUnits="userSpaceOnUse" x="14" y="14" width="28" height="28">
<path d="M41.2646 14.7363H14.7383V41.2626H41.2646V14.7363Z" fill="white"/>
</mask>
<g mask="url(#mask0_314_115)">
</g>
<g clip-path="url(#clip0_314_115)">
<path d="M31.25 34.5016H16.0833C15.796 34.5016 15.5205 34.3875 15.3173 34.1843C15.1141 33.9812 15 33.7056 15 33.4183V20.96C15 19.667 15.5136 18.4271 16.4279 17.5128C17.3421 16.5986 18.5821 16.085 19.875 16.085H26.375C27.6679 16.085 28.9079 16.5986 29.8221 17.5128C30.7364 18.4271 31.25 19.667 31.25 20.96V34.5016ZM33.4167 29.085V34.5016H36.6667C37.8159 34.5016 38.9181 34.0451 39.7308 33.2324C40.5435 32.4198 41 31.3176 41 30.1683V29.085H33.4167ZM15.0628 36.6683C14.4269 40.9518 20.9908 40.9496 20.3538 36.6683H15.0628ZM21.5628 36.6683C20.9269 40.9518 27.4908 40.9496 26.8538 36.6683H21.5628ZM31.3128 36.6683C30.6769 40.9518 37.2408 40.9496 36.6038 36.6683H31.3128ZM33.4167 26.9183H40.6923C40.6663 26.8316 39.518 23.3812 39.518 23.3812C39.2313 22.518 38.6798 21.7671 37.942 21.2352C37.2041 20.7033 36.3174 20.4175 35.4078 20.4183H33.4167V26.9183Z" fill="#37C99E"/>
</g>
<defs>
<clipPath id="clip0_314_115">
<rect width="26" height="26" fill="white" transform="translate(15 15.002)"/>
</clipPath>
</defs>
</svg>
