<svg width="108" height="108" viewBox="0 0 108 108" fill="none" xmlns="http://www.w3.org/2000/svg">
<path d="M30.6862 68.8408L52.9179 82.0946L76.1458 70.2656L81.6285 35.1868L54.893 24.9427L27.6721 33.4628L30.6862 68.8408Z" fill="#B3B3B3"/>
<path d="M52.9308 79.1154L73.8119 68.4971L78.8749 37.1295L54.7251 27.9375L52.9308 79.1154Z" fill="#A6120D"/>
<path d="M52.9303 79.1152L54.7246 27.9363L30.6185 35.5879L33.1549 67.2222L52.9303 79.1152Z" fill="#DD1B16"/>
<path d="M60.4981 55.4177L53.6598 58.328L46.5685 58.0793L42.9428 66.3002L36.7385 66.1976L54.6601 29.7958L60.4981 55.4177ZM59.9033 53.8109L54.2889 41.6558L48.9288 53.2204L53.8325 53.3923L59.9033 53.8109Z" fill="#F2F2F2"/>
<path d="M59.4919 53.599L53.8447 53.401L53.6596 58.3196L61.468 58.6009L64.8211 67.1826L70.7499 67.5005L54.6597 29.7949L54.2885 41.6549L59.4919 53.599Z" fill="#B3B3B3"/>
</svg>
