<svg width="108" height="108" viewBox="0 0 108 108" fill="none" xmlns="http://www.w3.org/2000/svg">
<g clip-path="url(#clip0_490_695)">
<path d="M23.6045 31.123C23.4574 26.897 26.75 23 31.2005 23H76.8051C81.2557 23 84.5483 26.897 84.4011 31.123C84.2597 35.1825 84.4433 40.4411 85.7667 44.7288C87.0944 49.0298 89.3332 51.7483 93 52.0977V56.0586C89.3332 56.4079 87.0944 59.1265 85.7667 63.4275C84.4433 67.7152 84.2597 72.9738 84.4011 77.0334C84.5483 81.2593 81.2557 85.1562 76.8051 85.1562H31.2005C26.75 85.1562 23.4574 81.2593 23.6047 77.0334C23.7459 72.9738 23.5623 67.7152 22.2388 63.4275C20.9112 59.1265 18.6669 56.4079 15 56.0586V52.0977C18.6668 51.7483 20.9112 49.0298 22.2388 44.7288C23.5623 40.4411 23.7459 35.1825 23.6045 31.123Z" fill="url(#paint0_linear_490_695)"/>
<g filter="url(#filter0_d_490_695)">
<path d="M55.6914 70.6016C62.8968 70.6016 67.2388 67.0736 67.2388 61.2545C67.2388 56.8559 64.1407 53.6714 59.5405 53.1673V52.9841C62.9203 52.4343 65.5724 49.2957 65.5724 45.7906C65.5724 40.7963 61.6295 37.543 55.621 37.543H42.1021V70.6016H55.6914ZM47.3594 41.7355H54.3537C58.1559 41.7355 60.3151 43.4307 60.3151 46.5006C60.3151 49.7768 57.8038 51.6095 53.2506 51.6095H47.3594V41.7355ZM47.3594 66.4092V55.5271H54.3066C59.2823 55.5271 61.8641 57.3598 61.8641 60.9338C61.8641 64.5077 59.3528 66.4092 54.6118 66.4092H47.3594Z" fill="url(#paint1_linear_490_695)"/>
<path d="M55.6914 70.6016C62.8968 70.6016 67.2388 67.0736 67.2388 61.2545C67.2388 56.8559 64.1407 53.6714 59.5405 53.1673V52.9841C62.9203 52.4343 65.5724 49.2957 65.5724 45.7906C65.5724 40.7963 61.6295 37.543 55.621 37.543H42.1021V70.6016H55.6914ZM47.3594 41.7355H54.3537C58.1559 41.7355 60.3151 43.4307 60.3151 46.5006C60.3151 49.7768 57.8038 51.6095 53.2506 51.6095H47.3594V41.7355ZM47.3594 66.4092V55.5271H54.3066C59.2823 55.5271 61.8641 57.3598 61.8641 60.9338C61.8641 64.5077 59.3528 66.4092 54.6118 66.4092H47.3594Z" stroke="white" stroke-width="0.152344"/>
</g>
</g>
<defs>
<filter id="filter0_d_490_695" x="39.5884" y="35.6387" width="30.1641" height="38.0859" filterUnits="userSpaceOnUse" color-interpolation-filters="sRGB">
<feFlood flood-opacity="0" result="BackgroundImageFix"/>
<feColorMatrix in="SourceAlpha" type="matrix" values="0 0 0 0 0 0 0 0 0 0 0 0 0 0 0 0 0 0 127 0" result="hardAlpha"/>
<feOffset dy="0.609375"/>
<feGaussianBlur stdDeviation="1.21875"/>
<feColorMatrix type="matrix" values="0 0 0 0 0 0 0 0 0 0 0 0 0 0 0 0 0 0 0.15 0"/>
<feBlend mode="normal" in2="BackgroundImageFix" result="effect1_dropShadow_490_695"/>
<feBlend mode="normal" in="SourceGraphic" in2="effect1_dropShadow_490_695" result="shape"/>
</filter>
<linearGradient id="paint0_linear_490_695" x1="26.5902" y1="24.645" x2="94.7489" y2="78.7494" gradientUnits="userSpaceOnUse">
<stop stop-color="#9013FE"/>
<stop offset="1" stop-color="#6610F2"/>
</linearGradient>
<linearGradient id="paint1_linear_490_695" x1="44.4797" y1="39.7189" x2="59.715" y2="65.4851" gradientUnits="userSpaceOnUse">
<stop stop-color="white"/>
<stop offset="1" stop-color="#F1E5FC"/>
</linearGradient>
<clipPath id="clip0_490_695">
<rect width="78" height="62.1562" fill="white" transform="translate(15 23)"/>
</clipPath>
</defs>
</svg>
