<svg width="108" height="108" viewBox="0 0 108 108" fill="none" xmlns="http://www.w3.org/2000/svg">
<g clip-path="url(#clip0_490_696)">
<path d="M79.75 22H28.25C24.7982 22 22 24.7982 22 28.25V79.75C22 83.2018 24.7982 86 28.25 86H79.75C83.2018 86 86 83.2018 86 79.75V28.25C86 24.7982 83.2018 22 79.75 22Z" fill="#3178C6"/>
<path d="M79.75 22H28.25C24.7982 22 22 24.7982 22 28.25V79.75C22 83.2018 24.7982 86 28.25 86H79.75C83.2018 86 86 83.2018 86 79.75V28.25C86 24.7982 83.2018 22 79.75 22Z" fill="#3178C6"/>
<path fill-rule="evenodd" clip-rule="evenodd" d="M61.6174 72.928V79.1856C62.6346 79.7071 63.8377 80.0981 65.2267 80.3589C66.6157 80.6196 68.0796 80.75 69.6186 80.75C71.1185 80.75 72.5432 80.6066 73.8931 80.3198C75.243 80.033 76.4266 79.5604 77.4439 78.902C78.4611 78.2437 79.2665 77.3833 79.8599 76.3208C80.4533 75.2583 80.75 73.9449 80.75 72.3805C80.75 71.2463 80.5805 70.2523 80.2414 69.3984C79.9022 68.5445 79.4132 67.7851 78.7741 67.1203C78.1351 66.4554 77.3689 65.8589 76.4755 65.3309C75.5821 64.8029 74.5746 64.3042 73.453 63.835C72.6314 63.496 71.8945 63.1669 71.2424 62.8475C70.5902 62.528 70.036 62.2021 69.5795 61.8698C69.123 61.5373 68.7709 61.1853 68.5231 60.8138C68.2754 60.4421 68.1514 60.0218 68.1514 59.5524C68.1514 59.1223 68.2623 58.7344 68.484 58.3889C68.7058 58.0434 69.0187 57.7469 69.423 57.4991C69.8274 57.2515 70.3229 57.0591 70.9098 56.9222C71.4968 56.7854 72.1487 56.717 72.8661 56.717C73.3877 56.717 73.9388 56.7561 74.5191 56.8343C75.0995 56.9125 75.6831 57.0331 76.2701 57.196C76.857 57.359 77.4275 57.5644 77.9819 57.812C78.5361 58.0598 79.048 58.3465 79.5175 58.6725V52.8255C78.5655 52.4605 77.5254 52.19 76.3973 52.014C75.2691 51.838 73.9746 51.75 72.514 51.75C71.0271 51.75 69.6186 51.9097 68.2884 52.2291C66.9581 52.5485 65.7876 53.0471 64.7767 53.725C63.766 54.403 62.9673 55.2666 62.3804 56.3161C61.7935 57.3655 61.5 58.6203 61.5 60.0804C61.5 61.9446 62.038 63.5351 63.114 64.8519C64.1899 66.1685 65.8234 67.2831 68.0145 68.1958C68.8752 68.5478 69.6774 68.8931 70.4207 69.2321C71.1641 69.5711 71.8065 69.9231 72.3476 70.2881C72.8889 70.6531 73.316 71.0507 73.6291 71.481C73.9421 71.9111 74.0986 72.4 74.0986 72.9476C74.0986 73.3517 74.0008 73.7265 73.8051 74.072C73.6095 74.4175 73.3128 74.7173 72.915 74.9715C72.5173 75.2257 72.0216 75.4245 71.4282 75.5679C70.8348 75.7114 70.1404 75.783 69.3447 75.783C67.9884 75.783 66.6451 75.5451 65.3148 75.0692C63.9845 74.5935 62.752 73.8798 61.6174 72.928ZM51.0975 57.5103H59.125V52.375H36.75V57.5103H44.7383V80.375H51.0975V57.5103Z" fill="white"/>
</g>
<defs>
<clipPath id="clip0_490_696">
<rect width="64" height="64" fill="white" transform="translate(22 22)"/>
</clipPath>
</defs>
</svg>
