<svg xmlns="http://www.w3.org/2000/svg" xmlns:xlink="http://www.w3.org/1999/xlink" preserveAspectRatio="xMidYMid meet" width="500" height="500" viewBox="0 0 500 500" style="width:100%;height:100%"><defs><animateMotion repeatCount="indefinite" dur="1.4s" begin="0s" xlink:href="#_R_G_L_7_G" fill="freeze" keyTimes="0;0.0285714;0.2571429;0.5428571;0.8571429;1" path="M318.46 341.03 C318.46,341.03 318.46,341.03 318.46,341.03 C318.46,332.69 318.46,285.36 318.46,291.03 C318.46,296.69 318.46,375.03 318.46,375.03 C318.46,375.03 318.46,346.69 318.46,341.03 C318.46,341.03 318.46,341.03 318.46,341.03 " keyPoints="0;0;0.3;0.8;1;1" keySplines="0.51 0 0.49 1;0.51 0 0.49 1;0.51 0 0.49 1;0.51 0 0.49 1;0 0 0 0" calcMode="spline"/><animateTransform repeatCount="indefinite" dur="1.4s" begin="0s" xlink:href="#_R_G_L_7_G" fill="freeze" attributeName="transform" from="-152.842 -130.274" to="-152.842 -130.274" type="translate" additive="sum" keyTimes="0;1" values="-152.842 -130.274;-152.842 -130.274" keySplines="0 0 1 1" calcMode="spline"/><animateMotion repeatCount="indefinite" dur="1.4s" begin="0s" xlink:href="#_R_G_L_6_G" fill="freeze" keyTimes="0;0.0857143;0.3142857;0.6;0.9142857;1" path="M250.75 250.76 C250.75,250.76 250.75,250.76 250.75,250.76 C250.75,244.26 250.75,206.09 250.75,211.76 C250.75,217.42 250.75,284.76 250.75,284.76 C250.75,284.76 250.75,256.42 250.75,250.76 C250.75,250.76 250.75,250.76 250.75,250.76 " keyPoints="0;0;0.27;0.77;1;1" keySplines="0.51 0 0.49 1;0.51 0 0.49 1;0.51 0 0.49 1;0.51 0 0.49 1;0 0 0 0" calcMode="spline"/><animateTransform repeatCount="indefinite" dur="1.4s" begin="0s" xlink:href="#_R_G_L_6_G" fill="freeze" attributeName="transform" from="-222.053 -222.055" to="-222.053 -222.055" type="translate" additive="sum" keyTimes="0;1" values="-222.053 -222.055;-222.053 -222.055" keySplines="0 0 1 1" calcMode="spline"/><animateMotion repeatCount="indefinite" dur="1.4s" begin="0s" xlink:href="#_R_G_L_5_G_N_9_T_0" fill="freeze" keyTimes="0;0.0285714;0.2571429;0.5428571;0.8571429;1" path="M318.46 341.03 C318.46,341.03 318.46,341.03 318.46,341.03 C318.46,332.69 318.46,285.36 318.46,291.03 C318.46,296.69 318.46,375.03 318.46,375.03 C318.46,375.03 318.46,346.69 318.46,341.03 C318.46,341.03 318.46,341.03 318.46,341.03 " keyPoints="0;0;0.3;0.8;1;1" keySplines="0.51 0 0.49 1;0.51 0 0.49 1;0.51 0 0.49 1;0.51 0 0.49 1;0 0 0 0" calcMode="spline"/><animateTransform repeatCount="indefinite" dur="1.4s" begin="0s" xlink:href="#_R_G_L_5_G_N_9_T_0" fill="freeze" attributeName="transform" from="-152.842 -130.274" to="-152.842 -130.274" type="translate" additive="sum" keyTimes="0;1" values="-152.842 -130.274;-152.842 -130.274" keySplines="0 0 1 1" calcMode="spline"/><animateMotion repeatCount="indefinite" dur="1.4s" begin="0s" xlink:href="#_R_G_L_4_G" fill="freeze" keyTimes="0;0.1428571;0.3714286;0.6571429;0.9714286;1" path="M181.54 159.73 C181.54,159.73 181.54,159.73 181.54,159.73 C181.54,154.89 181.54,125.06 181.54,130.73 C181.54,136.39 181.54,193.73 181.54,193.73 C181.54,193.73 181.54,165.39 181.54,159.73 C181.54,159.73 181.54,159.73 181.54,159.73 " keyPoints="0;0;0.24;0.73;1;1" keySplines="0.51 0 0.49 1;0.51 0 0.49 1;0.51 0 0.49 1;0.51 0 0.49 1;0 0 0 0" calcMode="spline"/><animateTransform repeatCount="indefinite" dur="1.4s" begin="0s" xlink:href="#_R_G_L_4_G" fill="freeze" attributeName="transform" from="-222.053 -222.055" to="-222.053 -222.055" type="translate" additive="sum" keyTimes="0;1" values="-222.053 -222.055;-222.053 -222.055" keySplines="0 0 1 1" calcMode="spline"/><animateMotion repeatCount="indefinite" dur="1.4s" begin="0s" xlink:href="#_R_G_L_3_G_N_8_T_0" fill="freeze" keyTimes="0;0.0857143;0.3142857;0.6;0.9142857;1" path="M250.75 250.76 C250.75,250.76 250.75,250.76 250.75,250.76 C250.75,244.26 250.75,206.09 250.75,211.76 C250.75,217.42 250.75,284.76 250.75,284.76 C250.75,284.76 250.75,256.42 250.75,250.76 C250.75,250.76 250.75,250.76 250.75,250.76 " keyPoints="0;0;0.27;0.77;1;1" keySplines="0.51 0 0.49 1;0.51 0 0.49 1;0.51 0 0.49 1;0.51 0 0.49 1;0 0 0 0" calcMode="spline"/><animateTransform repeatCount="indefinite" dur="1.4s" begin="0s" xlink:href="#_R_G_L_3_G_N_8_T_0" fill="freeze" attributeName="transform" from="-222.053 -222.055" to="-222.053 -222.055" type="translate" additive="sum" keyTimes="0;1" values="-222.053 -222.055;-222.053 -222.055" keySplines="0 0 1 1" calcMode="spline"/><animate repeatCount="indefinite" dur="1.4s" begin="0s" xlink:href="#_R_G_L_2_G" fill="freeze" attributeName="opacity" from="1" to="1" keyTimes="0;0.3428569;0.3428571;0.685714;0.6857143;1" values="1;1;0;0;1;1" keySplines="0 0 1 1;0 0 1 1;0 0 1 1;0 0 1 1;0 0 1 1" calcMode="spline"/><animateMotion repeatCount="indefinite" dur="1.4s" begin="0s" xlink:href="#_R_G_L_2_G_N_9_T_0" fill="freeze" keyTimes="0;0.0285714;0.2571429;0.5428571;0.8571429;1" path="M318.46 341.03 C318.46,341.03 318.46,341.03 318.46,341.03 C318.46,332.69 318.46,285.36 318.46,291.03 C318.46,296.69 318.46,375.03 318.46,375.03 C318.46,375.03 318.46,346.69 318.46,341.03 C318.46,341.03 318.46,341.03 318.46,341.03 " keyPoints="0;0;0.3;0.8;1;1" keySplines="0.51 0 0.49 1;0.51 0 0.49 1;0.51 0 0.49 1;0.51 0 0.49 1;0 0 0 0" calcMode="spline"/><animateTransform repeatCount="indefinite" dur="1.4s" begin="0s" xlink:href="#_R_G_L_2_G_N_9_T_0" fill="freeze" attributeName="transform" from="-152.842 -130.274" to="-152.842 -130.274" type="translate" additive="sum" keyTimes="0;1" values="-152.842 -130.274;-152.842 -130.274" keySplines="0 0 1 1" calcMode="spline"/><animateMotion repeatCount="indefinite" dur="1.4s" begin="0s" xlink:href="#_R_G_L_1_G" fill="freeze" keyTimes="0;0.0571429;0.4571429;0.9428571;1" path="M96.42 152.84 C96.42,152.84 96.42,152.84 96.42,152.84 C94.59,152.84 85.42,152.84 85.42,152.84 C85.42,152.84 94.59,152.84 96.42,152.84 C96.42,152.84 96.42,152.84 96.42,152.84 " keyPoints="0;0;0.5;1;1" keySplines="0.51 0 0.49 1;0.51 0 0.49 1;0.51 0 0.49 1;0 0 0 0" calcMode="spline"/><animateTransform repeatCount="indefinite" dur="1.4s" begin="0s" xlink:href="#_R_G_L_1_G" fill="freeze" attributeName="transform" from="-51.284 -62.569" to="-51.284 -62.569" type="translate" additive="sum" keyTimes="0;1" values="-51.284 -62.569;-51.284 -62.569" keySplines="0 0 1 1" calcMode="spline"/><animateMotion repeatCount="indefinite" dur="1.4s" begin="0s" xlink:href="#_R_G_L_1_G_N_9_T_0" fill="freeze" keyTimes="0;0.0285714;0.2571429;0.5428571;0.8571429;1" path="M318.46 341.03 C318.46,341.03 318.46,341.03 318.46,341.03 C318.46,332.69 318.46,285.36 318.46,291.03 C318.46,296.69 318.46,375.03 318.46,375.03 C318.46,375.03 318.46,346.69 318.46,341.03 C318.46,341.03 318.46,341.03 318.46,341.03 " keyPoints="0;0;0.3;0.8;1;1" keySplines="0.51 0 0.49 1;0.51 0 0.49 1;0.51 0 0.49 1;0.51 0 0.49 1;0 0 0 0" calcMode="spline"/><animateTransform repeatCount="indefinite" dur="1.4s" begin="0s" xlink:href="#_R_G_L_1_G_N_9_T_0" fill="freeze" attributeName="transform" from="-152.842 -130.274" to="-152.842 -130.274" type="translate" additive="sum" keyTimes="0;1" values="-152.842 -130.274;-152.842 -130.274" keySplines="0 0 1 1" calcMode="spline"/><animateMotion repeatCount="indefinite" dur="1.4s" begin="0s" xlink:href="#_R_G_L_0_G" fill="freeze" keyTimes="0;0.0571429;0.4571429;0.9428571;1" path="M209.26 152.84 C209.26,152.84 209.26,152.84 209.26,152.84 C210.93,152.84 219.26,152.84 219.26,152.84 C219.26,152.84 210.93,152.84 209.26,152.84 C209.26,152.84 209.26,152.84 209.26,152.84 " keyPoints="0;0;0.5;1;1" keySplines="0.51 0 0.49 1;0.51 0 0.49 1;0.51 0 0.49 1;0 0 0 0" calcMode="spline"/><animateTransform repeatCount="indefinite" dur="1.4s" begin="0s" xlink:href="#_R_G_L_0_G" fill="freeze" attributeName="transform" from="-51.284 -62.569" to="-51.284 -62.569" type="translate" additive="sum" keyTimes="0;1" values="-51.284 -62.569;-51.284 -62.569" keySplines="0 0 1 1" calcMode="spline"/><animateMotion repeatCount="indefinite" dur="1.4s" begin="0s" xlink:href="#_R_G_L_0_G_N_9_T_0" fill="freeze" keyTimes="0;0.0285714;0.2571429;0.5428571;0.8571429;1" path="M318.46 341.03 C318.46,341.03 318.46,341.03 318.46,341.03 C318.46,332.69 318.46,285.36 318.46,291.03 C318.46,296.69 318.46,375.03 318.46,375.03 C318.46,375.03 318.46,346.69 318.46,341.03 C318.46,341.03 318.46,341.03 318.46,341.03 " keyPoints="0;0;0.3;0.8;1;1" keySplines="0.51 0 0.49 1;0.51 0 0.49 1;0.51 0 0.49 1;0.51 0 0.49 1;0 0 0 0" calcMode="spline"/><animateTransform repeatCount="indefinite" dur="1.4s" begin="0s" xlink:href="#_R_G_L_0_G_N_9_T_0" fill="freeze" attributeName="transform" from="-152.842 -130.274" to="-152.842 -130.274" type="translate" additive="sum" keyTimes="0;1" values="-152.842 -130.274;-152.842 -130.274" keySplines="0 0 1 1" calcMode="spline"/><animate attributeType="XML" attributeName="opacity" dur="1s" from="0" to="1" xlink:href="#time_group"/></defs><g id="_R_G"><g id="_R_G_L_7_G"><path id="_R_G_L_7_G_D_0_P_0" stroke="#33cccc" stroke-linecap="round" stroke-linejoin="round" fill="none" stroke-width="16" stroke-opacity="1" d=" M40 85.14 C40,85.14 265.69,85.14 265.69,85.14 "/><path id="_R_G_L_7_G_D_1_P_0" stroke="#000000" stroke-linecap="round" stroke-linejoin="round" fill="none" stroke-width="16" stroke-opacity="1" d=" M235.19 220.55 C235.19,220.55 70.5,220.55 70.5,220.55 C53.66,220.55 40,206.89 40,190.05 C40,190.05 40,70.5 40,70.5 C40,53.66 53.66,40 70.5,40 C70.5,40 235.19,40 235.19,40 C252.03,40 265.68,53.66 265.68,70.5 C265.68,70.5 265.68,190.05 265.68,190.05 C265.68,206.89 252.03,220.55 235.19,220.55z "/></g><g id="_R_G_L_6_G"><path id="_R_G_L_6_G_D_0_P_0" stroke="#33cccc" stroke-linecap="round" stroke-linejoin="round" fill="none" stroke-width="16" stroke-opacity="1" d=" M109.21 176.92 C109.21,176.92 334.9,176.92 334.9,176.92 "/><path id="_R_G_L_6_G_D_1_P_0" stroke="#000000" stroke-linecap="round" stroke-linejoin="round" fill="none" stroke-width="16" stroke-opacity="1" d=" M334.89 154.35 C334.89,154.35 334.89,289.76 334.89,289.76 C334.89,302.22 324.79,312.33 312.33,312.33 C312.33,312.33 131.78,312.33 131.78,312.33 C119.31,312.33 109.21,302.22 109.21,289.76 C109.21,289.76 109.21,154.35 109.21,154.35 C109.21,141.88 119.31,131.78 131.78,131.78 C131.78,131.78 312.33,131.78 312.33,131.78 C324.79,131.78 334.89,141.88 334.89,154.35z "/></g><g id="_R_G_L_5_G_N_9_T_0"><g id="_R_G_L_5_G"><path id="_R_G_L_5_G_D_0_P_0" fill="#ff0000" fill-opacity="1" fill-rule="nonzero" d=" M40 85.14 C40,85.14 265.69,85.14 265.69,85.14 "/><path id="_R_G_L_5_G_D_0_P_1" fill="#ff0000" fill-opacity="1" fill-rule="nonzero" d=" M235.19 220.55 C235.19,220.55 70.5,220.55 70.5,220.55 C53.66,220.55 40,206.89 40,190.05 C40,190.05 40,70.5 40,70.5 C40,53.66 53.66,40 70.5,40 C70.5,40 235.19,40 235.19,40 C252.03,40 265.68,53.66 265.68,70.5 C265.68,70.5 265.68,190.05 265.68,190.05 C265.68,206.89 252.03,220.55 235.19,220.55z "/><path id="_R_G_L_5_G_D_1_P_0" stroke="#33cccc" stroke-linecap="round" stroke-linejoin="round" fill="none" stroke-width="16" stroke-opacity="1" d=" M40 85.14 C40,85.14 265.69,85.14 265.69,85.14 "/><path id="_R_G_L_5_G_D_2_P_0" stroke="#000000" stroke-linecap="round" stroke-linejoin="round" fill="none" stroke-width="16" stroke-opacity="1" d=" M235.19 220.55 C235.19,220.55 70.5,220.55 70.5,220.55 C53.66,220.55 40,206.89 40,190.05 C40,190.05 40,70.5 40,70.5 C40,53.66 53.66,40 70.5,40 C70.5,40 235.19,40 235.19,40 C252.03,40 265.68,53.66 265.68,70.5 C265.68,70.5 265.68,190.05 265.68,190.05 C265.68,206.89 252.03,220.55 235.19,220.55z "/></g></g><g id="_R_G_L_4_G"><path id="_R_G_L_4_G_D_0_P_0" stroke="#33cccc" stroke-linecap="round" stroke-linejoin="round" fill="none" stroke-width="16" stroke-opacity="1" d=" M109.21 176.92 C109.21,176.92 334.9,176.92 334.9,176.92 "/><path id="_R_G_L_4_G_D_1_P_0" stroke="#000000" stroke-linecap="round" stroke-linejoin="round" fill="none" stroke-width="16" stroke-opacity="1" d=" M334.89 154.35 C334.89,154.35 334.89,289.76 334.89,289.76 C334.89,302.22 324.79,312.33 312.33,312.33 C312.33,312.33 131.78,312.33 131.78,312.33 C119.31,312.33 109.21,302.22 109.21,289.76 C109.21,289.76 109.21,154.35 109.21,154.35 C109.21,141.88 119.31,131.78 131.78,131.78 C131.78,131.78 312.33,131.78 312.33,131.78 C324.79,131.78 334.89,141.88 334.89,154.35z "/></g><g id="_R_G_L_3_G_N_8_T_0"><g id="_R_G_L_3_G"><path id="_R_G_L_3_G_D_0_P_0" fill="#ff0000" fill-opacity="1" fill-rule="nonzero" d=" M109.21 176.92 C109.21,176.92 334.9,176.92 334.9,176.92 "/><path id="_R_G_L_3_G_D_0_P_1" fill="#ff0000" fill-opacity="1" fill-rule="nonzero" d=" M334.89 154.35 C334.89,154.35 334.89,289.76 334.89,289.76 C334.89,302.22 324.79,312.33 312.33,312.33 C312.33,312.33 131.78,312.33 131.78,312.33 C119.31,312.33 109.21,302.22 109.21,289.76 C109.21,289.76 109.21,154.35 109.21,154.35 C109.21,141.88 119.31,131.78 131.78,131.78 C131.78,131.78 312.33,131.78 312.33,131.78 C324.79,131.78 334.89,141.88 334.89,154.35z "/><path id="_R_G_L_3_G_D_1_P_0" stroke="#33cccc" stroke-linecap="round" stroke-linejoin="round" fill="none" stroke-width="16" stroke-opacity="1" d=" M109.21 176.92 C109.21,176.92 334.9,176.92 334.9,176.92 "/><path id="_R_G_L_3_G_D_2_P_0" stroke="#000000" stroke-linecap="round" stroke-linejoin="round" fill="none" stroke-width="16" stroke-opacity="1" d=" M334.89 154.35 C334.89,154.35 334.89,289.76 334.89,289.76 C334.89,302.22 324.79,312.33 312.33,312.33 C312.33,312.33 131.78,312.33 131.78,312.33 C119.31,312.33 109.21,302.22 109.21,289.76 C109.21,289.76 109.21,154.35 109.21,154.35 C109.21,141.88 119.31,131.78 131.78,131.78 C131.78,131.78 312.33,131.78 312.33,131.78 C324.79,131.78 334.89,141.88 334.89,154.35z "/></g></g><g id="_R_G_L_2_G_N_9_T_0"><g id="_R_G_L_2_G" transform=" translate(152.843, 152.843) translate(-19.284, -30.569)"><path id="_R_G_L_2_G_D_0_P_0" stroke="#33cccc" stroke-linecap="round" stroke-linejoin="round" fill="none" stroke-width="16" stroke-opacity="1" d=" M30.57 8 C30.57,8 8,53.14 8,53.14 "/></g></g><g id="_R_G_L_1_G_N_9_T_0"><g id="_R_G_L_1_G"><path id="_R_G_L_1_G_D_0_P_0" stroke="#000000" stroke-linecap="round" stroke-linejoin="round" fill="none" stroke-width="16" stroke-opacity="1" d=" M62.57 40 C62.57,40 40,62.57 40,62.57 C40,62.57 62.57,85.14 62.57,85.14 "/></g></g><g id="_R_G_L_0_G_N_9_T_0"><g id="_R_G_L_0_G"><path id="_R_G_L_0_G_D_0_P_0" stroke="#000000" stroke-linecap="round" stroke-linejoin="round" fill="none" stroke-width="16" stroke-opacity="1" d=" M40 40 C40,40 62.57,62.57 62.57,62.57 C62.57,62.57 40,85.14 40,85.14 "/></g></g></g><g id="time_group"/></svg>