<svg width="108" height="108" viewBox="0 0 108 108" fill="none" xmlns="http://www.w3.org/2000/svg">
<g clip-path="url(#clip0_491_1656)">
<path d="M36.2602 56.2799C35.4602 56.2799 34.8202 56.0399 34.3602 55.5799C33.9002 55.1199 33.6802 54.4599 33.6802 53.6399C33.6802 52.7999 33.9002 52.1199 34.3202 51.6399C34.7402 51.1599 35.3202 50.9199 36.0602 50.9199C36.7402 50.9199 37.2802 51.1199 37.6802 51.5399C38.0802 51.9599 38.2802 52.5199 38.2802 53.2599V53.8599H34.8202C34.8402 54.3599 34.9802 54.7399 35.2202 55.0199C35.4602 55.2999 35.8402 55.4199 36.3002 55.4199C36.6002 55.4199 36.9002 55.3999 37.1602 55.3399C37.4202 55.2799 37.7002 55.1799 38.0202 55.0599V55.9599C37.7602 56.0799 37.4802 56.1799 37.2002 56.2399C36.9202 56.2999 36.6002 56.2799 36.2602 56.2799ZM36.0402 51.7599C35.6802 51.7599 35.4002 51.8799 35.2002 52.0999C35.0002 52.3199 34.8602 52.6399 34.8202 53.0799H37.1802C37.1802 52.6599 37.0802 52.3199 36.8802 52.0999C36.6802 51.8799 36.4002 51.7599 36.0402 51.7599Z" fill="black"/>
<path d="M40.62 56.2004H39.52V48.9004H40.62V56.2004Z" fill="black"/>
<path d="M45.4403 56.2009L45.2203 55.4809H45.1803C44.9403 55.8009 44.6803 56.0209 44.4203 56.1209C44.1603 56.2209 43.8403 56.3009 43.4403 56.3009C42.9403 56.3009 42.5403 56.1609 42.2403 55.8809C41.9403 55.6009 41.8203 55.2209 41.8203 54.7209C41.8203 54.1809 42.0203 53.7809 42.4203 53.5209C42.8203 53.2609 43.4203 53.1009 44.2403 53.0809L45.1403 53.0609V52.7809C45.1403 52.4409 45.0603 52.2009 44.9003 52.0409C44.7403 51.8809 44.5003 51.8009 44.1803 51.8009C43.9203 51.8009 43.6603 51.8409 43.4203 51.9209C43.1803 52.0009 42.9403 52.1009 42.7203 52.2009L42.3603 51.4209C42.6403 51.2809 42.9403 51.1609 43.2803 51.0809C43.6203 51.0009 43.9203 50.9609 44.2203 50.9609C44.8803 50.9609 45.3803 51.1009 45.7203 51.4009C46.0603 51.7009 46.2203 52.1409 46.2203 52.7609V56.2009H45.4403ZM43.8003 55.4409C44.2003 55.4409 44.5203 55.3209 44.7603 55.1009C45.0003 54.8809 45.1203 54.5609 45.1203 54.1609V53.7209L44.4603 53.7409C43.9403 53.7609 43.5603 53.8409 43.3203 54.0009C43.0803 54.1609 42.9603 54.4009 42.9603 54.7209C42.9603 54.9609 43.0203 55.1409 43.1603 55.2609C43.3003 55.3809 43.5203 55.4409 43.8003 55.4409Z" fill="black"/>
<path d="M51.2404 54.7209C51.2404 55.2209 51.0604 55.6209 50.6804 55.8809C50.3004 56.1409 49.7804 56.2809 49.1004 56.2809C48.4004 56.2809 47.8604 56.1809 47.4404 55.9609V55.0009C48.0404 55.2809 48.6204 55.4209 49.1404 55.4209C49.8204 55.4209 50.1604 55.2209 50.1604 54.8009C50.1604 54.6609 50.1204 54.5609 50.0404 54.4809C49.9604 54.4009 49.8404 54.3009 49.6604 54.2009C49.4804 54.1009 49.2404 54.0009 48.9404 53.8809C48.3404 53.6409 47.9404 53.4209 47.7204 53.1809C47.5004 52.9409 47.4004 52.6409 47.4004 52.2809C47.4004 51.8409 47.5804 51.5009 47.9404 51.2409C48.3004 50.9809 48.7804 50.8809 49.4004 50.8809C50.0004 50.8809 50.5804 51.0009 51.1204 51.2609L50.7604 52.0809C50.2004 51.8409 49.7404 51.7409 49.3404 51.7409C48.7604 51.7409 48.4604 51.9009 48.4604 52.2409C48.4604 52.4009 48.5404 52.5409 48.6804 52.6609C48.8204 52.7809 49.1604 52.9209 49.6804 53.1209C50.1004 53.2809 50.4204 53.4409 50.6204 53.5809C50.8204 53.7209 50.9604 53.8809 51.0604 54.0609C51.2004 54.2609 51.2404 54.4609 51.2404 54.7209Z" fill="black"/>
<path d="M54.3603 55.4009C54.6203 55.4009 54.9003 55.3609 55.1603 55.2809V56.1009C55.0403 56.1609 54.8803 56.2009 54.6803 56.2409C54.4803 56.2809 54.2803 56.3009 54.0803 56.3009C53.0403 56.3009 52.5203 55.7409 52.5203 54.6609V51.8609H51.8203V51.3809L52.5803 50.9809L52.9603 49.8809H53.6403V51.0409H55.1203V51.8809H53.6403V54.6609C53.6403 54.9209 53.7003 55.1209 53.8403 55.2409C53.9803 55.3609 54.1603 55.4009 54.3603 55.4009Z" fill="black"/>
<path d="M56.1401 49.6395C56.1401 49.4395 56.2001 49.2995 56.3001 49.1795C56.4001 49.0595 56.5601 49.0195 56.7601 49.0195C56.9601 49.0195 57.1001 49.0795 57.2201 49.1795C57.3401 49.2795 57.3801 49.4395 57.3801 49.6395C57.3801 49.8195 57.3201 49.9795 57.2201 50.0795C57.1201 50.1795 56.9601 50.2395 56.7601 50.2395C56.5601 50.2395 56.4001 50.1795 56.3001 50.0795C56.2001 49.9795 56.1401 49.8195 56.1401 49.6395ZM57.3201 56.1995H56.2201V51.0195H57.3201V56.1995Z" fill="black"/>
<path d="M60.9801 56.2804C60.2001 56.2804 59.6001 56.0604 59.2001 55.6004C58.8001 55.1404 58.5801 54.4804 58.5801 53.6204C58.5801 52.7404 58.8001 52.0804 59.2201 51.6004C59.6401 51.1204 60.2601 50.9004 61.0601 50.9004C61.6001 50.9004 62.1001 51.0004 62.5401 51.2004L62.2001 52.0804C61.7401 51.9004 61.3601 51.8004 61.0401 51.8004C60.1401 51.8004 59.7001 52.4004 59.7001 53.5804C59.7001 54.1604 59.8201 54.6004 60.0401 54.9004C60.2601 55.2004 60.6001 55.3404 61.0201 55.3404C61.5201 55.3404 61.9801 55.2204 62.4201 54.9804V55.9404C62.2201 56.0604 62.0201 56.1404 61.7801 56.1804C61.5401 56.2204 61.3001 56.2804 60.9801 56.2804Z" fill="black"/>
<path d="M67.1203 54.7209C67.1203 55.2209 66.9403 55.6209 66.5603 55.8809C66.1803 56.1409 65.6603 56.2809 64.9803 56.2809C64.2803 56.2809 63.7403 56.1809 63.3203 55.9609V55.0009C63.9203 55.2809 64.5003 55.4209 65.0203 55.4209C65.7003 55.4209 66.0403 55.2209 66.0403 54.8009C66.0403 54.6609 66.0003 54.5609 65.9203 54.4809C65.8403 54.4009 65.7203 54.3009 65.5403 54.2009C65.3603 54.1009 65.1203 54.0009 64.8203 53.8809C64.2203 53.6409 63.8203 53.4209 63.6003 53.1809C63.3803 52.9409 63.2803 52.6409 63.2803 52.2809C63.2803 51.8409 63.4603 51.5009 63.8203 51.2409C64.1803 50.9809 64.6603 50.8809 65.2803 50.8809C65.8803 50.8809 66.4603 51.0009 67.0003 51.2609L66.6403 52.0809C66.0803 51.8409 65.6203 51.7409 65.2203 51.7409C64.6403 51.7409 64.3403 51.9009 64.3403 52.2409C64.3403 52.4009 64.4203 52.5409 64.5603 52.6609C64.7003 52.7809 65.0403 52.9209 65.5603 53.1209C65.9803 53.2809 66.3003 53.4409 66.5003 53.5809C66.7003 53.7209 66.8403 53.8809 66.9403 54.0609C67.0803 54.2609 67.1203 54.4609 67.1203 54.7209Z" fill="black"/>
<path d="M70.58 56.2799C69.78 56.2799 69.14 56.0399 68.68 55.5799C68.22 55.1199 68 54.4599 68 53.6399C68 52.7999 68.22 52.1199 68.64 51.6399C69.06 51.1599 69.64 50.9199 70.38 50.9199C71.06 50.9199 71.6 51.1199 72 51.5399C72.4 51.9599 72.6 52.5199 72.6 53.2599V53.8599H69.14C69.16 54.3599 69.3 54.7399 69.54 55.0199C69.78 55.2999 70.16 55.4199 70.62 55.4199C70.92 55.4199 71.22 55.3999 71.48 55.3399C71.74 55.2799 72.02 55.1799 72.34 55.0599V55.9599C72.08 56.0799 71.8 56.1799 71.52 56.2399C71.24 56.2999 70.94 56.2799 70.58 56.2799ZM70.38 51.7599C70.02 51.7599 69.74 51.8799 69.54 52.0999C69.34 52.3199 69.2 52.6399 69.16 53.0799H71.52C71.52 52.6599 71.42 52.3199 71.22 52.0999C71.02 51.8799 70.72 51.7599 70.38 51.7599Z" fill="black"/>
<path d="M77.08 56.2009L76.86 55.4809H76.82C76.58 55.8009 76.32 56.0209 76.06 56.1209C75.8 56.2209 75.48 56.3009 75.08 56.3009C74.58 56.3009 74.18 56.1609 73.88 55.8809C73.58 55.6009 73.46 55.2209 73.46 54.7209C73.46 54.1809 73.66 53.7809 74.06 53.5209C74.46 53.2609 75.06 53.1009 75.88 53.0809L76.78 53.0609V52.7809C76.78 52.4409 76.7 52.2009 76.54 52.0409C76.38 51.8809 76.14 51.8009 75.82 51.8009C75.56 51.8009 75.3 51.8409 75.06 51.9209C74.82 52.0009 74.58 52.1009 74.36 52.2009L74 51.4209C74.28 51.2809 74.58 51.1609 74.92 51.0809C75.26 51.0009 75.56 50.9609 75.86 50.9609C76.52 50.9609 77.02 51.1009 77.36 51.4009C77.7 51.7009 77.86 52.1409 77.86 52.7609V56.2009H77.08ZM75.44 55.4409C75.84 55.4409 76.16 55.3209 76.4 55.1009C76.64 54.8809 76.76 54.5609 76.76 54.1609V53.7209L76.1 53.7409C75.58 53.7609 75.2 53.8409 74.96 54.0009C74.72 54.1609 74.6 54.4009 74.6 54.7209C74.6 54.9609 74.66 55.1409 74.8 55.2609C74.94 55.3809 75.18 55.4409 75.44 55.4409Z" fill="black"/>
<path d="M82.0404 50.9199C82.2604 50.9199 82.4404 50.9399 82.5804 50.9599L82.4804 51.9799C82.3204 51.9399 82.1604 51.9199 82.0004 51.9199C81.5604 51.9199 81.2004 52.0599 80.9204 52.3599C80.6404 52.6599 80.5004 53.0199 80.5004 53.4799V56.1999H79.4004V51.0199H80.2604L80.4004 51.9399H80.4604C80.6404 51.6399 80.8604 51.3799 81.1404 51.1999C81.4204 51.0199 81.7204 50.9199 82.0404 50.9199Z" fill="black"/>
<path d="M85.6402 56.2804C84.8602 56.2804 84.2602 56.0604 83.8602 55.6004C83.4602 55.1404 83.2402 54.4804 83.2402 53.6204C83.2402 52.7404 83.4602 52.0804 83.8802 51.6004C84.3002 51.1204 84.9202 50.9004 85.7202 50.9004C86.2602 50.9004 86.7602 51.0004 87.2002 51.2004L86.8602 52.0804C86.4002 51.9004 86.0202 51.8004 85.7002 51.8004C84.8002 51.8004 84.3602 52.4004 84.3602 53.5804C84.3602 54.1604 84.4802 54.6004 84.7002 54.9004C84.9202 55.2004 85.2602 55.3404 85.6802 55.3404C86.1802 55.3404 86.6402 55.2204 87.0802 54.9804V55.9404C86.8802 56.0604 86.6802 56.1404 86.4402 56.1804C86.2002 56.2204 85.9602 56.2804 85.6402 56.2804Z" fill="black"/>
<path d="M92.8601 56.2004H91.7601V53.0004C91.7601 52.6004 91.6801 52.3004 91.5201 52.1004C91.3601 51.9004 91.1001 51.8004 90.7601 51.8004C90.3001 51.8004 89.9601 51.9404 89.7401 52.2204C89.5201 52.5004 89.4201 52.9604 89.4201 53.6004V56.2004H88.3201V48.9004H89.4201V50.7604C89.4201 51.0604 89.4001 51.3804 89.3601 51.7204H89.4401C89.6001 51.4804 89.8001 51.2804 90.0601 51.1404C90.3201 51.0004 90.6401 50.9404 91.0001 50.9404C92.2601 50.9404 92.8801 51.5804 92.8801 52.8404V56.2004H92.8601Z" fill="black"/>
<path d="M25.9598 51.5H21.7798C21.7998 51.6 21.8398 51.7 21.8598 51.78C21.9998 52.26 22.0798 52.76 22.1198 53.28C22.1398 53.48 22.1398 53.7 22.1398 53.9C22.1398 54.1 22.1398 54.32 22.1198 54.52C22.0798 55.04 21.9998 55.54 21.8598 56.02C21.8398 56.12 21.7998 56.22 21.7798 56.3H25.9598C27.2798 56.3 28.3398 55.22 28.3398 53.9C28.3398 52.58 27.2798 51.5 25.9598 51.5Z" fill="#00A9E5"/>
<path d="M22.12 54.52C22.14 54.32 22.14 54.1 22.14 53.9C22.14 53.7 22.14 53.48 22.12 53.28C22.08 52.76 22 52.26 21.86 51.78C21.84 51.68 21.8 51.58 21.78 51.5H15.32C15.08 52.26 14.96 53.06 14.96 53.9C14.96 54.74 15.08 55.54 15.32 56.3H21.78C21.8 56.2 21.84 56.1 21.86 56.02C22 55.54 22.08 55.04 22.12 54.52Z" fill="#353535"/>
<path d="M26.68 57.0996H21.48C21.32 57.4596 21.14 57.7996 20.94 58.1196C20.64 58.6196 20.28 59.0596 19.88 59.4796C19.74 59.6196 19.6 59.7396 19.46 59.8796C19.18 60.1396 18.86 60.3596 18.54 60.5796C19.8 61.4196 21.32 61.8996 22.94 61.8996C25.72 61.8996 28.16 60.4796 29.6 58.3396C28.86 57.5796 27.82 57.0996 26.68 57.0996Z" fill="#00BFB3"/>
<path d="M20.9401 58.1196C21.1401 57.7996 21.3201 57.4596 21.4801 57.0996H15.6201C16.2401 58.5196 17.2601 59.7396 18.5601 60.5796C18.8801 60.3596 19.1801 60.1396 19.4801 59.8796C19.6201 59.7596 19.7601 59.6196 19.9001 59.4796C20.2801 59.0796 20.6401 58.6196 20.9401 58.1196Z" fill="#019B8F"/>
<path d="M19.8801 48.3207C19.7401 48.1807 19.6001 48.0607 19.4601 47.9207C19.1801 47.6607 18.8601 47.4407 18.5401 47.2207C17.2601 48.0607 16.2401 49.2807 15.6001 50.7007H21.4601C21.3001 50.3407 21.1201 50.0007 20.9201 49.6807C20.6401 49.1807 20.2801 48.7207 19.8801 48.3207Z" fill="#F9B110"/>
<path d="M22.94 45.9004C21.32 45.9004 19.8 46.3804 18.54 47.2204C18.86 47.4404 19.16 47.6604 19.46 47.9204C19.6 48.0404 19.74 48.1804 19.88 48.3204C20.28 48.7404 20.64 49.1804 20.94 49.6804C21.14 50.0004 21.32 50.3404 21.48 50.7004H26.68C27.82 50.7004 28.86 50.2204 29.6 49.4604C28.16 47.3204 25.72 45.9004 22.94 45.9004Z" fill="#FED10A"/>
</g>
<defs>
<clipPath id="clip0_491_1656">
<rect width="82" height="18" fill="white" transform="translate(13 45)"/>
</clipPath>
</defs>
</svg>
