<svg width="108" height="108" viewBox="0 0 108 108" fill="none" xmlns="http://www.w3.org/2000/svg">
<g clip-path="url(#clip0_491_1570)">
<path fill-rule="evenodd" clip-rule="evenodd" d="M47.2093 41.0007C46.6258 41.0199 46.7946 41.2828 45.5315 41.5949C44.2555 41.909 42.7123 41.7167 41.3401 42.2938C37.7493 43.7985 37.1679 49.6164 32.8911 51.867C30.0868 53.4508 27.227 53.8142 24.6708 54.6157C22.6189 55.4386 21.3429 55.9836 19.8381 57.281C18.6711 58.2877 18.3869 59.2645 17.1664 60.5277C15.9289 62.2098 11.2374 60.7158 10.0298 62.8253C10.6667 63.2378 11.0343 63.3511 12.1522 63.2036C11.9213 63.6418 10.4508 64.2189 10.718 64.8644C10.718 64.8644 14.2725 65.512 17.269 63.7038C18.6669 63.1353 19.9771 61.9319 22.1487 61.6434C24.9614 61.2693 28.1311 62.2333 31.5317 62.5047C30.8285 63.894 30.1039 64.7148 29.3281 65.8604C29.0887 66.119 29.5333 66.3477 30.3583 66.1917C31.8416 65.8241 32.9167 65.4265 33.9833 64.6891C35.3747 63.7294 35.9732 62.851 37.1466 61.4596C38.1661 63.0946 41.7611 63.4537 42.4985 62.0409C41.1263 61.4596 40.8335 58.4352 41.3037 57.1292C41.8595 55.8853 42.2591 54.1262 42.708 52.4912C43.1119 51.0185 43.362 48.7721 43.8451 47.6222C44.4222 46.1923 45.5443 45.7456 46.3864 44.9869C47.2285 44.2281 48.0664 43.5954 48.0407 41.8599C48.0322 41.2956 47.7415 40.9836 47.2093 41.0007Z" fill="#1F305F"/>
<path d="M11.0877 64.5703C13.2914 64.6365 13.8898 64.5788 15.6318 63.8222C17.113 63.1788 19.0943 61.4454 20.8448 60.8854C23.4139 60.0604 26.169 60.1844 28.9027 60.5071C29.8175 60.6161 30.7366 60.7679 31.3927 60.6974C32.4165 60.069 32.4657 58.3634 33.1005 58.2266C32.9274 61.5267 31.5124 63.6384 30.0975 65.5535C33.0791 65.0277 35.0711 63.166 36.2766 60.8619C36.6421 60.163 37.2491 59.0195 37.527 58.233C37.7471 58.7545 37.2406 59.0858 37.4778 59.6543C39.3972 58.0705 40.3034 56.2666 41.0814 53.6248C41.9834 50.5684 42.9089 47.9415 43.4902 47.0374C44.0566 46.1547 44.9394 45.6097 45.7452 45.0454C46.66 44.4021 47.4786 43.7331 47.6196 42.5084C46.6535 42.4186 46.4312 42.1963 46.288 41.709C45.805 41.9804 45.3604 42.0403 44.8581 42.0552C44.4221 42.0681 43.9433 42.0488 43.3577 42.1087C38.5208 42.6045 38.2964 47.3324 34.7804 50.8035C34.5539 51.0236 34.167 51.3485 33.9106 51.5409C32.8248 52.3509 31.662 52.7955 30.4373 53.2636C28.4539 54.0202 26.573 54.2404 24.7135 54.8944C23.3477 55.3732 22.0781 55.9225 20.956 56.6898C20.676 56.8822 20.2955 57.2241 20.0518 57.4229C19.3935 57.9615 18.9618 58.5579 18.5429 59.1734C18.1111 59.8061 17.6965 60.458 17.0617 61.08C16.0336 62.0888 12.1949 61.3749 10.8419 62.3111C10.6923 62.4158 10.5705 62.5398 10.4893 62.6894C11.2266 63.025 11.7204 62.8198 12.5689 62.9117C12.6737 63.7217 10.812 64.2005 11.0877 64.5703Z" fill="#C0765A"/>
<path fill-rule="evenodd" clip-rule="evenodd" d="M41.8657 44.1032C42.5497 44.6974 43.986 44.2208 43.7295 43.0388C42.6651 42.949 42.0495 43.3103 41.8657 44.1032Z" fill="#1F305F"/>
<path d="M46.568 42.7216C46.3863 43.1042 46.0379 43.5958 46.0379 44.5683C46.0358 44.735 45.9118 44.8504 45.9097 44.5918C45.9182 43.6407 46.1704 43.2303 46.4376 42.6917C46.5594 42.4715 46.6342 42.5613 46.568 42.7216Z" fill="#1F305F"/>
<path d="M46.3544 42.5772C46.1385 42.9406 45.6213 43.6053 45.5379 44.5757C45.523 44.7424 45.3862 44.845 45.4075 44.5885C45.5016 43.6438 45.9141 43.0517 46.2283 42.5366C46.3694 42.3271 46.4356 42.4233 46.3544 42.5772Z" fill="#1F305F"/>
<path d="M46.1408 42.3882C45.895 42.7323 45.0999 43.5316 44.9332 44.4892C44.9033 44.6538 44.7601 44.7435 44.8028 44.4913C44.976 43.5573 45.6621 42.822 46.0169 42.3369C46.175 42.1381 46.2349 42.2407 46.1408 42.3882Z" fill="#1F305F"/>
<path d="M46.1406 42.1748C45.8499 42.4826 44.901 43.5 44.6017 44.4255C44.5483 44.5836 44.3944 44.6542 44.4713 44.4084C44.7727 43.5064 45.6041 42.536 46.0252 42.1064C46.2112 41.9333 46.2539 42.0444 46.1406 42.1748Z" fill="#1F305F"/>
<path d="M83.2518 51.5073V58.1802H82.4097V57.0367C81.6466 57.9493 80.7767 58.4067 79.7957 58.4067C78.8146 58.4067 77.9853 58.0583 77.3078 57.3637C76.6367 56.6605 76.3032 55.8269 76.3032 54.863C76.3032 53.8905 76.6431 53.0612 77.3206 52.3751C77.9982 51.6804 78.8125 51.332 79.7593 51.332C80.8494 51.332 81.7321 51.798 82.4118 52.7277V51.5094H83.2518M82.461 54.8737C82.461 54.1106 82.2045 53.4694 81.6937 52.95C81.1828 52.4221 80.5544 52.1592 79.8085 52.1592C79.0711 52.1592 78.447 52.4306 77.9362 52.9757C77.4253 53.5121 77.1689 54.1491 77.1689 54.8865C77.1689 55.6239 77.4296 56.2651 77.949 56.8101C78.4684 57.3466 79.0882 57.6138 79.8085 57.6138C80.5373 57.6138 81.1615 57.353 81.6808 56.8336C82.2024 56.3164 82.461 55.6623 82.461 54.8737Z" fill="#1F305F"/>
<path d="M84.9509 58.18V49.1582H86.8233C88.1057 49.1582 89.044 49.2544 89.6382 49.4467C90.2409 49.6306 90.7603 49.9277 91.1963 50.338C91.6323 50.7399 91.9679 51.2336 92.2009 51.8214C92.436 52.407 92.5535 53.0952 92.5535 53.8818C92.5535 54.6619 92.3697 55.3972 92 56.094C91.6388 56.7801 91.145 57.2994 90.5166 57.6521C89.8968 58.0048 89.0012 58.18 87.8278 58.18H84.9509ZM85.8187 57.3251H86.8617C87.9518 57.3251 88.7383 57.2717 89.2235 57.1626C89.7173 57.0536 90.149 56.8399 90.5188 56.5214C90.8864 56.1944 91.1685 55.8011 91.3609 55.3395C91.5533 54.8778 91.6494 54.352 91.6494 53.7557C91.6494 53.1615 91.5362 52.6122 91.3096 52.1099C91.0916 51.6076 90.7774 51.193 90.367 50.866C89.9566 50.5389 89.4715 50.3209 88.9093 50.2119C88.3558 50.0944 87.5393 50.0367 86.4599 50.0367H85.8187V57.3251Z" fill="#1F305F"/>
<path d="M73.751 49.6477C73.751 49.4553 73.8172 49.2864 73.9519 49.1454C74.0951 49.0022 74.2618 48.9316 74.4542 48.9316C74.6551 48.9316 74.8218 49.0022 74.9565 49.1454C75.0997 49.28 75.1702 49.4467 75.1702 49.6477C75.1702 49.84 75.0997 50.0089 74.9565 50.1499C74.8218 50.2846 74.6551 50.3509 74.4542 50.3509C74.2618 50.3509 74.093 50.2803 73.9519 50.1371C73.8172 49.9939 73.751 49.8315 73.751 49.6477ZM74.0267 51.5072H74.8945V58.18H74.0267V51.5072Z" fill="#1F305F"/>
<path d="M50.2808 58.1802L51.5632 49.1584H51.7021L55.3698 56.558L59.014 49.1562H59.153L60.4482 58.1781H59.5569L58.6763 51.719L55.4852 58.1781H55.2587L52.0291 51.6698L51.1485 58.1781H50.2808" fill="#1F305F"/>
<path d="M68.2665 51.5073V58.1802H67.4243V57.0367C66.6613 57.9493 65.7914 58.4067 64.8103 58.4067C63.8293 58.4067 63 58.0583 62.3224 57.3637C61.6513 56.6605 61.3179 55.8269 61.3179 54.863C61.3179 53.8905 61.6577 53.0612 62.3353 52.3751C63.0128 51.6804 63.8271 51.332 64.774 51.332C65.8641 51.332 66.7468 51.798 67.4265 52.7277V51.5094H68.2665M67.4756 54.8737C67.4756 54.1106 67.2191 53.4694 66.7083 52.95C66.1975 52.4221 65.5691 52.1592 64.8232 52.1592C64.0858 52.1592 63.4617 52.4306 62.9508 52.9757C62.44 53.5121 62.1835 54.1491 62.1835 54.8865C62.1835 55.6239 62.4421 56.2651 62.9636 56.8101C63.483 57.3466 64.1029 57.6138 64.8232 57.6138C65.552 57.6138 66.1761 57.353 66.6955 56.8336C67.2149 56.3164 67.4756 55.6623 67.4756 54.8737Z" fill="#1F305F"/>
<path d="M69.7285 51.5073H70.6091V52.4755C70.8442 52.0822 71.0708 51.7937 71.2867 51.6078C71.5132 51.4239 71.759 51.332 72.0283 51.332C72.304 51.332 72.5819 51.4068 72.8576 51.5586L72.4045 52.2874C72.2784 52.2126 72.148 52.1742 72.0155 52.1742C71.7569 52.1742 71.5089 52.3088 71.2738 52.576C71.0473 52.8432 70.8806 53.1915 70.7715 53.619C70.6625 54.0379 70.6091 54.8053 70.6091 55.9188V58.1802H69.7285V51.5073Z" fill="#1F305F"/>
<path d="M93.5859 49.1562H95.3706C96.3175 49.1562 97.0335 49.3486 97.5187 49.7333C98.0124 50.1095 98.2604 50.6545 98.2604 51.3663C98.2604 51.7596 98.1599 52.1251 97.959 52.4585C97.7666 52.7855 97.4824 53.0484 97.104 53.2493C97.7239 53.4502 98.1941 53.7516 98.5104 54.1534C98.8375 54.5552 98.9999 55.034 98.9999 55.5855C98.9999 56.3314 98.7284 56.9512 98.1834 57.445C97.6384 57.9301 96.9352 58.1738 96.0717 58.1738H93.5859V49.1562ZM94.4772 50.0368V52.9266H94.9923C95.7789 52.9266 96.3667 52.8005 96.7514 52.5504C97.1361 52.2982 97.3285 51.9049 97.3285 51.3684C97.3285 50.4814 96.7257 50.0368 95.5181 50.0368H94.4772ZM94.4772 53.8328V57.2996H95.5951C96.2406 57.2996 96.7129 57.2376 97.0143 57.1115C97.3242 56.9769 97.5764 56.776 97.7688 56.5088C97.9611 56.2331 98.0573 55.9509 98.0573 55.6667C98.0573 55.3824 98.0039 55.1302 97.8949 54.9122C97.7859 54.6942 97.6234 54.5018 97.4054 54.3351C97.196 54.1684 96.9395 54.0423 96.6381 53.9589C96.3453 53.8756 95.7917 53.8328 94.9795 53.8328H94.4772Z" fill="#1F305F"/>
</g>
<defs>
<clipPath id="clip0_491_1570">
<rect width="89" height="25.2423" fill="white" transform="translate(10 41)"/>
</clipPath>
</defs>
</svg>
