<svg width="108" height="108" viewBox="0 0 108 108" fill="none" xmlns="http://www.w3.org/2000/svg">
<g clip-path="url(#clip0_491_1655)">
<mask id="mask0_491_1655" style="mask-type:luminance" maskUnits="userSpaceOnUse" x="14" y="40" width="32" height="27">
<path d="M45.4482 40.002H14.0024V66.9505H45.4482V40.002Z" fill="white"/>
</mask>
<g mask="url(#mask0_491_1655)">
<path d="M44.2107 60.7784C42.5355 61.6546 33.8418 65.2304 31.9691 66.2119C30.0964 67.1934 29.0934 67.1654 27.6287 66.4653C26.164 65.7652 16.9442 62.0154 15.2734 61.2165C14.4315 60.8213 14.002 60.4841 14.002 60.1684V56.9878C14.002 56.9878 26.0459 54.3741 27.9895 53.6697C29.9331 52.9652 30.6054 52.9481 32.2569 53.5537C33.9084 54.1593 43.809 55.9462 45.4434 56.5389V59.6745C45.4434 60.0009 45.0676 60.3188 44.2107 60.7762V60.7784Z" fill="#A32422"/>
<path d="M44.2108 57.613C42.5357 58.4849 33.842 62.0607 31.9693 63.025C30.0966 63.9893 29.0936 63.9807 27.6289 63.2828C26.1642 62.5848 16.9444 58.835 15.2735 58.0425C13.6027 57.25 13.5705 56.6959 15.2091 56.0559C16.8478 55.4159 26.0461 51.8144 27.9897 51.1056C29.9333 50.3969 30.6055 50.3819 32.2571 50.9897C33.9086 51.5974 42.5658 55.0358 44.1915 55.635C45.8173 56.2342 45.8924 56.726 44.2108 57.5958V57.613Z" fill="#DC382C"/>
<path d="M44.2107 55.5988C42.5355 56.4729 33.8418 60.0465 31.9691 61.0108C30.0964 61.9751 29.102 61.9665 27.6373 61.2642C26.1726 60.562 16.9442 56.8337 15.2734 56.0369C14.4315 55.6374 14.002 55.3024 14.002 54.9846V51.8146C14.002 51.8146 26.0459 49.1924 27.9895 48.4879C29.9331 47.7835 30.6054 47.7642 32.2569 48.3784C33.9084 48.9926 43.809 50.7623 45.4434 51.3593V54.4949C45.4434 54.8213 45.0676 55.1478 44.2107 55.5988Z" fill="#A32422"/>
<path d="M44.211 52.4166C42.5358 53.2929 33.8422 56.8665 31.9695 57.8308C30.0967 58.7951 29.0938 58.7887 27.6291 58.0886C26.1644 57.3884 16.9446 53.6537 15.2737 52.8548C13.6028 52.0558 13.5728 51.5125 15.2093 50.8725C16.8458 50.2325 26.0463 46.6223 27.9899 45.9329C29.9335 45.2435 30.6057 45.2006 32.2572 45.7998C33.9088 46.3989 42.5659 49.8674 44.1917 50.4494C45.8174 51.0314 45.8926 51.5425 44.211 52.4102V52.4166Z" fill="#DC382C"/>
<path d="M44.2107 50.2221C42.5355 51.0983 33.8419 54.6742 31.9691 55.6363C30.0964 56.5985 29.102 56.592 27.6373 55.894C26.1726 55.196 16.9442 51.457 15.2734 50.6602C14.4315 50.2651 14.002 49.9279 14.002 49.61V46.4294C14.002 46.4294 26.0459 43.8157 27.9895 43.1134C29.9331 42.4111 30.6054 42.3897 32.2569 42.9953C33.9084 43.6009 43.8048 45.3878 45.4391 45.9848V49.1204C45.4434 49.4511 45.0676 49.7733 44.2107 50.2221Z" fill="#A32422"/>
<path d="M44.2108 47.0458C42.5357 47.9049 33.842 51.5022 31.9693 52.4579C30.0966 53.4136 29.0936 53.4114 27.6289 52.7156C26.1642 52.0197 16.9444 48.2764 15.2735 47.4818C13.6027 46.6872 13.5705 46.1352 15.2091 45.4952C16.8478 44.8552 26.0461 41.2472 27.9897 40.5471C29.9333 39.8469 30.6055 39.8254 32.2571 40.4311C33.9086 41.0367 42.5658 44.4794 44.1915 45.0764C45.8173 45.6735 45.8924 46.1696 44.2108 47.0394V47.0458Z" fill="#DC382C"/>
</g>
<path d="M30.2169 42.5294L32.2916 41.8486L31.7289 43.193L33.84 43.9833L31.1189 44.2668L30.5069 45.7358L29.5232 44.0971L26.377 43.8137L28.7265 42.9675L28.0199 41.666L30.2169 42.5294Z" fill="white"/>
<path d="M30.3478 51.1051L25.2622 48.9939L32.547 47.875L30.3478 51.1051Z" fill="white"/>
<path d="M23.2972 44.7988C25.4448 44.7988 27.1909 45.4753 27.1909 46.3022C27.1909 47.129 25.4405 47.8055 23.2972 47.8055C21.1538 47.8055 19.4014 47.129 19.4014 46.3022C19.4014 45.4753 21.1474 44.7988 23.2972 44.7988Z" fill="white"/>
<path d="M37.0635 44.3848L41.3738 46.0878L37.0678 47.7909L37.0635 44.3848Z" fill="#741113"/>
<path d="M37.0636 44.3848L37.0679 47.7909L36.5997 47.9735L32.2915 46.2704L37.0636 44.3848Z" fill="#AC2724"/>
<path d="M55.4517 48.8931C55.8234 48.4875 56.2803 48.1692 56.7896 47.9611C57.2859 47.7483 57.8177 47.631 58.3574 47.6153C58.5505 47.5977 58.7451 47.6193 58.9296 47.6787C59.1141 47.7381 59.2847 47.8342 59.4312 47.9611C59.5399 48.0661 59.6251 48.1929 59.6813 48.3332C59.7376 48.4735 59.7636 48.624 59.7577 48.775C59.7598 49.0786 59.6426 49.371 59.4312 49.589C59.3292 49.703 59.2035 49.7934 59.0629 49.8538C58.9223 49.9143 58.7702 49.9434 58.6173 49.939C57.2772 50.0572 55.4173 51.393 55.4173 53.2077V57.3269C55.4086 57.6327 55.2831 57.9235 55.0666 58.1396C54.8501 58.3557 54.5591 58.4807 54.2533 58.4888C54.0968 58.4943 53.9411 58.465 53.7974 58.403C53.6536 58.3409 53.5255 58.2478 53.4221 58.1301C53.3133 58.0241 53.2265 57.8976 53.1668 57.7579C53.1071 57.6182 53.0756 57.4681 53.0742 57.3162V48.7256C53.0755 48.5737 53.1069 48.4235 53.1666 48.2838C53.2264 48.1441 53.3132 48.0176 53.4221 47.9117C53.677 47.7277 53.9819 47.6258 54.2962 47.6196C54.6021 47.6256 54.8938 47.7497 55.1104 47.9658C55.3269 48.1819 55.4515 48.4734 55.4581 48.7793L55.4517 48.8931Z" fill="#494C4D"/>
<path d="M69.5639 52.6732C69.5652 52.9539 69.4618 53.225 69.2739 53.4335C69.0511 53.6402 68.7634 53.7632 68.46 53.7814H61.5875C61.6525 54.3272 61.9181 54.8294 62.3328 55.1902C62.864 55.7615 63.5909 56.1119 64.3687 56.1717C64.7626 56.2386 65.1659 56.2268 65.5552 56.1368C65.9444 56.0469 66.312 55.8806 66.6366 55.6477C66.7507 55.5327 66.8871 55.4423 67.0374 55.3821C67.1878 55.3219 67.3488 55.2932 67.5107 55.2976C67.6498 55.2911 67.7887 55.3137 67.9185 55.364C68.0483 55.4143 68.1662 55.4911 68.2645 55.5897C68.3564 55.6739 68.4307 55.7754 68.4832 55.8884C68.5357 56.0014 68.5654 56.1237 68.5706 56.2482C68.5758 56.3727 68.5563 56.4969 68.5134 56.6139C68.4705 56.7309 68.4049 56.8382 68.3204 56.9298C68.3032 56.9491 68.2839 56.9663 68.2645 56.9857C67.7574 57.4551 67.1628 57.82 66.5146 58.0595C65.8664 58.2991 65.1774 58.4085 64.4868 58.3816C63.7779 58.397 63.0739 58.2596 62.4228 57.9787C61.7717 57.6978 61.1887 57.28 60.7134 56.7537C59.7285 55.7134 59.1691 54.3418 59.1457 52.9094C59.1308 52.1962 59.2622 51.4875 59.5319 50.8271C59.8015 50.1666 60.2036 49.5685 60.7134 49.0695C61.1781 48.5632 61.7451 48.1615 62.3767 47.8908C63.0083 47.6202 63.6903 47.4868 64.3773 47.4995C65.0455 47.474 65.7115 47.5906 66.3312 47.8416C66.951 48.0927 67.5104 48.4724 67.9725 48.9556C68.9582 49.9 69.5433 51.1871 69.6068 52.5508V52.6646L69.5639 52.6732ZM64.3881 49.5913C63.6653 49.6037 62.9703 49.8723 62.4273 50.3494C61.9646 50.7383 61.6387 51.2652 61.4973 51.8528H67.6031C67.4319 51.2623 67.0616 50.7493 66.555 50.401C65.9436 49.9081 65.1918 49.6217 64.4074 49.5827" fill="#494C4D"/>
<path d="M80.5062 57.2092C80.4981 57.515 80.3731 57.8061 80.157 58.0226C79.9409 58.2391 79.6501 58.3646 79.3443 58.3732C79.0762 58.3626 78.8185 58.2663 78.6091 58.0986C78.3996 57.9309 78.2493 57.7005 78.1803 57.4412C77.315 58.0607 76.2742 58.3873 75.2101 58.3732C74.5152 58.3811 73.8261 58.2457 73.1858 57.9756C72.5455 57.7055 71.9676 57.3065 71.4883 56.8033C70.9864 56.3011 70.593 55.7011 70.3326 55.0405C70.0721 54.38 69.9501 53.673 69.9742 52.9633C69.9649 51.5367 70.5074 50.1616 71.4883 49.1255C71.9643 48.6135 72.54 48.2044 73.1801 47.9233C73.8202 47.6422 74.511 47.4952 75.2101 47.4912C76.2543 47.4773 77.2745 47.8046 78.1159 48.4232V44.3578C78.1118 44.2048 78.141 44.0528 78.2015 43.9123C78.2619 43.7718 78.3521 43.646 78.4659 43.5438C78.5731 43.4334 78.7013 43.3455 78.8429 43.2854C78.9845 43.2253 79.1368 43.1941 79.2906 43.1937C79.4436 43.1897 79.5955 43.2189 79.7361 43.2793C79.8766 43.3398 80.0023 43.43 80.1046 43.5438C80.2138 43.6496 80.301 43.776 80.3611 43.9157C80.4211 44.0555 80.453 44.2057 80.4546 44.3578V57.2092H80.5062ZM75.2767 56.0452C75.6636 56.0532 76.0473 55.9739 76.3994 55.8133C76.7515 55.6527 77.0629 55.4148 77.3105 55.1174C77.8669 54.5409 78.1778 53.771 78.1778 52.9698C78.1778 52.1686 77.8669 51.3986 77.3105 50.8221C77.0549 50.5334 76.7421 50.3007 76.3921 50.1388C76.0421 49.9769 75.6623 49.8893 75.2767 49.8815C74.8882 49.868 74.502 49.9453 74.1486 50.107C73.7952 50.2688 73.4844 50.5107 73.2407 50.8136C72.6843 51.3901 72.3734 52.16 72.3734 52.9612C72.3734 53.7624 72.6843 54.5323 73.2407 55.1088C73.4933 55.4009 73.806 55.635 74.1574 55.7951C74.5087 55.9553 74.8905 56.0376 75.2767 56.0366" fill="#494C4D"/>
<path d="M83.9445 44.3579V44.8261C83.9496 44.9904 83.9203 45.154 83.8585 45.3063C83.7968 45.4587 83.7039 45.5965 83.5858 45.7109C83.4806 45.8172 83.3528 45.8985 83.2119 45.9487C83.071 45.9989 82.9206 46.0167 82.7718 46.0008C82.6195 46.006 82.4679 45.9777 82.3276 45.918C82.1874 45.8582 82.0619 45.7685 81.96 45.6551C81.8445 45.5419 81.7538 45.4059 81.6935 45.2558C81.6332 45.1058 81.6048 44.9448 81.61 44.7831V44.3536C81.6107 44.2014 81.6421 44.0509 81.7022 43.911C81.7624 43.7712 81.85 43.6449 81.96 43.5396C82.0654 43.4304 82.1914 43.3432 82.3308 43.2831C82.4702 43.223 82.6201 43.1912 82.7718 43.1896C82.9249 43.1872 83.0768 43.2176 83.2172 43.2787C83.3575 43.3398 83.4832 43.4303 83.5858 43.5439C83.701 43.6454 83.7926 43.7708 83.8542 43.9114C83.9158 44.0521 83.9459 44.2044 83.9423 44.3579M81.9815 47.9079C82.0867 47.798 82.2131 47.7103 82.3529 47.6501C82.4927 47.59 82.6433 47.5586 82.7955 47.5579C82.9485 47.5528 83.1008 47.5815 83.2415 47.6421C83.3822 47.7026 83.5078 47.7933 83.6094 47.9079C83.7198 48.0214 83.8062 48.1559 83.8634 48.3035C83.9206 48.4512 83.9475 48.6088 83.9423 48.767V57.2738C83.9515 57.428 83.9239 57.5822 83.8619 57.7236C83.8 57.8651 83.7053 57.9899 83.5858 58.0878C83.4805 58.197 83.3544 58.2842 83.2151 58.3443C83.0757 58.4044 82.9258 58.4362 82.774 58.4378C82.621 58.4422 82.469 58.4131 82.3284 58.3526C82.1878 58.2922 82.0621 58.2018 81.96 58.0878C81.85 57.9825 81.7624 57.8562 81.7022 57.7164C81.6421 57.5765 81.6107 57.426 81.61 57.2738V48.7756C81.6059 48.616 81.635 48.4573 81.6952 48.3095C81.7554 48.1616 81.8456 48.0278 81.96 47.9165" fill="#494C4D"/>
<path d="M92.1935 48.7219C92.4318 48.8861 92.5985 49.1349 92.6595 49.4178C92.7065 49.7135 92.6662 50.0165 92.5436 50.2897C92.3769 50.5259 92.1279 50.6914 91.8456 50.7536C91.5427 50.8095 91.2299 50.7472 90.9715 50.5796C90.1575 50.0578 89.5218 49.7678 88.9957 49.7678C88.5309 49.7379 88.0716 49.8818 87.7071 50.1716C87.4751 50.3477 87.3592 50.4637 87.3592 50.5796C87.343 50.6808 87.3636 50.7844 87.4171 50.8717C87.4833 50.9433 87.5619 51.0022 87.6491 51.0457C88.1234 51.3437 88.6627 51.5228 89.2212 51.5676C89.9443 51.6868 90.648 51.9035 91.313 52.2118C91.8993 52.4568 92.3895 52.8867 92.7089 53.436C92.9164 53.7561 93.0584 54.1141 93.1269 54.4893C93.1953 54.8646 93.1888 55.2496 93.1078 55.6224C93.0267 55.9951 92.8727 56.3481 92.6546 56.661C92.4365 56.9739 92.1586 57.2406 91.837 57.4456C91.0234 58.0271 90.045 58.3327 89.0451 58.3176C87.7071 58.3176 86.4292 57.7957 85.2072 56.8142C84.985 56.6184 84.8402 56.3495 84.7992 56.0561C84.7791 55.8385 84.8232 55.6198 84.9262 55.4271C85.0291 55.2344 85.1864 55.0761 85.3784 54.9719C85.5704 54.8676 85.7888 54.822 86.0065 54.8406C86.2242 54.8593 86.4317 54.9414 86.6032 55.0768C87.2451 55.6874 88.1012 56.0213 88.9871 56.0067C89.5022 56.0243 90.0102 55.8817 90.441 55.5987C90.673 55.3667 90.8491 55.1928 90.8491 55.0167C90.8491 54.8406 90.8491 54.7847 90.7911 54.7267C90.7911 54.6666 90.673 54.5528 90.499 54.4948C89.9681 54.1665 89.3725 53.957 88.753 53.8806C88.0622 53.781 87.3938 53.563 86.7771 53.2363C86.2124 52.9608 85.7308 52.5406 85.3812 52.0186C85.1522 51.61 85.033 51.149 85.0354 50.6806C85.0345 50.2082 85.1508 49.743 85.3738 49.3266C85.5968 48.9102 85.9196 48.5556 86.3133 48.2945C87.101 47.7576 88.0338 47.4736 88.9871 47.4806C89.9664 47.5407 91.023 47.9445 92.1849 48.7026" fill="#494C4D"/>
</g>
<defs>
<clipPath id="clip0_491_1655">
<rect width="79.1813" height="26.9722" fill="white" transform="translate(14 40)"/>
</clipPath>
</defs>
</svg>
