<svg width="108" height="108" viewBox="0 0 108 108" fill="none" xmlns="http://www.w3.org/2000/svg">
<g clip-path="url(#clip0_491_1512)">
<path d="M24.0294 67.28C22.3331 67.2562 21.2319 67.8116 20.7173 68.9449C19.9587 70.6152 20.6352 71.8776 23.0475 73.2865C24.4026 74.0779 25.0037 74.7597 25.0037 75.5063C25.0037 77.0469 23.1392 77.594 21.217 76.6187C20.8263 76.4205 20.4914 76.2574 20.4712 76.2571C20.4029 76.6934 20.4335 77.7411 20.4335 77.7411C20.4335 77.7411 21.0215 77.9865 21.9075 78.163C24.1066 78.6012 26.1034 77.5696 26.2918 75.898C26.4671 74.343 25.8961 73.5172 23.7506 72.2268C22.3142 71.3629 21.6809 70.7353 21.7619 69.992C21.9848 67.9463 24.5106 68.234 25.9026 69.0051L25.9076 67.6291C25.9076 67.6291 25.133 67.2955 24.0294 67.28ZM32.4816 67.2876C32.3797 67.2885 32.2747 67.2919 32.1703 67.2976C30.0862 67.4111 28.6796 68.3301 27.8512 70.1226C27.1484 71.7444 27.2265 73.8662 27.8638 75.4912C28.5996 77.0848 29.7962 77.9264 31.7836 78.2484C32.2019 78.3162 32.4883 78.5521 33.3002 79.5039L34.3022 80.6791H36.1252L34.9123 79.4587C34.2454 78.7883 33.6995 78.2018 33.6995 78.1555C33.6995 78.1092 33.9549 77.9954 34.267 77.9019C35.2919 77.5948 36.1352 76.806 36.7329 75.5967C37.211 74.6293 37.2848 74.331 37.3481 73.1208C37.5368 69.5135 35.6402 67.2594 32.4816 67.2876ZM51.1232 67.3001C49.427 67.2763 48.3233 67.8317 47.8086 68.965C47.0501 70.6353 47.729 71.8977 50.1414 73.3066C51.4965 74.098 52.095 74.7773 52.095 75.5239C52.095 77.0645 50.2331 77.6141 48.3108 76.6388C47.9202 76.4406 47.5828 76.2775 47.5625 76.2772C47.4943 76.7135 47.5274 77.7612 47.5274 77.7612C47.5274 77.7612 48.1129 78.004 48.9989 78.1806C51.198 78.6188 53.1948 77.5872 53.3832 75.9156C53.5585 74.3605 52.9875 73.5348 50.842 72.2444C49.4055 71.3805 48.7722 70.7554 48.8532 70.0121C49.0762 67.9664 51.6019 68.2541 52.994 69.0252L52.999 67.6492C52.999 67.6492 52.2269 67.3156 51.1232 67.3001ZM39.0054 67.4131V72.719V78.0249H41.8052H44.6051V77.5101V76.7694H40.3312V72.2042V67.4131H39.6683H39.0054ZM32.3837 68.415C34.599 68.415 35.8607 69.77 36.0197 72.3197C36.1517 74.4355 35.4417 76.0342 34.0787 76.694C33.1966 77.121 31.9078 77.2093 31.0654 76.8999C30.2008 76.5824 29.3605 75.6823 28.9762 74.6626C28.5562 73.5482 28.6167 71.489 29.0967 70.5645C29.8649 69.0851 30.8889 68.415 32.3837 68.415ZM77.2214 70.2707C76.9626 70.2748 76.6902 70.3061 76.4103 70.3661C74.644 70.8296 73.6465 72.5192 73.7134 74.2608C73.7145 75.7221 73.9978 76.4443 74.7003 77.2063C76.1384 78.3921 77.4457 78.4813 79.2101 77.8516C79.5145 77.721 79.8379 77.5754 79.8379 77.5754L79.8354 76.3927L79.2102 76.7217C77.7863 77.339 76.712 77.3404 75.8529 76.6087C75.3019 76.0467 75.0663 75.3877 74.9489 74.6199H77.6131H80.2774V73.6029C80.2774 71.5419 79.0332 70.242 77.2214 70.2707ZM57.7606 70.2883C57.5018 70.2924 57.2319 70.3237 56.952 70.3837C55.1858 70.8472 54.1857 72.5343 54.2526 74.2759C54.2537 75.7372 54.5396 76.4618 55.242 77.2239C56.6801 78.4097 57.9849 78.4989 59.7493 77.8692C60.0537 77.7386 60.3771 77.5905 60.3771 77.5905V76.4103L59.7493 76.7392C58.3255 77.3566 57.2512 77.358 56.392 76.6262C55.8411 76.0643 55.6055 75.4027 55.4881 74.635H58.1548H60.8191V73.6205C60.8191 71.5595 59.5724 70.2596 57.7606 70.2883ZM84.9881 70.3435C84.2207 70.3435 83.6352 70.6514 83.2454 71.2601L82.9366 71.7447L82.9341 71.1195L82.9316 70.4917H82.2687H81.6057V74.2508V78.0098H82.2687H82.9316V75.6093C82.9316 73.4128 82.9596 73.1525 83.2631 72.5508C83.6804 71.7232 84.4114 71.3148 85.1137 71.5162L85.5833 71.6518V70.9964V70.3435H84.9881ZM65.5273 70.3611C64.7599 70.3611 64.1769 70.669 63.7872 71.2777L63.4758 71.7623L63.4733 71.1345L63.4708 70.5093H62.8078H62.1449V74.2683V78.0249H62.8078H63.4708V75.6243C63.4708 73.4278 63.4988 73.1675 63.8022 72.5658C64.2195 71.7383 64.9506 71.3299 65.6529 71.5313L66.125 71.6669V71.014V70.3611H65.5273ZM66.5594 70.4956C67.4469 72.9982 68.4054 75.552 69.3768 78.0224C69.7974 78.0268 70.2192 78.0253 70.6399 78.0249L72.1239 74.3035L73.6331 70.498H72.3248C72.3248 70.498 71.7475 72.0068 71.1446 73.6983L70.0498 76.5519L68.9976 73.6782L67.9279 70.4956H66.5594ZM77.1435 71.4082C77.5395 71.4097 77.9303 71.5359 78.261 71.7899C78.9314 72.305 79.0444 73.5728 79.0444 73.5728H75.0644C75.0644 73.5728 75.2651 72.284 75.9935 71.7748C76.3444 71.5296 76.7476 71.4067 77.1435 71.4082ZM57.6827 71.4258C58.0787 71.4273 58.4695 71.5534 58.8002 71.8075C59.4706 72.3225 59.5836 73.5878 59.5836 73.5878H55.6061C55.6061 73.5878 55.8068 72.3016 56.5352 71.7924C56.8861 71.5471 57.2868 71.4243 57.6827 71.4258Z" fill="black"/>
<path d="M43.5907 63.5664C43.5907 63.511 43.5753 63.4718 43.5447 63.4471C43.5097 63.4181 43.4501 63.4044 43.3674 63.4044H43.248V63.7317H43.3921C43.5242 63.7317 43.5907 63.6763 43.5907 63.5664ZM43.7757 64.2483H43.6129L43.508 64.0181C43.4552 63.9031 43.398 63.8451 43.3367 63.8451H43.248V64.2483H43.1134V63.2885H43.3844C43.5037 63.2885 43.5941 63.3158 43.6563 63.3695C43.7083 63.4155 43.7347 63.476 43.7347 63.5502C43.7347 63.6158 43.7134 63.6721 43.6708 63.7181C43.6282 63.765 43.5677 63.7957 43.491 63.8119V63.816C43.5447 63.8279 43.5975 63.8867 43.6504 63.9924L43.7757 64.2481V64.2483ZM44.0748 63.7786C44.0748 63.5885 44.0101 63.4309 43.8813 63.3039C43.7526 63.1768 43.5958 63.1138 43.41 63.1138C43.2182 63.1138 43.0597 63.1777 42.9335 63.3056C42.8065 63.4334 42.7434 63.5911 42.7434 63.7786C42.7434 63.9696 42.8091 64.1298 42.9395 64.2577C43.0682 64.3838 43.225 64.4469 43.41 64.4469C43.5941 64.4469 43.7509 64.383 43.8805 64.2551C44.0101 64.1272 44.0748 63.9687 44.0748 63.7786ZM44.1652 63.7745C44.1652 63.9859 44.0919 64.1632 43.9461 64.3073C43.8004 64.4513 43.6205 64.5229 43.4066 64.5229C43.1909 64.5229 43.0111 64.453 42.8687 64.3132C42.7264 64.1726 42.6548 63.9953 42.6548 63.7805C42.6548 63.5699 42.7272 63.3927 42.8721 63.2478C43.017 63.1037 43.1969 63.0312 43.4125 63.0312C43.6239 63.0312 43.8012 63.1003 43.9444 63.2384C44.0919 63.3799 44.1652 63.5589 44.1652 63.7745Z" fill="#231F1F"/>
<path d="M24.6441 66.2747H24.2051V63.756C24.2051 63.5574 24.217 63.3144 24.2409 63.0289H24.2306C24.1889 63.196 24.1514 63.317 24.1181 63.392L22.8396 66.2747H22.6248L21.3428 63.4133C21.3061 63.3332 21.2686 63.2045 21.2303 63.0289H21.2201C21.2337 63.1789 21.2414 63.4227 21.2414 63.7611V66.2747H20.8169V62.5234H21.3982L22.5489 65.1394C22.6359 65.3363 22.693 65.4863 22.7194 65.5894H22.7373C22.8123 65.384 22.872 65.2306 22.918 65.1292L24.0926 62.5234H24.6441" fill="#231F1F"/>
<path d="M25.9995 63.597V66.2752H25.5708V63.597H25.9995ZM26.0728 62.6372C26.0728 62.7157 26.0447 62.7813 25.9901 62.8359C25.9356 62.8895 25.8683 62.9168 25.7898 62.9168C25.7131 62.9168 25.6475 62.8904 25.5921 62.8384C25.5375 62.7864 25.5103 62.7191 25.5103 62.6372C25.5103 62.558 25.5375 62.4923 25.5921 62.4395C25.6475 62.3858 25.7131 62.3594 25.7898 62.3594C25.8683 62.3594 25.9356 62.3858 25.9901 62.4395C26.0447 62.4923 26.0728 62.558 26.0728 62.6372Z" fill="#231F1F"/>
<path d="M28.6726 66.1523C28.4672 66.2776 28.2217 66.3407 27.9379 66.3407C27.5543 66.3407 27.2449 66.2137 27.0088 65.9588C26.7786 65.7108 26.6636 65.392 26.6636 65.0016C26.6636 64.5618 26.7897 64.2072 27.042 63.937C27.2935 63.6668 27.6327 63.5312 28.0581 63.5312C28.2916 63.5312 28.4979 63.5764 28.6777 63.6676V64.1066C28.4791 63.9677 28.266 63.8978 28.0393 63.8978C27.7674 63.8978 27.5458 63.9924 27.3727 64.1825C27.1929 64.3777 27.1034 64.6376 27.1034 64.9624C27.1034 65.2744 27.1852 65.5207 27.3506 65.7023C27.5151 65.8838 27.7359 65.9742 28.0137 65.9742C28.2473 65.9742 28.4672 65.8974 28.6726 65.744" fill="#231F1F"/>
<path d="M30.7183 64.0304C30.6433 63.9725 30.5342 63.9443 30.391 63.9443C30.2171 63.9443 30.0705 64.0228 29.9521 64.1796C29.8174 64.3552 29.7509 64.599 29.7509 64.9092V66.2747H29.3213V63.5957H29.7509V64.1481H29.7612C29.8234 63.9529 29.9205 63.802 30.0518 63.6954C30.1737 63.5983 30.3101 63.5488 30.4618 63.5488C30.5752 63.5488 30.6613 63.5616 30.7184 63.5855" fill="#231F1F"/>
<path d="M33.1081 64.9411C33.1081 64.5976 33.0305 64.3359 32.8754 64.1561C32.7254 63.9839 32.5157 63.8969 32.2446 63.8969C31.9778 63.8969 31.7647 63.9847 31.6045 64.1586C31.4349 64.3453 31.3505 64.6095 31.3505 64.9513C31.3505 65.2727 31.4315 65.5233 31.5934 65.7031C31.7562 65.8838 31.9727 65.9742 32.2446 65.9742C32.5276 65.9742 32.7424 65.883 32.8907 65.6997C33.0356 65.5216 33.1081 65.2693 33.1081 64.9411ZM33.5479 64.9257C33.5479 65.3528 33.4269 65.6954 33.1865 65.9537C32.9461 66.2111 32.6214 66.3407 32.2139 66.3407C31.8108 66.3407 31.492 66.2111 31.2559 65.9537C31.0257 65.704 30.9106 65.3749 30.9106 64.9675C30.9106 64.5013 31.0419 64.1416 31.3036 63.8867C31.5457 63.6497 31.8704 63.5312 32.2761 63.5312C32.6759 63.5312 32.9879 63.6548 33.2112 63.9029C33.4354 64.1501 33.5479 64.491 33.5479 64.9257Z" fill="#231F1F"/>
<path d="M35.6749 65.5582C35.6749 65.7781 35.593 65.9605 35.4285 66.1046C35.2495 66.2623 35.004 66.3407 34.6938 66.3407C34.4389 66.3407 34.2182 66.2861 34.0298 66.1779V65.7176C34.2386 65.8889 34.4705 65.9742 34.7253 65.9742C35.0654 65.9742 35.235 65.8497 35.235 65.6C35.235 65.4951 35.1975 65.409 35.1225 65.3408C35.0475 65.2727 34.9018 65.1917 34.6836 65.0954C34.4585 64.9973 34.2991 64.8968 34.2045 64.7919C34.0912 64.6683 34.0349 64.5064 34.0349 64.3078C34.0349 64.0844 34.1227 63.8995 34.2991 63.752C34.4747 63.6046 34.7015 63.5312 34.9793 63.5312C35.1916 63.5312 35.3825 63.573 35.5521 63.6565V64.0879C35.3757 63.9608 35.1737 63.8969 34.9452 63.8969C34.802 63.8969 34.6878 63.9319 34.6026 64.0018C34.5165 64.0717 34.4739 64.1612 34.4739 64.2711C34.4739 64.3896 34.5097 64.4825 34.5813 64.5481C34.6461 64.6095 34.7799 64.6837 34.9844 64.7706C35.2129 64.8669 35.3774 64.9649 35.4788 65.0664C35.6092 65.1959 35.6749 65.3596 35.6749 65.5582Z" fill="#231F1F"/>
<path d="M38.2956 64.9411C38.2956 64.5976 38.218 64.3359 38.0629 64.1561C37.9129 63.9839 37.7023 63.8969 37.4321 63.8969C37.1653 63.8969 36.9522 63.9847 36.7911 64.1586C36.6224 64.3453 36.538 64.6095 36.538 64.9513C36.538 65.2727 36.6189 65.5233 36.7809 65.7031C36.9437 65.8838 37.1602 65.9742 37.4321 65.9742C37.7151 65.9742 37.9299 65.883 38.0782 65.6997C38.2231 65.5216 38.2956 65.2693 38.2956 64.9411ZM38.7354 64.9257C38.7354 65.3528 38.6144 65.6954 38.374 65.9537C38.1336 66.2111 37.8089 66.3407 37.4006 66.3407C36.9983 66.3407 36.6795 66.2111 36.4434 65.9537C36.2132 65.704 36.0981 65.3749 36.0981 64.9675C36.0981 64.5013 36.2294 64.1416 36.4911 63.8867C36.7332 63.6497 37.0571 63.5312 37.4636 63.5312C37.8634 63.5312 38.1745 63.6548 38.3987 63.9029C38.6229 64.1501 38.7354 64.491 38.7354 64.9257Z" fill="#231F1F"/>
<path d="M40.6263 62.6858C40.5428 62.6389 40.4473 62.6151 40.3408 62.6151C40.0416 62.6151 39.8916 62.8043 39.8916 63.1828V63.5962H40.5189V63.9601H39.8916V66.2743H39.462V63.9601H39.0068V63.5962H39.462V63.1623C39.462 62.8674 39.5541 62.6364 39.7365 62.4685C39.8942 62.3244 40.0868 62.252 40.3152 62.252C40.4473 62.252 40.5513 62.2673 40.6263 62.2988" fill="#231F1F"/>
<path d="M42.319 66.2472C42.2176 66.3051 42.0837 66.3333 41.9158 66.3333C41.4487 66.3333 41.2152 66.0707 41.2152 65.544V63.9586H40.7549V63.5946H41.2152V62.9408C41.3507 62.8973 41.4939 62.8513 41.6439 62.8027V63.5946H42.319V63.9586H41.6439V65.4707C41.6439 65.6505 41.6746 65.7775 41.736 65.8534C41.7965 65.9292 41.8988 65.9676 42.042 65.9676C42.1477 65.9676 42.2406 65.9386 42.319 65.8807" fill="#231F1F"/>
<path d="M86.9147 70.8066C86.9147 70.7512 86.8993 70.712 86.8686 70.6873C86.8337 70.6583 86.774 70.6447 86.6913 70.6447H86.572V70.972H86.7161C86.8482 70.972 86.9147 70.9166 86.9147 70.8066ZM87.0996 71.4885H86.9368L86.832 71.2584C86.7791 71.1433 86.722 71.0853 86.6607 71.0853H86.572V71.4885H86.4373V70.5287H86.7084C86.8277 70.5287 86.9181 70.556 86.9803 70.6097C87.0323 70.6557 87.0587 70.7163 87.0587 70.7904C87.0587 70.8561 87.0374 70.9123 86.9948 70.9583C86.9522 71.0052 86.8917 71.0359 86.8149 71.0521V71.0562C86.8686 71.0681 86.9215 71.127 86.9743 71.2326L87.0996 71.4884V71.4885ZM87.3988 71.0189C87.3988 70.8288 87.334 70.6711 87.2053 70.5441C87.0766 70.4171 86.9198 70.354 86.734 70.354C86.5422 70.354 86.3836 70.4179 86.2575 70.5458C86.1305 70.6736 86.0674 70.8313 86.0674 71.0189C86.0674 71.2098 86.133 71.37 86.2635 71.4979C86.3922 71.624 86.549 71.6871 86.734 71.6871C86.9181 71.6871 87.0749 71.6232 87.2045 71.4953C87.334 71.3675 87.3988 71.2089 87.3988 71.0189ZM87.4892 71.0148C87.4892 71.2261 87.4159 71.4034 87.2701 71.5475C87.1244 71.6915 86.9445 71.7631 86.7306 71.7631C86.5149 71.7631 86.335 71.6933 86.1927 71.5535C86.0504 71.4128 85.9788 71.2355 85.9788 71.0207C85.9788 70.8102 86.0512 70.6329 86.1961 70.488C86.341 70.3439 86.5209 70.2715 86.7365 70.2715C86.9479 70.2715 87.1252 70.3405 87.2684 70.4786C87.4159 70.6201 87.4892 70.7991 87.4892 71.0148Z" fill="#231F1F"/>
<path d="M65.9057 43.7344L58.4922 46.152L52.0472 48.9987L50.2416 49.4759C49.7839 49.911 49.2981 50.353 48.7807 50.8031C48.2121 51.298 47.6772 51.7465 47.2706 52.0706C46.8178 52.4315 46.1445 53.0996 45.8003 53.5279C45.2883 54.1653 44.888 54.8449 44.7158 55.3675C44.4061 56.3079 44.557 57.2603 45.1543 58.1392C45.9173 59.262 47.4363 60.4028 49.2028 61.1794C50.1039 61.5756 51.6245 62.0862 52.7648 62.3742C54.6649 62.854 58.3374 63.3754 60.36 63.4528C60.7702 63.4685 61.3162 63.4671 61.3413 63.4505C61.3857 63.4212 61.7006 62.825 62.0659 62.0787C63.3089 59.5395 64.2082 57.1591 64.6922 55.126C64.9852 53.895 65.2137 52.2535 65.3617 50.3072C65.4031 49.762 65.4182 47.9437 65.3863 47.3256C65.3345 46.3199 65.2459 45.5002 65.1037 44.6958C65.0829 44.5779 65.0752 44.4742 65.0861 44.4648C65.1068 44.4471 65.1768 44.4247 66.0874 44.16L65.9057 43.7344ZM64.2115 44.7286C64.2789 44.7286 64.458 46.4467 64.5046 47.5367C64.5145 47.7683 64.5125 47.9165 64.4987 47.9165C64.4545 47.9165 63.5493 47.385 62.9077 46.9821C62.3474 46.6302 61.2841 45.9236 61.115 45.7909C61.0617 45.749 61.0673 45.7469 61.5254 45.5892C62.3048 45.3208 64.1526 44.7286 64.2115 44.7286ZM60.435 45.9679C60.4829 45.9678 60.6133 46.0398 60.9216 46.2329C62.0779 46.9573 63.6437 47.8287 64.3147 48.1217C64.5227 48.2126 64.5465 48.1774 64.0673 48.5028C63.0459 49.1964 61.776 49.8784 60.2169 50.571C59.9452 50.6917 59.715 50.7902 59.7057 50.7902C59.6964 50.7902 59.7268 50.6524 59.7726 50.4831C60.1502 49.0859 60.3634 47.6757 60.3693 46.5448C60.3723 45.9854 60.3724 45.9825 60.4256 45.9691C60.4281 45.9685 60.4318 45.9679 60.435 45.9679ZM59.6577 46.2645C59.6911 46.2982 59.6669 47.5516 59.626 47.8931C59.5279 48.7124 59.3676 49.4702 59.1113 50.3318C59.05 50.5377 58.9926 50.7152 58.9835 50.7258C58.9612 50.7516 58.1948 50.0048 57.94 49.7092C57.5047 49.2043 57.1603 48.7026 56.9094 48.2085C56.7819 47.9573 56.5786 47.4613 56.5975 47.4476C56.6836 47.385 59.6366 46.2434 59.6577 46.2645ZM55.9961 47.7078C56.003 47.7085 56.0083 47.7104 56.0113 47.7137C56.0224 47.7259 56.0614 47.8169 56.0981 47.9165C56.2766 48.4014 56.678 49.1218 57.0267 49.5826C57.4073 50.0857 57.9035 50.6218 58.3187 50.9778C58.452 51.0922 58.5764 51.1989 58.5942 51.2147C58.6298 51.2462 58.6417 51.2409 57.7278 51.5875C56.6685 51.9893 55.5149 52.3916 54.1905 52.8198C53.6857 52.9829 53.2585 53.1208 53.2419 53.127C53.1915 53.1457 53.207 53.1146 53.3545 52.8843C54.0126 51.8568 55.0096 49.847 55.5669 48.4254C55.6636 48.1788 55.7556 47.9319 55.7721 47.8767C55.7964 47.7956 55.8202 47.768 55.8964 47.7336C55.9385 47.7146 55.9754 47.7058 55.9961 47.7078ZM54.874 48.171C54.8889 48.1841 54.6048 48.7841 54.3253 49.3294C53.7832 50.3869 53.1855 51.4277 52.3919 52.6978C52.255 52.917 52.1288 53.1174 52.1117 53.1422C52.0835 53.1831 52.072 53.1696 51.9851 52.9968C51.7951 52.619 51.6359 52.1423 51.5536 51.6989C51.4721 51.2601 51.486 50.5005 51.5841 50.0293C51.657 49.6793 51.6538 49.687 51.8186 49.6025C52.5312 49.2373 54.8508 48.1506 54.874 48.171ZM64.5386 48.5637V48.8018C64.5374 50.0518 64.404 51.7633 64.2103 53.0121C64.1763 53.2312 64.1469 53.412 64.1447 53.4142C64.1424 53.4164 63.9845 53.3701 63.7941 53.311C62.9529 53.0499 62.041 52.6598 61.2182 52.2089C60.6733 51.9104 59.8853 51.4267 59.9074 51.4046C59.9134 51.3986 60.1455 51.2756 60.4233 51.1314C61.5235 50.5604 62.5744 49.9447 63.4881 49.3341C63.8309 49.1049 64.3438 48.7341 64.4577 48.6341L64.5386 48.5637ZM50.6426 50.2204C50.6654 50.2193 50.6596 50.2627 50.6238 50.469C50.5989 50.6125 50.5708 50.8835 50.5605 51.0705C50.5155 51.8899 50.6483 52.4944 51.0553 53.3216C51.1685 53.5516 51.257 53.7433 51.2523 53.7472C51.2115 53.7813 47.5059 54.8657 46.3408 55.1846C45.9955 55.2792 45.6937 55.3625 45.669 55.3699C45.6286 55.3821 45.625 55.3732 45.6397 55.2784C45.7673 54.4563 46.3944 53.3773 47.2706 52.4716C47.8531 51.8694 48.3195 51.5127 49.1125 51.0599C49.6817 50.735 50.5656 50.2474 50.6309 50.2228C50.6353 50.2211 50.6393 50.2206 50.6426 50.2204ZM59.3833 51.7857C59.3868 51.7815 59.5241 51.8549 59.6881 51.9498C60.8851 52.642 62.5553 53.2913 63.9793 53.6171L64.1083 53.6464L63.9313 53.7448C63.1874 54.1576 60.7376 55.1769 58.2355 56.1156C57.8702 56.2526 57.5138 56.3869 57.444 56.4145C57.3743 56.4421 57.3174 56.4611 57.3174 56.4556C57.3174 56.4501 57.4206 56.2515 57.5472 56.0147C58.2496 54.7013 58.9508 53.1053 59.3106 51.9979C59.3473 51.885 59.3798 51.7899 59.3833 51.7857ZM58.4922 52.0776C58.4961 52.0815 58.4523 52.1991 58.3949 52.3379C57.9066 53.5187 57.2668 54.8069 56.451 56.2539C56.2434 56.6222 56.0684 56.9228 56.0617 56.9222C56.0551 56.9216 55.8862 56.8217 55.6865 56.6995C54.4982 55.972 53.4469 55.0765 52.7565 54.2056L52.6581 54.0825L53.1704 53.9418C54.998 53.4412 56.5479 52.9058 58.0889 52.2418C58.3071 52.1477 58.4884 52.0738 58.4922 52.0776ZM64.0274 54.0098C64.03 54.0104 64.0309 54.0122 64.0309 54.0145C64.0309 54.1391 63.7482 55.2918 63.5127 56.1261C63.3151 56.8259 63.1493 57.3733 62.8421 58.3432C62.7064 58.7716 62.5899 59.1212 62.5829 59.1194C62.576 59.1176 62.5435 59.1114 62.5103 59.1053C60.8455 58.8041 59.3544 58.3839 57.9576 57.8227C57.5668 57.6656 57.0025 57.4157 56.9727 57.3865C56.9626 57.3766 57.3001 57.2177 57.7219 57.0336C60.273 55.9205 62.9162 54.653 63.8199 54.1095C63.9286 54.0441 64.009 54.006 64.0274 54.0098ZM51.2499 54.4472C51.2636 54.4601 50.55 55.4816 49.5534 56.8765C49.207 57.3613 48.8001 57.9327 48.6494 58.1463C48.4988 58.3598 48.2709 58.6978 48.1417 58.8978L47.9061 59.2613L47.6552 59.0502C47.3608 58.803 46.8454 58.2782 46.6117 57.9868C46.1306 57.3872 45.8047 56.7561 45.6761 56.1765C45.6167 55.909 45.6149 55.7726 45.6714 55.7556C45.7529 55.7311 47.2495 55.3787 48.6529 55.0533C49.4325 54.8726 50.3338 54.661 50.6567 54.5832C50.9795 54.5054 51.2468 54.4442 51.2499 54.4472ZM51.9675 54.7215L52.148 54.9232C52.9553 55.8224 53.7762 56.4935 54.7779 57.0723C54.9547 57.1745 55.0895 57.2633 55.078 57.2704C55.0363 57.2962 51.6143 58.5129 50.0317 59.0643C49.1392 59.3753 48.4061 59.6288 48.402 59.6283C48.398 59.6277 48.3474 59.5946 48.2906 59.5544L48.1875 59.4805L48.3493 59.2472C48.8744 58.4866 49.5341 57.6502 50.9779 55.9127L51.9675 54.7215ZM56.4392 57.9176C56.4432 57.9127 56.6934 58.0014 56.9962 58.1146C57.726 58.3875 58.2988 58.5655 59.0738 58.7595C60.0257 58.9977 61.4013 59.236 62.216 59.3047C62.341 59.3152 62.4049 59.3295 62.3848 59.3422C62.347 59.3661 61.5221 59.6416 60.9157 59.8323C59.9531 60.1349 57.0112 61.0039 54.6126 61.6941C54.1676 61.8222 53.7871 61.9303 53.7672 61.9345C53.7135 61.9457 53.5257 61.8964 53.5257 61.8712C53.5257 61.8592 53.6602 61.689 53.8235 61.4936C54.6297 60.5292 55.4307 59.4521 56.0992 58.4335C56.2821 58.1549 56.4353 57.9226 56.4392 57.9176ZM55.4485 57.9458C55.4557 57.953 55.0583 58.5894 54.3593 59.6904C54.0642 60.1553 53.7295 60.6845 53.6148 60.8664C53.5001 61.0483 53.332 61.3247 53.2419 61.4819L53.0778 61.768L52.9946 61.7457C52.7937 61.6913 51.3768 61.1908 51.0025 61.0422C50.5387 60.8581 50.0552 60.6358 49.6988 60.4431C49.2533 60.2024 48.6884 59.8451 48.7327 59.8311C48.7454 59.8271 49.5119 59.6173 50.4351 59.3656C52.8908 58.6962 54.2492 58.3117 55.1402 58.0337C55.3066 57.9818 55.4453 57.9426 55.4485 57.9458ZM62.4235 59.5814C62.4288 59.5802 62.4312 59.5802 62.4317 59.5814C62.4549 59.6394 61.5458 62.1575 61.2135 62.9557C61.1391 63.1345 61.1115 63.1778 61.0728 63.1761C60.9788 63.172 59.6605 62.9877 58.8627 62.8666C57.4661 62.6546 55.1267 62.246 54.5363 62.1115L54.3992 62.081L55.2363 61.8923C57.0306 61.488 57.8924 61.2712 58.7666 61.0036C59.8691 60.666 60.9609 60.2452 62.0635 59.7326C62.2379 59.6516 62.3865 59.5894 62.4235 59.5814Z" fill="url(#paint0_linear_491_1512)"/>
<path d="M58.2653 26.4572C58.1413 26.4428 56.1517 27.1596 54.8733 27.679C53.1412 28.3827 51.7964 29.0569 50.9667 29.6393C50.6579 29.8561 50.2696 30.2459 50.2128 30.3955C50.1916 30.4515 50.1816 30.517 50.1812 30.5843L50.9339 31.2948L52.7195 31.8646L56.9732 32.6244L61.8354 33.4604L61.8847 33.043C61.87 33.0406 61.856 33.0382 61.8413 33.0359L61.2011 32.9351L61.071 32.7065C60.4101 31.5404 59.6799 30.0975 59.256 29.1211C58.9277 28.3649 58.6125 27.4938 58.4376 26.8629C58.3338 26.4882 58.323 26.464 58.2653 26.4572ZM58.1715 26.7457C58.1764 26.7448 58.1789 26.7447 58.1797 26.7457C58.1836 26.7504 58.2062 26.9068 58.2289 27.0927C58.3246 27.8759 58.4999 28.6354 58.7741 29.4529C58.9808 30.0689 58.9837 30.0327 58.7378 29.9641C58.166 29.8045 55.6044 29.3648 53.7513 29.1082C53.4527 29.0668 53.2042 29.0301 53.2002 29.0261C53.1767 29.0026 54.5366 28.2901 55.1395 28.0096C55.9127 27.6498 58.0182 26.7732 58.1715 26.7457ZM52.7723 29.2536L52.9892 29.3274C54.1789 29.7324 57.161 30.302 58.8093 30.4389C58.9952 30.4544 59.1516 30.4709 59.1563 30.4753C59.1611 30.4796 59.0031 30.564 58.8058 30.6629C58.0106 31.0612 57.1354 31.5467 56.53 31.9256C56.3522 32.0369 56.1892 32.1266 56.1677 32.1249C56.1463 32.1232 56.029 32.1044 55.9063 32.0839L55.6823 32.0475L55.1196 31.5012C54.1316 30.545 53.3602 29.8052 53.0619 29.5256L52.7723 29.2536ZM52.5519 29.4294L53.3398 30.4131C53.7735 30.9542 54.2082 31.4911 54.3047 31.6067C54.4012 31.7222 54.4759 31.8202 54.4712 31.8236C54.4488 31.84 53.3293 31.622 52.7359 31.4859C52.1268 31.3463 51.8749 31.2794 51.4978 31.1588L51.1906 31.0603L51.1918 30.9841C51.1957 30.6062 51.672 30.0489 52.4803 29.4787L52.5519 29.4294ZM59.2619 30.7696C59.2855 30.7714 59.3105 30.8194 59.3803 30.9724C59.5714 31.391 60.1662 32.5257 60.31 32.7452C60.3574 32.8174 60.4325 32.8223 59.6429 32.6947C57.7454 32.3882 57.1315 32.2856 57.1315 32.2738C57.1315 32.2666 57.1884 32.2294 57.2581 32.1906C57.8458 31.8638 58.4387 31.4525 58.9664 31.0076C59.0926 30.9012 59.2138 30.7998 59.2361 30.7813C59.2452 30.7737 59.254 30.769 59.2619 30.7696Z" fill="url(#paint1_linear_491_1512)"/>
<path d="M50.2467 30.3203C50.2467 30.3203 50.1236 30.5155 50.2397 30.8057C50.3115 30.9853 50.5272 31.201 50.7649 31.4295C50.7649 31.4295 53.255 33.8584 53.5601 34.2105C54.9397 35.8029 55.5389 37.3705 55.5943 39.5347C55.6298 40.9235 55.3619 42.1444 54.7114 43.5633C53.5455 46.1064 51.0887 48.911 47.2944 52.0296L47.8514 51.8455C48.2093 51.5774 48.6955 51.2909 49.8422 50.6637C52.4831 49.2192 55.4487 47.8904 59.0917 46.5214C64.3331 44.5517 72.9548 42.2406 77.8605 41.4892L78.3717 41.4106L78.2931 41.2875C77.8446 40.5903 77.5384 40.1604 77.1699 39.7047C76.0939 38.3741 74.7913 37.2884 73.1953 36.3948C71.0021 35.167 68.1574 34.2127 64.5613 33.4977C63.8814 33.3625 62.3926 33.1073 61.1811 32.9185C58.6147 32.5186 56.9595 32.2485 55.1312 31.9301C54.4757 31.8164 53.4969 31.652 52.8472 31.5115C52.5087 31.4383 51.8653 31.2862 51.3652 31.1141C50.9524 30.9515 50.3711 30.7944 50.2467 30.3203ZM51.69 31.7214C51.6935 31.7182 51.787 31.7472 51.901 31.7859C52.1112 31.8572 52.3885 31.9407 52.7112 32.0309C52.9373 32.0941 53.1859 32.1604 53.4499 32.2279C53.7868 32.314 54.0654 32.388 54.0689 32.392C54.1062 32.434 54.6721 34.2399 54.865 34.9328C54.9387 35.1972 54.9946 35.4176 54.9893 35.4229C54.984 35.4281 54.9213 35.3308 54.8509 35.2071C54.1963 34.0559 53.1596 32.8852 51.9608 31.943C51.8114 31.8256 51.69 31.7258 51.69 31.7214ZM54.4488 32.4835C54.4776 32.4815 54.6019 32.5023 54.7501 32.5351C55.7047 32.7462 57.4093 33.0753 58.5055 33.2597C58.6881 33.2904 58.8385 33.3235 58.8385 33.3335C58.8385 33.3436 58.7703 33.3868 58.6872 33.4285C58.5033 33.521 57.7591 33.9665 57.5101 34.1332C56.8885 34.5492 56.3296 34.9945 55.9226 35.3994C55.759 35.5621 55.6221 35.6949 55.6177 35.6949C55.6133 35.6949 55.5847 35.6001 55.5544 35.4838C55.3509 34.7038 54.9302 33.5521 54.5531 32.7414C54.4925 32.611 54.4429 32.496 54.4429 32.4858C54.4429 32.4846 54.4447 32.4838 54.4488 32.4835ZM59.3016 33.4062C59.3336 33.4169 59.3939 33.6053 59.5009 34.0288C59.7058 34.8397 59.8012 35.7505 59.7694 36.593C59.7606 36.8274 59.7458 37.0452 59.7366 37.0772L59.719 37.1358L59.4294 37.042C58.8324 36.8512 57.857 36.564 57.0212 36.3327C56.5463 36.2013 56.1571 36.084 56.1571 36.0724C56.1571 36.0377 56.85 35.345 57.1478 35.0817C57.7167 34.5787 59.2473 33.3881 59.3016 33.4062ZM59.6873 33.4613C59.7046 33.4453 62.0063 33.8438 63.0523 34.044C63.832 34.1933 64.9599 34.4295 65.0279 34.4579C65.0607 34.4716 64.944 34.5353 64.5695 34.7041C63.0881 35.3722 61.9906 35.9684 60.8997 36.6985C60.6123 36.8908 60.3735 37.0479 60.3686 37.0479C60.3636 37.0479 60.3593 36.8874 60.3592 36.6915C60.3584 35.6276 60.146 34.5538 59.7565 33.6466C59.7146 33.549 59.6832 33.4652 59.6873 33.4613ZM65.6388 34.6385C65.6566 34.6563 65.5811 35.1102 65.5157 35.3783C65.312 36.2128 64.7723 37.4513 64.1064 38.6155C63.989 38.8206 63.884 38.9917 63.8719 38.9954C63.8597 38.9991 63.708 38.9193 63.5354 38.8183C62.8842 38.4374 62.1468 38.0771 61.337 37.7432C61.1112 37.6501 60.9189 37.5671 60.9091 37.5579C60.8721 37.5233 62.6716 36.3319 63.6256 35.7594C64.3887 35.3014 65.6174 34.6171 65.6388 34.6385ZM66.0644 34.7053C66.1162 34.7053 67.137 34.9836 67.6648 35.1415C68.9795 35.5347 70.4961 36.0887 71.48 36.5355L71.8892 36.7208L71.6007 36.7876C69.1934 37.3406 67.1301 37.9788 65.1428 38.7855C64.9777 38.8525 64.834 38.9074 64.8239 38.9074C64.8138 38.9074 64.8665 38.7798 64.94 38.6237C65.5373 37.3544 65.9232 36.0226 66.0233 34.8917C66.0324 34.7888 66.051 34.7053 66.0644 34.7053ZM55.9179 37.0373C55.9342 37.0212 56.7111 37.2033 57.1349 37.3223C57.7719 37.5011 59.1272 37.9546 59.1281 37.9894C59.1281 37.9961 58.9787 38.1264 58.7963 38.279C58.0635 38.892 57.3567 39.533 56.51 40.3507C56.259 40.5931 56.0457 40.7904 56.0351 40.7904C56.0246 40.7904 56.0199 40.755 56.0258 40.7118C56.1533 39.7706 56.1259 38.5619 55.9484 37.3316C55.9259 37.1757 55.9122 37.0429 55.9179 37.0373ZM72.2784 37.0526C72.2901 37.0642 71.9179 37.6459 71.6863 37.9777C71.3483 38.4618 70.8585 39.0974 69.7424 40.5008C69.1561 41.238 68.4949 42.0722 68.2721 42.3545C68.0494 42.6367 67.8624 42.868 67.8571 42.868C67.8517 42.868 67.7798 42.7669 67.6976 42.6441C67.0684 41.7041 66.3219 40.8785 65.4312 40.1373C65.265 39.999 65.0775 39.8473 65.015 39.8008C64.9525 39.7543 64.9015 39.7113 64.9013 39.7047C64.9007 39.6894 65.8519 39.2814 66.5779 38.986C67.8418 38.4716 69.5693 37.8558 70.8621 37.4594C71.5438 37.2504 72.2681 37.0422 72.2784 37.0526ZM72.7075 37.1651C72.7279 37.161 72.8636 37.2266 73.0264 37.3199C74.388 38.0998 75.7221 39.1014 76.7713 40.1315C77.0697 40.4245 77.7998 41.1839 77.789 41.1902C77.7862 41.1918 77.534 41.2118 77.2285 41.2348C74.8692 41.4122 71.8527 41.9141 68.9486 42.6124C68.7514 42.6598 68.5809 42.6992 68.5699 42.6992C68.559 42.6992 68.7748 42.4825 69.0495 42.2184C70.7549 40.5788 71.533 39.5436 72.4484 37.6939C72.5848 37.4184 72.7004 37.1808 72.7052 37.1663C72.7055 37.1654 72.7062 37.1654 72.7075 37.1651ZM60.2372 38.4431C60.3151 38.4606 61.0425 38.799 61.5914 39.0739C62.0934 39.3253 62.8538 39.7301 62.8917 39.7657C62.8964 39.7701 62.6286 39.91 62.2961 40.0764C61.2433 40.6031 60.3416 41.1005 59.4001 41.6756C59.1316 41.8396 58.9066 41.9746 58.8995 41.9746C58.876 41.9746 58.8852 41.9543 59.0355 41.6791C59.5368 40.7609 59.9413 39.6645 60.1739 38.5932C60.1947 38.4976 60.2197 38.4392 60.2372 38.4431ZM59.5044 38.5744C59.5196 38.5896 59.3309 39.2829 59.2113 39.6531C58.982 40.3632 58.5943 41.2558 58.2218 41.9277C58.1343 42.0855 58 42.3164 57.924 42.4412L57.7856 42.6675L57.4714 42.3638C57.1063 42.0099 56.8088 41.79 56.4291 41.5947C56.2798 41.5179 56.1584 41.4469 56.1582 41.4364C56.1575 41.3902 57.1135 40.5209 57.8513 39.897C58.3794 39.4504 59.4909 38.5609 59.5044 38.5744ZM63.9575 40.4058L64.2306 40.5829C64.8573 40.9898 65.5994 41.5371 66.1652 42.0086C66.4823 42.2728 67.0985 42.8246 67.2251 42.9583L67.2931 43.0298L66.8394 43.1564C64.2731 43.8684 62.2904 44.5023 59.9769 45.3524C59.7202 45.4468 59.4985 45.5248 59.4833 45.5248C59.4514 45.5248 59.4197 45.5541 59.9969 45.023C61.4766 43.6613 62.7837 42.1609 63.7605 40.7013L63.9575 40.4058ZM62.7873 40.6989C62.8007 40.7123 62.029 41.7933 61.5703 42.4037C61.0216 43.134 60.0444 44.3548 59.372 45.1496C59.091 45.4817 58.8504 45.7572 58.8373 45.7616C58.823 45.7665 58.8141 45.6851 58.8139 45.5564C58.8126 44.8783 58.641 44.1535 58.3378 43.5398C58.2098 43.2806 58.1884 43.2179 58.2147 43.1939C58.3202 43.0983 59.9527 42.1675 60.9817 41.6158C61.6886 41.2368 62.7739 40.6855 62.7873 40.6989ZM55.7104 42.433C55.7244 42.433 55.8553 42.4988 56.0011 42.5796C56.3584 42.7775 56.6794 42.9953 56.9625 43.2315C56.9735 43.2406 56.8268 43.3603 56.6366 43.4976C56.1056 43.8807 55.297 44.491 54.8287 44.8635C54.3346 45.2566 54.3182 45.2686 54.3738 45.1836C54.7438 44.6177 54.9298 44.2973 55.1241 43.888C55.2968 43.5242 55.469 43.0924 55.5919 42.7167C55.643 42.5607 55.6963 42.433 55.7104 42.433ZM57.5957 43.9127C57.6212 43.9095 57.6575 43.957 57.8091 44.1835C58.1285 44.6608 58.3731 45.2974 58.4363 45.8156L58.4492 45.9269L57.6836 46.2236C56.3093 46.7569 55.0442 47.2826 54.1897 47.6739C53.9506 47.7834 53.5285 47.9851 53.2529 48.123C52.9773 48.2609 52.7522 48.3693 52.7522 48.3633C52.7522 48.3574 52.9253 48.2272 53.1368 48.0737C54.814 46.8561 56.26 45.5231 57.3495 44.1905C57.466 44.048 57.5718 43.9244 57.5851 43.9162C57.5887 43.914 57.592 43.9131 57.5957 43.9127ZM56.7257 44.1284C56.7479 44.1506 56.1069 44.8755 55.6752 45.3161C54.5947 46.4189 53.5235 47.2835 52.1965 48.1253C52.0305 48.2306 51.8787 48.3259 51.8588 48.3375C51.8224 48.3588 51.8706 48.304 52.4533 47.6692C52.8204 47.2692 53.1015 46.9371 53.4205 46.5226C53.6307 46.2496 53.6708 46.2113 53.9786 45.9891C54.8078 45.3906 56.7037 44.1063 56.7257 44.1284Z" fill="url(#paint2_radial_491_1512)"/>
<path d="M63.2146 62.5241H62.9038V63.4894H62.7771V62.5241H62.4653V62.4102H63.2146" fill="#231F1F"/>
<path d="M64.486 63.4883H64.3593V62.7628C64.3593 62.7063 64.3632 62.6361 64.3702 62.554H64.3664C64.3545 62.6024 64.3445 62.637 64.3345 62.6589L63.9662 63.4883H63.9043L63.5351 62.6643C63.525 62.6415 63.5141 62.6042 63.5032 62.554H63.5005C63.5043 62.5969 63.5059 62.6671 63.5059 62.7646V63.4883H63.3838V62.4082H63.5515L63.8824 63.162C63.9079 63.2185 63.9243 63.2614 63.9316 63.2914H63.9371C63.9589 63.2322 63.9763 63.1875 63.989 63.1584L64.3272 62.4082H64.4858" fill="#231F1F"/>
</g>
<defs>
<linearGradient id="paint0_linear_491_1512" x1="51.5422" y1="62.1937" x2="66.0874" y2="53.5991" gradientUnits="userSpaceOnUse">
<stop stop-color="#909CA9"/>
<stop offset="1" stop-color="#EDEDEE"/>
</linearGradient>
<linearGradient id="paint1_linear_491_1512" x1="50.1812" y1="29.9587" x2="61.8847" y2="29.9587" gradientUnits="userSpaceOnUse">
<stop stop-color="#939FAB"/>
<stop offset="1" stop-color="#DCDEE1"/>
</linearGradient>
<radialGradient id="paint2_radial_491_1512" cx="0" cy="0" r="1" gradientUnits="userSpaceOnUse" gradientTransform="translate(61.2216 39.8858) rotate(-171.401) scale(15.0995 30.1568)">
<stop stop-color="#EE352C"/>
<stop offset="1" stop-color="#A91D22"/>
</radialGradient>
<clipPath id="clip0_491_1512">
<rect width="67.8929" height="55.1014" fill="white" transform="translate(20 26)"/>
</clipPath>
</defs>
</svg>
