<svg width="60" height="61" viewBox="0 0 60 61" fill="none" xmlns="http://www.w3.org/2000/svg">
<g clip-path="url(#clip0_1033_7830)">
<path d="M10.0462 44.4727C8.42105 44.4727 6.75 45.7749 6.75 48.0543C6.75 50.1381 8.21924 51.61 10.0462 51.61C11.5542 51.61 12.2263 50.5978 12.2263 50.5978V51.039C12.2263 51.2475 12.4234 51.4802 12.6675 51.4802H13.7576V44.6284H12.2263V45.4978C12.2263 45.4978 11.5485 44.4727 10.0462 44.4727ZM10.3189 45.8737C11.6567 45.8737 12.3585 47.0503 12.3585 48.0538C12.3585 49.1716 11.5253 50.2331 10.3218 50.2331C9.3157 50.2331 8.3079 49.4183 8.3079 48.039C8.3079 46.794 9.17517 45.8737 10.3189 45.8737Z" fill="black"/>
<path d="M15.8865 51.4784C15.6513 51.4784 15.4453 51.3096 15.4453 51.0372V44.6266H16.9766V45.4745C17.3236 44.9529 18.0015 44.4688 19.042 44.4688C20.7427 44.4688 21.6483 45.8245 21.6483 47.0922V51.4784H20.5842C20.3052 51.4784 20.117 51.2448 20.117 51.0112V47.4296C20.117 46.7269 19.6865 45.8735 18.6908 45.8735C17.6164 45.8735 16.9766 46.8889 16.9766 47.8448V51.4784L15.8865 51.4784Z" fill="black"/>
<path d="M26.1086 44.4733C24.4835 44.4733 22.8125 45.7756 22.8125 48.055C22.8125 50.1388 24.2817 51.6106 26.1086 51.6106C27.6167 51.6106 28.2888 50.5984 28.2888 50.5984V51.0397C28.2888 51.2482 28.4859 51.4809 28.73 51.4809H29.82V41.2031H28.2888V45.4985C28.2888 45.4985 27.611 44.4733 26.1086 44.4733ZM26.3814 45.8744C27.7192 45.8744 28.421 47.0509 28.421 48.0545C28.421 49.1722 27.5878 50.2338 26.3842 50.2338C25.3782 50.2338 24.3704 49.419 24.3704 48.0397C24.3704 46.7947 25.2376 45.8744 26.3814 45.8744Z" fill="black"/>
<path d="M31.949 51.4805C31.7138 51.4805 31.5078 51.3117 31.5078 51.0392V44.6286H33.0391V45.7706C33.3027 45.1309 33.8714 44.5508 34.8818 44.5508C35.1635 44.5508 35.4268 44.6027 35.4268 44.6027V46.1859C35.4268 46.1859 35.098 46.0561 34.7001 46.0561C33.6257 46.0561 33.0391 47.0715 33.0391 48.0275V51.4805H31.949Z" fill="black"/>
<path d="M44.7225 51.4807C44.4872 51.4807 44.2812 51.312 44.2812 51.0395V44.6289H45.8125V51.4807L44.7225 51.4807Z" fill="black"/>
<path d="M50.2962 44.4733C48.6711 44.4733 47 45.7756 47 48.055C47 50.1388 48.4692 51.6106 50.2962 51.6106C51.8042 51.6106 52.4763 50.5984 52.4763 50.5984V51.0397C52.4763 51.2482 52.6734 51.4809 52.9175 51.4809H54.0076V41.2031H52.4763V45.4985C52.4763 45.4985 51.7985 44.4733 50.2962 44.4733ZM50.5689 45.8744C51.9067 45.8744 52.6085 47.0509 52.6085 48.0545C52.6085 49.1722 51.7753 50.2338 50.5718 50.2338C49.5657 50.2338 48.5579 49.419 48.5579 48.0397C48.5579 46.7947 49.4252 45.8744 50.5689 45.8744Z" fill="black"/>
<path d="M45.0359 43.15C45.5951 43.15 46.0484 42.6967 46.0484 42.1375C46.0484 41.5783 45.5951 41.125 45.0359 41.125C44.4767 41.125 44.0234 41.5783 44.0234 42.1375C44.0234 42.6967 44.4767 43.15 45.0359 43.15Z" fill="black"/>
<path d="M39.4702 44.4688C37.7683 44.4688 35.8984 45.7391 35.8984 48.0405C35.8984 50.1376 37.4911 51.6086 39.4665 51.6086C41.901 51.6086 43.0897 49.6515 43.0897 48.0538C43.0897 46.0932 41.559 44.4688 39.4702 44.4688ZM39.4758 45.8987C40.6527 45.8987 41.5306 46.8473 41.5306 48.0448C41.5306 49.2631 40.5986 50.2031 39.4793 50.2031C38.4401 50.2031 37.43 49.3575 37.43 48.0653C37.43 46.7515 38.3907 45.8987 39.4758 45.8987Z" fill="black"/>
<path d="M41.9188 18.3354L45.8367 11.5485C46.0578 11.168 45.9241 10.6847 45.5487 10.4636C45.1734 10.2425 44.685 10.3711 44.469 10.7516L40.4997 17.6258C37.4713 16.2428 34.0625 15.4715 30.3965 15.4715C26.7306 15.4715 23.3217 16.2427 20.2933 17.6258L16.324 10.7516C16.1029 10.3711 15.6196 10.2425 15.2391 10.4636C14.8587 10.6847 14.7301 11.168 14.9512 11.5485L18.8691 18.3354C12.1131 21.9962 7.53704 28.8345 6.78125 36.8399H54.0118C53.256 28.8344 48.68 21.9961 41.9188 18.3354ZM19.5529 30.2073C18.4578 30.2073 17.5734 29.3178 17.5734 28.2278C17.5734 27.1326 18.4629 26.2483 19.5529 26.2483C20.6481 26.2483 21.5324 27.1378 21.5324 28.2278C21.5376 29.3178 20.6481 30.2073 19.5529 30.2073ZM41.235 30.2073C40.1399 30.2073 39.2555 29.3178 39.2555 28.2278C39.2555 27.1326 40.145 26.2483 41.235 26.2483C42.3302 26.2483 43.2145 27.1378 43.2145 28.2278C43.2197 29.3178 42.3302 30.2073 41.235 30.2073Z" fill="#32DE84"/>
</g>
<defs>
<clipPath id="clip0_1033_7830">
<rect width="47.262" height="41.2541" fill="white" transform="translate(6.75 10.3555)"/>
</clipPath>
</defs>
</svg>
