<svg width="61" height="61" viewBox="0 0 61 61" fill="none" xmlns="http://www.w3.org/2000/svg">
<path d="M10.5612 44.0842L30.3934 54.9844L50.3277 43.9366L54.0438 13.1167L30.3684 4.98438L6.84375 13.2632L10.5612 44.0842Z" fill="#B3B3B3"/>
<path d="M30.3125 52.3799L48.2331 42.4618L51.6963 14.8976L30.3125 7.60547V52.3799Z" fill="#A6120D"/>
<path d="M30.314 52.3807V7.60547L9.48438 15.0299L12.6699 42.5944L30.314 52.3807Z" fill="#DD1B16"/>
<path d="M36.1966 31.4401L30.3104 34.1926H24.1065L21.1901 41.4871L15.7656 41.5875L30.3104 9.23047L36.1966 31.4401ZM35.6276 30.0544L30.3494 19.6051L26.02 29.8746H30.3101L35.6276 30.0544Z" fill="#F2F2F2"/>
<path d="M35.2641 29.8825H30.3236L30.3125 34.1861L37.1441 34.1926L40.337 41.5887L45.5273 41.6848L30.3125 9.23047L30.3515 19.6051L35.2641 29.8825Z" fill="#B3B3B3"/>
</svg>
