<svg width="61" height="61" viewBox="0 0 61 61" fill="none" xmlns="http://www.w3.org/2000/svg">
<path d="M20.0339 37.1231L24.29 37.4366V41.0718C24.29 41.0718 16.3376 48.9041 4.75 39.6307H8.6987L9.13631 36.0586C9.13631 36.0586 13.6427 40.6322 20.0339 37.1231Z" fill="#0D2C40"/>
<path d="M5.62732 20.3281C5.62732 20.3281 -3.02115 28.3802 4.06005 38.6896L8.01282 39.0661L8.38937 35.2436C8.38937 35.2436 4.75616 29.29 9.44982 24.5903L5.24059 24.2646L5.62732 20.3281Z" fill="#0D2C40"/>
<path d="M6.57067 19.7632C6.57067 19.7632 17.3584 12.8082 25.559 21.2043L21.9238 20.9539L21.5472 25.0247C21.5472 25.0247 17.4113 20.0136 10.5194 23.8992L6.32031 23.7119L6.57067 19.7632Z" fill="#0D2C40"/>
<path d="M22.4844 26.0311L22.7347 21.832L26.5572 22.2086L38.0878 35.0541H34.1412L33.7646 38.6262L22.4844 26.0311Z" fill="#0D2C40"/>
<path d="M21.1094 36.4343L35.7094 20.3281L39.595 20.7047L39.3446 24.6534L24.995 40.6314L25.056 36.4954L21.1094 36.4343Z" fill="#02D35F"/>
<path d="M36.2812 19.7464L40.3236 20.0762L40.0427 23.9312C40.0427 23.9312 46.0105 20.123 50.3826 24.1653L54.6569 24.3526L55.0416 20.5993C55.0416 20.5993 48.3614 13.0682 36.2812 19.7464Z" fill="#02D35F"/>
<path d="M50.986 24.7753L55.2604 25.0257L55.5902 21.25C55.5902 21.25 64.9429 31.6693 54.837 40.6292L50.7031 40.3422L51.0797 36.0678C51.0797 36.0678 56.673 29.8048 50.986 24.7753Z" fill="#02D35F"/>
<path d="M39.0906 36.0562L34.7735 35.6797L34.5312 39.4879C34.5312 39.4879 42.1925 48.3237 53.7537 41.273L49.805 40.9534L50.1815 36.8643C50.1815 36.8643 45.152 40.8964 39.0906 36.0562Z" fill="#02D35F"/>
<path d="M44.5509 29.475V30.8998C44.5386 30.9553 44.5324 31.0119 44.5326 31.0687C44.5324 31.1262 44.5386 31.1836 44.5509 31.2397V33.5357H43.4844V29.4648L44.5509 29.475Z" fill="#0D2C40"/>
<path d="M45.4872 29.4753C45.1359 29.5208 44.8077 29.6752 44.5489 29.917C44.3703 30.0554 44.2226 30.2296 44.115 30.4283C44.0074 30.6269 43.9424 30.8458 43.924 31.071C43.9397 31.3064 44.0033 31.536 44.1107 31.746C44.2181 31.956 44.3672 32.1418 44.5489 32.2923C44.7756 32.5086 45.0692 32.6413 45.3813 32.6688C46.3726 32.6933 46.8611 31.8404 46.8611 31.0731C46.8611 30.3057 46.2545 29.4305 45.4872 29.4753ZM45.1636 31.7773C45.0161 31.7708 44.8752 31.7142 44.7642 31.6169C44.6532 31.5196 44.5787 31.3874 44.5529 31.242C44.5406 31.1859 44.5344 31.1285 44.5346 31.071C44.5344 31.0142 44.5406 30.9576 44.5529 30.9021C44.5787 30.7567 44.6532 30.6245 44.7642 30.5272C44.8752 30.4299 45.0161 30.3733 45.1636 30.3668C45.3393 30.3832 45.5026 30.4645 45.6214 30.595C45.7403 30.7254 45.8062 30.8956 45.8062 31.0721C45.8062 31.2485 45.7403 31.4187 45.6214 31.5491C45.5026 31.6796 45.3393 31.761 45.1636 31.7773ZM48.982 30.6904C48.8273 30.6416 48.2553 30.552 48.2553 30.3363C48.2553 30.2141 48.4304 30.1999 48.5159 30.204C48.7601 30.204 49.1265 30.495 49.33 30.4401C49.5112 30.3932 49.67 29.9251 49.7371 29.7663C49.223 29.4729 48.6242 29.3638 48.0396 29.457C47.8952 29.4845 47.7584 29.543 47.6388 29.6284C47.5191 29.7139 47.4194 29.8242 47.3465 29.9519C47.2735 30.0795 47.2291 30.2215 47.2163 30.368C47.2035 30.5144 47.2226 30.6619 47.2722 30.8003C47.5307 31.47 48.3245 31.2074 48.7255 31.6145C48.8904 31.7855 48.5505 31.8628 48.4385 31.8587C48.0943 31.8077 47.7651 31.6827 47.4737 31.4924C47.374 31.6348 47.0667 31.9748 47.1033 32.1518C47.1399 32.3289 47.545 32.4612 47.7139 32.5141C48.2798 32.6973 49.153 32.7665 49.5784 32.2516C50.1096 31.6328 49.6455 30.9062 48.982 30.6904ZM40.6999 28.3477C40.2571 28.3477 39.8242 28.479 39.456 28.725C39.0878 28.971 38.8008 29.3207 38.6314 29.7298C38.4619 30.1389 38.4176 30.5891 38.504 31.0234C38.5903 31.4577 38.8036 31.8567 39.1167 32.1698C39.4298 32.4829 39.8288 32.6962 40.2631 32.7825C40.6974 32.8689 41.1476 32.8246 41.5567 32.6551C41.9658 32.4857 42.3155 32.1987 42.5615 31.8305C42.8075 31.4623 42.9388 31.0294 42.9388 30.5866C42.9388 29.9928 42.703 29.4233 42.2831 29.0034C41.8632 28.5835 41.2937 28.3477 40.6999 28.3477ZM40.6999 31.7285C40.4729 31.7281 40.2512 31.6604 40.0627 31.534C39.8742 31.4076 39.7273 31.2282 39.6408 31.0184C39.5542 30.8086 39.5317 30.5778 39.5763 30.3553C39.6208 30.1327 39.7303 29.9284 39.8909 29.768C40.0515 29.6077 40.2561 29.4986 40.4787 29.4544C40.7013 29.4103 40.9321 29.4332 41.1417 29.5201C41.3514 29.6071 41.5305 29.7542 41.6566 29.9429C41.7826 30.1317 41.8499 30.3535 41.8499 30.5805C41.8499 30.7316 41.8201 30.8812 41.7621 31.0208C41.7042 31.1603 41.6193 31.287 41.5122 31.3937C41.4052 31.5003 41.2782 31.5848 41.1384 31.6423C40.9987 31.6997 40.849 31.729 40.6979 31.7285H40.6999Z" fill="#0D2C40"/>
<path d="M19.4997 29.422H18.2235L19.573 32.9514H20.1551V31.4472L19.4997 29.422ZM20.8125 29.4281H22.0887L20.7372 32.9575H20.1551V31.4533L20.8125 29.4281ZM13.3039 28.9253C12.8753 28.6277 12.3779 28.4442 11.8587 28.392C11.1708 28.3269 10.434 28.4104 9.79688 28.4104V32.9473H9.82741C9.94953 32.9615 10.0717 32.9738 10.1958 32.9819C10.685 33.0224 11.1769 33.0184 11.6654 32.9697C12.5996 32.8659 13.2001 32.5626 13.5685 32.1677C13.8949 31.8002 14.0791 31.328 14.0875 30.8366V30.7287V30.6717C14.0794 30.0265 13.8942 29.3772 13.3039 28.9253ZM12.2658 31.6976C11.8811 31.9133 11.413 31.8604 10.9896 31.8604V29.4973C11.4395 29.4973 11.9463 29.4382 12.3411 29.7151C12.9965 30.1771 12.9721 31.2986 12.2597 31.6976H12.2658ZM17.6637 32.0517C17.5599 31.9642 17.4276 31.8156 17.2872 31.7912C17.0633 31.7607 16.7844 32.0619 16.5361 32.0863C16.1494 32.125 15.8705 31.8584 15.722 31.5368H18.0749C18.0749 30.8854 18.0199 30.1995 17.4643 29.7517C16.4323 28.909 14.7389 29.5319 14.5496 30.861C14.346 32.2614 15.4472 33.1651 16.7885 32.99C17.1211 32.9431 17.4333 32.8018 17.6882 32.583C17.7798 32.5015 17.9141 32.3896 17.8469 32.2573C17.7989 32.1781 17.7369 32.1085 17.6637 32.0517ZM16.9127 30.8976H15.7118C15.7377 30.7573 15.812 30.6305 15.9217 30.5393C16.0314 30.448 16.1695 30.398 16.3122 30.398C16.4549 30.398 16.5931 30.448 16.7028 30.5393C16.8125 30.6305 16.8867 30.7573 16.9127 30.8976Z" fill="#02D35F"/>
</svg>
