<svg width="61" height="61" viewBox="0 0 61 61" fill="none" xmlns="http://www.w3.org/2000/svg">
<path d="M47.2481 31.2128C47.2481 31.1316 47.2258 31.0735 47.18 31.0355C47.1292 30.9947 47.0414 30.9729 46.9192 30.9729H46.7434V31.4559H46.9555C47.1514 31.4559 47.2481 31.3746 47.2481 31.2128ZM47.5221 32.2199H47.2806L47.1266 31.8801C47.0484 31.7098 46.9648 31.6246 46.8735 31.6246H46.7434V32.2199H46.5445V30.8033H46.9431C47.1204 30.8033 47.2535 30.8417 47.3449 30.9218C47.4223 30.9907 47.461 31.0789 47.461 31.1889C47.461 31.2864 47.4294 31.3685 47.3658 31.4365C47.3038 31.5054 47.2148 31.5519 47.101 31.5759V31.582C47.18 31.6006 47.2589 31.6873 47.3355 31.8437L47.5221 32.2207V32.2199ZM47.9633 31.5255C47.9633 31.2469 47.8681 31.0116 47.6785 30.825C47.4881 30.6385 47.2558 30.5448 46.9818 30.5448C46.6993 30.5448 46.464 30.6385 46.2774 30.8266C46.0909 31.0155 45.998 31.2492 45.998 31.5255C45.998 31.8081 46.0948 32.0442 46.2867 32.2323C46.4764 32.4204 46.7086 32.5132 46.9818 32.5132C47.2535 32.5132 47.4857 32.4196 47.6769 32.2291C47.8681 32.0418 47.9633 31.8066 47.9633 31.5255ZM48.0972 31.5194C48.0972 31.8322 47.9896 32.0946 47.7737 32.3059C47.5577 32.5188 47.293 32.6248 46.9764 32.6248C46.6575 32.6248 46.3928 32.5203 46.1822 32.3151C45.9717 32.107 45.8672 31.8453 45.8672 31.528C45.8672 31.2175 45.974 30.9567 46.1876 30.7423C46.4013 30.5287 46.6675 30.4219 46.9857 30.4219C47.2976 30.4219 47.5593 30.524 47.7714 30.7276C47.9888 30.9366 48.0972 31.1998 48.0972 31.5194Z" fill="black"/>
<path d="M17.8197 35.4721H17.1331V31.543C17.1331 31.2327 17.1536 30.8549 17.1901 30.4091H17.1746C17.1104 30.6699 17.0515 30.8588 16.9997 30.9757L15.0042 35.4721H14.6698L12.6704 31.0082C12.614 30.8835 12.5551 30.683 12.4954 30.4091H12.4806C12.5016 30.6436 12.5134 31.0237 12.5134 31.5508V35.4721H11.8516V29.6211H12.7572L14.5523 33.7011C14.6877 34.0084 14.7752 34.2422 14.8177 34.4016H14.8462C14.9631 34.0819 15.056 33.842 15.1264 33.6841L16.9601 29.6211H17.8193V35.4721H17.8197Z" fill="black"/>
<path d="M19.9242 35.4706H19.257V31.2922H19.9242V35.4706ZM20.0396 29.7944C20.0396 29.9175 19.9962 30.0204 19.9102 30.1048C19.8259 30.1892 19.7214 30.2318 19.5991 30.2318C19.4799 30.2318 19.3762 30.1909 19.2911 30.1095C19.2059 30.0274 19.1641 29.9229 19.1641 29.7944C19.1641 29.6736 19.2062 29.5707 19.2911 29.4871C19.3762 29.4035 19.4799 29.3633 19.5991 29.3633C19.7214 29.3633 19.8259 29.4035 19.9102 29.4871C19.9962 29.5707 20.0396 29.6736 20.0396 29.7944Z" fill="black"/>
<path d="M24.1013 35.2745C23.7809 35.4711 23.3985 35.5686 22.9565 35.5686C22.3574 35.5686 21.8751 35.3697 21.5067 34.9726C21.1491 34.5871 20.9688 34.0895 20.9688 33.4795C20.9688 32.7952 21.1646 32.241 21.5593 31.8199C21.9518 31.398 22.4797 31.1875 23.1438 31.1875C23.5068 31.1875 23.8289 31.2587 24.1106 31.3996V32.0862C23.7987 31.8671 23.4689 31.7587 23.1152 31.7587C22.6894 31.7587 22.3435 31.9074 22.0748 32.2039C21.7954 32.5073 21.6538 32.9129 21.6538 33.4191C21.6538 33.9052 21.783 34.2899 22.04 34.574C22.2978 34.8565 22.6407 34.9982 23.0734 34.9982C23.4387 34.9982 23.7809 34.8782 24.1013 34.639V35.2745Z" fill="black"/>
<path d="M27.2883 31.9696C27.1706 31.8791 27.0012 31.8349 26.7774 31.8349C26.5058 31.8349 26.2774 31.9565 26.0924 32.2018C25.8826 32.4758 25.7782 32.8551 25.7782 33.3397V35.4699H25.1094V31.2915H25.7782V32.1531H25.7943C25.8926 31.8481 26.0443 31.6135 26.2471 31.4471C26.4367 31.2954 26.6512 31.2188 26.8872 31.2188C27.0653 31.2188 27.1977 31.2379 27.2882 31.2757V31.9693L27.2883 31.9696Z" fill="black"/>
<path d="M31.0283 33.3869C31.0283 32.852 30.9075 32.4433 30.666 32.1631C30.4315 31.8938 30.104 31.7591 29.6822 31.7591C29.2665 31.7591 28.9329 31.8953 28.6836 32.1678C28.4197 32.4588 28.2881 32.8698 28.2881 33.4032C28.2881 33.9032 28.4135 34.2956 28.6667 34.5758C28.9182 34.8576 29.2572 34.9985 29.6822 34.9985C30.1219 34.9985 30.4586 34.8553 30.6892 34.5704C30.9153 34.2918 31.0283 33.8977 31.0283 33.3869ZM31.7141 33.3633C31.7141 34.029 31.526 34.5639 31.1514 34.9649C30.7752 35.3674 30.269 35.5687 29.6327 35.5687C29.0057 35.5687 28.5064 35.3674 28.1403 34.9649C27.7819 34.5771 27.6016 34.0646 27.6016 33.4276C27.6016 32.7008 27.8051 32.1403 28.2138 31.7425C28.5915 31.3733 29.097 31.1875 29.7302 31.1875C30.3533 31.1875 30.8402 31.3818 31.1908 31.7665C31.5384 32.1535 31.7141 32.6861 31.7141 33.3633Z" fill="black"/>
<path d="M35.0277 34.3503C35.0277 34.6924 34.9 34.9757 34.6438 35.2017C34.3644 35.4463 33.9804 35.5686 33.4974 35.5686C33.1019 35.5686 32.7551 35.4858 32.4609 35.3171V34.598C32.7884 34.8643 33.1498 34.9982 33.547 34.9982C34.0764 34.9982 34.3419 34.8031 34.3419 34.4146C34.3419 34.2512 34.2837 34.1158 34.1662 34.0112C34.0485 33.9044 33.8202 33.7767 33.4804 33.6273C33.1305 33.4741 32.8813 33.3169 32.7342 33.1536C32.5577 32.9601 32.4687 32.7085 32.4687 32.3989C32.4687 32.0521 32.6073 31.7634 32.8813 31.5335C33.156 31.3029 33.509 31.1875 33.9425 31.1875C34.2746 31.1875 34.5718 31.2525 34.8357 31.3834V32.0568C34.5602 31.8578 34.2452 31.7587 33.8875 31.7587C33.6662 31.7587 33.4881 31.8139 33.3558 31.9213C33.2219 32.0312 33.1545 32.1714 33.1545 32.3424C33.1545 32.5274 33.2108 32.6714 33.3225 32.7743C33.4216 32.8695 33.6321 32.9857 33.9495 33.1211C34.3063 33.2705 34.5641 33.4253 34.7212 33.584C34.9248 33.7845 35.0277 34.0399 35.0277 34.3503Z" fill="black"/>
<path d="M39.1142 33.3869C39.1142 32.852 38.9935 32.4433 38.7512 32.1631C38.5175 31.8938 38.1892 31.7591 37.7682 31.7591C37.3525 31.7591 37.0189 31.8953 36.7681 32.1678C36.5049 32.4588 36.3741 32.8698 36.3741 33.4032C36.3741 33.9032 36.4995 34.2956 36.7502 34.5758C37.0049 34.8576 37.344 34.9985 37.7682 34.9985C38.2086 34.9985 38.5445 34.8553 38.7752 34.5704C39.0012 34.2918 39.1142 33.8977 39.1142 33.3869ZM39.8016 33.3633C39.8016 34.029 39.612 34.5639 39.2365 34.9649C38.8619 35.3674 38.3556 35.5687 37.7194 35.5687C37.0916 35.5687 36.5923 35.3674 36.2262 34.9649C35.8678 34.5771 35.6875 34.0646 35.6875 33.4276C35.6875 32.7008 35.8926 32.1403 36.299 31.7425C36.6768 31.3733 37.183 31.1875 37.8169 31.1875C38.44 31.1875 38.9262 31.3818 39.276 31.7665C39.6243 32.1535 39.8016 32.6861 39.8016 33.3633Z" fill="black"/>
<path d="M42.7515 29.8718C42.6199 29.7991 42.4737 29.7619 42.3072 29.7619C41.8389 29.7619 41.6067 30.0568 41.6067 30.6475V31.2915H42.5859V31.8581H41.6067V35.4698H40.9371V31.8581H40.2266V31.2915H40.9371V30.6142C40.9371 30.1543 41.078 29.7936 41.3644 29.5336C41.6098 29.3075 41.9101 29.1953 42.267 29.1953C42.4737 29.1953 42.6347 29.2201 42.7515 29.2681V29.8718Z" fill="black"/>
<path d="M45.3843 35.4274C45.2264 35.518 45.0159 35.5629 44.7558 35.5629C44.0266 35.5629 43.6621 35.1518 43.6621 34.3298V31.8582H42.9453V31.2908H43.6621V30.2714C43.8757 30.2041 44.0978 30.1305 44.3324 30.0547V31.2908H45.3843V31.8582H44.3324V34.216C44.3324 34.4962 44.3782 34.6967 44.474 34.8128C44.5708 34.9328 44.7287 34.9916 44.9517 34.9916C45.1181 34.9916 45.262 34.947 45.3843 34.8569V35.4274Z" fill="black"/>
<path d="M9.22939 51.7794C9.22939 52.1068 9.11253 52.3901 8.87642 52.6293C8.6411 52.8677 8.35545 52.9877 8.02031 52.9877C7.69286 52.9877 7.4142 52.8677 7.18588 52.6293C6.95751 52.3901 6.84375 52.1068 6.84375 51.7794C6.84375 51.4427 6.95751 51.1586 7.18588 50.9233C7.4142 50.6872 7.69286 50.5703 8.02031 50.5703C8.35545 50.5703 8.6411 50.6888 8.87642 50.9279C9.11253 51.1672 9.22939 51.4512 9.22939 51.7794Z" fill="black"/>
<path d="M24.2086 52.7394H22.0273L14.1095 40.5117C13.9245 40.2175 13.765 39.8978 13.6296 39.5488H13.5645C13.6209 39.8762 13.6497 40.579 13.6497 41.6557V52.7394H11.8516V37.3984H14.1854L21.8663 49.4334C22.1721 49.911 22.381 50.2531 22.4871 50.459H22.5298C22.4586 50.0178 22.4215 49.2654 22.4215 48.2034V37.3984H24.2088V52.7394H24.2086Z" fill="black"/>
<path d="M35.7244 52.7394H27.5938V37.3984H35.3715V39.024H29.3904V44.1273H34.9326V45.7536H29.3904V51.1131H35.7244V52.7394Z" fill="black"/>
<path d="M48.058 39.0247H43.639V52.7402H41.8417V39.0247H37.4141V37.3984H48.058V39.0247Z" fill="black"/>
<path d="M23.6016 10.9005C25.3362 16.205 25.9934 25.6679 31.0658 25.6679C31.452 25.6679 31.8421 25.6301 32.2338 25.5556C27.6228 24.4805 27.0763 15.1206 24.2626 10.2734C24.042 10.4739 23.8229 10.6829 23.6016 10.9005Z" fill="url(#paint0_linear_1033_7728)"/>
<path d="M24.2578 10.2742C27.0715 15.1213 27.618 24.4813 32.229 25.5564C32.5913 25.4898 32.9543 25.3892 33.3181 25.2623C29.1792 23.2342 28.0352 14.1453 24.8399 9.76953C24.6464 9.93059 24.4521 10.0993 24.2578 10.2742Z" fill="url(#paint1_linear_1033_7728)"/>
<path d="M28.3124 7.39062C27.927 7.39062 27.536 7.42839 27.1436 7.5029C26.1172 7.6964 25.0746 8.13836 24.0234 8.80714C24.3106 9.09044 24.5838 9.41475 24.8408 9.76852C25.9098 8.88145 26.9718 8.22585 28.0299 7.83183C28.427 7.68477 28.8226 7.5741 29.2196 7.50135C28.9332 7.42851 28.6314 7.39062 28.3124 7.39062Z" fill="#14559A"/>
<path d="M36.5491 23.3919C36.9725 23.0553 37.3966 22.6829 37.8216 22.2766C36.0591 16.9967 35.4282 7.39844 30.3202 7.39844C29.9549 7.39844 29.5864 7.43249 29.2188 7.5006C33.8716 8.65785 34.4676 18.7809 36.5491 23.3919Z" fill="url(#paint2_linear_1033_7728)"/>
<path d="M29.2275 7.50127C28.9411 7.42851 28.6392 7.39062 28.3203 7.39062L30.329 7.39799C29.9636 7.39799 29.5952 7.43204 29.2275 7.50096" fill="#3092C4"/>
<path d="M36.4544 24.513C36.2547 24.3226 36.065 24.1136 35.8785 23.8906C35.0192 24.499 34.1632 24.9604 33.3125 25.2607C33.6151 25.4086 33.9325 25.5185 34.2692 25.5866C34.5301 25.6399 34.8002 25.6671 35.0843 25.6671C36.0387 25.6671 36.7934 25.5541 37.4358 25.246C37.0821 25.0548 36.7578 24.8071 36.4544 24.513Z" fill="#1969BC"/>
<path d="M28.0312 7.83211C32.1988 10.0118 32.561 19.8826 35.8864 23.8906C36.1093 23.7335 36.3299 23.5671 36.5505 23.3913C34.4691 18.7803 33.8738 8.65643 29.2218 7.5C28.8247 7.57431 28.4283 7.68429 28.0312 7.83211Z" fill="url(#paint3_linear_1033_7728)"/>
<path d="M24.8359 9.76791C28.0312 14.1437 29.1753 23.2326 33.3141 25.2606C34.1648 24.9603 35.0209 24.499 35.8801 23.8906C32.5548 19.8825 32.1926 10.0118 28.025 7.83203C26.9669 8.22524 25.9049 8.88084 24.8359 9.76791Z" fill="url(#paint4_linear_1033_7728)"/>
<path d="M21.5606 10.7732C21.0598 11.9057 20.5482 13.3941 19.9297 15.337C21.1597 13.6039 22.3858 12.1108 23.6049 10.901C23.4369 10.3846 23.2566 9.90861 23.0623 9.48438C22.5638 9.86601 22.0614 10.2956 21.5606 10.7732Z" fill="url(#paint5_linear_1033_7728)"/>
<path d="M23.4982 9.15625C23.3511 9.26151 23.2033 9.36914 23.0547 9.4829C23.2489 9.90708 23.4285 10.3832 23.5965 10.8994C23.8178 10.6827 24.0377 10.4729 24.2575 10.2724C24.0214 9.86682 23.7707 9.49218 23.4982 9.15625Z" fill="#2B74B1"/>
<path d="M24.0248 8.80859C23.8499 8.91932 23.6757 9.03616 23.5 9.15846C23.7725 9.4944 24.0233 9.86904 24.2601 10.2755C24.4544 10.0997 24.6487 9.93022 24.8422 9.76997C24.5852 9.41626 24.312 9.09189 24.0248 8.80859Z" fill="#125A9E"/>
<path d="M52.448 6.98651C50.091 16.0762 45.168 23.3771 41.0407 25.2178H41.0329C40.9578 25.2518 40.8835 25.2828 40.81 25.313C40.7999 25.3191 40.7907 25.3199 40.7829 25.3235C40.7612 25.3323 40.7411 25.339 40.7194 25.3477C40.7093 25.3538 40.7001 25.3558 40.6908 25.3595C40.656 25.3719 40.6219 25.3824 40.5878 25.396C40.5731 25.4022 40.5592 25.406 40.5452 25.4109C40.5297 25.417 40.5119 25.4227 40.4941 25.4276C40.4787 25.4338 40.4624 25.4382 40.4446 25.445C40.4299 25.4511 40.4144 25.4537 40.4005 25.4598C40.3703 25.4686 40.3425 25.4759 40.3123 25.4865C40.2998 25.4865 40.2883 25.4932 40.2751 25.4964C40.2565 25.5026 40.2356 25.507 40.2155 25.5125C40.2015 25.5187 40.19 25.5207 40.1752 25.5237C40.1543 25.5299 40.1311 25.5355 40.1102 25.5404C40.0823 25.5466 40.0576 25.5523 40.0312 25.5578C40.2178 25.6267 40.4121 25.6615 40.6219 25.6615C44.5355 25.6615 48.4815 18.6478 55.0107 6.98438H52.4471L52.448 6.98651Z" fill="url(#paint6_linear_1033_7728)"/>
<path d="M19.0747 7.75947C19.0771 7.75947 19.0802 7.75334 19.0817 7.75334C19.0848 7.75334 19.0895 7.75334 19.0911 7.74721H19.096C19.1177 7.73985 19.1378 7.73111 19.1595 7.72306C19.165 7.72306 19.1679 7.72306 19.1719 7.71692C19.1774 7.71692 19.1828 7.71079 19.1882 7.71002C19.2114 7.70266 19.2346 7.69392 19.2563 7.68587H19.26C19.3119 7.6704 19.3598 7.65121 19.4101 7.63325C19.4172 7.63325 19.4241 7.62712 19.4325 7.62712C19.4535 7.62037 19.4752 7.61286 19.4968 7.60792C19.5069 7.60179 19.5169 7.60179 19.5262 7.59857C19.5486 7.59182 19.5704 7.58431 19.5912 7.57937C19.6006 7.57937 19.6091 7.57323 19.616 7.57262C19.688 7.55281 19.7592 7.53423 19.8312 7.51688C19.8413 7.51688 19.8498 7.51075 19.8606 7.51014C19.8815 7.504 19.9009 7.50078 19.9233 7.49772C19.9326 7.49158 19.9434 7.49158 19.9543 7.48836C19.9751 7.48223 19.9952 7.48162 20.0177 7.47656H20.0324C20.0758 7.46782 20.1199 7.46046 20.1633 7.45241H20.1896C20.2105 7.44627 20.229 7.44566 20.25 7.44183C20.2615 7.44183 20.2732 7.43569 20.284 7.43569C20.3033 7.43569 20.3227 7.42956 20.342 7.42695C20.3522 7.42695 20.3622 7.42695 20.3738 7.42082C20.4194 7.41469 20.4667 7.41223 20.5147 7.4084C20.3792 7.39537 20.2399 7.38672 20.0982 7.38672C15.6908 7.38672 9.61832 15.5646 6.88281 26.1552H7.40994C8.2854 24.594 9.07184 23.117 9.79094 21.7307C11.7067 14.2294 15.6087 9.1136 19.0749 7.75826" fill="url(#paint7_linear_1033_7728)"/>
<path d="M21.5547 10.773C22.0555 10.2954 22.5579 9.8658 23.0564 9.48423C22.9426 9.23499 22.8249 9.00431 22.6987 8.79297C22.2955 9.28217 21.927 9.92774 21.5547 10.773Z" fill="#0D82CA"/>
<path d="M21.9151 7.82158C22.2031 8.06308 22.4608 8.39517 22.6969 8.79305C22.7712 8.70171 22.8463 8.61731 22.9245 8.53836C22.5971 8.23262 22.2433 7.98183 21.8594 7.79297C21.8749 7.80156 21.8903 7.80846 21.9064 7.81526C21.9064 7.81526 21.9126 7.8214 21.9152 7.8214" fill="#0D82CA"/>
<path d="M9.78125 21.7303C13.8001 13.9859 15.7043 9.08454 19.0653 7.75781C15.5998 9.11401 11.697 14.2297 9.78125 21.7303Z" fill="url(#paint8_linear_1033_7728)"/>
<path d="M22.9307 8.53906C22.8525 8.61883 22.7782 8.70242 22.7031 8.79377C22.8293 9.00505 22.9469 9.23497 23.0615 9.48497C23.2102 9.37121 23.358 9.26358 23.505 9.15832C23.3232 8.93384 23.1312 8.72564 22.9307 8.53906Z" fill="#127BCA"/>
<path d="M11.6033 26.12C11.5785 26.1261 11.5537 26.1261 11.5305 26.1287H11.5166C11.4957 26.1287 11.474 26.1349 11.4547 26.1349H11.4446C11.3943 26.141 11.3447 26.141 11.2967 26.1448H11.2812C15.3489 26.031 17.2082 23.9944 18.1309 21.0407C18.8321 18.8013 19.4081 16.9149 19.9127 15.332C18.209 17.7301 16.4976 20.5886 14.7769 23.7909C13.9471 25.3344 12.6854 25.9791 11.6033 26.117" fill="url(#paint9_linear_1033_7728)"/>
<path d="M11.6094 26.1183C12.6915 25.9804 13.9532 25.3364 14.783 23.7922C16.5037 20.5907 18.2159 17.7314 19.9181 15.3334C20.5373 13.3897 21.0482 11.902 21.5498 10.7695C18.1571 13.9989 14.7513 19.3685 11.6094 26.1167" fill="url(#paint10_linear_1033_7728)"/>
<path d="M9.78724 21.7305C9.06818 23.1168 8.28174 24.5937 7.40625 26.155H8.93968C9.14249 24.6045 9.43043 23.1261 9.78724 21.7312" fill="#05A1E6"/>
<path d="M20.3719 7.42664C20.3595 7.42664 20.3502 7.43278 20.3394 7.43278C20.3208 7.43891 20.3014 7.43891 20.2821 7.4409C20.2706 7.4409 20.2597 7.4409 20.248 7.44704C20.2271 7.45317 20.2078 7.45378 20.1877 7.45762C20.1783 7.45762 20.1691 7.45762 20.1613 7.46375C20.1172 7.47111 20.0739 7.47924 20.0305 7.48666H20.0158C19.9934 7.49279 19.9732 7.49601 19.9523 7.49908C19.9414 7.50521 19.9307 7.50521 19.9206 7.50767C19.8997 7.5138 19.8788 7.51641 19.8586 7.52009C19.8478 7.52622 19.8393 7.52622 19.8292 7.52683C19.7572 7.54417 19.686 7.56276 19.614 7.58257C19.6064 7.58257 19.5986 7.5887 19.5893 7.58993C19.5676 7.59606 19.5467 7.60235 19.5243 7.60913C19.5149 7.61526 19.5041 7.61526 19.4948 7.61771C19.4732 7.62385 19.4515 7.63013 19.4306 7.63691C19.4222 7.63691 19.4151 7.64304 19.4074 7.64304C19.3578 7.66161 19.3091 7.6802 19.258 7.69568C19.2363 7.70243 19.2131 7.71116 19.1899 7.71921C19.1805 7.72534 19.172 7.72672 19.1613 7.73101C19.1396 7.73776 19.1179 7.7465 19.0978 7.75455C19.0901 7.76068 19.0823 7.7613 19.0769 7.76452C15.716 9.09124 13.8118 13.9926 9.7929 21.737C9.43606 23.1319 9.14734 24.6103 8.94531 26.1607H9.1605C9.76658 26.1607 9.93765 26.1546 10.6351 26.1546H10.6707H10.7744H10.81H10.8201H10.8557H10.8758H10.8898H10.9176H11.0043H11.091H11.1638H11.1831H11.3108C11.3588 26.1484 11.4084 26.1484 11.4587 26.1446H11.468C11.4889 26.1446 11.5098 26.1385 11.5299 26.1385H11.5446C11.567 26.1385 11.5925 26.1323 11.6173 26.1297C14.7592 19.3815 18.165 14.0119 21.5577 10.7825C21.9308 9.93726 22.2985 9.2917 22.701 8.8033C22.4657 8.40544 22.2079 8.0726 21.92 7.83103C21.92 7.83103 21.9122 7.83103 21.9116 7.8249C21.8953 7.81815 21.8799 7.81003 21.8636 7.80199C21.8473 7.79325 21.8334 7.7865 21.8164 7.77784C21.8017 7.77171 21.7846 7.76358 21.7699 7.75555C21.7498 7.74941 21.7335 7.74067 21.7158 7.73262C21.701 7.72649 21.6879 7.7202 21.6731 7.71405C21.6429 7.70225 21.6128 7.6899 21.5841 7.6769C21.571 7.67077 21.5586 7.66755 21.5462 7.66264C21.5253 7.65513 21.5013 7.6453 21.4796 7.63601C21.4687 7.62987 21.4564 7.62865 21.444 7.6242C21.4123 7.61362 21.3813 7.60253 21.3519 7.59261H21.3442C21.3086 7.58081 21.2738 7.57219 21.2374 7.56227C21.229 7.55613 21.2219 7.55613 21.2134 7.55491C21.1816 7.54617 21.1538 7.53757 21.1236 7.52952C21.116 7.52952 21.1089 7.52338 21.1028 7.52338C21.03 7.50418 20.9549 7.48871 20.8791 7.47447C20.8712 7.47447 20.8636 7.46834 20.8558 7.46834C20.8233 7.4622 20.7916 7.45653 20.7591 7.45285C20.7513 7.44672 20.7467 7.44672 20.7398 7.44672C20.7011 7.44058 20.6631 7.43614 20.6252 7.43184H20.6051C20.5741 7.42571 20.5455 7.4251 20.5168 7.42188C20.468 7.42801 20.4216 7.43062 20.376 7.43491" fill="url(#paint11_linear_1033_7728)"/>
<path d="M43.2335 12.0202C42.4602 14.4972 41.834 16.5407 41.2891 18.2219C43.4107 15.3022 45.5007 11.6293 47.4908 7.39062C45.1694 8.11971 43.9309 9.78864 43.2335 12.0202Z" fill="url(#paint12_linear_1033_7728)"/>
<path d="M41.3626 25.0608C41.2543 25.116 41.1459 25.1684 41.0391 25.2157C45.1663 23.3749 50.0893 16.0741 52.4463 6.98438H51.9687C46.5534 16.6577 44.8118 23.1334 41.3626 25.0608Z" fill="url(#paint13_linear_1033_7728)"/>
<path d="M38.678 24.2486C39.5759 23.1526 40.3073 21.2895 41.3059 18.2188C40.1541 19.8009 38.9946 21.161 37.8343 22.2702C37.8343 22.2763 37.8343 22.2763 37.8281 22.2801C38.0813 23.0387 38.3591 23.7082 38.6757 24.2485" fill="#079AE1"/>
<path d="M38.6745 24.25C38.3687 24.6231 38.0452 24.9072 37.6853 25.1178C37.6063 25.1636 37.5266 25.2067 37.4453 25.2462C37.8254 25.4513 38.2402 25.5884 38.7047 25.6433C38.7727 25.65 38.8401 25.6563 38.9106 25.6613H38.923C38.9546 25.6613 38.988 25.6613 39.0221 25.6674H39.0357H39.1372H39.2463H39.2804H39.3578C39.3702 25.6674 39.3832 25.6674 39.3956 25.6613C39.4197 25.6613 39.4451 25.6613 39.4699 25.6551H39.4786H39.5065C39.5319 25.6551 39.5597 25.649 39.587 25.6464H39.5931C39.6012 25.6464 39.6098 25.6403 39.6179 25.6403C39.6464 25.6341 39.6761 25.6315 39.7038 25.6272H39.7292C39.7608 25.6211 39.7934 25.6173 39.826 25.6111H39.8321H39.8414C39.9065 25.5987 39.9699 25.5864 40.0341 25.5703C39.5016 25.3752 39.0558 24.9154 38.6718 24.2605" fill="#1969BC"/>
<path d="M31.0625 25.6681C31.4488 25.6681 31.8389 25.6304 32.2306 25.5551C32.5928 25.4894 32.9558 25.3887 33.3196 25.2617C33.6223 25.4096 33.9397 25.5195 34.2756 25.5876C34.5365 25.6409 34.8074 25.6681 35.0915 25.6681H31.0625Z" fill="#1E5CB3"/>
<path d="M35.0965 25.6672C36.0501 25.6672 36.8056 25.5542 37.4473 25.2461C37.8273 25.4512 38.2422 25.5882 38.7067 25.6432C38.7748 25.65 38.8422 25.6562 38.9126 25.6612H38.925C38.9566 25.6612 38.99 25.6612 39.0241 25.6673H39.0383H39.1398H35.0938L35.0965 25.6672Z" fill="#1E5CB3"/>
<path d="M39.1328 25.6689H39.2427H39.2768H39.3535C39.3665 25.6689 39.3788 25.6689 39.3912 25.6628C39.4154 25.6628 39.4408 25.6628 39.4663 25.6566H39.4745H39.503C39.5283 25.6566 39.5562 25.6505 39.5827 25.6481H39.5895C39.5976 25.6481 39.6056 25.6419 39.6136 25.6419C39.6421 25.6358 39.6718 25.6333 39.6995 25.6289C39.7089 25.6289 39.7162 25.6289 39.7261 25.6228C39.7577 25.6166 39.7904 25.6134 39.8229 25.6073H39.8291H39.8384C39.9034 25.5949 39.9669 25.5825 40.0311 25.5664C40.2176 25.6353 40.412 25.6701 40.6217 25.6701L39.134 25.6763L39.1328 25.6689Z" fill="#1D60B5"/>
<path d="M37.8281 22.2835V22.2773C37.4031 22.6837 36.9789 23.0561 36.5555 23.3927C36.3341 23.5685 36.1135 23.7349 35.8906 23.892C36.0771 24.1149 36.2668 24.3239 36.4665 24.5144C36.77 24.8084 37.0942 25.0562 37.448 25.2474C37.5285 25.2077 37.609 25.1645 37.6872 25.1189C38.0479 24.9083 38.3714 24.6243 38.6772 24.2512C38.3606 23.7109 38.0827 23.0413 37.8296 22.2827" fill="#175FAB"/>
<path d="M50.4634 6.98438H48.4555H48.2558H48.067H48.0596C47.9296 6.99051 47.8034 6.99496 47.6788 7.00296C47.62 7.12917 47.5596 7.25536 47.5015 7.38231C45.5114 11.621 43.4215 15.2939 41.2998 18.2136C40.302 21.2843 39.5698 23.1474 38.6719 24.2435C39.0558 24.8984 39.5024 25.3589 40.0334 25.554C40.0489 25.5478 40.0613 25.5478 40.0752 25.5446H40.0838C40.0932 25.5446 40.1031 25.5385 40.1132 25.5385C40.1349 25.5323 40.1581 25.5285 40.1798 25.5218C40.1938 25.5156 40.2053 25.515 40.2193 25.5106C40.2394 25.5044 40.2603 25.5 40.2789 25.4951C40.2913 25.4889 40.3037 25.4869 40.316 25.4845C40.347 25.4745 40.3749 25.4672 40.4043 25.4579C40.4182 25.4517 40.433 25.4467 40.4484 25.443C40.4655 25.4369 40.4825 25.4324 40.498 25.425C40.5158 25.4189 40.5336 25.4157 40.5491 25.4089C40.563 25.4028 40.5777 25.399 40.5909 25.3934C40.6257 25.381 40.6598 25.3705 40.6946 25.3569C40.7039 25.3569 40.7132 25.3483 40.7233 25.3463C40.7441 25.3376 40.7658 25.3308 40.7867 25.3215C40.7944 25.3154 40.8038 25.3148 40.8138 25.3116C40.8866 25.2812 40.9616 25.2503 41.0367 25.2164H41.0445C41.1514 25.1693 41.2597 25.1165 41.3673 25.0616C44.8173 23.1342 46.5589 16.6585 51.9742 6.98513H50.4617L50.4634 6.98438Z" fill="url(#paint14_linear_1033_7728)"/>
<path d="M20.5234 7.41111C20.532 7.41111 20.5397 7.41111 20.5482 7.41724C20.5691 7.41724 20.59 7.41724 20.6109 7.42399H20.6318C20.6697 7.43012 20.7077 7.43334 20.7464 7.43886C20.7534 7.43886 20.7596 7.43886 20.7657 7.445C20.7974 7.45113 20.83 7.45619 20.8625 7.4611C20.8695 7.4611 20.8788 7.46723 20.8865 7.46723C20.9608 7.4821 21.0367 7.49758 21.1094 7.51677C21.1163 7.51677 21.1234 7.52291 21.1296 7.52291C21.1605 7.53027 21.1884 7.53962 21.2193 7.54828C21.2287 7.54828 21.2356 7.55442 21.2441 7.5558C21.2805 7.56515 21.3146 7.57438 21.3502 7.58614C21.3517 7.58614 21.3538 7.58614 21.358 7.59228C21.3881 7.60148 21.4191 7.61333 21.4509 7.62385C21.4633 7.62998 21.4748 7.63259 21.4865 7.63565C21.5081 7.64501 21.5322 7.65422 21.553 7.6629C21.5655 7.6629 21.5778 7.67149 21.5909 7.67593C21.6195 7.68897 21.6498 7.7007 21.6792 7.71309C21.6947 7.71922 21.7078 7.72612 21.7225 7.73166C21.7395 7.7404 21.7573 7.74839 21.7759 7.75458C21.7914 7.76194 21.8084 7.77005 21.8231 7.77686C21.8394 7.7856 21.8548 7.79235 21.8703 7.80101C22.2543 7.98989 22.608 8.24148 22.9354 8.54646C23.0562 8.41951 23.1823 8.30569 23.3132 8.20353C22.5972 7.69575 21.786 7.40625 20.8501 7.40625C20.7418 7.40625 20.6334 7.41238 20.5235 7.42051" fill="#7DCBEC"/>
<path d="M22.9297 8.53824C23.1302 8.72476 23.3221 8.93302 23.504 9.1575C23.6797 9.0352 23.8539 8.91753 24.0288 8.80762C23.7997 8.5785 23.5582 8.3726 23.3066 8.19531C23.1758 8.29674 23.0504 8.4113 22.9297 8.53824Z" fill="#5EC5ED"/>
<path d="M20.518 7.41197C20.6279 7.40268 20.7363 7.39881 20.8447 7.39881C21.7805 7.39881 22.5917 7.68831 23.3077 8.19531C24.0632 7.59929 24.9766 7.39107 26.2452 7.39107H20.1016C20.2432 7.39107 20.3818 7.39958 20.518 7.41197Z" fill="url(#paint15_linear_1033_7728)"/>
<path d="M26.2422 7.39207C24.9735 7.39207 24.0602 7.60029 23.3047 8.19632C23.5555 8.37358 23.797 8.57947 24.0261 8.80859C25.078 8.13981 26.1199 7.69705 27.1471 7.50354C27.5388 7.43 27.9297 7.39207 28.3151 7.39207H26.2422Z" fill="url(#paint16_linear_1033_7728)"/>
<path d="M41.3068 18.2239C41.8525 16.5411 42.4772 14.4984 43.252 12.0206C43.9502 9.78828 45.1864 8.11942 47.5077 7.39107C47.5691 7.26641 47.627 7.13791 47.6866 7.01172C43.9022 7.23855 42.1335 9.16358 41.2433 12.0145C39.6867 16.9916 38.7439 20.2179 37.8359 22.2738C38.9955 21.1653 40.155 19.8045 41.3068 18.2239Z" fill="url(#paint17_linear_1033_7728)"/>
<path d="M46.8544 24.3422H46.4256V25.6752H46.2507V24.3422H45.8203V24.1836H46.8544V24.3422Z" fill="black"/>
<path d="M48.6055 25.6752H48.4314V24.6735C48.4314 24.5946 48.4375 24.4979 48.4457 24.384C48.4277 24.4522 48.4128 24.4994 48.3992 24.5296L47.8914 25.6752H47.8063L47.297 24.5381C47.2821 24.5065 47.2672 24.4553 47.2511 24.384H47.245C47.2511 24.4441 47.2531 24.5412 47.2531 24.6759V25.6752H47.0859V24.1836H47.3166L47.774 25.2247C47.8087 25.3029 47.8304 25.3632 47.8414 25.4035H47.8482C47.8785 25.3214 47.9033 25.2603 47.9202 25.22L48.3869 24.1836H48.6067V25.6752H48.6055Z" fill="black"/>
<defs>
<linearGradient id="paint0_linear_1033_7728" x1="455.19" y1="-290.165" x2="455.19" y2="2005.78" gradientUnits="userSpaceOnUse">
<stop stop-color="#0994DC"/>
<stop offset="0.350006" stop-color="#66CEF5"/>
<stop offset="0.846161" stop-color="#127BCA"/>
<stop offset="1" stop-color="#127BCA"/>
</linearGradient>
<linearGradient id="paint1_linear_1033_7728" x1="477.28" y1="-298.33" x2="477.28" y2="2056.13" gradientUnits="userSpaceOnUse">
<stop stop-color="#0E76BC"/>
<stop offset="0.360001" stop-color="#36AEE8"/>
<stop offset="0.846161" stop-color="#00ADEF"/>
<stop offset="1" stop-color="#00ADEF"/>
</linearGradient>
<linearGradient id="paint2_linear_1033_7728" x1="459.354" y1="1781.43" x2="459.354" y2="-91.9845" gradientUnits="userSpaceOnUse">
<stop stop-color="#1C63B7"/>
<stop offset="0.5" stop-color="#33BDF2"/>
<stop offset="1" stop-color="#33BDF2" stop-opacity="0.419608"/>
</linearGradient>
<linearGradient id="paint3_linear_1033_7728" x1="454.002" y1="-312.363" x2="454.002" y2="2132.17" gradientUnits="userSpaceOnUse">
<stop stop-color="#166AB8"/>
<stop offset="0.399994" stop-color="#36AEE8"/>
<stop offset="0.846161" stop-color="#0798DD"/>
<stop offset="1" stop-color="#0798DD"/>
</linearGradient>
<linearGradient id="paint4_linear_1033_7728" x1="577.03" y1="-332.394" x2="577.03" y2="2267.05" gradientUnits="userSpaceOnUse">
<stop stop-color="#124379"/>
<stop offset="0.389999" stop-color="#1487CB"/>
<stop offset="0.780228" stop-color="#165197"/>
<stop offset="1" stop-color="#165197"/>
</linearGradient>
<linearGradient id="paint5_linear_1033_7728" x1="19.9308" y1="302.12" x2="387.452" y2="302.12" gradientUnits="userSpaceOnUse">
<stop stop-color="#33BDF2" stop-opacity="0.698039"/>
<stop offset="1" stop-color="#1DACD8"/>
</linearGradient>
<linearGradient id="paint6_linear_1033_7728" x1="789.148" y1="1775.45" x2="789.148" y2="-49.5061" gradientUnits="userSpaceOnUse">
<stop stop-color="#136AB4"/>
<stop offset="0.6" stop-color="#59CAF5" stop-opacity="0.54902"/>
<stop offset="1" stop-color="#59CAF5" stop-opacity="0.235294"/>
</linearGradient>
<linearGradient id="paint7_linear_1033_7728" x1="6.87244" y1="945.805" x2="1370.06" y2="945.805" gradientUnits="userSpaceOnUse">
<stop stop-color="#05A1E6" stop-opacity="0.247059"/>
<stop offset="1" stop-color="#05A1E6"/>
</linearGradient>
<linearGradient id="paint8_linear_1033_7728" x1="473.966" y1="1744.73" x2="473.966" y2="-123.882" gradientUnits="userSpaceOnUse">
<stop stop-color="#318ED5"/>
<stop offset="1" stop-color="#38A7E4"/>
</linearGradient>
<linearGradient id="paint9_linear_1033_7728" x1="442.843" y1="1001.46" x2="442.843" y2="-814.933" gradientUnits="userSpaceOnUse">
<stop stop-color="#05A1E6"/>
<stop offset="1" stop-color="#05A1E6" stop-opacity="0.54902"/>
</linearGradient>
<linearGradient id="paint10_linear_1033_7728" x1="508.63" y1="1545.81" x2="508.63" y2="10.926" gradientUnits="userSpaceOnUse">
<stop stop-color="#1959A6"/>
<stop offset="0.5" stop-color="#05A1E6"/>
<stop offset="0.917587" stop-color="#7EC5EA"/>
<stop offset="1" stop-color="#7EC5EA"/>
</linearGradient>
<linearGradient id="paint11_linear_1033_7728" x1="831.593" y1="1779.51" x2="311.308" y2="189.491" gradientUnits="userSpaceOnUse">
<stop stop-color="#165096"/>
<stop offset="1" stop-color="#0D82CA"/>
</linearGradient>
<linearGradient id="paint12_linear_1033_7728" x1="351.343" y1="841.381" x2="351.343" y2="-28.3412" gradientUnits="userSpaceOnUse">
<stop stop-color="#05A1E6"/>
<stop offset="0.873627" stop-color="#0495D6"/>
<stop offset="1" stop-color="#0495D6"/>
</linearGradient>
<linearGradient id="paint13_linear_1033_7728" x1="785.513" y1="-68.884" x2="-25.0683" y2="1730.84" gradientUnits="userSpaceOnUse">
<stop stop-color="#38A7E4" stop-opacity="0.329412"/>
<stop offset="0.961533" stop-color="#0E88D3"/>
<stop offset="1" stop-color="#0E88D3"/>
</linearGradient>
<linearGradient id="paint14_linear_1033_7728" x1="704.011" y1="1.49194" x2="704.011" y2="1898.89" gradientUnits="userSpaceOnUse">
<stop stop-color="#168CD4"/>
<stop offset="0.5" stop-color="#1C87CC"/>
<stop offset="1" stop-color="#154B8D"/>
</linearGradient>
<linearGradient id="paint15_linear_1033_7728" x1="122.54" y1="-157.129" x2="130.761" y2="41.8657" gradientUnits="userSpaceOnUse">
<stop stop-color="#97D6EE"/>
<stop offset="0.703293" stop-color="#55C1EA"/>
<stop offset="1" stop-color="#55C1EA"/>
</linearGradient>
<linearGradient id="paint16_linear_1033_7728" x1="57.8275" y1="-0.116019" x2="94.9916" y2="-210.906" gradientUnits="userSpaceOnUse">
<stop stop-color="#7ACCEC"/>
<stop offset="1" stop-color="#3FB7ED"/>
</linearGradient>
<linearGradient id="paint17_linear_1033_7728" x1="530.335" y1="104.121" x2="530.335" y2="1959.97" gradientUnits="userSpaceOnUse">
<stop stop-color="#1DA7E7"/>
<stop offset="1" stop-color="#37ABE7" stop-opacity="0"/>
</linearGradient>
</defs>
</svg>
