<svg width="61" height="61" viewBox="0 0 61 61" fill="none" xmlns="http://www.w3.org/2000/svg">
<path d="M36.6904 2.00409L54.5802 1.98438L24.566 31.9832L16.7437 39.7617L7.84375 30.8508L36.6904 2.00409ZM36.5239 28.7895C36.7561 28.4828 37.1833 28.634 37.5075 28.5945L54.5649 28.5989L39.0189 44.1296L30.0729 35.2383L36.5239 28.7895Z" fill="#44D1FD"/>
<path d="M21.1641 43.9613L30.0816 35.0547L39.0276 43.9459L39.0648 43.9854L30.0838 52.8832L21.1641 43.9613Z" fill="#1FBCFD"/>
<path d="M30.0781 52.7103L39.0592 43.8125L54.5745 59.3431C48.7302 59.3563 42.8882 59.3387 37.0461 59.3519C36.7131 59.4264 36.5072 59.1219 36.2948 58.9335L30.0781 52.7103Z" fill="#08589C"/>
</svg>
