<svg width="61" height="61" viewBox="0 0 61 61" fill="none" xmlns="http://www.w3.org/2000/svg">
<path d="M8.4756 26.7131C8.39967 26.7133 8.32355 26.6375 8.39929 26.5614L8.92891 25.8008C9.00465 25.7246 9.08039 25.6485 9.23225 25.6481L18.7997 25.6242C18.8756 25.624 18.9517 25.6997 18.876 25.7758L18.4221 26.4604C18.3463 26.5365 18.2706 26.6126 18.1187 26.613L8.4756 26.7131ZM4.4573 29.153C4.38137 29.1532 4.30525 29.0774 4.38099 29.0013L4.91061 28.2407C4.98635 28.1645 5.06209 28.0884 5.21396 28.088L17.439 28.0574C17.5149 28.0572 17.591 28.133 17.5912 28.2089L17.3653 28.9688C17.3655 29.0447 17.2138 29.121 17.1379 29.1212L4.4573 29.153ZM10.9178 31.6426C10.8418 31.6428 10.7657 31.567 10.8415 31.4909L11.2194 30.8066C11.2952 30.7304 11.3709 30.6543 11.5228 30.6539L16.838 30.6406C16.9139 30.6404 16.99 30.7162 16.9902 30.7921L16.9158 31.3997C16.916 31.4757 16.8403 31.5518 16.7643 31.552L10.9178 31.6426ZM38.6951 26.1059L34.218 27.2561C33.8385 27.3329 33.7628 27.4091 33.4579 26.9542C33.0771 26.4996 32.7726 26.1966 32.1646 25.9704C30.492 25.1393 28.8221 25.3713 27.3059 26.3622C25.4864 27.5057 24.5796 29.2544 24.5851 31.4565C24.5904 33.5825 26.1134 35.3252 28.2403 35.6236C30.0632 35.8468 31.5803 35.2355 32.7918 33.8657C33.0189 33.5614 33.2459 33.2571 33.5487 32.8767L28.3853 32.8897C27.8538 32.891 27.701 32.5117 27.8517 32.0557C28.2293 31.2195 28.8333 29.8512 29.2112 29.1669C29.2868 29.0149 29.5138 28.7106 29.8935 28.7096L39.6127 28.6853C39.5387 29.4448 39.5404 30.1281 39.4664 30.8877C39.1674 32.7867 38.4886 34.6108 37.2775 36.1325C35.3855 38.643 32.8837 40.2438 29.6957 40.7074C27.0391 41.0937 24.6079 40.5683 22.4779 38.979C20.4998 37.4653 19.3559 35.494 19.0461 33.0649C18.6592 30.1805 19.5637 27.5206 21.3044 25.2382C23.1965 22.7277 25.6982 21.1269 28.8101 20.5876C31.3147 20.1257 33.7453 20.4233 35.875 21.8607C37.32 22.7683 38.3103 24.0567 38.9977 25.6495C39.0744 25.953 38.9986 26.0292 38.6951 26.1059Z" fill="#00ACD7"/>
<path d="M47.5339 40.8895C45.1039 40.8197 42.9002 40.1418 40.9979 38.552C39.3999 37.1892 38.4084 35.4453 38.0995 33.3959C37.6363 30.3597 38.4649 27.7 40.2814 25.3416C42.2492 22.755 44.5998 21.4582 47.7874 20.8428C50.5198 20.3803 53.1021 20.6017 55.384 22.1905C57.5137 23.6279 58.8095 25.5989 59.1956 28.1796C59.6603 31.8232 58.6045 34.7113 56.181 37.2231C54.4391 39.0499 52.2398 40.1184 49.8113 40.656C48.9764 40.81 48.2171 40.8119 47.5339 40.8895ZM53.8852 30.0912C53.8842 29.7116 53.8836 29.4838 53.8069 29.1802C53.3447 26.5238 50.9111 25.0112 48.3309 25.6252C45.8265 26.163 44.2359 27.7615 43.6348 30.2688C43.1843 32.3201 44.1767 34.4437 46.0773 35.3501C47.5215 35.954 49.04 35.8742 50.405 35.1874C52.6044 34.1189 53.739 32.3696 53.8852 30.0912Z" fill="#00ACD7"/>
</svg>
