<svg width="61" height="61" viewBox="0 0 61 61" fill="none" xmlns="http://www.w3.org/2000/svg">
<path d="M50.3843 23.0311C50.0933 23.2561 44.9557 26.1414 44.9557 32.557C44.9557 39.9778 51.4931 42.603 51.6888 42.668C51.6587 42.8281 50.6503 46.2634 48.242 49.7638C46.0946 52.8441 43.8519 55.9194 40.4402 55.9194C37.0285 55.9194 36.1505 53.9442 32.212 53.9442C28.3739 53.9442 27.0092 55.9844 23.8885 55.9844C20.7678 55.9844 18.5903 53.1341 16.0867 49.6337C13.1868 45.5233 10.8438 39.1377 10.8438 33.0771C10.8438 23.3561 17.1855 18.2006 23.4269 18.2006C26.7433 18.2006 29.5078 20.3708 31.5899 20.3708C33.5717 20.3708 36.6623 18.0706 40.4352 18.0706C41.8651 18.0706 47.0027 18.2006 50.3843 23.0311ZM38.6441 13.9552C40.2044 12.11 41.3082 9.54973 41.3082 6.98948C41.3082 6.63444 41.2781 6.2744 41.2129 5.98438C38.6742 6.07938 35.6538 7.66954 33.8326 9.77475C32.4027 11.3949 31.0681 13.9552 31.0681 16.5504C31.0681 16.9405 31.1333 17.3305 31.1634 17.4555C31.324 17.4855 31.5849 17.5205 31.8458 17.5205C34.1236 17.5205 36.9884 16.0004 38.6441 13.9552Z" fill="black"/>
</svg>
