<svg width="61" height="61" viewBox="0 0 61 61" fill="none" xmlns="http://www.w3.org/2000/svg">
<path d="M26.6603 31.6247C26.6603 31.6247 25.3369 32.4302 27.581 32.6604C30.2853 33.0056 31.7238 32.9481 34.7159 32.3727C34.7159 32.3727 35.5214 32.8905 36.6147 33.2933C29.8825 36.1703 21.3667 33.1207 26.6603 31.6247ZM25.7972 27.8846C25.7972 27.8846 24.3587 28.9778 26.6028 29.208C29.5373 29.4957 31.8389 29.5532 35.8091 28.7477C35.8091 28.7477 36.327 29.3231 37.1901 29.6108C29.077 32.0275 19.9856 29.8409 25.7972 27.8846ZM41.6782 34.4441C41.6782 34.4441 42.6564 35.2497 40.5849 35.8826C36.7298 37.0334 24.4162 37.3786 20.9638 35.8826C19.7555 35.3648 22.0571 34.6167 22.8051 34.5016C23.5531 34.329 23.9558 34.329 23.9558 34.329C22.6325 33.4084 15.1523 36.2278 20.1582 37.0334C33.9102 39.2774 45.2458 36.0552 41.6782 34.4441ZM27.2932 23.9719C27.2932 23.9719 21.0214 25.4679 25.0492 25.9857C26.7754 26.2159 30.1702 26.1584 33.335 25.9282C35.9242 25.6981 38.5136 25.2377 38.5136 25.2377C38.5136 25.2377 37.5929 25.6405 36.9599 26.0433C30.5731 27.7119 18.317 26.9639 21.827 25.2377C24.819 23.7992 27.2932 23.9719 27.2932 23.9719ZM38.5136 30.2437C44.958 26.9064 41.966 23.6842 39.8945 24.087C39.3766 24.202 39.1465 24.3171 39.1465 24.3171C39.1465 24.3171 39.3191 23.9719 39.7219 23.8568C43.8072 22.4183 47.0295 28.1722 38.3985 30.4163C38.3985 30.4163 38.456 30.3588 38.5136 30.2437ZM27.9262 39.335C34.1405 39.7378 43.6346 39.1048 43.8647 36.1703C43.8647 36.1703 43.4044 37.3211 38.7437 38.1842C33.45 39.1624 26.8905 39.0473 23.0353 38.4143C23.0353 38.4143 23.8409 39.1048 27.9262 39.335Z" fill="#0D8AC7"/>
<path d="M34.6092 4.98438C34.6092 4.98438 38.1767 8.60938 31.2143 14.0757C25.633 18.5062 29.9485 21.038 31.2143 23.915C27.9346 20.9805 25.5754 18.3911 27.1865 15.9745C29.5457 12.407 36.0477 10.6808 34.6092 4.98438ZM32.768 21.4983C34.4366 23.3971 32.3076 25.1234 32.3076 25.1234C32.3076 25.1234 36.5656 22.9368 34.6092 20.2324C32.8254 17.6432 31.4445 16.3773 38.9247 12.0618C38.9247 12.0618 27.129 14.9963 32.768 21.4983ZM28.51 52.3972V46.7583C28.51 45.3198 27.7044 44.3416 25.6905 44.3416C24.5397 44.3416 23.5615 44.6293 22.6984 44.9745L22.9862 46.0103C23.6191 45.7801 24.4246 45.5499 25.2878 45.5499C26.381 45.5499 26.8989 46.0103 26.8989 46.9309V47.6789H26.3235C23.5615 47.6789 22.2957 48.7147 22.2957 50.3833C22.2957 51.7643 23.1588 52.5698 24.7123 52.5698C25.6905 52.5698 26.4386 52.1095 27.129 51.5341L27.2441 52.3972L28.51 52.3972ZM26.8989 50.5559C26.3235 51.0738 25.6905 51.3615 25.1151 51.3615C24.3671 51.3615 23.9068 50.9012 23.9068 50.0956C23.9068 49.2901 24.3671 48.7147 26.2084 48.7147H26.8988L26.8989 50.5559ZM33.9188 52.3972H31.9048L29.4881 44.5142H31.2144L32.7104 49.3476L33.0556 50.7861C33.8036 48.7147 34.3791 46.5856 34.6092 44.5142H36.3354C35.8751 47.1035 35.0696 49.923 33.9188 52.3972ZM43.2402 52.3972V46.7583C43.2402 45.3198 42.4346 44.3416 40.4207 44.3416C39.2699 44.3416 38.2918 44.6293 37.4286 44.9745L37.6588 46.0103C38.3493 45.7801 39.1548 45.5499 40.018 45.5499C41.1112 45.5499 41.6291 46.0103 41.6291 46.9309V47.6789H41.0537C38.2918 47.6789 37.0259 48.7147 37.0259 50.3833C37.0259 51.7643 37.8314 52.5698 39.385 52.5698C40.4207 52.5698 41.1688 52.1095 41.8593 51.5341L41.9743 52.3972L43.2402 52.3972ZM41.6291 50.5559C41.0537 51.0738 40.4207 51.3615 39.8453 51.3615C39.0973 51.3615 38.637 50.9012 38.637 50.0956C38.637 49.2901 39.0973 48.7147 40.9386 48.7147H41.6291L41.6291 50.5559ZM20.5119 53.7206C20.0516 54.4111 19.3611 54.929 18.4981 55.2166L17.75 54.296C18.3254 53.9508 18.9008 53.4329 19.1309 52.9726C19.3611 52.5698 19.4187 51.9944 19.4187 50.671V41.6948H21.1449V50.5559C21.1449 52.3397 20.9722 53.0301 20.5119 53.7206Z" fill="#EC2025"/>
</svg>
