<svg width="61" height="61" viewBox="0 0 61 61" fill="none" xmlns="http://www.w3.org/2000/svg">
<g clip-path="url(#clip0_1033_8053)">
<path fill-rule="evenodd" clip-rule="evenodd" d="M50.731 19.3244C50.7458 19.3795 50.7535 19.4362 50.7536 19.4932V28.3552C50.7536 28.469 50.7236 28.5807 50.6666 28.6791C50.6096 28.7776 50.5276 28.8592 50.4289 28.9158L42.9909 33.1982V41.6862C42.9909 41.9172 42.8681 42.1304 42.6678 42.2467L27.1415 51.1847C27.106 51.2048 27.0672 51.2178 27.0284 51.2315C27.0139 51.2363 27.0002 51.2452 26.9848 51.2493C26.8763 51.2779 26.7622 51.2779 26.6537 51.2493C26.6359 51.2444 26.6197 51.2347 26.6028 51.2283C26.5672 51.2153 26.5301 51.204 26.4962 51.1847L10.9731 42.2467C10.8745 42.1901 10.7926 42.1084 10.7356 42.01C10.6786 41.9116 10.6485 41.7999 10.6484 41.6862V15.1002C10.6484 15.042 10.6565 14.9855 10.6711 14.9306C10.6759 14.912 10.6872 14.895 10.6937 14.8765C10.7058 14.8425 10.7171 14.8078 10.7349 14.7763C10.747 14.7553 10.7647 14.7383 10.7793 14.719C10.7979 14.6931 10.8148 14.6665 10.8366 14.6438C10.8552 14.6253 10.8794 14.6115 10.9004 14.5954C10.9239 14.576 10.9449 14.555 10.9715 14.5397L18.7342 10.0707C18.8325 10.0141 18.9439 9.98438 19.0573 9.98438C19.1707 9.98438 19.2821 10.0141 19.3804 10.0707L27.1423 14.5397H27.1439C27.1698 14.5558 27.1916 14.576 27.215 14.5946C27.236 14.6107 27.2594 14.6253 27.278 14.643C27.3006 14.6665 27.3168 14.6931 27.3362 14.719C27.3499 14.7383 27.3685 14.7553 27.3798 14.7763C27.3984 14.8086 27.4089 14.8425 27.4218 14.8765C27.4282 14.895 27.4396 14.912 27.4444 14.9314C27.4593 14.9864 27.4669 15.0432 27.467 15.1002V31.7055L33.935 27.9813V19.4924C33.935 19.4359 33.9431 19.3785 33.9576 19.3244C33.9633 19.305 33.9738 19.2881 33.9802 19.2695C33.9932 19.2356 34.0045 19.2008 34.0222 19.1693C34.0344 19.1483 34.0521 19.1314 34.0659 19.112C34.0852 19.0862 34.1014 19.0595 34.124 19.0369C34.1426 19.0183 34.166 19.0046 34.187 18.9884C34.2112 18.969 34.2322 18.948 34.2581 18.9327L42.0216 14.4637C42.1199 14.4071 42.2313 14.3773 42.3447 14.3773C42.4581 14.3773 42.5695 14.4071 42.6678 14.4637L50.4297 18.9327C50.4572 18.9488 50.4782 18.969 50.5024 18.9876C50.5226 19.0038 50.546 19.0183 50.5646 19.0361C50.5872 19.0595 50.6034 19.0862 50.6227 19.112C50.6373 19.1314 50.6551 19.1483 50.6664 19.1693C50.6849 19.2008 50.6954 19.2356 50.7084 19.2695C50.7156 19.2881 50.7261 19.305 50.731 19.3244ZM49.4597 27.9813V20.6119L46.7434 22.1756L42.9909 24.3362V31.7055L49.4605 27.9813H49.4597ZM41.6977 41.3122V33.938L38.0066 36.0461L27.4662 42.0618V49.5055L41.6977 41.3122ZM11.9424 16.2188V41.3122L26.1723 49.5047V42.0626L18.7383 37.8553L18.7359 37.8537L18.7326 37.8521C18.7076 37.8375 18.6866 37.8165 18.6632 37.7988C18.643 37.7826 18.6196 37.7697 18.6018 37.7519L18.6002 37.7495C18.5792 37.7293 18.5646 37.7043 18.5469 37.6817C18.5307 37.6598 18.5113 37.6413 18.4984 37.6187L18.4976 37.6162C18.4831 37.592 18.4742 37.5629 18.4637 37.5355C18.4532 37.5112 18.4394 37.4886 18.433 37.4628C18.4249 37.4321 18.4233 37.399 18.4201 37.3675C18.4168 37.3432 18.4104 37.319 18.4104 37.2948V37.2932V19.9431L14.6586 17.7817L11.9424 16.2188ZM19.0581 11.3775L12.5909 15.1002L19.0565 18.8228L25.5229 15.0994L19.0565 11.3775H19.0581ZM22.4214 34.61L26.1731 32.4502V16.2188L23.4568 17.7825L19.7043 19.9431V36.1745L22.4214 34.61ZM42.3447 15.7706L35.8783 19.4932L42.3447 23.2159L48.8103 19.4924L42.3447 15.7706ZM41.6977 24.3362L37.9452 22.1756L35.2289 20.6119V27.9813L38.9807 30.141L41.6977 31.7055V24.3362ZM26.8184 40.9431L36.3032 35.5283L41.0443 32.8226L34.5828 29.1023L27.1431 33.3855L20.3626 37.2891L26.8184 40.9431Z" fill="#FF2D20"/>
</g>
<defs>
<clipPath id="clip0_1033_8053">
<rect width="40.3846" height="42" fill="white" transform="translate(10.6484 9.98438)"/>
</clipPath>
</defs>
</svg>
