<svg width="61" height="61" viewBox="0 0 61 61" fill="none" xmlns="http://www.w3.org/2000/svg">
<rect x="1.84375" y="30.9844" width="20.5041" height="20.5041" transform="rotate(-45 1.84375 30.9844)" fill="#E6FFE3"/>
<path d="M17.1991 36.6691C17.0401 36.6691 16.8822 36.6273 16.7427 36.5471L15.2899 35.6869C15.0729 35.5656 15.1788 35.5227 15.2504 35.4979C15.5397 35.3966 15.5984 35.3738 15.9072 35.1984C15.9397 35.1799 15.9822 35.1864 16.0154 35.206L17.1315 35.8683C17.1718 35.8901 17.229 35.8901 17.2664 35.8683L21.6182 33.3564C21.6585 33.3335 21.6846 33.2866 21.6846 33.2387V28.217C21.6846 28.1669 21.6585 28.1222 21.6173 28.0971L17.2672 25.5874C17.2269 25.5634 17.1735 25.5634 17.1332 25.5874L12.784 28.0971C12.7419 28.1211 12.7151 28.1679 12.7151 28.2159V33.2376C12.7151 33.2855 12.7412 33.3313 12.7826 33.3542L13.9743 34.0426C14.6214 34.3661 15.0168 33.9849 15.0168 33.6014V28.6451C15.0168 28.5743 15.0724 28.5198 15.1432 28.5198H15.6944C15.763 28.5198 15.8196 28.5743 15.8196 28.6451V33.6036C15.8196 34.4664 15.3491 34.962 14.531 34.962C14.2793 34.962 14.0811 34.962 13.5277 34.6897L12.3861 34.0317C12.104 33.8683 11.9297 33.5633 11.9297 33.2376V28.2159C11.9297 27.8891 12.104 27.5841 12.3861 27.4228L16.7423 24.9098C17.0179 24.754 17.3839 24.754 17.6573 24.9098L22.008 27.4239C22.2891 27.5862 22.4645 27.8902 22.4645 28.217V33.2387C22.4645 33.5644 22.2891 33.8683 22.008 34.0317L17.6573 36.5448C17.5179 36.6254 17.3599 36.6668 17.1987 36.6668" fill="#689F63"/>
<path d="M18.5377 33.2099C16.6336 33.2099 16.2344 32.3358 16.2344 31.6027C16.2344 31.533 16.2906 31.4774 16.3604 31.4774H16.9225C16.9846 31.4774 17.0369 31.5226 17.0467 31.584C17.1316 32.1567 17.3844 32.4456 18.5358 32.4456C19.453 32.4456 19.843 32.2384 19.843 31.752C19.843 31.4721 19.7318 31.264 18.307 31.1246C17.1153 31.0069 16.3789 30.7444 16.3789 29.7913C16.3789 28.9133 17.1197 28.3904 18.3604 28.3904C19.7536 28.3904 20.4443 28.8741 20.5314 29.9133C20.5347 29.9492 20.5216 29.9841 20.4976 30.0102C20.4737 30.0353 20.4399 30.0505 20.405 30.0505H19.8397C19.7809 30.0505 19.7297 30.0091 19.7177 29.9525C19.5815 29.3501 19.2525 29.1573 18.3582 29.1573C17.3571 29.1573 17.2406 29.5059 17.2406 29.7673C17.2406 30.0843 17.3778 30.1769 18.7286 30.3555C20.0663 30.5331 20.7013 30.7836 20.7013 31.7237C20.7013 32.6714 19.9105 33.215 18.5314 33.215M23.832 27.8893H23.978C24.0978 27.8893 24.1207 27.8054 24.1207 27.7564C24.1207 27.6279 24.0325 27.6279 23.9834 27.6279H23.8331L23.832 27.8893ZM23.6545 27.4776H23.978C24.0891 27.4776 24.307 27.4776 24.307 27.7259C24.307 27.8991 24.1959 27.9351 24.1294 27.9569C24.259 27.9656 24.2678 28.0505 24.2852 28.1704C24.2939 28.2455 24.3081 28.3752 24.3342 28.4187H24.1349C24.1294 28.3752 24.0989 28.1355 24.0989 28.1224C24.0858 28.0691 24.0673 28.0429 24.0009 28.0429H23.8364V28.4198H23.6545V27.4776ZM23.2656 27.946C23.2656 28.3359 23.5804 28.6518 23.9671 28.6518C24.3571 28.6518 24.6719 28.3294 24.6719 27.946C24.6719 27.5549 24.3527 27.2445 23.966 27.2445C23.5848 27.2445 23.2645 27.5505 23.2645 27.9449M24.807 27.9481C24.807 28.41 24.429 28.7869 23.9682 28.7869C23.5107 28.7869 23.1294 28.4144 23.1294 27.9481C23.1294 27.4732 23.5194 27.1094 23.9682 27.1094C24.4203 27.1094 24.8059 27.4743 24.8059 27.9481" fill="#689F63"/>
<rect x="16.3438" y="45.4844" width="20.5041" height="20.5041" transform="rotate(-45 16.3438 45.4844)" fill="#EEFBFF"/>
<rect x="16.3438" y="16.4844" width="20.5041" height="20.5041" transform="rotate(-45 16.3438 16.4844)" fill="#D9FAE9"/>
<path d="M34.4431 14.7559C33.5658 10.8857 31.7373 9.85542 31.2708 9.12711C31.0785 8.80627 30.9081 8.47277 30.7609 8.12891C30.7362 8.47272 30.6909 8.68932 30.3987 8.95005C29.8119 9.47322 27.3199 11.504 27.1101 15.9014C26.9147 20.0014 30.1242 22.5295 30.5483 22.7908C30.8743 22.9513 31.2714 22.7943 31.4651 22.647C33.0123 21.5852 35.1261 18.7545 34.4448 14.7559" fill="#10AA50"/>
<path d="M30.8985 20.6094C30.8177 21.6242 30.7598 22.2138 30.5547 22.7937C30.5547 22.7937 30.6893 23.7599 30.7839 24.7833H31.1185C31.1984 24.0626 31.3202 23.3472 31.4836 22.6407C31.0504 22.4276 30.9151 21.4999 30.8985 20.6094Z" fill="#B8C4C2"/>
<path d="M31.4748 22.6384C31.037 22.4361 30.9103 21.4889 30.8909 20.6065C30.9991 19.1508 31.0307 17.6904 30.9854 16.2314C30.9625 15.4659 30.9963 9.14085 30.7969 8.21484C30.9333 8.52847 31.0904 8.83266 31.2673 9.12538C31.7338 9.85426 33.5629 10.8846 34.4396 14.7547C35.1226 18.7464 33.0202 21.5697 31.4748 22.6384Z" fill="#12924F"/>
<rect x="30.8438" y="30.9844" width="20.5041" height="20.5041" transform="rotate(-45 30.8438 30.9844)" fill="#CDE7FF"/>
<path d="M42.4183 34.387C41.7925 34.387 41.2526 34.2489 40.7988 33.9726C40.3477 33.6935 39.9996 33.3045 39.7543 32.8055C39.5118 32.3037 39.3906 31.7201 39.3906 31.0548C39.3906 30.3895 39.5118 29.8031 39.7543 29.2957C39.9996 28.7854 40.3407 28.3879 40.7776 28.1032C41.2174 27.8156 41.7305 27.6719 42.3169 27.6719C42.6552 27.6719 42.9892 27.7283 43.3191 27.841C43.6489 27.9538 43.9491 28.137 44.2198 28.3907C44.4904 28.6416 44.7061 28.9743 44.8667 29.3887C45.0274 29.8031 45.1078 30.3134 45.1078 30.9195V31.3424H40.101V30.4797H44.0929C44.0929 30.1132 44.0196 29.7862 43.873 29.4987C43.7292 29.2111 43.5234 28.9842 43.2556 28.8178C42.9906 28.6515 42.6777 28.5684 42.3169 28.5684C41.9194 28.5684 41.5754 28.667 41.2851 28.8644C40.9975 29.0589 40.7762 29.3126 40.6212 29.6255C40.4661 29.9384 40.3886 30.2739 40.3886 30.6319V31.207C40.3886 31.6976 40.4732 32.1134 40.6423 32.4545C40.8143 32.7928 41.0525 33.0507 41.357 33.2283C41.6614 33.4031 42.0152 33.4905 42.4183 33.4905C42.6805 33.4905 42.9173 33.4539 43.1288 33.3806C43.343 33.3045 43.5277 33.1917 43.6827 33.0423C43.8378 32.89 43.9576 32.7012 44.0422 32.4756L45.0063 32.7463C44.9048 33.0733 44.7342 33.3608 44.4946 33.6089C44.255 33.8542 43.959 34.0459 43.6066 34.184C43.2542 34.3193 42.8581 34.387 42.4183 34.387Z" fill="#0049FE"/>
<path d="M47.1957 27.7564L48.7518 30.412L50.308 27.7564H51.4582L49.3607 31.0041L51.4582 34.2517H50.308L48.7518 31.7314L47.1957 34.2517H46.0455L48.1091 31.0041L46.0455 27.7564H47.1957Z" fill="#0049FE"/>
<g clip-path="url(#clip0_1033_8063)">
<path d="M31.037 46.6443C31.6442 46.6443 32.1364 46.152 32.1364 45.5448C32.1364 44.9376 31.6442 44.4453 31.037 44.4453C30.4297 44.4453 29.9375 44.9376 29.9375 45.5448C29.9375 46.152 30.4297 46.6443 31.037 46.6443Z" fill="#61DAFB"/>
<path d="M31.0402 47.802C34.2985 47.802 36.9398 46.7935 36.9398 45.5494C36.9398 44.3054 34.2985 43.2969 31.0402 43.2969C27.782 43.2969 25.1406 44.3054 25.1406 45.5494C25.1406 46.7935 27.782 47.802 31.0402 47.802Z" stroke="#61DAFB" stroke-width="0.66397"/>
<path d="M29.0951 46.6743C30.7242 49.496 32.9183 51.2792 33.9957 50.6572C35.0731 50.0352 34.6258 47.2434 32.9967 44.4217C31.3675 41.6 29.1735 39.8168 28.0961 40.4388C27.0187 41.0608 27.466 43.8525 29.0951 46.6743Z" stroke="#61DAFB" stroke-width="0.66397"/>
<path d="M29.0939 44.423C27.4648 47.2448 27.0175 50.0365 28.0949 50.6585C29.1723 51.2805 31.3664 49.4973 32.9955 46.6756C34.6246 43.8539 35.0719 41.0622 33.9945 40.4401C32.9171 39.8181 30.7231 41.6013 29.0939 44.423Z" stroke="#61DAFB" stroke-width="0.66397"/>
</g>
<defs>
<clipPath id="clip0_1033_8063">
<rect width="12.3355" height="10.9751" fill="white" transform="translate(24.8672 40.0586)"/>
</clipPath>
</defs>
</svg>
