<svg width="61" height="61" viewBox="0 0 61 61" fill="none" xmlns="http://www.w3.org/2000/svg">
<path d="M27.5397 52.8674C26.954 52.8674 26.3723 52.7138 25.8588 52.4181L20.5082 49.2504C19.709 48.8034 20.0989 48.6454 20.3625 48.5543C21.4281 48.1812 21.6443 48.097 22.7817 47.451C22.9012 47.3828 23.0577 47.4069 23.18 47.4791L27.2906 49.9183C27.439 49.9986 27.6496 49.9986 27.7873 49.9183L43.8146 40.667C43.963 40.5828 44.0593 40.4103 44.0593 40.2337V21.7391C44.0593 21.5546 43.963 21.3901 43.8114 21.2978L27.7905 12.0545C27.642 11.9663 27.4454 11.9663 27.297 12.0545L11.2793 21.2978C11.124 21.3861 11.0254 21.5586 11.0254 21.7351V40.2297C11.0254 40.4063 11.1216 40.5747 11.2741 40.659L15.663 43.1945C18.0461 44.386 19.5024 42.9819 19.5024 41.5697V23.3158C19.5024 23.055 19.707 22.8544 19.9678 22.8544H21.9977C22.2505 22.8544 22.4591 23.055 22.4591 23.3158V41.5777C22.4591 44.7551 20.726 46.5805 17.7131 46.5805C16.7864 46.5805 16.0562 46.5805 14.0182 45.5775L9.81378 43.1544C8.77471 42.5526 8.13281 41.4293 8.13281 40.2297V21.7351C8.13281 20.5316 8.77471 19.4083 9.81378 18.8145L25.8571 9.55918C26.8721 8.98548 28.2201 8.98548 29.2271 9.55918L45.2504 18.8185C46.2855 19.4163 46.9314 20.5356 46.9314 21.7391V40.2337C46.9314 41.4333 46.2855 42.5526 45.2504 43.1544L29.2271 52.4097C28.7136 52.7066 28.1319 52.859 27.5381 52.859" fill="#689F63"/>
<path d="M32.4909 40.1238C25.4782 40.1238 24.0078 36.9047 24.0078 34.2047C24.0078 33.948 24.2148 33.7433 24.472 33.7433H26.5421C26.7708 33.7433 26.9633 33.9098 26.9994 34.1357C27.3124 36.2451 28.2431 37.3091 32.4836 37.3091C35.8616 37.3091 37.2979 36.546 37.2979 34.7547C37.2979 33.7237 36.8886 32.9574 31.6412 32.4439C27.2522 32.0106 24.5402 31.0438 24.5402 27.5334C24.5402 24.2999 27.2682 22.3742 31.8377 22.3742C36.9689 22.3742 39.5124 24.1554 39.8333 27.9827C39.8454 28.1151 39.7972 28.2435 39.709 28.3398C39.6207 28.4321 39.4963 28.4882 39.368 28.4882H37.2858C37.0692 28.4882 36.8806 28.3358 36.8365 28.1272C36.335 25.9086 35.1234 25.1985 31.8297 25.1985C28.1428 25.1985 27.7136 26.4823 27.7136 27.4452C27.7136 28.6126 28.219 28.9536 33.1937 29.6115C38.1203 30.2655 40.4592 31.1882 40.4592 34.6504C40.4592 38.1407 37.5466 40.1426 32.4676 40.1426M51.9892 20.5287H52.5268C52.9681 20.5287 53.0524 20.2198 53.0524 20.0393C53.0524 19.5659 52.7274 19.5659 52.5469 19.5659H51.9932L51.9892 20.5287ZM51.3353 19.0123H52.5268C52.936 19.0123 53.7384 19.0123 53.7384 19.927C53.7384 20.5648 53.3292 20.6972 53.0845 20.7775C53.5619 20.8096 53.594 21.1225 53.6582 21.5638C53.6902 21.8406 53.7424 22.318 53.8387 22.4785H53.1045C53.0845 22.318 52.9721 21.4354 52.9721 21.3873C52.924 21.1907 52.8558 21.0944 52.6111 21.0944H52.0053V22.4825H51.3353V19.0123ZM49.9031 20.7374C49.9031 22.1736 51.0625 23.337 52.4867 23.337C53.9229 23.337 55.0824 22.1495 55.0824 20.7374C55.0824 19.2971 53.9069 18.1537 52.4827 18.1537C51.0785 18.1537 49.8991 19.281 49.8991 20.7333M55.5798 20.7454C55.5798 22.4464 54.1877 23.8345 52.4907 23.8345C50.8057 23.8345 49.4016 22.4624 49.4016 20.7454C49.4016 18.9962 50.8378 17.6562 52.4907 17.6562C54.1556 17.6562 55.5758 19.0002 55.5758 20.7454" fill="#689F63"/>
</svg>
