<svg width="61" height="61" viewBox="0 0 61 61" fill="none" xmlns="http://www.w3.org/2000/svg">
<g clip-path="url(#clip0_1033_7972)">
<mask id="mask0_1033_7972" style="mask-type:luminance" maskUnits="userSpaceOnUse" x="4" y="17" width="53" height="29">
<path d="M4.74219 31.4703C4.74219 39.0525 16.4273 45.1992 30.841 45.1992C45.2547 45.1992 56.9399 39.0525 56.9399 31.4703C56.9399 23.8881 45.2547 17.7413 30.841 17.7413C16.4273 17.7413 4.74219 23.8881 4.74219 31.4703Z" fill="white"/>
</mask>
<g mask="url(#mask0_1033_7972)">
<path d="M4.74219 31.4703C4.74219 39.0525 16.4273 45.1992 30.841 45.1992C45.2547 45.1992 56.9399 39.0525 56.9399 31.4703C56.9399 23.8881 45.2547 17.7413 30.841 17.7413C16.4273 17.7413 4.74219 23.8881 4.74219 31.4703Z" fill="url(#paint0_radial_1033_7972)"/>
</g>
<mask id="mask1_1033_7972" style="mask-type:luminance" maskUnits="userSpaceOnUse" x="3" y="16" width="56" height="31">
<path d="M3.65625 16.1772H58.0288V46.7617H3.65625V16.1772Z" fill="white"/>
</mask>
<g mask="url(#mask1_1033_7972)">
<path d="M30.8449 44.1797C44.6957 44.1797 55.9243 38.4894 55.9243 31.47C55.9243 24.4508 44.6957 18.7603 30.8449 18.7603C16.9942 18.7603 5.76562 24.4508 5.76562 31.47C5.76562 38.4894 16.9942 44.1797 30.8449 44.1797Z" fill="#777BB3"/>
</g>
<mask id="mask2_1033_7972" style="mask-type:luminance" maskUnits="userSpaceOnUse" x="3" y="16" width="56" height="31">
<path d="M3.65625 16.1772H58.0288V46.7617H3.65625V16.1772Z" fill="white"/>
</mask>
<g mask="url(#mask2_1033_7972)">
<path d="M18.9236 33.0421C20.0625 33.0421 20.9127 32.8321 21.4506 32.4181C21.9829 32.0083 22.3504 31.2983 22.5431 30.308C22.7227 29.3824 22.6543 28.736 22.3398 28.3872C22.0182 28.031 21.3228 27.8503 20.2731 27.8503H18.4531L17.4441 33.0421H18.9236ZM12.9706 39.4375C12.8861 39.4375 12.8059 39.3997 12.7522 39.3344C12.6984 39.2692 12.6766 39.1833 12.6927 39.1003L15.3668 25.3419C15.3926 25.2089 15.5092 25.1128 15.6448 25.1128H21.4081C23.2194 25.1128 24.5675 25.6046 25.4149 26.5747C26.2669 27.5499 26.5299 28.9131 26.1968 30.6263C26.0613 31.3243 25.8281 31.9725 25.5039 32.5529C25.1792 33.1339 24.7502 33.6715 24.2285 34.151C23.6039 34.7355 22.8971 35.1593 22.1295 35.4087C21.374 35.6548 20.4038 35.7796 19.2458 35.7796H16.9121L16.2457 39.2083C16.2198 39.3414 16.1034 39.4375 15.9678 39.4375H12.9706Z" fill="black"/>
<path d="M18.6885 28.1355H20.2751C21.542 28.1355 21.9821 28.4135 22.1316 28.5791C22.3797 28.8542 22.4265 29.4342 22.2671 30.2563C22.0879 31.1766 21.7558 31.8292 21.2799 32.1956C20.7926 32.5708 20.0004 32.7609 18.9255 32.7609H17.7895L18.6885 28.1355ZM21.41 24.8316H15.6466C15.3755 24.8316 15.1425 25.0238 15.0907 25.2899L12.4167 39.0483C12.3844 39.2143 12.428 39.386 12.5355 39.5166C12.6431 39.6471 12.8034 39.7227 12.9726 39.7227H15.9697C16.2409 39.7227 16.4739 39.5305 16.5257 39.2644L17.1475 36.0648H19.2478C20.4355 36.0648 21.4353 35.9353 22.2193 35.6799C23.0255 35.418 23.7673 34.9738 24.4238 34.3599C24.9668 33.8603 25.4141 33.2996 25.7529 32.6931C26.0919 32.0864 26.3355 31.4099 26.4768 30.6823C26.8275 28.8789 26.5426 27.4348 25.6301 26.3904C24.7266 25.356 23.3067 24.8316 21.41 24.8316ZM17.1024 33.3273H18.9255C20.1339 33.3273 21.034 33.0997 21.6254 32.6444C22.2168 32.189 22.6158 31.4291 22.8231 30.3641C23.0214 29.3416 22.931 28.62 22.552 28.1996C22.1726 27.7793 21.4137 27.5691 20.2751 27.5691H18.2216L17.1024 33.3273ZM21.41 25.398C23.1438 25.398 24.4086 25.8529 25.2036 26.763C25.9986 27.6731 26.238 28.9434 25.9208 30.5743C25.7902 31.2461 25.5694 31.8604 25.2586 32.4168C24.9474 32.9737 24.541 33.4828 24.0388 33.9445C23.4403 34.5046 22.7755 34.9037 22.0439 35.1414C21.3123 35.3797 20.3805 35.4984 19.2478 35.4984H16.6806L15.9697 39.1563H12.9726L15.6466 25.398H21.41Z" fill="white"/>
<path d="M33.0679 35.7812C32.9833 35.7812 32.9031 35.7435 32.8494 35.6782C32.7955 35.6129 32.7737 35.5271 32.7899 35.4441L33.9728 29.3565C34.0853 28.7776 34.0575 28.362 33.8947 28.1865C33.795 28.0791 33.4956 27.8991 32.6102 27.8991H30.4672L28.98 35.5521C28.9542 35.6852 28.8376 35.7812 28.702 35.7812H25.7285C25.6439 35.7812 25.5638 35.7435 25.51 35.6782C25.4562 35.6129 25.4344 35.527 25.4505 35.4441L28.1246 21.6856C28.1505 21.5526 28.267 21.4565 28.4026 21.4565H31.3761C31.4607 21.4565 31.5408 21.4943 31.5946 21.5595C31.6484 21.6249 31.6702 21.7107 31.6541 21.7937L31.0088 25.1144H33.3141C35.0704 25.1144 36.2613 25.424 36.9549 26.061C37.662 26.7109 37.8826 27.7499 37.6107 29.1496L36.3666 35.5521C36.3407 35.6852 36.2242 35.7812 36.0886 35.7812H33.0679Z" fill="black"/>
<path d="M31.378 21.1753H28.4045C28.1333 21.1753 27.9003 21.3675 27.8486 21.6336L25.1745 35.392C25.1422 35.5581 25.1858 35.7298 25.2934 35.8603C25.401 35.9909 25.5613 36.0664 25.7305 36.0664H28.704C28.9751 36.0664 29.2082 35.8742 29.26 35.6081L30.7026 28.1843H32.6122C33.496 28.1843 33.6815 28.3731 33.689 28.3812C33.7426 28.4389 33.8131 28.706 33.6967 29.3045L32.5138 35.392C32.4815 35.5581 32.5252 35.7298 32.6328 35.8603C32.7404 35.9909 32.9007 36.0664 33.0698 36.0664H36.0905C36.3616 36.0664 36.5948 35.8742 36.6465 35.6081L37.8906 29.2057C38.1825 27.7028 37.9328 26.5754 37.1485 25.8546C36.4001 25.1673 35.1466 24.8332 33.3161 24.8332H31.3542L31.934 21.8498C31.9662 21.6837 31.9227 21.5119 31.8151 21.3815C31.7075 21.2509 31.5472 21.1753 31.378 21.1753ZM31.378 21.7417L30.6671 25.3996H33.3161C34.9829 25.3996 36.1325 25.6905 36.7653 26.2716C37.398 26.8531 37.5876 27.7953 37.3347 29.0977L36.0905 35.5H33.0698L34.2527 29.4126C34.3873 28.7201 34.3379 28.2477 34.1041 27.9959C33.8703 27.744 33.3729 27.6179 32.6122 27.6179H30.2357L28.704 35.5H25.7305L28.4045 21.7417H31.378Z" fill="white"/>
<path d="M42.322 33.0421C43.4609 33.0421 44.3111 32.8321 44.8491 32.4181C45.3813 32.0084 45.7489 31.2984 45.9416 30.308C46.1213 29.3824 46.0528 28.736 45.7382 28.3872C45.4166 28.031 44.7213 27.8503 43.6716 27.8503H41.8515L40.8425 33.0421H42.322ZM36.3691 39.4375C36.2846 39.4375 36.2044 39.3997 36.1507 39.3344C36.0969 39.2692 36.075 39.1833 36.0911 39.1003L38.7652 25.3419C38.7912 25.2089 38.9076 25.1128 39.0433 25.1128H44.8065C46.6179 25.1128 47.966 25.6046 48.8135 26.5747C49.6654 27.5498 49.9284 28.913 49.5953 30.6263C49.4596 31.3243 49.2265 31.9725 48.9023 32.5529C48.5777 33.1339 48.1486 33.6715 47.6269 34.151C47.0024 34.7355 46.2955 35.1593 45.5279 35.4087C44.7724 35.6548 43.8022 35.7796 42.6442 35.7796H40.3105L39.6443 39.2083C39.6184 39.3414 39.5019 39.4375 39.3662 39.4375H36.3691Z" fill="black"/>
<path d="M42.079 28.1355H43.6656C44.9325 28.1355 45.3726 28.4135 45.5221 28.5791C45.7703 28.8542 45.8171 29.4342 45.6576 30.2562C45.4784 31.1766 45.1462 31.8292 44.6704 32.1956C44.1831 32.5708 43.3909 32.7609 42.316 32.7609H41.1802L42.079 28.1355ZM44.8006 24.8316H39.0373C38.7662 24.8316 38.5331 25.0238 38.4814 25.2899L35.8073 39.0483C35.775 39.2143 35.8186 39.386 35.9261 39.5166C36.0338 39.6471 36.194 39.7227 36.3632 39.7227H39.3603C39.6314 39.7227 39.8646 39.5305 39.9163 39.2644L40.5381 36.0648H42.6383C43.826 36.0648 44.8259 35.9353 45.6098 35.6799C46.4161 35.418 47.158 34.9737 47.8146 34.3597C48.3575 33.8602 48.8046 33.2996 49.1435 32.6931C49.4825 32.0864 49.726 31.4099 49.8673 30.6823C50.218 28.8788 49.9331 27.4348 49.0207 26.3903C48.1171 25.356 46.6973 24.8316 44.8006 24.8316ZM40.4931 33.3273H42.316C43.5244 33.3273 44.4245 33.0997 45.0159 32.6444C45.6075 32.189 46.0063 31.4291 46.2136 30.3641C46.412 29.3416 46.3217 28.62 45.9426 28.1996C45.5631 27.7793 44.8042 27.5691 43.6656 27.5691H41.6121L40.4931 33.3273ZM44.8006 25.398C46.5343 25.398 47.7992 25.8529 48.5942 26.763C49.3892 27.6731 49.6285 28.9434 49.3113 30.5743C49.1808 31.2461 48.96 31.8604 48.6491 32.4168C48.3379 32.9737 47.9315 33.4828 47.4293 33.9445C46.8308 34.5046 46.166 34.9037 45.4344 35.1414C44.7029 35.3797 43.7711 35.4984 42.6383 35.4984H40.0711L39.3603 39.1563H36.3632L39.0373 25.398H44.8006Z" fill="white"/>
</g>
</g>
<defs>
<radialGradient id="paint0_radial_1033_7972" cx="0" cy="0" r="1" gradientUnits="userSpaceOnUse" gradientTransform="translate(20.412 22.568) scale(34.2715 34.2715)">
<stop stop-color="#AEB2D5"/>
<stop offset="0.3" stop-color="#AEB2D5"/>
<stop offset="0.75" stop-color="#484C89"/>
<stop offset="1" stop-color="#484C89"/>
</radialGradient>
<clipPath id="clip0_1033_7972">
<rect width="53.7081" height="28.9683" fill="white" transform="translate(3.99219 16.9844)"/>
</clipPath>
</defs>
</svg>
