<svg width="61" height="61" viewBox="0 0 61 61" fill="none" xmlns="http://www.w3.org/2000/svg">
<g clip-path="url(#clip0_1033_8024)">
<path d="M56.9606 47.7734V14.1934C56.9575 11.6188 54.8712 9.53254 52.2967 9.52946H42.7143C42.7324 9.01476 42.5369 8.51548 42.1742 8.14988L40.6174 6.594C39.9894 5.96456 39.0044 5.8658 38.264 6.35801L35.8705 7.93161C35.3748 7.68266 34.8609 7.47187 34.3332 7.30105L33.7736 4.50271C33.6004 3.62921 32.834 2.99991 31.9435 3H29.7421C28.8531 3 28.0876 3.62731 27.9129 4.49898L27.3309 7.30571C26.8041 7.47882 26.2914 7.69212 25.7974 7.94373L23.4225 6.35801C22.6827 5.86431 21.6972 5.96153 21.0682 6.59027L19.5123 8.14988C19.1486 8.51494 18.9527 9.01451 18.9713 9.52946H9.38883C6.81431 9.53254 4.72802 11.6188 4.72493 14.1934V47.7734C3.69461 47.7734 2.85938 48.6087 2.85938 49.639V52.4373C2.86349 56.0418 5.78442 58.9627 9.38883 58.9668H52.2967C55.9011 58.9627 58.8221 56.0418 58.8262 52.4373V49.639C58.8262 48.6087 57.9909 47.7734 56.9606 47.7734ZM22.3871 7.91202L24.7629 9.49775C25.3293 9.86819 26.0505 9.90733 26.6537 9.60035C27.0607 9.39592 27.4822 9.22164 27.9148 9.07893C28.5612 8.8701 29.0452 8.32944 29.1815 7.6639L29.7412 4.86556H31.9425L32.5022 7.6639C32.64 8.32766 33.1237 8.86625 33.7689 9.07426C34.2017 9.21714 34.6235 9.39142 35.031 9.59569C35.6337 9.90309 36.3549 9.86393 36.9208 9.49308L39.2966 7.90736L40.8534 9.46417L39.2676 11.84C38.8968 12.4062 38.8577 13.1277 39.165 13.7307C39.3695 14.1377 39.5437 14.5593 39.6865 14.9918C39.8942 15.6406 40.436 16.1267 41.1034 16.2632L43.9017 16.8229V19.0242L41.1034 19.5839C40.4396 19.7217 39.901 20.2054 39.693 20.8506C39.5501 21.2834 39.3758 21.7052 39.1716 22.1127C38.8642 22.7154 38.9033 23.4366 39.2742 24.0025L40.8599 26.3783L39.3031 27.9351L36.9273 26.3493C36.3606 25.9799 35.6399 25.9407 35.0366 26.2467C34.6295 26.4512 34.208 26.6254 33.7754 26.7682C33.1267 26.9759 32.6406 27.5177 32.5041 28.1851L31.9444 30.9834H29.7421L29.1824 28.1851C29.0446 27.5213 28.5609 26.9827 27.9157 26.7747C27.4829 26.6318 27.0611 26.4575 26.6537 26.2533C26.3859 26.1187 26.0905 26.0484 25.7908 26.0481C25.426 26.0473 25.069 26.1544 24.7648 26.3559L22.389 27.9416L20.8322 26.3848L22.4179 24.009C22.7887 23.4428 22.8279 22.7213 22.5205 22.1183C22.3161 21.7112 22.1418 21.2897 21.9991 20.8571C21.7913 20.2084 21.2496 19.7223 20.5822 19.5858L17.7839 19.0261V16.8238L20.5822 16.2641C21.246 16.1264 21.7845 15.6426 21.9926 14.9974C22.1354 14.5646 22.3097 14.1428 22.514 13.7354C22.8214 13.1327 22.7822 12.4114 22.4114 11.8456L20.8256 9.46976L22.3871 7.91202ZM6.59049 14.1934C6.59049 12.6479 7.84335 11.395 9.38883 11.395H19.863L20.8499 12.8968C20.601 13.3924 20.3902 13.9063 20.2193 14.434L17.421 14.9937C16.5475 15.1669 15.9182 15.9333 15.9183 16.8238V19.0252C15.9183 19.9142 16.5456 20.6797 17.4173 20.8543L20.224 21.4364C20.3971 21.9631 20.6104 22.4758 20.862 22.9699L19.2763 25.3447C18.7826 26.0846 18.8798 27.07 19.5086 27.6991L21.0654 29.255C21.6938 29.8838 22.6787 29.9818 23.4188 29.4891L25.8123 27.9174C26.3079 28.1663 26.8218 28.3771 27.3495 28.5479L27.9092 31.3463C28.0826 32.2208 28.8505 32.8504 29.7421 32.849H31.9435C32.8325 32.849 33.5979 32.2216 33.7726 31.35L34.3547 28.5432C34.8814 28.3701 35.3941 28.1568 35.8882 27.9052L38.263 29.491C39.0028 29.9846 39.9883 29.8874 40.6174 29.2587L42.1733 27.7019C42.8021 27.0734 42.9001 26.0885 42.4074 25.3485L40.8356 22.9522C41.0846 22.4565 41.2954 21.9426 41.4662 21.4149L44.2645 20.8553C45.138 20.6821 45.7673 19.9157 45.7673 19.0252V16.8238C45.7673 15.9348 45.1399 15.1693 44.2683 14.9946L41.4615 14.4126C41.2884 13.8858 41.0751 13.3731 40.8235 12.8791L41.8132 11.395H52.2967C53.8422 11.395 55.0951 12.6479 55.0951 14.1934V47.7734H6.59049V14.1934ZM22.4478 49.639H39.2378V50.5718C39.2378 51.6021 38.4026 52.4373 37.3722 52.4373H24.3133C23.283 52.4373 22.4478 51.6021 22.4478 50.5718V49.639ZM56.9606 52.4373C56.9575 55.0119 54.8712 57.0982 52.2967 57.1012H9.38883C6.81431 57.0982 4.72802 55.0119 4.72493 52.4373V49.639H20.5822V50.5718C20.5822 52.6324 22.2527 54.3029 24.3133 54.3029H37.3722C39.4329 54.3029 41.1034 52.6324 41.1034 50.5718V49.639H56.9606V52.4373Z" fill="#FFA735"/>
<path d="M16.8483 51.5039H14.05C13.5348 51.5039 13.1172 51.9215 13.1172 52.4367C13.1172 52.9518 13.5348 53.3695 14.05 53.3695H16.8483C17.3635 53.3695 17.7811 52.9518 17.7811 52.4367C17.7811 51.9215 17.3635 51.5039 16.8483 51.5039Z" fill="#FFA735"/>
<path d="M8.45622 53.3695C8.97138 53.3695 9.389 52.9518 9.389 52.4367C9.389 51.9215 8.97138 51.5039 8.45622 51.5039C7.94106 51.5039 7.52344 51.9215 7.52344 52.4367C7.52344 52.9518 7.94106 53.3695 8.45622 53.3695Z" fill="#FFA735"/>
<path d="M11.2531 53.3695C11.7683 53.3695 12.1859 52.9518 12.1859 52.4367C12.1859 51.9215 11.7683 51.5039 11.2531 51.5039C10.7379 51.5039 10.3203 51.9215 10.3203 52.4367C10.3203 52.9518 10.7379 53.3695 11.2531 53.3695Z" fill="#FFA735"/>
<path d="M30.8372 25.3854C34.9585 25.3854 38.2995 22.0445 38.2995 17.9232C38.2995 13.8019 34.9585 10.4609 30.8372 10.4609C26.716 10.4609 23.375 13.8019 23.375 17.9232C23.3796 22.0425 26.7179 25.3808 30.8372 25.3854ZM30.8372 12.3265C33.9282 12.3265 36.4339 14.8322 36.4339 17.9232C36.4339 21.0141 33.9282 23.5199 30.8372 23.5199C27.7463 23.5199 25.2406 21.0141 25.2406 17.9232C25.2436 14.8335 27.7476 12.3296 30.8372 12.3265Z" fill="#FFA735"/>
<path d="M25.2432 37.5122C25.2432 32.8758 21.4846 29.1172 16.8481 29.1172C12.2117 29.1172 8.45312 32.8758 8.45312 37.5122C8.45312 42.1486 12.2117 45.9072 16.8481 45.9072C21.4822 45.9016 25.2375 42.1463 25.2432 37.5122ZM16.8481 44.0417C13.242 44.0417 10.3187 41.1183 10.3187 37.5122C10.3187 33.9061 13.242 30.9827 16.8481 30.9827C20.4543 30.9827 23.3776 33.9061 23.3776 37.5122C23.3735 41.1166 20.4526 44.0376 16.8481 44.0417Z" fill="#FFA735"/>
<path d="M44.8403 45.9072C49.4768 45.9072 53.2354 42.1486 53.2354 37.5122C53.2354 32.8758 49.4768 29.1172 44.8403 29.1172C40.2039 29.1172 36.4453 32.8758 36.4453 37.5122C36.451 42.1463 40.2062 45.9016 44.8403 45.9072ZM44.8403 30.9827C48.4465 30.9827 51.3698 33.9061 51.3698 37.5122C51.3698 41.1183 48.4465 44.0417 44.8403 44.0417C41.2342 44.0417 38.3109 41.1183 38.3109 37.5122C38.315 33.9078 41.2359 30.9869 44.8403 30.9827Z" fill="#FFA735"/>
<path d="M21.2462 34.0544C20.8819 33.6902 20.2915 33.6902 19.9272 34.0544L14.99 38.9916L13.7839 37.7855C13.4179 37.432 12.8361 37.437 12.4763 37.7968C12.1165 38.1566 12.1115 38.7384 12.465 39.1044L14.3305 40.97C14.6948 41.3341 15.2852 41.3341 15.6495 40.97L21.2462 35.3733C21.6103 35.0091 21.6103 34.4186 21.2462 34.0544Z" fill="#FFA735"/>
<path d="M41.3747 40.9704C41.7389 41.3346 42.3294 41.3346 42.6936 40.9704L44.8325 38.8316L46.9713 40.9704C47.3374 41.3239 47.9191 41.3189 48.2789 40.9591C48.6387 40.5993 48.6438 40.0175 48.2903 39.6515L46.1514 37.5126L48.2903 35.3738C48.6438 35.0078 48.6387 34.426 48.2789 34.0662C47.9191 33.7064 47.3374 33.7013 46.9713 34.0548L44.8325 36.1937L42.6936 34.0548C42.3276 33.7013 41.7458 33.7064 41.386 34.0662C41.0262 34.426 41.0212 35.0078 41.3747 35.3738L43.5135 37.5126L41.3747 39.6515C41.0105 40.0157 41.0105 40.6062 41.3747 40.9704Z" fill="#FFA735"/>
</g>
<defs>
<clipPath id="clip0_1033_8024">
<rect width="55.9668" height="55.9668" fill="white" transform="translate(2.85938 3)"/>
</clipPath>
</defs>
</svg>
