<svg width="60" height="61" viewBox="0 0 60 61" fill="none" xmlns="http://www.w3.org/2000/svg">
<path d="M30.3935 35.7518C33.0227 35.7518 35.1541 33.6203 35.1541 30.9911C35.1541 28.3619 33.0227 26.2305 30.3935 26.2305C27.7642 26.2305 25.6328 28.3619 25.6328 30.9911C25.6328 33.6203 27.7642 35.7518 30.3935 35.7518Z" fill="#61DAFB"/>
<path d="M30.3887 40.7375C44.4968 40.7375 55.9336 36.3707 55.9336 30.984C55.9336 25.5973 44.4968 21.2305 30.3887 21.2305C16.2806 21.2305 4.84375 25.5973 4.84375 30.984C4.84375 36.3707 16.2806 40.7375 30.3887 40.7375Z" stroke="#61DAFB" stroke-width="3"/>
<path d="M21.9414 35.8605C28.9954 48.0784 38.4956 55.7996 43.1606 53.1062C47.8257 50.4129 45.889 38.3249 38.835 26.1069C31.7809 13.889 22.2807 6.16777 17.6157 8.86113C12.9507 11.5545 14.8873 23.6425 21.9414 35.8605Z" stroke="#61DAFB" stroke-width="3"/>
<path d="M21.9433 26.1073C14.8893 38.3253 12.9526 50.4133 17.6177 53.1066C22.2827 55.8 31.7829 48.0788 38.8369 35.8608C45.8909 23.6429 47.8276 11.5549 43.1626 8.86152C38.4975 6.16816 28.9974 13.8894 21.9433 26.1073Z" stroke="#61DAFB" stroke-width="3"/>
</svg>
