<svg width="61" height="61" viewBox="0 0 61 61" fill="none" xmlns="http://www.w3.org/2000/svg">
<path d="M31.2372 35.7518C33.8664 35.7518 35.9979 33.6203 35.9979 30.9911C35.9979 28.3619 33.8664 26.2305 31.2372 26.2305C28.608 26.2305 26.4766 28.3619 26.4766 30.9911C26.4766 33.6203 28.608 35.7518 31.2372 35.7518Z" fill="#61DAFB"/>
<path d="M31.2324 40.7375C45.3405 40.7375 56.7774 36.3707 56.7774 30.984C56.7774 25.5973 45.3405 21.2305 31.2324 21.2305C17.1244 21.2305 5.6875 25.5973 5.6875 30.984C5.6875 36.3707 17.1244 40.7375 31.2324 40.7375Z" stroke="#61DAFB" stroke-width="3"/>
<path d="M22.7851 35.8605C29.8392 48.0784 39.3393 55.7996 44.0044 53.1062C48.6694 50.4129 46.7328 38.3249 39.6787 26.1069C32.6247 13.889 23.1245 6.16777 18.4595 8.86113C13.7944 11.5545 15.7311 23.6425 22.7851 35.8605Z" stroke="#61DAFB" stroke-width="3"/>
<path d="M22.7871 26.1073C15.733 38.3253 13.7964 50.4133 18.4614 53.1066C23.1264 55.8 32.6266 48.0788 39.6807 35.8608C46.7347 23.6429 48.6714 11.5549 44.0063 8.86152C39.3413 6.16816 29.8411 13.8894 22.7871 26.1073Z" stroke="#61DAFB" stroke-width="3"/>
</svg>
