<svg width="61" height="61" viewBox="0 0 61 61" fill="none" xmlns="http://www.w3.org/2000/svg">
<g clip-path="url(#clip0_1033_7929)">
<path d="M56.9278 29.9822H55.9617V9.69385C55.9586 7.02737 53.7976 4.86642 51.1312 4.86328H10.5544C7.88792 4.86642 5.72697 7.02737 5.72383 9.69385V24.1855H4.75771C3.15699 24.1855 1.85938 25.4832 1.85938 27.0839V52.2028C1.85938 53.8036 3.15699 55.1012 4.75771 55.1012H41.47C42.0036 55.1012 42.4361 54.6686 42.4361 54.1351C42.433 51.4686 40.272 49.3076 37.6056 49.3045H34.7072V43.5078H46.3006V52.2028C46.3006 53.8036 47.5982 55.1012 49.1989 55.1012H56.9278C58.5286 55.1012 59.8262 53.8036 59.8262 52.2028V32.8806C59.8262 31.2798 58.5286 29.9822 56.9278 29.9822ZM23.1139 52.2028C23.1139 52.7364 22.6813 53.1689 22.1478 53.1689H4.75771C4.22418 53.1689 3.7916 52.7364 3.7916 52.2028V51.2367H23.1139V52.2028ZM23.1139 49.3045H3.7916V27.0839C3.7916 26.5503 4.22418 26.1178 4.75771 26.1178H22.1478C22.6813 26.1178 23.1139 26.5503 23.1139 27.0839V49.3045ZM37.6056 51.2367C38.8335 51.2382 39.9277 52.0118 40.3387 53.1689H24.8683C24.9828 52.8595 25.0428 52.5328 25.0461 52.2028V51.2367H37.6056ZM25.0461 49.3045V43.5078H26.9783V49.3045H25.0461ZM28.9105 49.3045V43.5078H32.775V49.3045H28.9105ZM46.3006 41.5756H25.0461V35.7789H46.3006V41.5756ZM46.3006 32.8806V33.8467H25.0461V27.0839C25.0428 26.6255 24.9294 26.1745 24.7157 25.769C24.7302 25.7555 24.7495 25.7516 24.763 25.7371L34.3275 16.1726C34.6983 15.7888 34.6877 15.1771 34.3039 14.8065C33.9295 14.445 33.3359 14.445 32.9615 14.8065L23.3969 24.371C23.3738 24.3952 23.3641 24.4261 23.3438 24.4512C22.969 24.2773 22.5609 24.1868 22.1478 24.1855H7.65605V9.69385C7.65605 8.09312 8.95367 6.79551 10.5544 6.79551H51.1312C52.7319 6.79551 54.0295 8.09312 54.0295 9.69385V29.9822H49.1989C47.5982 29.9822 46.3006 31.2798 46.3006 32.8806ZM57.8939 52.2028C57.8939 52.7364 57.4614 53.1689 56.9278 53.1689H49.1989C48.6654 53.1689 48.2328 52.7364 48.2328 52.2028V51.2367H57.8939V52.2028ZM57.8939 49.3045H48.2328V32.8806C48.2328 32.347 48.6654 31.9145 49.1989 31.9145H56.9278C57.4614 31.9145 57.8939 32.347 57.8939 32.8806V49.3045Z" fill="#0049FE"/>
<path d="M13.4077 35.9469C13.0304 35.5698 12.4189 35.5698 12.0416 35.9469L7.94337 40.0452C7.55958 40.4159 7.54895 41.0275 7.9197 41.4113C8.29044 41.795 8.90199 41.8057 9.28578 41.4349C9.29387 41.4272 9.30172 41.4192 9.30945 41.4113L13.4077 37.313C13.5802 37.0141 13.2336 36.4459 13.4077 35.9469Z" fill="black"/>
<path d="M19.1809 35.947C18.8065 35.5854 18.213 35.5854 17.8385 35.947L13.7402 40.0452C13.3565 40.4158 13.3458 41.0275 13.7166 41.4113C14.0872 41.7951 14.6989 41.8057 15.0827 41.435C15.0907 41.4272 15.0986 41.4193 15.1063 41.4113L19.2046 37.313C19.5752 36.9293 19.5647 36.3176 19.1809 35.947Z" fill="black"/>
<path d="M40.2019 14.8102C39.8275 14.4487 39.234 14.4487 38.8595 14.8102L29.2949 24.3748C28.9112 24.7454 28.9005 25.3571 29.2712 25.7408C29.6418 26.1246 30.2535 26.1353 30.6372 25.7646C30.6453 25.7569 30.6532 25.7489 30.661 25.7408L40.2256 16.1763C40.5963 15.7925 40.5857 15.1809 40.2019 14.8102Z" fill="black"/>
<path d="M55.0883 38.5603C54.7139 38.1986 54.1202 38.1986 53.7458 38.5603L51.0137 41.2925C50.6299 41.6632 50.6193 42.2748 50.99 42.6586C51.3608 43.0424 51.9723 43.053 52.3561 42.6822C52.3641 42.6745 52.372 42.6665 52.3798 42.6586L55.1119 39.9264C55.4827 39.5426 55.4721 38.9311 55.0883 38.5603Z" fill="black"/>
<path d="M30.8616 37.7109H30.8519C30.3184 37.7136 29.888 38.1483 29.8906 38.6819C29.8933 39.2154 30.328 39.6458 30.8616 39.6432C31.3951 39.6432 31.8277 39.2106 31.8277 38.6771C31.8277 38.1435 31.3951 37.7109 30.8616 37.7109Z" fill="black"/>
<path d="M32.7759 8.73047H28.9114C28.3779 8.73047 27.9453 9.16305 27.9453 9.69658C27.9453 10.2301 28.3779 10.6627 28.9114 10.6627H32.7759C33.3094 10.6627 33.742 10.2301 33.742 9.69658C33.742 9.16305 33.3094 8.73047 32.7759 8.73047Z" fill="black"/>
</g>
<defs>
<clipPath id="clip0_1033_7929">
<rect width="57.9668" height="57.9668" fill="white" transform="translate(1.85938 1)"/>
</clipPath>
</defs>
</svg>
