<svg width="61" height="61" viewBox="0 0 61 61" fill="none" xmlns="http://www.w3.org/2000/svg">
<path fill-rule="evenodd" clip-rule="evenodd" d="M19.832 7.98438C18.5 7.98721 17.1961 8.74533 16.5256 9.90187L6.09663 28.0669C5.43654 29.2265 5.43654 30.7422 6.09663 31.9019L16.5256 50.0669C17.1962 51.2234 18.5 51.9818 19.832 51.9844H40.6898C42.0218 51.9815 43.3256 51.2234 43.9962 50.0669L54.4252 31.9019C55.0853 30.7422 55.0852 29.2265 54.4252 28.0669L43.9962 9.90187C43.3256 8.74533 42.0218 7.98699 40.6898 7.98438H19.832ZM20.0213 18.6111C20.0499 18.6083 20.08 18.6083 20.1087 18.6111H23.7064C23.8656 18.6144 24.0201 18.7067 24.0996 18.8453L30.2027 29.7502C30.2334 29.8041 30.2532 29.8642 30.2607 29.9258C30.2682 29.8641 30.288 29.8041 30.3187 29.7502L36.4071 18.8453C36.4892 18.7025 36.6509 18.6097 36.8149 18.6111H40.4126C40.7311 18.614 40.9697 19.0163 40.8204 19.2991L34.8632 29.9844L40.8204 40.655C40.9838 40.9395 40.7394 41.3604 40.4126 41.3576H36.8149C36.648 41.3562 36.4853 41.257 36.4071 41.1088L30.3187 30.2039C30.288 30.15 30.2682 30.0899 30.2607 30.0283C30.2532 30.09 30.2334 30.15 30.2027 30.2039L24.0996 41.1088C24.0237 41.2528 23.8684 41.3511 23.7064 41.3576H20.1087C19.7819 41.3605 19.5375 40.9395 19.7009 40.655L25.6582 29.9844L19.7009 19.2991C19.5581 19.0411 19.7324 18.6662 20.0213 18.6111Z" fill="#3498DB"/>
</svg>
