<svg width="40" height="40" viewBox="0 0 40 40" fill="none" xmlns="http://www.w3.org/2000/svg">
<circle cx="20" cy="20" r="20" fill="#F4F4F4"/>
<g clip-path="url(#clip0_622_1012)">
<path d="M12.6533 25.9634L18.9825 29.5791C19.1398 29.6689 19.3179 29.7162 19.4991 29.7162C19.6803 29.7162 19.8584 29.6689 20.0158 29.5791L26.345 25.9634C26.4838 25.8841 26.6026 25.7739 26.692 25.6413C26.7814 25.5087 26.8391 25.3573 26.8606 25.1989L28.2387 15.0905C28.2711 14.8531 28.2206 14.6117 28.0957 14.4072C27.9708 14.2026 27.7793 14.0474 27.5533 13.9676L19.845 11.2468C19.6208 11.1677 19.3764 11.1677 19.1522 11.2468L11.445 13.9686C11.219 14.0484 11.0274 14.2037 10.9025 14.4082C10.7777 14.6128 10.7272 14.8541 10.7595 15.0916L12.1377 25.1999C12.1592 25.3584 12.2168 25.5098 12.3063 25.6424C12.3957 25.7749 12.5144 25.8841 12.6533 25.9634Z" stroke="#687086" stroke-width="1.5" stroke-linecap="round" stroke-linejoin="round"/>
<path d="M16.375 23.6248L19.5 15.2915L22.625 23.6248" stroke="#687086" stroke-width="1.5" stroke-linecap="round" stroke-linejoin="round"/>
<path d="M17.4141 21.5415H21.5807" stroke="#687086" stroke-width="1.5" stroke-linecap="round" stroke-linejoin="round"/>
</g>
<defs>
<clipPath id="clip0_622_1012">
<rect width="25" height="25" fill="white" transform="translate(7 8)"/>
</clipPath>
</defs>
</svg>
