<svg width="40" height="40" viewBox="0 0 40 40" fill="none" xmlns="http://www.w3.org/2000/svg">
<circle cx="20" cy="20" r="20" fill="#F4F4F4"/>
<g clip-path="url(#clip0_623_146)">
<path d="M23.3489 22.9009C24.4541 24.0051 26.4249 23.8259 27.7509 22.5009C29.0759 21.1749 29.2551 19.2041 28.1509 18.0989C27.0457 16.9947 25.0749 17.1739 23.7489 18.4989C22.4239 19.8249 22.2447 21.7957 23.3489 22.9009Z" stroke="#687086" stroke-width="1.5" stroke-linecap="round" stroke-linejoin="round"/>
<path d="M20.2108 17.6176C19.0817 17.0999 17.5598 17.4186 16.4702 18.4988C15.1327 19.8249 14.9525 21.7957 16.066 22.9009C17.1806 24.0051 19.1681 23.8259 20.5046 22.5009C21.0597 21.9591 21.4368 21.2612 21.5858 20.4999H19.0577" stroke="#687086" stroke-width="1.5" stroke-linecap="round" stroke-linejoin="round"/>
<path d="M12.7266 23.625H11.1641" stroke="#687086" stroke-width="1.5" stroke-linecap="round" stroke-linejoin="round"/>
<path d="M13.2474 17.375H11.1641" stroke="#687086" stroke-width="1.5" stroke-linecap="round" stroke-linejoin="round"/>
<path d="M12.2109 20.5H9.08594" stroke="#687086" stroke-width="1.5" stroke-linecap="round" stroke-linejoin="round"/>
</g>
<defs>
<clipPath id="clip0_623_146">
<rect width="25" height="25" fill="white" transform="translate(7 8)"/>
</clipPath>
</defs>
</svg>
