<svg width="40" height="40" viewBox="0 0 40 40" fill="none" xmlns="http://www.w3.org/2000/svg">
<circle cx="20" cy="20" r="20" fill="#F4F4F4"/>
<g clip-path="url(#clip0_625_2467)">
<path d="M16.3776 15.2918C13.2526 15.2918 12.2109 18.4168 12.2109 21.021C12.2109 24.146 14.2943 28.8335 16.3776 28.8335C17.5109 28.7856 18.1266 28.3126 19.5026 28.3126C20.8693 28.3126 21.0651 28.8335 22.6276 28.8335C24.1901 28.8335 26.7943 25.7085 26.7943 23.6251C26.7651 23.6147 24.2193 23.2054 24.1901 20.5001C24.1703 18.2397 26.7068 17.4231 26.7943 17.3751C25.7286 15.821 23.7203 15.3304 23.1484 15.2918C21.6557 15.1762 20.2005 16.3335 19.5026 16.3335C18.7943 16.3335 17.5234 15.2918 16.3776 15.2918Z" stroke="#687086" stroke-width="1.5" stroke-linecap="round" stroke-linejoin="round"/>
<path d="M19.5 12.1668C20.0525 12.1668 20.5824 11.9473 20.9731 11.5566C21.3638 11.1659 21.5833 10.636 21.5833 10.0835C21.0308 10.0835 20.5009 10.303 20.1102 10.6937C19.7195 11.0844 19.5 11.6143 19.5 12.1668Z" stroke="#687086" stroke-width="1.5" stroke-linecap="round" stroke-linejoin="round"/>
</g>
<defs>
<clipPath id="clip0_625_2467">
<rect width="25" height="25" fill="white" transform="translate(7 8)"/>
</clipPath>
</defs>
</svg>
