<svg width="40" height="40" viewBox="0 0 40 40" fill="none" xmlns="http://www.w3.org/2000/svg">
<circle cx="20" cy="20" r="20" fill="#F4F4F4"/>
<path d="M16.8282 25.9043C16.8282 25.9043 15.9388 26.4457 17.4469 26.6004C19.2644 26.8324 20.2311 26.7938 22.2419 26.407C22.2419 26.407 22.7833 26.7551 23.518 27.0258C18.9937 28.9593 13.2705 26.9097 16.8282 25.9043ZM16.2481 23.3908C16.2481 23.3908 15.2814 24.1255 16.7895 24.2802C18.7617 24.4736 20.3085 24.5122 22.9767 23.9708C22.9767 23.9708 23.3247 24.3575 23.9047 24.5509C18.4523 26.175 12.3424 24.7056 16.2481 23.3908ZM26.921 27.7992C26.921 27.7992 27.5784 28.3406 26.1863 28.7659C23.5954 29.5393 15.32 29.7713 12.9998 28.7659C12.1878 28.4179 13.7345 27.9152 14.2372 27.8378C14.7399 27.7218 15.0106 27.7218 15.0106 27.7218C14.1213 27.1031 9.09416 28.9979 12.4584 29.5393C21.7005 31.0474 29.3186 28.8819 26.921 27.7992ZM17.2535 20.7612C17.2535 20.7612 13.0385 21.7667 15.7454 22.1147C16.9055 22.2693 19.187 22.2307 21.3139 22.076C23.054 21.9213 24.7942 21.612 24.7942 21.612C24.7942 21.612 24.1754 21.8827 23.7501 22.1534C19.4577 23.2748 11.221 22.7721 13.5799 21.612C15.5907 20.6452 17.2535 20.7612 17.2535 20.7612ZM24.7942 24.9762C29.1252 22.7334 27.1144 20.5679 25.7223 20.8386C25.3742 20.9159 25.2195 20.9933 25.2195 20.9933C25.2195 20.9933 25.3356 20.7613 25.6062 20.6839C28.3518 19.7172 30.5173 23.5841 24.7169 25.0923C24.7169 25.0923 24.7555 25.0536 24.7942 24.9762ZM17.6789 31.0861C21.8553 31.3568 28.2358 30.9314 28.3905 28.9593C28.3905 28.9593 28.0811 29.7327 24.9489 30.3127C21.3912 30.9701 16.9829 30.8927 14.392 30.4674C14.392 30.4674 14.9333 30.9314 17.6789 31.0861Z" fill="#687086"/>
<path d="M22.1656 8C22.1656 8 24.5631 10.4362 19.8841 14.1098C16.1331 17.0874 19.0333 18.7889 19.8841 20.7224C17.6799 18.7502 16.0944 17.0101 17.1772 15.3859C18.7626 12.9884 23.1323 11.8283 22.1656 8ZM20.9282 19.0982C22.0496 20.3744 20.6188 21.5345 20.6188 21.5345C20.6188 21.5345 23.4804 20.065 22.1656 18.2475C20.9668 16.5074 20.0387 15.6567 25.0658 12.7564C25.0658 12.7564 17.1385 14.7286 20.9282 19.0982Z" fill="#687086"/>
</svg>
