<svg width="40" height="40" viewBox="0 0 40 40" fill="none" xmlns="http://www.w3.org/2000/svg">
<circle cx="20" cy="20" r="20" fill="#F4F4F4"/>
<path d="M8.86814 25C8.62699 25 8.42202 24.9196 8.25321 24.7589C8.0844 24.5941 8 24.3983 8 24.1717C8 23.9409 8.0844 23.7432 8.25321 23.5783C8.42202 23.4135 8.62699 23.3311 8.86814 23.3311C9.11331 23.3311 9.3203 23.4135 9.4891 23.5783C9.66193 23.7432 9.74834 23.9409 9.74834 24.1717C9.74834 24.3983 9.66193 24.5941 9.4891 24.7589C9.3203 24.9196 9.11331 25 8.86814 25Z" fill="#687086"/>
<path d="M18.5107 24.864H16.9432L12.8135 18.3489C12.709 18.1841 12.6226 18.013 12.5543 17.8359H12.5181C12.5503 18.0255 12.5663 18.4314 12.5663 19.0536V24.864H11.1797V16H12.8497L16.8407 22.3606C17.0095 22.6244 17.1181 22.8057 17.1663 22.9045H17.1904C17.1502 22.6697 17.1301 22.272 17.1301 21.7115V16H18.5107V24.864Z" fill="#687086"/>
<path d="M25.2594 24.864H20.4062V16H25.0665V17.2487H21.8411V19.7582H24.8133V21.0007H21.8411V23.6216H25.2594V24.864Z" fill="#687086"/>
<path d="M32.1622 17.2487H29.6783V24.864H28.2434V17.2487H25.7656V16H32.1622V17.2487Z" fill="#687086"/>
</svg>
