<svg width="40" height="40" viewBox="0 0 40 40" fill="none" xmlns="http://www.w3.org/2000/svg">
<circle cx="20" cy="20" r="20" fill="#F4F4F4"/>
<g clip-path="url(#clip0_623_197)">
<path d="M9.08594 20.5C9.08594 22.9864 10.1834 25.371 12.1369 27.1291C14.0904 28.8873 16.7399 29.875 19.5026 29.875C22.2653 29.875 24.9148 28.8873 26.8683 27.1291C28.8218 25.371 29.9193 22.9864 29.9193 20.5C29.9193 18.0136 28.8218 15.629 26.8683 13.8709C24.9148 12.1127 22.2653 11.125 19.5026 11.125C16.7399 11.125 14.0904 12.1127 12.1369 13.8709C10.1834 15.629 9.08594 18.0136 9.08594 20.5Z" stroke="#687086" stroke-width="1.5" stroke-linecap="round" stroke-linejoin="round"/>
<path d="M12.7266 23.6248L13.138 21.5686L13.7682 18.4165H15.1432C15.2944 18.4166 15.4438 18.4496 15.581 18.5132C15.7182 18.5768 15.8398 18.6695 15.9376 18.7849C16.0353 18.9003 16.1068 19.0355 16.1469 19.1813C16.1871 19.3271 16.1951 19.4798 16.1703 19.629L15.9964 20.6707C15.9559 20.9139 15.8305 21.1349 15.6424 21.2944C15.4544 21.4538 15.2158 21.5414 14.9693 21.5415H13.2474" stroke="#687086" stroke-width="1.5" stroke-linecap="round" stroke-linejoin="round"/>
<path d="M23.1484 23.6248L23.5599 21.5686L24.1901 18.4165H25.5651C25.7163 18.4166 25.8657 18.4496 26.0029 18.5132C26.14 18.5768 26.2617 18.6695 26.3595 18.7849C26.4572 18.9003 26.5286 19.0355 26.5688 19.1813C26.609 19.3271 26.617 19.4798 26.5922 19.629L26.4182 20.6707C26.3778 20.9139 26.2524 21.1349 26.0643 21.2944C25.8762 21.4538 25.6377 21.5414 25.3911 21.5415H23.6693" stroke="#687086" stroke-width="1.5" stroke-linecap="round" stroke-linejoin="round"/>
<path d="M19.5026 15.8125L18.4609 21.5417" stroke="#687086" stroke-width="1.5" stroke-linecap="round" stroke-linejoin="round"/>
<path d="M19.0859 18.4165H21.5859L21.0651 21.5415" stroke="#687086" stroke-width="1.5" stroke-linecap="round" stroke-linejoin="round"/>
</g>
<defs>
<clipPath id="clip0_623_197">
<rect width="25" height="25" fill="white" transform="translate(7 8)"/>
</clipPath>
</defs>
</svg>
