<svg width="40" height="40" viewBox="0 0 40 40" fill="none" xmlns="http://www.w3.org/2000/svg">
<circle cx="20" cy="20" r="20" fill="#F4F4F4"/>
<g clip-path="url(#clip0_623_137)">
<path d="M19.5 17.375H12.2083C11.6558 17.375 11.1259 17.5945 10.7352 17.9852C10.3445 18.3759 10.125 18.9058 10.125 19.4583V23.625C10.125 24.1775 10.3445 24.7074 10.7352 25.0981C11.1259 25.4888 11.6558 25.7083 12.2083 25.7083H15.3333" stroke="#687086" stroke-width="1.5" stroke-linecap="round" stroke-linejoin="round"/>
<path d="M19.5 23.6248H26.7917C27.3442 23.6248 27.8741 23.4053 28.2648 23.0146C28.6555 22.6239 28.875 22.094 28.875 21.5415V17.3748C28.875 16.8223 28.6555 16.2924 28.2648 15.9017C27.8741 15.511 27.3442 15.2915 26.7917 15.2915H23.6667" stroke="#687086" stroke-width="1.5" stroke-linecap="round" stroke-linejoin="round"/>
<path d="M15.3359 17.375V13.2083C15.3359 12.6558 15.5554 12.1259 15.9461 11.7352C16.3368 11.3445 16.8667 11.125 17.4193 11.125H21.5859C22.1385 11.125 22.6684 11.3445 23.0591 11.7352C23.4498 12.1259 23.6693 12.6558 23.6693 13.2083V18.4167C23.6693 18.9692 23.4498 19.4991 23.0591 19.8898C22.6684 20.2805 22.1385 20.5 21.5859 20.5H17.4193C16.8667 20.5 16.3368 20.7195 15.9461 21.1102C15.5554 21.5009 15.3359 22.0308 15.3359 22.5833V27.7917C15.3359 28.3442 15.5554 28.8741 15.9461 29.2648C16.3368 29.6555 16.8667 29.875 17.4193 29.875H21.5859C22.1385 29.875 22.6684 29.6555 23.0591 29.2648C23.4498 28.8741 23.6693 28.3442 23.6693 27.7917V23.625" stroke="#687086" stroke-width="1.5" stroke-linecap="round" stroke-linejoin="round"/>
<path d="M18.4609 14.25V14.2604" stroke="#687086" stroke-width="1.5" stroke-linecap="round" stroke-linejoin="round"/>
<path d="M20.5391 26.75V26.7604" stroke="#687086" stroke-width="1.5" stroke-linecap="round" stroke-linejoin="round"/>
</g>
<defs>
<clipPath id="clip0_623_137">
<rect width="25" height="25" fill="white" transform="translate(7 8)"/>
</clipPath>
</defs>
</svg>
