<svg width="40" height="40" viewBox="0 0 40 40" fill="none" xmlns="http://www.w3.org/2000/svg">
<circle cx="20" cy="20" r="20" fill="#F4F4F4"/>
<g clip-path="url(#clip0_622_1020)">
<path d="M13.5714 17.0737C10.8609 17.8269 9.08594 19.08 9.08594 20.4998C9.08594 22.8019 13.7495 24.6664 19.5026 24.6664C20.3078 24.6664 21.0922 24.63 21.8443 24.5602" stroke="#687086" stroke-width="1.5" stroke-linecap="round" stroke-linejoin="round"/>
<path d="M25.4292 23.9262C28.1406 23.1741 29.9167 21.92 29.9167 20.5002C29.9167 18.1981 25.2531 16.3335 19.5 16.3335C18.6948 16.3335 17.9104 16.37 17.1562 16.4397" stroke="#687086" stroke-width="1.5" stroke-linecap="round" stroke-linejoin="round"/>
<path d="M13.5686 23.924C12.8644 26.6479 13.0634 28.8125 14.2926 29.5208C16.2853 30.6719 20.2332 27.5656 23.1092 22.5833C23.5124 21.8854 23.8728 21.1885 24.1884 20.5" stroke="#687086" stroke-width="1.5" stroke-linecap="round" stroke-linejoin="round"/>
<path d="M25.4323 17.0794C26.1375 14.3544 25.9396 12.1877 24.7094 11.4794C22.7167 10.3284 18.7687 13.4346 15.8927 18.4169C15.4896 19.1148 15.1292 19.8127 14.8125 20.5002" stroke="#687086" stroke-width="1.5" stroke-linecap="round" stroke-linejoin="round"/>
<path d="M19.5009 13.6499C17.4957 11.6791 15.5217 10.7686 14.2926 11.4791C12.2999 12.6291 13.0155 17.6009 15.8926 22.5832C16.2946 23.2811 16.7186 23.9416 17.1551 24.5582" stroke="#687086" stroke-width="1.5" stroke-linecap="round" stroke-linejoin="round"/>
<path d="M19.5 27.3477C21.5063 29.3196 23.4802 30.2311 24.7083 29.5206C26.701 28.3706 25.9854 23.3988 23.1083 18.4165C22.7177 17.7394 22.2958 17.08 21.8458 16.4404" stroke="#687086" stroke-width="1.5" stroke-linecap="round" stroke-linejoin="round"/>
<path d="M18.9758 21.4022C19.0943 21.4717 19.2254 21.517 19.3615 21.5356C19.4976 21.5543 19.636 21.5458 19.7689 21.5106C19.9017 21.4755 20.0262 21.4145 20.1354 21.3311C20.2445 21.2476 20.336 21.1434 20.4047 21.0244C20.4734 20.9055 20.5179 20.7741 20.5356 20.6378C20.5533 20.5016 20.5439 20.3632 20.5079 20.2307C20.4719 20.0981 20.41 19.9739 20.3259 19.8654C20.2417 19.7568 20.1369 19.6659 20.0175 19.598C19.7783 19.4621 19.4951 19.4262 19.2297 19.4983C18.9642 19.5704 18.738 19.7445 18.6005 19.9827C18.463 20.221 18.4252 20.5039 18.4955 20.7698C18.5659 21.0358 18.7385 21.2631 18.9758 21.4022Z" stroke="#687086" stroke-width="1.5" stroke-linecap="round" stroke-linejoin="round"/>
</g>
<defs>
<clipPath id="clip0_622_1020">
<rect width="25" height="25" fill="white" transform="translate(7 8)"/>
</clipPath>
</defs>
</svg>
