<svg width="40" height="40" viewBox="0 0 40 40" fill="none" xmlns="http://www.w3.org/2000/svg">
<circle cx="20" cy="20" r="20" fill="#F4F4F4"/>
<path d="M14.5714 17.0737C11.8609 17.8269 10.0859 19.08 10.0859 20.4998C10.0859 22.8019 14.7495 24.6664 20.5026 24.6664C21.3078 24.6664 22.0922 24.63 22.8443 24.5602" stroke="#687086" stroke-width="1.5" stroke-linecap="round" stroke-linejoin="round"/>
<path d="M26.4292 23.9262C29.1406 23.1741 30.9167 21.92 30.9167 20.5002C30.9167 18.1981 26.2531 16.3335 20.5 16.3335C19.6948 16.3335 18.9104 16.37 18.1562 16.4397" stroke="#687086" stroke-width="1.5" stroke-linecap="round" stroke-linejoin="round"/>
<path d="M14.5686 23.924C13.8644 26.6479 14.0634 28.8125 15.2926 29.5208C17.2853 30.6719 21.2332 27.5656 24.1092 22.5833C24.5124 21.8854 24.8728 21.1885 25.1884 20.5" stroke="#687086" stroke-width="1.5" stroke-linecap="round" stroke-linejoin="round"/>
<path d="M26.4323 17.0794C27.1375 14.3544 26.9396 12.1877 25.7094 11.4794C23.7167 10.3284 19.7687 13.4346 16.8927 18.4169C16.4896 19.1148 16.1292 19.8127 15.8125 20.5002" stroke="#687086" stroke-width="1.5" stroke-linecap="round" stroke-linejoin="round"/>
<path d="M20.5009 13.6499C18.4957 11.6791 16.5217 10.7686 15.2926 11.4791C13.2999 12.6291 14.0155 17.6009 16.8926 22.5832C17.2946 23.2811 17.7186 23.9416 18.1551 24.5582" stroke="#687086" stroke-width="1.5" stroke-linecap="round" stroke-linejoin="round"/>
<path d="M20.5 27.3477C22.5063 29.3196 24.4802 30.2311 25.7083 29.5206C27.701 28.3706 26.9854 23.3988 24.1083 18.4165C23.7177 17.7394 23.2958 17.08 22.8458 16.4404" stroke="#687086" stroke-width="1.5" stroke-linecap="round" stroke-linejoin="round"/>
<path d="M19.9758 21.4022C20.0943 21.4717 20.2254 21.517 20.3615 21.5356C20.4976 21.5543 20.636 21.5458 20.7689 21.5106C20.9017 21.4755 21.0262 21.4145 21.1354 21.3311C21.2445 21.2476 21.336 21.1434 21.4047 21.0244C21.4734 20.9055 21.5179 20.7741 21.5356 20.6378C21.5533 20.5016 21.5439 20.3632 21.5079 20.2307C21.4719 20.0981 21.41 19.9739 21.3259 19.8654C21.2417 19.7568 21.1369 19.6659 21.0175 19.598C20.7783 19.4621 20.4951 19.4262 20.2297 19.4983C19.9642 19.5704 19.738 19.7445 19.6005 19.9827C19.463 20.221 19.4252 20.5039 19.4955 20.7698C19.5659 21.0358 19.7385 21.2631 19.9758 21.4022Z" stroke="#687086" stroke-width="1.5" stroke-linecap="round" stroke-linejoin="round"/>
</svg>
