<svg width="40" height="40" viewBox="0 0 40 40" fill="none" xmlns="http://www.w3.org/2000/svg">
<circle cx="20" cy="20" r="20" fill="#F4F4F4"/>
<g clip-path="url(#clip0_625_2487)">
<path d="M23.6255 29.875H15.3786C15.0129 29.875 14.6537 29.7787 14.337 29.5959C14.0203 29.413 13.7573 29.15 13.5744 28.8333L9.36505 21.5417C9.1822 21.225 9.08594 20.8657 9.08594 20.5C9.08594 20.1343 9.1822 19.775 9.36505 19.4583L13.5744 12.1667C13.7573 11.85 14.0203 11.587 14.337 11.4041C14.6537 11.2213 15.0129 11.125 15.3786 11.125H23.6255C23.9912 11.125 24.3504 11.2213 24.6671 11.4041C24.9838 11.587 25.2468 11.85 25.4296 12.1667L29.6401 19.4583C29.8229 19.775 29.9192 20.1343 29.9192 20.5C29.9192 20.8657 29.8229 21.225 29.6401 21.5417L25.4307 28.8333C25.2477 29.1502 24.9846 29.4133 24.6677 29.5961C24.3508 29.779 23.9913 29.8752 23.6255 29.875Z" stroke="#687086" stroke-width="1.5" stroke-linecap="round" stroke-linejoin="round"/>
<path d="M22.625 24.6668L16.375 16.3335" stroke="#687086" stroke-width="1.5" stroke-linecap="round" stroke-linejoin="round"/>
<path d="M16.375 24.6668L22.625 16.3335" stroke="#687086" stroke-width="1.5" stroke-linecap="round" stroke-linejoin="round"/>
</g>
<defs>
<clipPath id="clip0_625_2487">
<rect width="25" height="25" fill="white" transform="translate(7 8)"/>
</clipPath>
</defs>
</svg>
