<svg width="73" height="73" viewBox="0 0 73 73" fill="none" xmlns="http://www.w3.org/2000/svg">
<path d="M36.305 72.61C56.3557 72.61 72.61 56.3557 72.61 36.305C72.61 16.2543 56.3557 0 36.305 0C16.2543 0 0 16.2543 0 36.305C0 56.3557 16.2543 72.61 36.305 72.61Z" fill="#FFE9ED"/>
<path fill-rule="evenodd" clip-rule="evenodd" d="M29.0997 47.5954L33.5325 52.9766C33.9349 53.465 33.8642 54.1565 33.3756 54.5704L31.8512 55.8628C31.5787 56.0935 31.2512 56.1959 30.8851 56.1655C30.519 56.1345 30.2177 55.9777 29.993 55.7061L25.0782 49.7636L29.0997 47.5954ZM53.4145 33.7852H57.9291C58.651 33.7852 59.2353 33.2339 59.234 32.5609C59.2326 31.8864 58.6435 31.3415 57.9228 31.3415H53.408C52.6861 31.3415 52.1017 31.8925 52.1031 32.5655C52.1046 33.2404 52.6935 33.7852 53.4145 33.7852ZM48.0558 22.6827L50.3131 19.0311C50.6734 18.4476 50.4629 17.699 49.8382 17.3604C49.2145 17.0224 48.4114 17.2195 48.0505 17.804L45.7935 21.4556C45.4331 22.0392 45.6437 22.7878 46.2683 23.1264C46.892 23.464 47.6951 23.2667 48.0558 22.6827ZM53.2794 27.0569L56.9857 25.0586C57.6146 24.7196 57.8305 23.9677 57.4669 23.3803C57.104 22.7928 56.2992 22.5912 55.6701 22.9307L51.964 24.9292C51.3349 25.268 51.119 26.0199 51.4826 26.6075C51.8455 27.1949 52.6498 27.3966 53.2794 27.0569ZM47.4503 32.5565L51.8218 39.6291C52.6423 40.9569 52.1512 42.6705 50.7298 43.437C49.4033 44.1525 47.7167 43.8004 46.8303 42.6709C41.9916 41.9834 35.6879 42.7221 29.4211 45.004L23.3952 35.2561C28.647 31.3315 32.4949 26.6268 34.2769 22.3684C33.6512 21.0809 34.165 19.5225 35.5023 18.8016C36.924 18.0352 38.7585 18.494 39.5796 19.8217L43.9513 26.8943C44.0755 26.8047 44.2077 26.7214 44.3479 26.6459C46.0369 25.7348 48.1974 26.2758 49.1725 27.8535C50.1478 29.4311 49.5686 31.449 47.8797 32.3599C47.7394 32.436 47.5951 32.5007 47.4503 32.5565ZM27.9054 46.0366L21.5914 35.8213L16.5719 38.5281C13.5218 40.1733 12.4671 43.8497 14.2278 46.6989C15.9885 49.5475 19.9252 50.5331 22.9748 48.8881L27.9945 46.1812L27.9054 46.0366Z" fill="#F9B8C4"/>
</svg>
