<svg width="34" height="34" viewBox="0 0 34 34" fill="none" xmlns="http://www.w3.org/2000/svg">
<g clip-path="url(#clip0_498_143)">
<path d="M33.9998 16.9997C33.9998 14.6962 32.9883 12.5231 31.2727 11.1574C31.4711 8.85955 30.6494 6.60847 29.0202 4.97789C27.3911 3.35014 25.1457 2.52989 22.9612 2.77497C20.108 -0.84603 13.9441 -0.91403 11.1575 2.72539C8.85682 2.52139 6.60857 3.3473 4.9794 4.97789C3.35165 6.60705 2.52998 8.85955 2.77648 11.037C-0.844518 13.8901 -0.913934 20.0541 2.7269 22.8421C2.52857 25.1399 3.35023 27.391 4.9794 29.0216C6.60857 30.6493 8.85682 31.4724 11.0385 31.2245C13.8916 34.8455 20.0556 34.9135 22.8422 31.2741C25.1372 31.4667 27.3897 30.6521 29.0202 29.0216C30.648 27.3924 31.4697 25.1399 31.2232 22.9625C32.9883 21.4778 33.9998 19.3046 33.9998 17.0011V16.9997ZM24.8482 14.9682L18.1346 21.4396C16.487 23.0843 13.7911 23.0701 12.1435 21.4211L8.95315 18.4575C8.38082 17.9248 8.34682 17.0281 8.87948 16.4557C9.41357 15.882 10.3117 15.8508 10.8812 16.3821L14.1084 19.3811C14.7006 19.9719 15.5959 19.9705 16.1484 19.4166L22.8804 12.9268C23.4442 12.3856 24.341 12.4012 24.8836 12.9636C25.4276 13.5261 25.4106 14.4242 24.8482 14.9668V14.9682Z" fill="#FFA735"/>
</g>
<defs>
<clipPath id="clip0_498_143">
<rect width="34" height="34" fill="white"/>
</clipPath>
</defs>
</svg>
