<svg width="35" height="35" viewBox="0 0 35 35" fill="none" xmlns="http://www.w3.org/2000/svg">
<mask id="mask0_498_102" style="mask-type:luminance" maskUnits="userSpaceOnUse" x="0" y="0" width="35" height="35">
<path d="M34.5033 0.107422H0.109375V34.5014H34.5033V0.107422Z" fill="white"/>
</mask>
<g mask="url(#mask0_498_102)">
<g clip-path="url(#clip0_498_102)">
<path d="M17 0C12.4928 0.00487487 8.17163 1.79751 4.98457 4.98457C1.79751 8.17163 0.00487487 12.4928 0 17C0.85 39.525 33.15 39.5151 34 17C33.9951 12.4928 32.2025 8.17163 29.0154 4.98457C25.8284 1.79751 21.5072 0.00487487 17 0ZM21.9583 11.3333C22.5219 11.3333 23.0624 11.5572 23.4609 11.9557C23.8594 12.3542 24.0833 12.8947 24.0833 13.4583C24.0833 14.0219 23.8594 14.5624 23.4609 14.9609C23.0624 15.3594 22.5219 15.5833 21.9583 15.5833C21.3947 15.5833 20.8542 15.3594 20.4557 14.9609C20.0572 14.5624 19.8333 14.0219 19.8333 13.4583C19.8333 12.8947 20.0572 12.3542 20.4557 11.9557C20.8542 11.5572 21.3947 11.3333 21.9583 11.3333ZM12.0417 11.3333C12.6053 11.3333 13.1458 11.5572 13.5443 11.9557C13.9428 12.3542 14.1667 12.8947 14.1667 13.4583C14.1667 14.0219 13.9428 14.5624 13.5443 14.9609C13.1458 15.3594 12.6053 15.5833 12.0417 15.5833C11.4781 15.5833 10.9376 15.3594 10.5391 14.9609C10.1405 14.5624 9.91667 14.0219 9.91667 13.4583C9.91667 12.8947 10.1405 12.3542 10.5391 11.9557C10.9376 11.5572 11.4781 11.3333 12.0417 11.3333ZM25.2762 22.0178C24.4438 23.4853 23.242 24.7095 21.7902 25.5689C20.3383 26.4282 18.6869 26.8929 17 26.9167C15.3119 26.8931 13.6592 26.4286 12.206 25.5693C10.7528 24.71 9.54943 23.4857 8.71533 22.0178C8.56472 21.7827 8.48693 21.5084 8.49174 21.2292C8.49655 20.95 8.58375 20.6785 8.74238 20.4488C8.901 20.219 9.12399 20.0412 9.38332 19.9378C9.64266 19.8343 9.92678 19.8098 10.2 19.8673C12.3784 20.6881 14.6741 21.1548 17 21.25C19.3221 21.1536 21.6139 20.6869 23.7887 19.8673C24.0621 19.8091 24.3466 19.8331 24.6065 19.9362C24.8663 20.0394 25.0898 20.2171 25.2488 20.447C25.4079 20.6769 25.4953 20.9488 25.5002 21.2283C25.5051 21.5078 25.4271 21.7825 25.2762 22.0178Z" fill="#37C99E"/>
</g>
</g>
<defs>
<clipPath id="clip0_498_102">
<rect width="34" height="34" fill="white"/>
</clipPath>
</defs>
</svg>
