<svg width="34" height="34" viewBox="0 0 34 34" fill="none" xmlns="http://www.w3.org/2000/svg">
<g clip-path="url(#clip0_498_153)">
<path d="M17 0C7.62592 0 0 7.62592 0 17C0 26.3741 7.62592 34 17 34C26.3741 34 34 26.3741 34 17C34 7.62592 26.3741 0 17 0ZM22.6667 18.4167H17C16.218 18.4167 15.5833 17.7834 15.5833 17V8.5C15.5833 7.71658 16.218 7.08333 17 7.08333C17.782 7.08333 18.4167 7.71658 18.4167 8.5V15.5833H22.6667C23.4501 15.5833 24.0833 16.2166 24.0833 17C24.0833 17.7834 23.4501 18.4167 22.6667 18.4167Z" fill="#F9B8C4"/>
</g>
<defs>
<clipPath id="clip0_498_153">
<rect width="34" height="34" fill="white"/>
</clipPath>
</defs>
</svg>
