<svg width="156" height="46" viewBox="0 0 156 46" fill="none" xmlns="http://www.w3.org/2000/svg">
<g clip-path="url(#clip0_128_820)">
<path d="M58.5777 28.5918L60.3768 29.6326C60.0599 30.1266 59.7164 30.6031 59.3479 31.0599L57.6797 29.8199C57.9995 29.4259 58.2992 29.016 58.5777 28.5918Z" fill="#0049FE"/>
<path d="M57.6811 29.8193L59.3493 31.0593C58.9823 31.5159 58.5901 31.9518 58.1747 32.3648L56.6641 30.9374C57.0209 30.5836 57.3569 30.2119 57.6811 29.8193Z" fill="#0049FE"/>
<path d="M56.8783 33.5332L57.7406 34.5621C57.249 34.9622 56.7368 35.3364 56.2062 35.6831L55.4688 34.5651C55.9575 34.2478 56.4281 33.9033 56.8783 33.5332Z" fill="#0049FE"/>
<path d="M52.4185 25.0381L57.444 27.9344C57.1921 28.3161 56.9191 28.6834 56.6262 29.0347L51.9844 25.5793C52.136 25.3949 52.2788 25.2254 52.4185 25.0381Z" fill="#0049FE"/>
<path d="M55.5443 31.9365L56.8765 33.5245C56.4264 33.8945 55.9558 34.239 55.467 34.5563L54.3281 32.8286C54.7485 32.5522 55.1544 32.2544 55.5443 31.9365Z" fill="#0049FE"/>
<path d="M51.9808 25.5791L56.6226 29.0345C56.3253 29.3854 56.0279 29.7184 55.7068 30.0396L51.4961 26.0668C51.6665 25.9133 51.8283 25.7505 51.9808 25.5791Z" fill="#0049FE"/>
<path d="M53.0271 33.5869L53.9549 35.4365C53.4366 35.7007 52.9045 35.9369 52.361 36.1443L51.6562 34.2114C52.1239 34.0276 52.5815 33.8191 53.0271 33.5869Z" fill="#0049FE"/>
<path d="M50.4314 26.9082L53.6102 31.7374C53.2316 31.9812 52.843 32.2072 52.4446 32.4154L49.8516 27.2531C50.0478 27.1491 50.2411 27.0331 50.4314 26.9082Z" fill="#0049FE"/>
<path d="M49.849 27.2539L52.442 32.4161C52.0405 32.6234 51.6286 32.81 51.2079 32.9752L49.2305 27.5423C49.4418 27.4577 49.6483 27.3615 49.849 27.2539Z" fill="#0049FE"/>
<path d="M51.6569 34.2119L52.3616 36.1448C51.8169 36.3539 51.261 36.5326 50.6964 36.68L50.2266 34.6877C50.7142 34.5509 51.191 34.3923 51.6569 34.2119Z" fill="#0049FE"/>
<path d="M51.2005 32.9746L51.6496 34.2117C51.1837 34.394 50.7069 34.5526 50.2192 34.6874L49.9219 33.4088C50.3557 33.2876 50.7826 33.1426 51.2005 32.9746Z" fill="#0049FE"/>
<path d="M47.2305 22.041L51.4976 26.0673C51.3329 26.2247 51.1602 26.3736 50.9802 26.5134L47.2305 22.041Z" fill="#0049FE"/>
<path d="M47.2305 22.041L50.9832 26.5015C50.8066 26.6439 50.622 26.7759 50.4301 26.897L47.2305 22.041Z" fill="#0049FE"/>
<path d="M47.2305 22.041L50.4301 26.9089C50.2398 27.0338 50.0465 27.1497 49.8354 27.2538L47.2305 22.041Z" fill="#0049FE"/>
<path d="M48.5928 27.7734L49.925 33.4233C49.4879 33.5453 49.0478 33.6464 48.5958 33.7207L47.9297 27.9578C48.1497 27.9102 48.3728 27.8478 48.5928 27.7734Z" fill="#0049FE"/>
<path d="M47.2305 22.041L49.8502 27.2538C49.6498 27.3644 49.4433 27.4637 49.2317 27.5512L47.2305 22.041Z" fill="#0049FE"/>
<path d="M48.9819 37.04L49.1425 38.3722C48.5089 38.4674 47.8706 38.5279 47.2305 38.5536V37.2155C47.8169 37.1875 48.4016 37.129 48.9819 37.04Z" fill="#0049FE"/>
<path d="M48.747 35.0146L48.9819 37.0397C48.4016 37.1286 47.8169 37.1872 47.2305 37.2151V35.1871C47.7386 35.1556 48.2448 35.0981 48.747 35.0146Z" fill="#0049FE"/>
<path d="M47.9293 27.958L48.5954 33.7209C48.1463 33.7953 47.7033 33.8547 47.2305 33.8845V28.071C47.4652 28.0456 47.6985 28.0079 47.9293 27.958Z" fill="#0049FE"/>
<path d="M59.3672 14.1247L61.1514 13.0869C61.4319 13.6067 61.6831 14.1418 61.9037 14.6897L59.9976 15.5164C59.8119 15.0418 59.6015 14.5773 59.3672 14.1247Z" fill="#0049FE"/>
<path d="M59.9844 15.5191L61.9053 14.6895C62.1192 15.2354 62.3009 15.7934 62.4495 16.3606L60.4572 16.9554C60.3248 16.4687 60.1669 15.9893 59.9844 15.5191Z" fill="#0049FE"/>
<path d="M62.7969 18.0708L64.1172 17.8389C64.2198 18.4641 64.2883 19.0944 64.3224 19.7271L62.9842 19.8074C62.9548 19.2255 62.8922 18.6456 62.7969 18.0708Z" fill="#0049FE"/>
<path d="M53.2109 17.6786L58.2334 14.7793C58.437 15.1882 58.6177 15.6082 58.7746 16.0372L53.4607 18.3298C53.3874 18.1098 53.3041 17.8927 53.2109 17.6786Z" fill="#0049FE"/>
<path d="M60.7539 18.4301L62.7968 18.0703C62.8922 18.6452 62.9547 19.225 62.9841 19.8069L60.9026 19.9259C60.8813 19.4249 60.8317 18.9255 60.7539 18.4301Z" fill="#0049FE"/>
<path d="M53.4609 18.3298L58.7748 16.0371C58.9345 16.462 59.0725 16.8947 59.1882 17.3336L53.6453 18.9899C53.5967 18.7665 53.5351 18.5461 53.4609 18.3298Z" fill="#0049FE"/>
<path d="M60.9221 21.4277L62.9858 21.5497C62.9553 22.1304 62.8937 22.7091 62.8015 23.2833L60.7734 22.9265C60.8496 22.4299 60.8992 21.9296 60.9221 21.4277Z" fill="#0049FE"/>
<path d="M53.8359 20.3399L59.6078 20.0068C59.6316 20.4529 59.6316 20.8989 59.6078 21.3539L53.8389 21.0149C53.8498 20.79 53.8488 20.5647 53.8359 20.3399Z" fill="#0049FE"/>
<path d="M53.8456 21.0117L59.6144 21.3507C59.5906 21.7997 59.549 22.2428 59.4806 22.6978L53.7891 21.6927C53.8188 21.4697 53.8366 21.2318 53.8456 21.0117Z" fill="#0049FE"/>
<path d="M60.7721 22.9268L62.8001 23.2836C62.708 23.8598 62.5849 24.4305 62.4313 24.9934L60.4688 24.3987C60.5961 23.9138 60.6974 23.4225 60.7721 22.9268Z" fill="#0049FE"/>
<path d="M59.4804 22.6973L60.774 22.9262C60.7018 23.4269 60.6025 23.9232 60.4766 24.4131L59.2188 24.0354C59.3311 23.5946 59.4185 23.1479 59.4804 22.6973Z" fill="#0049FE"/>
<path d="M48.0195 20.6733L53.6427 18.9902C53.696 19.2119 53.7377 19.4362 53.7676 19.6623L48.0195 20.6733Z" fill="#0049FE"/>
<path d="M48.0195 20.6732L53.7676 19.6621C53.8026 19.8856 53.8245 20.111 53.833 20.3371L48.0195 20.6732Z" fill="#0049FE"/>
<path d="M48.0195 20.6729L53.833 20.3398C53.8448 20.5647 53.8448 20.79 53.833 21.0149L48.0195 20.6729Z" fill="#0049FE"/>
<path d="M53.6697 22.3652L59.2096 24.0275C59.0969 24.4682 58.9619 24.9029 58.8051 25.33L53.4883 23.0343C53.5596 22.8143 53.6191 22.5883 53.6697 22.3652Z" fill="#0049FE"/>
<path d="M48.0195 20.6729L53.8419 21.0119C53.8419 21.2408 53.8152 21.4698 53.7854 21.6928L48.0195 20.6729Z" fill="#0049FE"/>
<path d="M61.8857 26.6582L63.1168 27.1875C62.8836 27.7836 62.6176 28.3664 62.3199 28.933L61.1602 28.264C61.4293 27.7415 61.6715 27.2055 61.8857 26.6582Z" fill="#0049FE"/>
<path d="M60.0119 25.8496L61.8853 26.6584C61.6711 27.2058 61.4289 27.7417 61.1598 28.2642L59.4023 27.2502C59.6313 26.795 59.8348 26.3274 60.0119 25.8496Z" fill="#0049FE"/>
<path d="M53.489 23.0332L58.8059 25.3289C58.6481 25.759 58.4685 26.1808 58.2676 26.5927L53.2422 23.6904C53.3363 23.476 53.4187 23.2566 53.489 23.0332Z" fill="#0049FE"/>
<path d="M47.2305 6.20264V4.12109C47.8161 4.14902 48.3998 4.20858 48.979 4.2995L48.7411 6.36321C48.2406 6.28436 47.7364 6.23078 47.2305 6.20264Z" fill="#0049FE"/>
<path d="M48.7422 6.36351L48.9801 4.2998C49.5592 4.38925 50.133 4.51036 50.6988 4.6626L50.2201 6.68467C49.7364 6.55581 49.2437 6.44875 48.7422 6.36351Z" fill="#0049FE"/>
<path d="M52.3633 5.20413L52.8212 3.94629C53.4141 4.17131 53.9948 4.42741 54.5608 4.71349L53.9661 5.90295C53.4448 5.64134 52.9097 5.40805 52.3633 5.20413Z" fill="#0049FE"/>
<path d="M47.2305 13.3132V7.51465C47.6861 7.54286 48.1398 7.59646 48.5894 7.67522L47.9293 13.4233C47.6914 13.3757 47.4624 13.34 47.2305 13.3132Z" fill="#0049FE"/>
<path d="M51.6523 7.15481L52.363 5.2041C52.9077 5.41113 53.4407 5.64738 53.9599 5.91183L53.0262 7.76442C52.5796 7.53653 52.121 7.33302 51.6523 7.15481Z" fill="#0049FE"/>
<path d="M47.9297 13.4229L48.5988 7.6748C49.0471 7.74846 49.4909 7.84774 49.928 7.97217L48.5928 13.5983C48.3753 13.5273 48.1539 13.4687 47.9297 13.4229Z" fill="#0049FE"/>
<path d="M54.332 8.51089L55.468 6.7832C55.9563 7.10035 56.4278 7.44279 56.8804 7.80911L55.5572 9.38811C55.1649 9.07386 54.7559 8.78102 54.332 8.51089Z" fill="#0049FE"/>
<path d="M49.8477 14.0949L52.4407 8.92969C52.8391 9.13189 53.2316 9.35492 53.6123 9.59876L50.4364 14.425C50.2461 14.31 50.0499 14.2 49.8477 14.0949Z" fill="#0049FE"/>
<path d="M50.4375 14.4307L53.6133 9.60449C53.988 9.84536 54.3568 10.11 54.7136 10.3925L50.9965 14.8202C50.8181 14.6894 50.6308 14.5526 50.4375 14.4307Z" fill="#0049FE"/>
<path d="M55.5547 9.38759L56.878 7.80859C57.3312 8.17627 57.764 8.56839 58.1745 8.98318L56.6876 10.3868C56.3278 10.034 55.9497 9.70047 55.5547 9.38759Z" fill="#0049FE"/>
<path d="M54.7109 10.3928L55.5554 9.3877C55.9484 9.70074 56.3246 10.0343 56.6825 10.3869L55.7279 11.2789C55.4051 10.9655 55.0656 10.6697 54.7109 10.3928Z" fill="#0049FE"/>
<path d="M47.2305 19.3051L48.5835 13.5928C48.8006 13.6582 49.0176 13.7325 49.2288 13.8188L47.2305 19.3051Z" fill="#0049FE"/>
<path d="M47.2305 19.3047L49.2288 13.8184C49.4397 13.9016 49.6462 13.9959 49.8473 14.1009L47.2305 19.3047Z" fill="#0049FE"/>
<path d="M47.2305 19.3045L49.8473 14.1006C50.0455 14.2017 50.2438 14.3117 50.442 14.4307L47.2305 19.3045Z" fill="#0049FE"/>
<path d="M51.5195 15.2579L55.7272 11.2881C56.0504 11.6073 56.3596 11.9413 56.655 12.2902L52.0072 15.7485C51.8526 15.582 51.6861 15.4125 51.5195 15.2579Z" fill="#0049FE"/>
<path d="M47.2305 19.3045L50.436 14.4307C50.6293 14.5526 50.8167 14.6834 50.9951 14.8202L47.2305 19.3045Z" fill="#0049FE"/>
<path d="M59.3438 10.2892L60.4172 9.48633C60.8157 9.9874 61.1869 10.5095 61.5294 11.0505L60.3696 11.7195C60.0522 11.2256 59.7098 10.7482 59.3438 10.2892Z" fill="#0049FE"/>
<path d="M57.707 11.5082L59.3455 10.2891C59.7116 10.7481 60.054 11.2255 60.3714 11.7194L58.617 12.7334C58.3353 12.3093 58.0316 11.9004 57.707 11.5082Z" fill="#0049FE"/>
<path d="M52.0078 15.7484L56.6556 12.29C56.953 12.6409 57.2206 13.0067 57.4793 13.3903L52.4539 16.2896C52.315 16.1013 52.1661 15.9207 52.0078 15.7484Z" fill="#0049FE"/>
<path d="M34.2998 12.7513L32.5156 11.7135C32.8318 11.219 33.1753 10.7424 33.5445 10.2861L35.2127 11.5232C34.8826 11.9187 34.5793 12.326 34.2998 12.7513Z" fill="#0049FE"/>
<path d="M35.2034 11.523L33.5352 10.2859C33.9069 9.82797 34.304 9.39115 34.7246 8.97754L36.2352 10.4049C35.8635 10.7588 35.5275 11.1215 35.2034 11.523Z" fill="#0049FE"/>
<path d="M36.003 7.80907L35.1406 6.78316C35.6327 6.38236 36.1459 6.00815 36.678 5.66211L37.4125 6.7802C36.9238 7.09649 36.4532 7.43998 36.003 7.80907Z" fill="#0049FE"/>
<path d="M40.4609 16.3071L35.4414 13.4078C35.694 13.0276 35.967 12.6613 36.2592 12.3105L40.901 15.7659C40.7464 15.9414 40.6007 16.1198 40.4609 16.3071Z" fill="#0049FE"/>
<path d="M37.3361 9.39907L36.0039 7.80816C36.4541 7.43907 36.9247 7.09559 37.4134 6.7793L38.5523 8.51291C38.1314 8.78644 37.7254 9.08225 37.3361 9.39907Z" fill="#0049FE"/>
<path d="M40.8997 15.7661L36.2578 12.3108C36.5458 11.9604 36.8515 11.6249 37.1737 11.3057L41.3873 15.2844C41.2153 15.4351 41.0525 15.596 40.8997 15.7661Z" fill="#0049FE"/>
<path d="M39.8536 7.75552L38.9258 5.90888C39.4441 5.64472 39.9761 5.40849 40.5196 5.20117L41.2244 7.13404C40.7573 7.3181 40.2998 7.52551 39.8536 7.75552Z" fill="#0049FE"/>
<path d="M42.4522 14.4369L39.2734 9.60771C39.6521 9.36388 40.0406 9.13689 40.4391 8.92676L43.0321 14.0949C42.8329 14.1986 42.6393 14.3127 42.4522 14.4369Z" fill="#0049FE"/>
<path d="M43.0305 14.0953L40.4375 8.93009C40.8391 8.72378 41.251 8.53818 41.6716 8.37402L43.6461 13.7979C43.4357 13.886 43.2303 13.9853 43.0305 14.0953Z" fill="#0049FE"/>
<path d="M41.2243 7.13415L40.5195 5.20128C41.0643 4.99218 41.6202 4.81347 42.1848 4.66602L42.6546 6.65836C42.1699 6.79514 41.6852 6.9587 41.2243 7.13415Z" fill="#0049FE"/>
<path d="M41.6834 8.37102L41.2344 7.134C41.7012 6.9526 42.18 6.79499 42.6647 6.6582L42.9621 7.93686C42.5278 8.05672 42.1009 8.20169 41.6834 8.37102Z" fill="#0049FE"/>
<path d="M45.6479 19.3043L41.3867 15.2839C41.5501 15.125 41.7229 14.9761 41.9041 14.8379L45.6479 19.3043Z" fill="#0049FE"/>
<path d="M45.6482 19.3052L41.8984 14.8447C42.0745 14.7016 42.2592 14.5695 42.4515 14.4492L45.6482 19.3052Z" fill="#0049FE"/>
<path d="M45.6498 19.3046L42.4531 14.4367C42.6401 14.3115 42.8337 14.1964 43.033 14.0918L45.6498 19.3046Z" fill="#0049FE"/>
<path d="M44.2892 13.5661L42.957 7.93701C43.3942 7.81509 43.8491 7.71399 44.2862 7.63965L44.9553 13.3907C44.7303 13.437 44.5079 13.4956 44.2892 13.5661Z" fill="#0049FE"/>
<path d="M45.648 19.305L43.0312 14.0952C43.231 13.9852 43.4365 13.8859 43.6468 13.7979L45.648 19.305Z" fill="#0049FE"/>
<path d="M43.8998 4.30558L43.7422 2.97338C44.3748 2.87823 45.0121 2.81768 45.6513 2.79199V4.13013C45.0648 4.15824 44.4802 4.2168 43.8998 4.30558Z" fill="#0049FE"/>
<path d="M44.1333 6.33433L43.8984 4.30631C44.4788 4.21753 45.0634 4.15897 45.6499 4.13086V6.15888C45.1416 6.18989 44.6353 6.24847 44.1333 6.33433Z" fill="#0049FE"/>
<path d="M44.9572 13.3902L44.2852 7.63329C44.7342 7.55895 45.1772 7.50244 45.6501 7.46973V13.2713C45.4172 13.2989 45.1859 13.3386 44.9572 13.3902Z" fill="#0049FE"/>
<path d="M33.5177 27.2325L31.7187 28.2703C31.4476 27.7492 31.2063 27.2131 30.9961 26.6646L32.9022 25.8379C33.0822 26.3135 33.2877 26.779 33.5177 27.2325Z" fill="#0049FE"/>
<path d="M32.9025 25.8376L30.9964 26.6643C30.7829 26.1189 30.6002 25.562 30.4492 24.9961L32.4416 24.4014C32.5701 24.8878 32.7239 25.3672 32.9025 25.8376Z" fill="#0049FE"/>
<path d="M30.0889 23.2893L28.7686 23.5243C28.6686 22.8978 28.6011 22.2665 28.5664 21.633L29.9016 21.5527C29.9325 22.1346 29.995 22.7143 30.0889 23.2893Z" fill="#0049FE"/>
<path d="M39.6701 23.6698L34.6535 26.584C34.4492 26.175 34.2675 25.7551 34.1094 25.3261L39.4233 23.0156C39.4946 23.2416 39.5779 23.4587 39.6701 23.6698Z" fill="#0049FE"/>
<path d="M32.1257 22.9264L30.0858 23.2892C29.9919 22.7141 29.9293 22.1344 29.8984 21.5526L31.98 21.4307C32.0003 21.9316 32.0489 22.431 32.1257 22.9264Z" fill="#0049FE"/>
<path d="M39.4225 23.0156L34.1086 25.3112C33.949 24.8874 33.811 24.4556 33.6953 24.0177L39.2382 22.3555C39.2872 22.5788 39.3487 22.7992 39.4225 23.0156Z" fill="#0049FE"/>
<path d="M31.9621 19.9287L29.8984 19.8098C29.928 19.2291 29.9885 18.6504 30.0798 18.0762L32.1079 18.43C32.0312 18.9265 31.9825 19.4268 31.9621 19.9287Z" fill="#0049FE"/>
<path d="M39.0486 21.0149L33.2768 21.3539C33.253 20.9078 33.25 20.4618 33.2768 20.0068L39.0397 20.3399C39.0309 20.5649 39.0339 20.7902 39.0486 21.0149Z" fill="#0049FE"/>
<path d="M39.0384 20.3392L33.2695 20.0092C33.2903 19.5602 33.335 19.1171 33.4004 18.6621L39.0949 19.6612C39.0651 19.8813 39.0473 20.1073 39.0384 20.3392Z" fill="#0049FE"/>
<path d="M32.105 18.4309L30.0859 18.0771C30.1759 17.4998 30.298 16.9279 30.4517 16.3643L32.4143 16.959C32.2866 17.4441 32.1834 17.9354 32.105 18.4309Z" fill="#0049FE"/>
<path d="M33.399 18.6591L32.1055 18.4302C32.1794 17.9299 32.2786 17.4336 32.4028 16.9434L33.6637 17.321C33.5503 17.7617 33.462 18.2085 33.399 18.6591Z" fill="#0049FE"/>
<path d="M44.8613 20.6729L39.2411 22.3619C39.1854 22.1406 39.1427 21.9162 39.1133 21.6898L44.8613 20.6729Z" fill="#0049FE"/>
<path d="M44.8603 20.6729L39.1123 21.6898C39.0773 21.4663 39.0554 21.2409 39.0469 21.0148L44.8603 20.6729Z" fill="#0049FE"/>
<path d="M44.8614 20.6729L39.048 21.0149C39.0361 20.7891 39.0361 20.5628 39.048 20.3369L44.8614 20.6729Z" fill="#0049FE"/>
<path d="M39.211 18.9871L33.6562 17.3308C33.767 16.8889 33.901 16.4532 34.0577 16.0254L39.3775 18.3181C39.3103 18.538 39.2547 18.7613 39.211 18.9871Z" fill="#0049FE"/>
<path d="M44.8614 20.6732L39.0391 20.3401C39.0391 20.1111 39.0658 19.8851 39.0956 19.6621L44.8614 20.6732Z" fill="#0049FE"/>
<path d="M30.9811 14.6899L29.75 14.1635C29.9827 13.5667 30.2478 12.983 30.544 12.415L31.7037 13.0841C31.4348 13.6063 31.1936 14.1423 30.9811 14.6899Z" fill="#0049FE"/>
<path d="M32.8658 15.5075L30.9805 14.6898C31.193 14.1422 31.4342 13.6062 31.7031 13.084L33.4605 14.098C33.2375 14.557 33.0389 15.0275 32.8658 15.5075Z" fill="#0049FE"/>
<path d="M39.3901 18.3182L34.0703 16.0255C34.2289 15.5993 34.4083 15.178 34.6085 14.7617L39.637 17.664C39.543 17.8775 39.4606 18.0958 39.3901 18.3182Z" fill="#0049FE"/>
<path d="M44.9964 23.1465C45.0173 23.2268 45.0202 39.1803 44.9964 39.1833C44.9727 39.1863 43.9319 37.3991 42.6681 35.2046C41.4043 33.01 40.3427 31.2169 40.3338 31.214C40.3249 31.211 38.2344 31.1991 35.7009 31.214C33.1673 31.2288 31.1006 31.214 31.0977 31.1931C31.0947 31.1723 34.217 29.3614 38.0381 27.149C41.8593 24.9366 44.9548 23.1614 44.9964 23.1465Z" fill="#25045D"/>
<path d="M70.9296 37.9705H69.0859V36.9922H73.8973V37.9824H72.0358V43.4926H70.9296V37.9705Z" fill="#0149FF"/>
<path d="M77.8035 41.6048H74.5503C74.6036 41.8963 74.7598 42.1591 74.9904 42.3452C75.2282 42.5292 75.5225 42.6248 75.823 42.6158C76.0368 42.6222 76.2491 42.5778 76.4424 42.4864C76.6357 42.3949 76.8046 42.2588 76.9352 42.0895L77.6518 42.702C77.4423 42.9657 77.1746 43.1774 76.8698 43.3205C76.5243 43.4764 76.1485 43.5536 75.7695 43.5465C75.3634 43.5523 74.9623 43.4551 74.6039 43.264C74.2599 43.0776 73.9763 42.7971 73.7861 42.4552C73.5829 42.0836 73.4804 41.6654 73.4888 41.242C73.4858 40.9231 73.5422 40.6064 73.6553 40.3083C73.7559 40.0362 73.9107 39.7873 74.1102 39.5767C74.3073 39.3759 74.543 39.2171 74.8031 39.1099C75.1262 38.9816 75.4737 38.9263 75.8207 38.9479C76.1676 38.9695 76.5056 39.0674 76.8103 39.2348C77.1349 39.4227 77.3983 39.7005 77.5686 40.0347C77.749 40.3932 77.8398 40.7901 77.8332 41.1914C77.8345 41.3298 77.8246 41.468 77.8035 41.6048ZM74.9845 40.1179C74.7715 40.2827 74.624 40.5177 74.5682 40.781H76.8014C76.7626 40.6117 76.692 40.4512 76.5932 40.3083C76.4971 40.1811 76.3716 40.079 76.2275 40.0109C76.0685 39.9328 75.8931 39.8941 75.716 39.8979C75.4567 39.8875 75.2014 39.9639 74.9904 40.115L74.9845 40.1179Z" fill="#0149FF"/>
<path d="M79.4493 43.2658C79.1063 43.0789 78.8244 42.7971 78.6375 42.454C78.4377 42.0898 78.3353 41.6801 78.3401 41.2646C78.3336 40.8489 78.4362 40.4388 78.6375 40.0751C78.8278 39.7319 79.1113 39.4494 79.4552 39.2604C79.8199 39.0614 80.2293 38.9591 80.6447 38.963C81.0045 38.9628 81.3606 39.0356 81.6914 39.1771C82.0153 39.3121 82.3012 39.5245 82.524 39.7956L81.8252 40.3903C81.6912 40.2337 81.5248 40.1079 81.3376 40.0216C81.1379 39.9306 80.9206 39.8849 80.7012 39.8878C80.4589 39.8815 80.2194 39.9411 80.0084 40.0603C79.8086 40.1712 79.6461 40.3388 79.5415 40.542C79.4329 40.7653 79.3765 41.0103 79.3765 41.2586C79.3765 41.5069 79.4329 41.752 79.5415 41.9753C79.6488 42.1783 79.8118 42.3464 80.0113 42.46C80.2226 42.5757 80.4604 42.6342 80.7012 42.6295C80.8009 42.6316 80.9005 42.6236 80.9986 42.6057C81.0879 42.5917 81.1755 42.5688 81.2602 42.5373C81.3395 42.5083 81.4161 42.4725 81.4892 42.4303C81.5584 42.3926 81.6241 42.3488 81.6855 42.2994C81.7432 42.2535 81.7969 42.2028 81.8461 42.1478L82.5538 42.7752C82.3276 43.0204 82.0505 43.2132 81.742 43.3402C81.388 43.4917 81.0059 43.5667 80.6209 43.5603C80.2116 43.5646 79.808 43.4632 79.4493 43.2658Z" fill="#0149FF"/>
<path d="M86.4366 39.0527C86.6326 39.1226 86.8112 39.2342 86.9599 39.3798C87.123 39.546 87.2416 39.7505 87.3049 39.9745C87.3907 40.2487 87.4319 40.5348 87.4268 40.822V43.4983H86.4039V41.0867C86.4327 40.7613 86.3464 40.4361 86.16 40.1678C86.066 40.0717 85.952 39.9974 85.8261 39.9501C85.7003 39.9028 85.5655 39.8838 85.4315 39.8943C85.2669 39.8832 85.1019 39.9081 84.9479 39.9672C84.7938 40.0262 84.6545 40.118 84.5394 40.2362C84.308 40.5122 84.1928 40.8672 84.2182 41.2264V43.4953H83.1953V36.7422H84.2182V39.5761H84.2361C84.4197 39.3698 84.6488 39.2089 84.9052 39.1062C85.173 39.0004 85.4587 38.9469 85.7467 38.9486C85.9809 38.9443 86.2141 38.9795 86.4366 39.0527Z" fill="#0149FF"/>
<path d="M92.148 39.4158C92.4683 39.8229 92.6234 40.3358 92.5822 40.8521V43.4838H91.5592V41.1049C91.5635 40.9048 91.5425 40.705 91.4968 40.5101C91.4654 40.3687 91.4001 40.237 91.3065 40.1265C91.2243 40.0371 91.1225 39.9679 91.0091 39.9243C90.7174 39.8314 90.4027 39.8408 90.117 39.9511C89.9762 40.0085 89.8502 40.0969 89.7483 40.2098C89.641 40.3341 89.5619 40.4802 89.5163 40.638C89.4566 40.8304 89.4285 41.0313 89.4331 41.2327V43.4748H88.4102V39.0144H89.4331V39.6269C89.6149 39.4087 89.845 39.2356 90.1051 39.1214C90.365 39.0045 90.6469 38.9447 90.9318 38.946C91.1563 38.933 91.381 38.9682 91.5908 39.0492C91.8005 39.1303 91.9906 39.2553 92.148 39.4158Z" fill="#0149FF"/>
<path d="M94.6827 43.3767C94.4057 43.2735 94.1541 43.112 93.9448 42.9032C93.7355 42.6945 93.5734 42.4432 93.4695 42.1664C93.3526 41.8764 93.294 41.5662 93.297 41.2535C93.2922 40.8381 93.3946 40.4284 93.5944 40.0641C93.7864 39.7168 94.0731 39.4312 94.4211 39.2404C94.7986 39.0359 95.2229 38.9334 95.6522 38.943C96.0752 38.9378 96.4927 39.0401 96.8654 39.2404C97.2137 39.4276 97.5015 39.7103 97.695 40.0551C97.8921 40.4244 97.9952 40.8365 97.9952 41.255C97.9952 41.6735 97.8921 42.0856 97.695 42.4549C97.5011 42.7997 97.212 43.0815 96.8624 43.2667C96.4907 43.4666 96.0742 43.5689 95.6522 43.564C95.32 43.564 94.991 43.5004 94.6827 43.3767ZM96.568 42.2348C96.6936 42.1049 96.7917 41.9511 96.8566 41.7825C96.9214 41.614 96.9518 41.4341 96.9457 41.2535C96.9526 41.0721 96.9232 40.891 96.8594 40.721C96.7956 40.551 96.6986 40.3954 96.574 40.2633C96.4511 40.1401 96.3051 40.0424 96.1443 39.9757C95.9836 39.909 95.8113 39.8747 95.6373 39.8747C95.4633 39.8747 95.291 39.909 95.1302 39.9757C94.9695 40.0424 94.8235 40.1401 94.7006 40.2633C94.4577 40.5312 94.3287 40.8832 94.3408 41.2446C94.3298 41.6057 94.4624 41.9565 94.7095 42.22C94.8308 42.3434 94.9754 42.4415 95.1349 42.5084C95.2945 42.5753 95.4658 42.6098 95.6388 42.6098C95.8118 42.6098 95.9831 42.5753 96.1426 42.5084C96.3022 42.4415 96.4468 42.3434 96.568 42.22V42.2348Z" fill="#0149FF"/>
<path d="M98.8477 36.7422H99.8706V43.4805H98.8477V36.7422Z" fill="#0149FF"/>
<path d="M102.115 43.3765C101.837 43.2701 101.584 43.1071 101.372 42.8977C101.168 42.6872 101.009 42.4386 100.902 42.1662C100.774 41.8305 100.718 41.4717 100.738 41.1131C100.758 40.7545 100.854 40.4041 101.018 40.0847C101.21 39.7365 101.498 39.4506 101.847 39.261C102.225 39.0558 102.649 38.9533 103.079 38.9636C103.501 38.9587 103.917 39.0611 104.289 39.261C104.637 39.4482 104.925 39.7308 105.118 40.0757C105.315 40.445 105.419 40.8571 105.419 41.2756C105.419 41.6941 105.315 42.1062 105.118 42.4755C104.924 42.8203 104.635 43.1021 104.286 43.2873C103.915 43.4869 103.5 43.5892 103.079 43.5846C102.747 43.5769 102.42 43.5063 102.115 43.3765ZM104.003 42.2346C104.128 42.1045 104.226 41.9505 104.29 41.782C104.355 41.6134 104.384 41.4336 104.378 41.2533C104.385 41.0718 104.356 40.8908 104.292 40.7208C104.228 40.5508 104.131 40.3952 104.006 40.2631C103.883 40.1399 103.737 40.0422 103.577 39.9755C103.416 39.9088 103.244 39.8745 103.07 39.8745C102.896 39.8745 102.723 39.9088 102.563 39.9755C102.402 40.0422 102.256 40.1399 102.133 40.2631C101.89 40.531 101.761 40.883 101.773 41.2444C101.762 41.6055 101.895 41.9562 102.142 42.2197C102.263 42.3433 102.408 42.4414 102.568 42.5084C102.728 42.5753 102.899 42.6098 103.073 42.6098C103.246 42.6098 103.417 42.5753 103.577 42.5084C103.737 42.4414 103.882 42.3433 104.003 42.2197V42.2346Z" fill="#0149FF"/>
<path d="M110.482 39.0165V43.019C110.484 43.2757 110.46 43.5319 110.408 43.7833C110.359 44.0102 110.274 44.2279 110.158 44.4285C110.048 44.6206 109.901 44.7893 109.727 44.9251C109.532 45.0702 109.312 45.1781 109.078 45.2433C108.795 45.322 108.501 45.3601 108.207 45.3563C107.879 45.3563 107.553 45.3164 107.235 45.2374C106.938 45.1638 106.654 45.0476 106.39 44.8924L106.631 44.0003C106.874 44.1337 107.127 44.2461 107.389 44.3364C107.636 44.4119 107.893 44.448 108.151 44.4434C108.503 44.4701 108.853 44.3641 109.132 44.146C109.245 44.049 109.335 43.9279 109.396 43.7916C109.457 43.6553 109.486 43.5072 109.483 43.358V42.8852H109.465C109.29 43.0665 109.079 43.2087 108.845 43.3025C108.611 43.3963 108.361 43.4395 108.109 43.4294C107.721 43.4354 107.337 43.3434 106.994 43.1618C106.664 42.983 106.393 42.7137 106.212 42.3856C106.014 42.0313 105.911 41.6317 105.914 41.2259C105.908 40.8239 106.001 40.4265 106.185 40.0692C106.355 39.7326 106.618 39.4519 106.943 39.2603C107.275 39.0622 107.654 38.9593 108.041 38.963C108.297 38.9621 108.551 39.0085 108.79 39.0998C109.027 39.1897 109.243 39.3262 109.426 39.5012H109.444V39.0344L110.482 39.0165ZM109.153 42.0913C109.27 41.9667 109.362 41.82 109.422 41.6597C109.482 41.4994 109.51 41.3287 109.504 41.1575C109.505 40.9783 109.472 40.8005 109.405 40.6342C109.345 40.4842 109.255 40.3478 109.141 40.2327C109.026 40.1219 108.889 40.0358 108.739 39.98C108.581 39.9175 108.413 39.8862 108.243 39.8878C108.073 39.8809 107.904 39.9091 107.746 39.9705C107.588 40.0319 107.444 40.1252 107.324 40.2446C107.206 40.367 107.113 40.512 107.053 40.6709C106.992 40.8298 106.964 40.9994 106.97 41.1694C106.96 41.34 106.986 41.5109 107.046 41.6709C107.106 41.8309 107.199 41.9764 107.319 42.0981C107.439 42.2198 107.583 42.3149 107.742 42.3773C107.902 42.4396 108.072 42.4678 108.243 42.46C108.412 42.4668 108.581 42.4375 108.738 42.3739C108.894 42.3103 109.036 42.2139 109.153 42.0913Z" fill="#0149FF"/>
<path d="M111.59 38.1521C111.526 38.0897 111.475 38.0148 111.44 37.9319C111.406 37.8491 111.389 37.76 111.391 37.6704C111.389 37.5811 111.406 37.4925 111.44 37.4101C111.474 37.3277 111.525 37.2533 111.59 37.1916C111.705 37.0677 111.863 36.9909 112.031 36.9762C112.2 36.9615 112.368 37.0099 112.503 37.112C112.638 37.2142 112.731 37.3628 112.762 37.5291C112.794 37.6954 112.763 37.8676 112.675 38.0123C112.614 38.1151 112.527 38.2001 112.423 38.2591C112.32 38.3202 112.203 38.3521 112.084 38.3513C111.992 38.353 111.901 38.3362 111.817 38.3019C111.732 38.2677 111.655 38.2167 111.59 38.1521ZM111.563 39.0174H112.586V43.4779H111.566L111.563 39.0174Z" fill="#0149FF"/>
<path d="M117.761 41.604H114.507C114.561 41.8972 114.717 42.1619 114.947 42.3503C115.185 42.5344 115.48 42.63 115.78 42.6209C115.994 42.6273 116.207 42.583 116.401 42.4915C116.595 42.4001 116.764 42.264 116.895 42.0946L117.609 42.7072C117.4 42.9708 117.134 43.1825 116.83 43.3257C116.483 43.4816 116.106 43.5588 115.727 43.5517C115.32 43.5571 114.92 43.4599 114.561 43.2692C114.217 43.0828 113.933 42.8022 113.743 42.4604C113.54 42.0888 113.437 41.6705 113.446 41.2471C113.443 40.9282 113.499 40.6116 113.612 40.3134C113.713 40.0413 113.868 39.7925 114.067 39.5819C114.265 39.3816 114.5 39.2229 114.76 39.115C115.034 39.0037 115.327 38.9471 115.622 38.9485C116.024 38.9423 116.42 39.0451 116.767 39.2459C117.093 39.4338 117.357 39.7115 117.529 40.0458C117.708 40.4046 117.798 40.8015 117.79 41.2025C117.791 41.3369 117.781 41.4711 117.761 41.604ZM114.942 40.1171C114.73 40.2827 114.582 40.5174 114.525 40.7803H116.761C116.72 40.6117 116.65 40.4517 116.553 40.3075C116.456 40.1815 116.331 40.0798 116.187 40.0101C116.028 39.9317 115.851 39.8929 115.673 39.8971C115.412 39.8853 115.154 39.9618 114.942 40.1142V40.1171Z" fill="#0149FF"/>
<path d="M118.199 42.9005L118.717 42.1303C118.886 42.3023 119.088 42.4388 119.311 42.5318C119.537 42.6191 119.777 42.6615 120.019 42.6567C120.18 42.6658 120.341 42.6243 120.477 42.5377C120.529 42.5031 120.572 42.4557 120.601 42.4001C120.63 42.3444 120.645 42.2823 120.644 42.2195C120.641 42.162 120.622 42.1064 120.589 42.0594C120.556 42.0124 120.51 41.9761 120.456 41.9549C120.232 41.8443 119.999 41.7508 119.76 41.6754C119.626 41.6317 119.507 41.5871 119.404 41.5415C119.293 41.4946 119.186 41.441 119.082 41.381C118.981 41.3258 118.887 41.2578 118.803 41.1788C118.723 41.1027 118.652 41.0179 118.592 40.926C118.526 40.829 118.476 40.7214 118.446 40.6078C118.412 40.4789 118.394 40.3458 118.395 40.2123C118.395 40.0392 118.436 39.8685 118.513 39.7136C118.591 39.5588 118.703 39.4241 118.842 39.3202C119.164 39.0712 119.564 38.9438 119.972 38.9604C120.547 38.9563 121.106 39.1541 121.551 39.5195L121.036 40.3253C120.925 40.2187 120.8 40.1276 120.664 40.0547C120.545 39.9853 120.417 39.9313 120.284 39.8942C120.163 39.8625 120.039 39.8465 119.915 39.8466C119.797 39.8465 119.681 39.8806 119.582 39.9447C119.532 39.9754 119.491 40.0194 119.464 40.0719C119.437 40.1244 119.426 40.1833 119.43 40.2421C119.434 40.3188 119.467 40.3913 119.522 40.4443C119.592 40.5141 119.672 40.5723 119.76 40.6167C119.883 40.68 120.009 40.7366 120.138 40.7862C120.614 40.9736 120.908 41.0985 121.03 41.158C121.291 41.2728 121.502 41.4775 121.625 41.7348C121.743 42.0649 121.735 42.4268 121.604 42.7518C121.537 42.9142 121.435 43.0603 121.307 43.18C121.156 43.3157 120.977 43.4172 120.783 43.4774C120.544 43.5498 120.296 43.5849 120.046 43.5815C119.366 43.6009 118.704 43.357 118.199 42.9005Z" fill="#0149FF"/>
<path d="M124.707 36.9923H127.062C127.298 36.9903 127.533 37.0143 127.764 37.0637C127.961 37.1037 128.151 37.1718 128.329 37.2659C128.486 37.3529 128.631 37.4621 128.757 37.59C128.878 37.7139 128.979 37.8565 129.054 38.0123C129.131 38.1747 129.189 38.3453 129.227 38.5208C129.266 38.7115 129.285 38.9059 129.283 39.1006C129.287 39.3566 129.25 39.6115 129.173 39.8559C129.11 40.0731 129.004 40.2753 128.861 40.4506C128.723 40.6151 128.555 40.7531 128.368 40.858C128.165 40.972 127.946 41.0551 127.719 41.1048C127.461 41.1601 127.198 41.1871 126.934 41.1851H125.813V43.5046H124.707V36.9923ZM126.827 40.1771C127.181 40.2042 127.532 40.0982 127.812 39.8797C128.021 39.6643 128.138 39.3758 128.138 39.0753C128.138 38.7749 128.021 38.4863 127.812 38.271C127.554 38.0603 127.227 37.9542 126.896 37.9736H125.807V40.1681L126.827 40.1771Z" fill="#0149FF"/>
<path d="M134.164 39.0176L132.38 43.478H131.401L129.617 39.0176H130.711L131.877 42.1994H131.895L133.04 39.0176H134.164Z" fill="#0149FF"/>
<path d="M135.152 43.1769C134.91 42.8598 134.793 42.4654 134.822 42.0678V39.8881H134.277V39.0168H134.822V37.53L135.844 37.417V39.0138H137.159V39.8851H135.844V41.9667C135.83 42.1325 135.868 42.2986 135.952 42.4424C135.989 42.4913 136.039 42.53 136.095 42.5549C136.152 42.5798 136.214 42.5902 136.276 42.5852C136.508 42.5766 136.735 42.5112 136.936 42.3949L137.203 43.2869C137.049 43.3719 136.886 43.4378 136.716 43.4832C136.503 43.5334 136.286 43.5564 136.067 43.5516C135.897 43.5612 135.726 43.5326 135.567 43.4677C135.409 43.4029 135.267 43.3036 135.152 43.1769Z" fill="#0149FF"/>
<path d="M137.615 43.3522C137.55 43.2913 137.497 43.2172 137.462 43.1347C137.427 43.0522 137.409 42.9632 137.41 42.8735C137.41 42.7534 137.442 42.6354 137.502 42.5315C137.562 42.4266 137.65 42.3402 137.755 42.2817C137.863 42.2197 137.985 42.1879 138.109 42.1895C138.199 42.1891 138.288 42.2065 138.372 42.2407C138.455 42.2749 138.531 42.3252 138.595 42.3888C138.658 42.4523 138.709 42.5279 138.744 42.611C138.778 42.6942 138.796 42.7834 138.796 42.8735C138.797 42.9629 138.78 43.0516 138.745 43.134C138.71 43.2164 138.659 43.2907 138.594 43.3522C138.463 43.4803 138.287 43.552 138.105 43.552C137.922 43.552 137.746 43.4803 137.615 43.3522Z" fill="#0149FF"/>
<path d="M142.031 36.9922H143.134V42.4994H146.147V43.4926H142.031V36.9922Z" fill="#0149FF"/>
<path d="M147.249 43.1769C147.009 42.8594 146.892 42.465 146.922 42.0678V39.8881H146.375V39.0168H146.922V37.53L147.945 37.417V39.0138H149.259V39.8851H147.945V41.9667C147.932 42.1321 147.968 42.2977 148.049 42.4424C148.087 42.4909 148.137 42.5293 148.193 42.5542C148.25 42.579 148.312 42.5897 148.373 42.5852C148.606 42.5766 148.832 42.5112 149.033 42.3949L149.304 43.287C149.149 43.3714 148.984 43.4373 148.813 43.4832C148.602 43.5335 148.385 43.5564 148.168 43.5516C147.997 43.561 147.825 43.5323 147.667 43.4675C147.508 43.4027 147.365 43.3035 147.249 43.1769Z" fill="#0149FF"/>
<path d="M154.052 36.7422V43.4805H153.073V42.8857H153.055C152.885 43.1067 152.664 43.283 152.411 43.3995C152.158 43.5161 151.88 43.5694 151.601 43.5548C151.365 43.556 151.129 43.522 150.903 43.4537C150.689 43.3885 150.488 43.288 150.308 43.1563C150.13 43.0228 149.975 42.8623 149.847 42.6806C149.714 42.4871 149.613 42.2731 149.55 42.0472C149.479 41.7975 149.444 41.5393 149.445 41.28C149.442 40.962 149.499 40.6463 149.612 40.3492C149.712 40.0766 149.865 39.8262 150.061 39.6118C150.254 39.4083 150.487 39.2464 150.745 39.136C151.014 39.0187 151.305 38.9589 151.598 38.9605C151.863 38.9459 152.128 38.9918 152.373 39.0949C152.618 39.1979 152.836 39.3554 153.011 39.5553H153.032V36.7452L154.052 36.7422ZM152.693 42.2464C152.818 42.1184 152.916 41.9662 152.98 41.7989C153.045 41.6317 153.074 41.4531 153.067 41.274C153.079 40.9068 152.949 40.5491 152.705 40.2749C152.586 40.1453 152.441 40.0428 152.28 39.9745C152.118 39.9063 151.943 39.8738 151.768 39.8794C151.595 39.878 151.425 39.9114 151.265 39.9775C151.112 40.0407 150.972 40.1337 150.855 40.2511C150.733 40.3776 150.64 40.5287 150.581 40.6942C150.512 40.8795 150.478 41.0761 150.48 41.274C150.466 41.6317 150.594 41.9804 150.837 42.2434C150.956 42.3684 151.099 42.4667 151.259 42.5319C151.418 42.597 151.59 42.6274 151.762 42.6211C151.934 42.6256 152.106 42.5948 152.266 42.5303C152.426 42.4659 152.571 42.3692 152.693 42.2464Z" fill="#0149FF"/>
<path d="M154.819 43.3522C154.755 43.2907 154.703 43.2164 154.668 43.134C154.633 43.0516 154.616 42.9629 154.617 42.8735C154.616 42.7532 154.648 42.6349 154.709 42.5315C154.768 42.426 154.856 42.3394 154.962 42.2817C155.069 42.2198 155.19 42.1879 155.313 42.1895C155.495 42.1895 155.67 42.2614 155.799 42.3895C155.928 42.5176 156.001 42.6915 156.003 42.8735C156.004 42.9632 155.987 43.0522 155.951 43.1347C155.916 43.2172 155.864 43.2913 155.798 43.3522C155.735 43.4166 155.659 43.4675 155.576 43.5017C155.493 43.536 155.403 43.5529 155.313 43.5514C155.222 43.5533 155.131 43.5365 155.046 43.5023C154.961 43.4681 154.884 43.417 154.819 43.3522Z" fill="#0149FF"/>
<path d="M5.03705 4.99537C5.04549 5.32288 4.98318 5.64835 4.85437 5.94958C4.72557 6.25082 4.53329 6.52073 4.29067 6.74089C3.80843 7.19435 3.16835 7.44185 2.50649 7.43078C2.17643 7.43961 1.84802 7.38114 1.54128 7.25895C1.23455 7.13677 0.955894 6.95343 0.722304 6.72007C0.488656 6.49841 0.303534 6.23068 0.178645 5.93381C0.053756 5.63694 -0.00818478 5.3174 -0.00326427 4.99537C-0.0108989 4.6668 0.0496322 4.3402 0.174511 4.03619C0.299391 3.73218 0.48591 3.45735 0.722304 3.22903C0.956306 2.99624 1.23503 2.81325 1.54167 2.69111C1.84831 2.56896 2.17651 2.51018 2.50649 2.51832C3.17192 2.5093 3.81369 2.76495 4.29067 3.22903C4.53275 3.45405 4.72443 3.72779 4.85308 4.03224C4.98172 4.33669 5.04443 4.66494 5.03705 4.99537ZM4.44232 31.1842H0.609304V11.9388H4.42746L4.44232 31.1842Z" fill="#022069"/>
<path d="M23.5465 16.81C23.0847 16.1391 22.4552 15.6008 21.7206 15.2489C20.918 14.8319 20.0262 14.6156 19.1217 14.6185C18.2027 14.6009 17.292 14.7953 16.4603 15.1864C15.7063 15.5531 15.0362 16.0714 14.4917 16.7089C13.9415 17.3604 13.5216 18.1114 13.2547 18.9213C12.6838 20.6354 12.6838 22.4884 13.2547 24.2025C13.5216 25.0124 13.9415 25.7634 14.4917 26.4149C15.0407 27.0563 15.7185 27.575 16.4811 27.9374C17.3231 28.3136 18.2351 28.5081 19.1574 28.5081C20.0797 28.5081 20.9916 28.3136 21.8336 27.9374C22.5998 27.5813 23.2735 27.0531 23.8022 26.394L26.3595 28.7075C25.5289 29.6702 24.4867 30.4275 23.3145 30.9199C22.0034 31.4677 20.593 31.738 19.1722 31.7139C17.7649 31.7282 16.3672 31.4801 15.0508 30.9824C13.8353 30.5218 12.7235 29.8244 11.7798 28.9306C10.844 28.0291 10.105 26.9438 9.60902 25.7428C9.06478 24.4172 8.79567 22.9947 8.81803 21.5619C8.79341 20.145 9.04908 18.7373 9.57036 17.4196C10.0586 16.2137 10.7917 15.1222 11.7233 14.214C12.6601 13.3042 13.7733 12.5958 14.9943 12.1325C16.2951 11.6438 17.6757 11.4017 19.0652 11.4188C20.4524 11.4251 21.8251 11.7019 23.1064 12.2336C24.3621 12.7149 25.4638 13.5278 26.2941 14.5857L23.5465 16.81Z" fill="#022069"/>
<path d="M72.5378 11.9389C72.5913 12.4266 72.633 12.9737 72.6597 13.5833C72.6865 14.1929 72.6984 14.6984 72.6984 15.1058H72.8203C73.0749 14.576 73.4111 14.0893 73.8165 13.6636C74.4933 12.9505 75.3088 12.3834 76.213 11.9973C77.1171 11.6112 78.0907 11.4142 79.0739 11.4185C80.1767 11.3902 81.2723 11.6054 82.2824 12.0489C83.1402 12.4425 83.9021 13.0178 84.5156 13.7349C85.1229 14.4596 85.5716 15.3034 85.833 16.212C86.1244 17.2005 86.2687 18.2265 86.2612 19.257V31.1932H82.443V20.5059C82.4465 19.7577 82.3858 19.0106 82.2616 18.2727C82.1562 17.6142 81.9293 16.9809 81.5925 16.4053C81.2656 15.8633 80.8035 15.4155 80.2514 15.1058C79.5755 14.756 78.8203 14.5879 78.0599 14.6181C77.3494 14.6009 76.6446 14.7475 76 15.0466C75.3554 15.3457 74.7883 15.7892 74.3428 16.3428C73.3833 17.4946 72.9036 19.031 72.9036 20.952V31.1843H69.0854V16.0812C69.0854 15.5677 69.0715 14.9046 69.0438 14.0918C69.017 13.28 68.9784 12.5604 68.9219 11.9389H72.5378Z" fill="#022069"/>
<path d="M100.975 15.0643H96.5143V31.1844H92.6902V15.0643H88.875V11.939H92.6902V7.91868C92.6816 6.85763 92.8115 5.8 93.0767 4.77259C93.3114 3.85859 93.7416 3.00636 94.3376 2.27473C94.9423 1.55345 95.7069 0.983253 96.5708 0.609495C97.6191 0.181649 98.7457 -0.020977 99.8775 0.0147678C100.686 0.00478675 101.492 0.104825 102.274 0.312132L101.828 3.60097C101.531 3.52069 101.233 3.45229 100.936 3.39877C100.601 3.34222 100.262 3.31534 99.9221 3.31847C99.3103 3.28603 98.7006 3.41309 98.1528 3.6872C97.7205 3.93213 97.3628 4.28978 97.1179 4.72202C96.8645 5.18306 96.6991 5.68726 96.6303 6.20884C96.5484 6.78008 96.5076 7.35648 96.5083 7.93357V11.9539H100.969L100.975 15.0643ZM108.566 31.1844H104.751V0.487566H108.566V31.1844Z" fill="#022069"/>
<path d="M127.755 31.1848C127.701 30.6972 127.66 30.15 127.633 29.5404C127.606 28.9308 127.594 28.4253 127.594 28.0179H127.511C126.966 29.1122 126.112 30.0229 125.055 30.6377C123.905 31.3546 122.574 31.7281 121.219 31.7141C120.112 31.7449 119.012 31.5422 117.989 31.1194C117.122 30.7418 116.357 30.164 115.756 29.4334C115.164 28.6938 114.722 27.8451 114.457 26.9355C114.168 25.9466 114.024 24.9208 114.031 23.8905V11.9395H117.85V22.5762C117.847 23.3313 117.907 24.0853 118.031 24.8302C118.135 25.4958 118.361 26.1362 118.7 26.7184C119.027 27.2604 119.489 27.7082 120.041 28.0179C120.717 28.3677 121.472 28.5358 122.233 28.5056C122.947 28.5277 123.656 28.3834 124.305 28.084C124.954 27.7847 125.524 27.3385 125.971 26.7809C126.916 25.6311 127.389 24.0947 127.389 22.1717V11.9395H131.207V27.0426C131.207 27.557 131.207 28.232 131.249 29.0319C131.29 29.8318 131.314 30.5633 131.371 31.1848H127.755Z" fill="#022069"/>
<path d="M142.022 21.0745L134.998 11.9395H139.709L144.419 18.5558L149.177 11.9395H153.637L146.694 21.0328L154.449 31.1848H149.691L144.339 23.6734L138.9 31.1848H134.309L142.022 21.0745Z" fill="#022069"/>
</g>
<defs>
<clipPath id="clip0_128_820">
<rect width="156" height="45.3569" fill="white"/>
</clipPath>
</defs>
</svg>
