<svg width="40" height="40" viewBox="0 0 40 40" fill="none" xmlns="http://www.w3.org/2000/svg">
<rect width="40" height="40" rx="8" fill="#2C303D"/>
<path fill-rule="evenodd" clip-rule="evenodd" d="M16.5332 13.6C14.9113 13.6 13.6 14.9109 13.6 16.5236V23.9709C13.6 25.5837 14.9113 26.8946 16.5332 26.8946H23.9997C25.6217 26.8946 26.933 25.5837 26.933 23.9709V16.5236C26.933 14.9109 25.6217 13.6 23.9997 13.6H16.5332ZM12 16.5236C12 14.0234 14.0315 12 16.5332 12H23.9997C26.5014 12 28.533 14.0234 28.533 16.5236V23.9709C28.533 26.4712 26.5014 28.4946 23.9997 28.4946H16.5332C14.0315 28.4946 12 26.4712 12 23.9709V16.5236ZM20.6193 18.0592C20.1639 17.9918 19.6989 18.0694 19.2905 18.2808C18.8821 18.4922 18.5513 18.8264 18.3448 19.2356C18.1383 19.6448 18.0665 20.1083 18.1394 20.5603C18.2124 21.0123 18.4264 21.4302 18.7514 21.7545C19.0765 22.0787 19.4961 22.2927 19.9506 22.3656C20.4052 22.4386 20.8711 22.3667 21.2821 22.1604C21.6931 21.954 22.028 21.6239 22.2396 21.2173C22.4511 20.8106 22.5286 20.348 22.4613 19.8951C22.3926 19.4332 22.1768 19.0052 21.8452 18.6745C21.5136 18.3437 21.0839 18.1279 20.6193 18.0592ZM18.5551 16.8598C19.2618 16.494 20.0661 16.3599 20.8535 16.4764C21.6566 16.5952 22.4005 16.9685 22.9751 17.5416C23.5498 18.1148 23.9246 18.8574 24.0439 19.6599C24.1609 20.4466 24.0261 21.25 23.659 21.9557C23.2919 22.6613 22.7112 23.2332 22 23.5903C21.2888 23.9473 20.4829 24.0716 19.6971 23.9454C18.9112 23.8193 18.1848 23.4492 17.6215 22.8873C17.0582 22.3254 16.6865 21.6003 16.5599 20.8151C16.4332 20.0299 16.558 19.2249 16.9164 18.5148C17.2747 17.8046 17.8483 17.2256 18.5551 16.8598ZM24.3703 15.3516C23.9285 15.3516 23.5703 15.7097 23.5703 16.1516C23.5703 16.5934 23.9285 16.9516 24.3703 16.9516H24.3776C24.8194 16.9516 25.1776 16.5934 25.1776 16.1516C25.1776 15.7097 24.8194 15.3516 24.3776 15.3516H24.3703Z" fill="white"/>
</svg>
