<svg width="40" height="40" viewBox="0 0 40 40" fill="none" xmlns="http://www.w3.org/2000/svg">
<rect width="40" height="40" rx="8" fill="#2C303D"/>
<path fill-rule="evenodd" clip-rule="evenodd" d="M15 15.3411C15 14.6022 15.6037 14 16.3446 14C17.0883 14 17.6891 14.6022 17.6891 15.3411C17.6891 16.08 17.0883 16.6938 16.3446 16.6938C15.6037 16.6938 15 16.0829 15 15.3411ZM26.197 25.1724L26.1999 21.0764C26.1999 19.0721 25.7683 17.5273 23.4175 17.5273C22.2888 17.5273 21.5305 18.147 21.2213 18.7317H21.1892V17.7135H18.9609V25.1724H21.2796V21.4779C21.2796 20.5063 21.4634 19.5666 22.6708 19.5666C23.8608 19.5666 23.8783 20.675 23.8783 21.5419V25.1724H26.197ZM17.5052 17.7129H15.1836V25.1718H17.5052V17.7129Z" fill="white"/>
</svg>
