<svg width="120" height="121" viewBox="0 0 120 121" fill="none" xmlns="http://www.w3.org/2000/svg">
<g filter="url(#filter0_b_374_991)">
<circle cx="60" cy="60.3164" r="60" fill="url(#paint0_linear_374_991)" fill-opacity="0.32"/>
<circle cx="60" cy="60.3164" r="59.5" stroke="url(#paint1_linear_374_991)"/>
</g>
<path d="M79.0933 58.7468L50.6489 42.5469C50.0978 42.2337 49.4258 42.2409 48.8818 42.5613C48.3342 42.8853 48 43.4757 48 44.1165V76.5164C48 77.1572 48.3342 77.7476 48.8818 78.0716C49.1591 78.2336 49.4684 78.3164 49.7778 78.3164C50.0764 78.3164 50.3787 78.2408 50.6489 78.086L79.0933 61.886C79.6516 61.5656 80 60.968 80 60.3164C80 59.6648 79.6516 59.0672 79.0933 58.7468Z" fill="#2417C0"/>
<defs>
<filter id="filter0_b_374_991" x="-7" y="-6.68359" width="134" height="134" filterUnits="userSpaceOnUse" color-interpolation-filters="sRGB">
<feFlood flood-opacity="0" result="BackgroundImageFix"/>
<feGaussianBlur in="BackgroundImageFix" stdDeviation="3.5"/>
<feComposite in2="SourceAlpha" operator="in" result="effect1_backgroundBlur_374_991"/>
<feBlend mode="normal" in="SourceGraphic" in2="effect1_backgroundBlur_374_991" result="shape"/>
</filter>
<linearGradient id="paint0_linear_374_991" x1="60" y1="0.316406" x2="60" y2="120.316" gradientUnits="userSpaceOnUse">
<stop stop-color="white"/>
<stop offset="1" stop-color="white" stop-opacity="0"/>
</linearGradient>
<linearGradient id="paint1_linear_374_991" x1="60" y1="0.316406" x2="60" y2="120.316" gradientUnits="userSpaceOnUse">
<stop stop-color="#6B6B6B" stop-opacity="0.22"/>
<stop offset="1" stop-color="#2B2B2B" stop-opacity="0"/>
</linearGradient>
</defs>
</svg>
