<svg width="73" height="73" viewBox="0 0 73 73" fill="none" xmlns="http://www.w3.org/2000/svg">
<path d="M36.305 72.61C56.3557 72.61 72.61 56.3557 72.61 36.305C72.61 16.2543 56.3557 0 36.305 0C16.2543 0 0 16.2543 0 36.305C0 56.3557 16.2543 72.61 36.305 72.61Z" fill="#FFF2E1"/>
<path d="M55.1088 49.7262L42.9386 38.395C42.5209 38.0042 41.8049 38.0042 41.3876 38.395L41.0894 38.6742L39.9557 37.6135C43.4756 32.9806 42.879 26.6175 38.5834 22.5421C33.6915 17.9651 25.7568 17.9651 20.8644 22.5421C15.9721 27.1192 15.9725 34.5432 20.8644 39.1205C23.3106 41.4093 26.4724 42.5255 29.6942 42.5255C32.1998 42.5255 34.7652 41.8 36.9131 40.3486L38.0468 41.4093L37.8678 41.6886C37.4501 42.0794 37.4501 42.7493 37.8678 43.1397L49.9784 54.5264C50.0978 54.638 50.3362 54.8056 50.7539 54.8056C50.8732 54.8056 51.0522 54.8056 51.1716 54.7496C52.6034 54.4149 54.9302 52.1821 55.3479 50.8423C55.5265 50.2285 55.2879 49.8935 55.1088 49.7262ZM23.37 36.776C19.85 33.4825 19.85 28.1239 23.37 24.8307C26.8901 21.5374 32.6173 21.5372 36.1372 24.8307C39.657 28.1241 39.6572 33.4827 36.1372 36.776C34.4071 38.4506 32.0802 39.2319 29.7536 39.2319C27.4266 39.2321 25.1003 38.3946 23.37 36.776Z" fill="#FFA735"/>
</svg>
