<svg width="49" height="49" viewBox="0 0 49 49" fill="none" xmlns="http://www.w3.org/2000/svg">
<path d="M24.1274 2.00698C27.5901 2.00621 31.0045 2.81837 34.096 4.37807C37.1875 5.93778 39.8697 8.20147 41.9267 10.987C43.9836 13.7724 45.3579 17.0019 45.939 20.4155C46.52 23.8291 46.2915 27.3314 45.272 30.6405C46.1964 32.6881 46.4753 34.9687 46.0716 37.1788C45.6679 39.3888 44.6008 41.4235 43.0122 43.0121C41.4236 44.6007 39.3889 45.6678 37.1788 46.0715C34.9688 46.4752 32.6882 46.1963 30.6406 45.2719C26.796 46.4578 22.7008 46.5728 18.7958 45.6043C14.8908 44.6359 11.3238 42.6207 8.4789 39.7758C5.63398 36.9309 3.61884 33.3639 2.65039 29.4589C1.68195 25.5539 1.79687 21.4587 2.9828 17.6141C2.05761 15.5664 1.77807 13.2854 2.1814 11.0749C2.58474 8.86438 3.65181 6.82913 5.24056 5.24011C6.82932 3.65109 8.86438 2.58368 11.0748 2.17997C13.2853 1.77627 15.5663 2.05542 17.6142 2.98027C19.7244 2.3322 21.9199 2.00412 24.1274 2.00698V2.00698Z" stroke="#0070E1" stroke-width="4" stroke-linecap="round" stroke-linejoin="round"/>
<path d="M14.2969 30.2696C15.5258 35.1852 20.0924 36.4141 24.1281 36.4141C31.2681 36.4141 33.9594 33.4967 33.9594 30.2696C33.9594 26.5755 29.2232 24.125 24.1281 24.125C19.0331 24.125 14.2969 21.6746 14.2969 17.9805C14.2969 14.7534 16.9882 11.8359 24.1281 11.8359C28.1639 11.8359 32.7305 13.0648 33.9594 17.9805" stroke="#0070E1" stroke-width="4" stroke-linecap="round" stroke-linejoin="round"/>
</svg>
