<svg width="73" height="73" viewBox="0 0 73 73" fill="none" xmlns="http://www.w3.org/2000/svg">
<path d="M36.3047 72.6094C56.3552 72.6094 72.6094 56.3552 72.6094 36.3047C72.6094 16.2542 56.3552 0 36.3047 0C16.2542 0 0 16.2542 0 36.3047C0 56.3552 16.2542 72.6094 36.3047 72.6094Z" fill="#C8FBF1"/>
<mask id="mask0_374_839" style="mask-type:luminance" maskUnits="userSpaceOnUse" x="19" y="19" width="35" height="35">
<path d="M53.5033 19.1094H19.1094V53.5033H53.5033V19.1094Z" fill="white"/>
</mask>
<g mask="url(#mask0_374_839)">
<path d="M45.6832 53.4999C45.3535 53.4999 45.0287 53.4158 44.7373 53.2549L36.5477 48.7547C36.4727 48.7132 36.3892 48.6916 36.3043 48.6916C36.2195 48.6916 36.136 48.7132 36.0611 48.7547L27.8682 53.2549C27.5339 53.4383 27.1569 53.5205 26.7801 53.4918C26.4034 53.4632 26.0419 53.3248 25.7364 53.0927C25.4309 52.8605 25.1937 52.5435 25.0516 52.1778C24.9094 51.8121 24.868 51.412 24.932 51.0229L26.4954 41.492C26.5089 41.4049 26.5028 41.3156 26.477 41.2316C26.4512 41.1475 26.4069 41.0709 26.3475 41.0082L19.7213 34.2603C19.4507 33.9848 19.2591 33.6355 19.1685 33.2522C19.0778 32.8689 19.0918 32.4664 19.2084 32.0908C19.3252 31.7153 19.5399 31.3811 19.8287 31.1266C20.1176 30.8719 20.4688 30.7068 20.8427 30.6499L29.997 29.2586C30.0815 29.2468 30.1619 29.2134 30.2313 29.1612C30.3005 29.109 30.3565 29.0399 30.3941 28.9598L34.4887 20.2893C34.6559 19.9352 34.9146 19.6369 35.2356 19.4285C35.5564 19.2198 35.9267 19.1094 36.3047 19.1094C36.6826 19.1094 37.0531 19.2198 37.3742 19.4285C37.6952 19.6369 37.9539 19.9352 38.1211 20.2893L42.2155 28.9598C42.2533 29.0399 42.3089 29.109 42.3783 29.1612C42.4476 29.2134 42.5281 29.2468 42.6127 29.2586L51.769 30.6499C52.1429 30.7066 52.4941 30.8715 52.7832 31.126C53.0721 31.3806 53.2873 31.7146 53.4042 32.09C53.5211 32.4657 53.5353 32.8679 53.4449 33.2514C53.3547 33.6349 53.1638 33.9844 52.8935 34.2603L46.2671 41.0082C46.2059 41.0699 46.1603 41.1461 46.1337 41.2304C46.107 41.3147 46.1001 41.4043 46.114 41.492L47.6807 51.0229C47.73 51.3266 47.7153 51.6378 47.6379 51.9349C47.5605 52.2321 47.4223 52.5082 47.2328 52.744C47.0431 52.9796 46.8065 53.1693 46.5396 53.2998C46.2728 53.4303 45.9816 53.4987 45.687 53.4999H45.6832Z" fill="#37C99E"/>
</g>
</svg>
