<svg width="50" height="50" viewBox="0 0 50 50" fill="none" xmlns="http://www.w3.org/2000/svg">
<circle cx="25" cy="25" r="25" fill="#A5ACBD"/>
<path d="M38.8095 25.7163L38.666 22.6814L38.7685 19.4573C38.7704 19.427 38.7704 19.3966 38.7685 19.3662C38.7741 19.3057 38.7741 19.2448 38.7685 19.1842C38.7173 18.5825 38.1648 18.3649 37.9757 18.2967L37.7251 18.2057L26.792 14.0885C26.6634 14.0421 26.2712 13.901 25.8752 14.1158C23.5461 15.3656 21.148 16.5845 18.8272 17.7623C16.4543 18.9675 14.0003 20.2137 11.6143 21.4945C10.8242 21.8941 9.99133 22.8671 10.0034 24.4128C9.97082 25.073 10.1707 25.7242 10.5699 26.2579C10.4127 26.6547 10.3245 27.0743 10.309 27.4995C10.2773 28.1196 10.4518 28.733 10.8065 29.2481C10.6212 29.702 10.5282 30.1868 10.5326 30.6754C10.4972 31.5038 10.8121 32.303 11.3804 32.8301C11.4975 32.9363 11.6386 33.0139 11.7922 33.0567C11.8789 33.0867 12.0047 33.1304 12.1649 33.1841C12.4817 33.2906 12.9326 33.4408 13.4748 33.6202C14.536 33.9715 15.9903 34.4485 17.4558 34.9282C21.9716 36.4056 23.0942 36.756 23.4054 36.8443C23.5955 36.9465 23.8089 37.0001 24.0259 37C24.2314 37.0003 24.4338 36.9516 24.6156 36.858L24.6277 36.8516L38.6353 29.3228C38.7523 29.2597 38.8486 29.1655 38.9129 29.0511C38.9772 28.9367 39.0069 28.8068 38.9986 28.6765L38.8095 25.7163ZM12.0792 28.5927C12.0715 28.5865 12.0634 28.5807 12.055 28.5754C11.8108 28.2893 11.6893 27.9221 11.7158 27.5505C11.7158 27.5359 11.7158 27.5223 11.7158 27.5077C11.7171 27.3948 11.7315 27.2824 11.7587 27.1727C13.7413 27.7808 15.7509 28.407 17.6952 29.0142L18.2542 29.189C19.0052 29.4229 19.7598 29.6578 20.5051 29.8871L20.67 29.9381L20.8853 30.0055H20.8964C21.0828 30.0619 21.2616 30.122 21.4554 30.1875C21.68 30.2622 21.9129 30.3386 22.1477 30.4087C22.2408 30.437 22.3405 30.4652 22.4449 30.4934C22.3685 30.6467 22.3062 30.8063 22.2585 30.9704C22.2529 30.9904 22.2464 31.0086 22.2408 31.0286C22.1586 31.3249 22.129 31.6328 22.1532 31.9389L22.0871 31.917C21.9008 31.8552 21.7079 31.7914 21.5132 31.735L21.2831 31.6631L21.1247 31.6139C20.3794 31.3864 19.6406 31.1588 18.8999 30.9239C16.8772 30.2858 12.8338 28.8758 12.0792 28.5927ZM37.3813 25.3485L23.7101 32.3431C23.6518 32.2335 23.6098 32.1164 23.5852 31.9953C23.5512 31.7981 23.5585 31.5962 23.6066 31.4018C23.6113 31.38 23.6188 31.36 23.6243 31.3399C23.6764 31.1743 23.7614 31.0203 23.8746 30.8868C23.9879 30.7534 24.127 30.6432 24.284 30.5626L31.9823 26.5674C33.7524 25.6717 35.5431 24.755 37.3086 23.8156L37.3813 25.3485ZM30.7553 24.0478C32.9149 22.9554 35.1397 21.8276 37.3198 20.6679L37.2685 22.2645L23.5479 29.3219C23.4866 29.2073 23.4424 29.0846 23.4166 28.9578C23.3834 28.7589 23.391 28.5556 23.4389 28.3597C23.4445 28.3379 23.452 28.3169 23.4576 28.296C23.5109 28.1274 23.5978 27.9708 23.7133 27.835C23.8287 27.6993 23.9704 27.5871 24.1302 27.505L30.0929 24.39L30.7553 24.0478ZM11.413 24.4237C11.4056 23.8402 11.6245 23.0437 12.2665 22.7233L12.2851 22.7133C14.6599 21.4389 17.1092 20.1919 19.4775 18.9894C21.7489 17.8315 24.0958 16.6391 26.3877 15.412L36.7841 19.3262L29.4295 23.1703C27.4814 24.157 25.4858 25.1729 23.5368 26.2097C22.8455 26.5155 22.3144 27.1509 22.0946 27.9273C22.088 27.9465 22.0824 27.9656 22.0769 27.9856C21.9931 28.2875 21.9635 28.6013 21.9893 28.9132L21.911 28.8868C21.7247 28.824 21.5272 28.7593 21.3297 28.6992C21.2533 28.6738 21.1759 28.6501 21.0977 28.6264L20.9393 28.5745C20.194 28.3442 19.4375 28.1112 18.6884 27.8773L18.1294 27.7025C16.1478 27.0835 14.0981 26.4445 12.0838 25.8273L12.0065 25.8019C11.9665 25.7216 11.9112 25.6496 11.8435 25.5898C11.5519 25.3331 11.3916 24.9116 11.414 24.4619C11.413 24.4474 11.413 24.4337 11.413 24.4237ZM12.5413 32.08C12.5506 32.1 12.559 32.1209 12.5664 32.1419C12.559 32.1164 12.5543 32.0955 12.5413 32.0754V32.08ZM12.2888 31.7696C12.0381 31.4781 11.9135 31.1026 11.9413 30.7228C11.9413 30.7082 11.9413 30.6946 11.9413 30.6809C11.9386 30.4661 11.9646 30.2519 12.0186 30.0437L12.2199 30.1156C12.7341 30.2977 13.4124 30.5362 14.1298 30.7838C14.9888 31.0805 17.1335 31.816 18.476 32.2347C19.2213 32.4669 19.9666 32.699 20.7017 32.9247C20.7567 32.9429 20.8117 32.9593 20.8657 32.9757C20.9365 32.9975 21.0073 33.0194 21.0781 33.0431H21.0893C21.2756 33.0986 21.4508 33.1577 21.6399 33.2206C21.8626 33.2943 22.0927 33.3708 22.3247 33.4399C22.4477 33.4763 22.5827 33.5155 22.7281 33.5519C22.6767 33.6728 22.6335 33.7969 22.5986 33.9233C22.4928 34.3087 22.4584 34.7094 22.497 35.1066C19.6853 34.2073 13.2903 32.1146 12.2888 31.765V31.7696ZM24.0725 35.58C23.8762 35.1769 23.8362 34.718 23.9597 34.2883C24.066 33.906 24.2793 33.6156 24.556 33.4691L32.1956 29.5549L37.4679 26.8569L37.5611 28.3233L24.0725 35.58Z" fill="white"/>
</svg>
