<svg width="40" height="40" viewBox="0 0 40 40" fill="none" xmlns="http://www.w3.org/2000/svg">
<rect width="40" height="40" rx="8" fill="#2C303D"/>
<path d="M27.6637 15.3212C27.1442 15.5467 26.5891 15.6944 26.0095 15.7669C26.6055 15.4178 27.0594 14.87 27.2727 14.2095C26.7177 14.5344 26.1052 14.7626 25.4517 14.8915C24.9267 14.341 24.1747 14 23.3572 14C21.7686 14 20.4889 15.2675 20.4889 16.8196C20.4889 17.0425 20.508 17.2573 20.5545 17.4614C18.1675 17.3486 16.0566 16.2234 14.6375 14.5129C14.3887 14.9345 14.2437 15.4178 14.2437 15.9388C14.2437 16.9162 14.7551 17.7809 15.5179 18.2804C15.0558 18.2723 14.6047 18.1407 14.2219 17.934C14.2219 17.942 14.2219 17.9528 14.2219 17.9662C14.2219 19.3357 15.2171 20.4743 16.5214 20.7348C16.289 20.7965 16.032 20.8287 15.7695 20.8287C15.5863 20.8287 15.4003 20.818 15.2254 20.7804C15.5972 21.8975 16.6527 22.7165 17.9077 22.7434C16.9316 23.4926 15.6902 23.9464 14.3504 23.9464C14.1152 23.9464 13.8883 23.9357 13.6641 23.9088C14.9355 24.7144 16.4421 25.1736 18.0663 25.1736C23.349 25.1736 26.2364 20.8771 26.2364 17.1526C26.2364 17.029 26.2309 16.9082 26.2255 16.7874C26.7942 16.3899 27.2727 15.8931 27.6637 15.3212Z" fill="white"/>
</svg>
