<svg width="537" height="117" viewBox="0 0 537 117" fill="none" xmlns="http://www.w3.org/2000/svg">
<rect width="537" height="117" fill="#1C56E1"/>
<path d="M141.327 69.3125L137.144 70.8838L136.922 83.6762L151.399 78.2381C146.429 76.5268 142.805 73.5106 141.327 69.3125Z" fill="#FDBD39"/>
<path d="M143.514 55.7812L129 61.233L137.142 70.8862L141.324 69.3149C139.849 65.1305 140.76 60.4063 143.514 55.7812Z" fill="#F69833"/>
<path d="M167.936 37.3192C149.456 44.2603 137.54 58.5864 141.327 69.3122L208.247 44.1749C204.46 33.4491 186.416 30.3782 167.936 37.3192Z" fill="#FECF33"/>
<path d="M181.632 76.1726C200.112 69.2316 212.048 54.9704 208.241 44.1797L141.32 69.3136C145.127 80.1077 163.152 83.1136 181.632 76.1726Z" fill="#EE6723"/>
<path d="M208.241 44.1719L141.324 69.3092C142.633 73.0256 147.633 74.8565 154.642 74.8565C161.478 74.8565 170.228 73.1179 179.35 69.6918C197.83 62.7507 210.829 51.5091 208.241 44.1719Z" fill="#F69833"/>
<path d="M194.924 38.6328C188.091 38.6328 179.337 40.3715 170.215 43.7976C151.735 50.7386 138.737 61.9768 141.324 69.3141L208.245 44.1768C206.933 40.4603 201.936 38.6328 194.924 38.6328Z" fill="#FDBD39"/>
<path d="M191.226 84.3566C189.256 84.3566 186.353 82.5291 182.593 78.9219C178.145 74.6555 173.052 68.4045 168.245 61.3234C163.442 54.2424 159.495 47.1647 157.13 41.3885C154.555 35.0965 154.187 31.2297 156.037 29.8907C156.466 29.5901 156.974 29.4364 157.492 29.4501C158.997 29.4501 161.933 30.6012 167.358 36.0939L167.478 36.2135L167.461 36.3842C167.425 36.7805 167.391 37.1767 167.361 37.5696L167.302 38.345L166.77 37.795C160.924 31.7387 158.352 31.0863 157.515 31.0863C157.276 31.0863 157.087 31.1341 156.951 31.2331C156.147 31.8138 156.093 34.6558 158.592 40.7531C160.914 46.4235 164.804 53.3952 169.544 60.3841C174.288 67.3763 179.304 73.5317 183.676 77.723C188.386 82.2421 190.509 82.7306 191.203 82.7306C191.442 82.7306 191.635 82.6794 191.781 82.5735C192.628 81.962 192.628 78.9185 189.844 72.3532L189.715 72.0526L189.994 71.8955C190.273 71.7384 190.545 71.5847 190.798 71.4344L191.133 71.2397L191.289 71.6017C193.263 76.2541 195.11 82.167 192.688 83.9159C192.259 84.2165 191.748 84.3702 191.226 84.3566Z" fill="#EE6723"/>
<path d="M182.078 75.9723L182.052 76.3275C181.583 82.2711 180.354 89.4171 177.145 89.7075C177.079 89.7143 177.012 89.7143 176.949 89.7143C174.77 89.7143 172.707 86.5034 170.824 80.1738C169.036 74.1824 167.651 66.1414 166.924 57.5301C166.193 48.9187 166.203 40.7514 166.953 34.5311C167.771 27.754 169.325 24.2152 171.578 24.0102C171.644 24.0034 171.714 24 171.78 24C173.361 24 175.743 25.8411 178.182 34.415L176.59 34.7292C175.777 31.8667 174.89 29.5371 174.009 27.9317C173.195 26.4526 172.401 25.6362 171.78 25.6362C171.76 25.6362 171.74 25.6362 171.717 25.6396C170.74 25.7284 169.319 28.1605 168.528 34.7326C167.791 40.8402 167.781 48.8879 168.501 57.3866C169.222 65.8887 170.584 73.81 172.338 79.6922C173.122 82.3258 173.983 84.4983 174.83 85.9705C175.607 87.33 176.361 88.0781 176.949 88.0781C176.969 88.0781 176.989 88.0781 177.009 88.0747C177.942 87.9927 179.703 85.4581 180.444 76.5461L182.078 75.9723Z" fill="#EE6723"/>
<g clip-path="url(#clip0_374_676)">
<path d="M347.516 25H389.514C395.882 25 401.03 30.1482 401.03 36.5157V76.8883C401.03 83.2558 395.882 88.404 389.514 88.404H347.516C341.148 88.404 336 83.2558 336 76.8883V36.5157C336 30.1482 341.148 25 347.516 25Z" fill="#470137"/>
<path d="M370.195 41.6682L362.066 55.0805L370.737 69.3058C370.791 69.4142 370.818 69.5226 370.791 69.6309C370.764 69.7393 370.655 69.658 370.493 69.6851H364.288C363.854 69.6851 363.556 69.658 363.366 69.3871C362.797 68.2491 362.201 67.1381 361.632 66.0001C361.063 64.8892 360.44 63.7512 359.79 62.5861C359.14 61.4209 358.489 60.2558 357.839 59.0636H357.785C357.216 60.2287 356.593 61.3938 355.969 62.559C355.346 63.7241 354.723 64.8892 354.127 66.0272C353.504 67.1652 352.88 68.3303 352.257 69.4413C352.149 69.7122 351.932 69.7393 351.634 69.7393H345.673C345.565 69.7393 345.483 69.7935 345.483 69.658C345.456 69.5497 345.483 69.4413 345.537 69.36L353.964 55.5412L345.754 41.6411C345.673 41.5327 345.646 41.4243 345.7 41.3701C345.754 41.2888 345.863 41.2617 345.971 41.2617H352.122C352.257 41.2617 352.393 41.2888 352.501 41.3159C352.609 41.3701 352.691 41.4514 352.772 41.5598C353.287 42.7249 353.883 43.89 354.506 45.0551C355.156 46.2202 355.78 47.3583 356.457 48.4963C357.107 49.6343 357.703 50.7723 358.272 51.9374H358.327C358.896 50.7452 359.492 49.5801 360.088 48.4421C360.684 47.3041 361.307 46.166 361.93 45.028C362.554 43.89 363.15 42.7249 363.746 41.614C363.773 41.5056 363.827 41.3972 363.908 41.343C364.017 41.2888 364.125 41.2617 364.261 41.2888H369.978C370.113 41.2617 370.249 41.343 370.276 41.4785C370.303 41.5056 370.249 41.614 370.195 41.6682Z" fill="#FF61F6"/>
<path d="M382.713 70.2524C380.708 70.2795 378.703 69.8731 376.887 69.0331C375.18 68.2473 373.771 66.9467 372.796 65.3481C371.793 63.6952 371.306 61.636 371.306 59.1703C371.279 57.1652 371.793 55.1872 372.796 53.4531C373.826 51.6918 375.316 50.2287 377.104 49.2532C379.001 48.1965 381.277 47.6817 383.959 47.6817C384.095 47.6817 384.285 47.6817 384.528 47.7088C384.772 47.7359 385.043 47.7359 385.368 47.763V39.2007C385.368 39.011 385.45 38.9026 385.639 38.9026H391.14C391.275 38.8756 391.384 38.9839 391.411 39.0923C391.411 39.1194 391.411 39.1465 391.411 39.1465V64.9416C391.411 65.4294 391.438 65.9713 391.465 66.5674C391.519 67.1364 391.546 67.6783 391.573 68.1389C391.573 68.3286 391.492 68.4912 391.302 68.5725C389.893 69.1686 388.403 69.6021 386.886 69.8731C385.504 70.1169 384.122 70.2524 382.713 70.2524ZM385.368 64.8333V52.9111C385.125 52.8569 384.881 52.8028 384.637 52.7757C384.339 52.7486 384.041 52.7215 383.743 52.7215C382.686 52.7215 381.629 52.9382 380.681 53.426C379.76 53.8866 378.974 54.564 378.378 55.431C377.782 56.2981 377.484 57.4632 377.484 58.8722C377.456 59.8206 377.619 60.7689 377.944 61.6631C378.215 62.3946 378.622 63.0449 379.163 63.5869C379.678 64.0746 380.301 64.4539 381.006 64.6707C381.738 64.9145 382.496 65.0229 383.255 65.0229C383.661 65.0229 384.041 64.9958 384.393 64.9687C384.745 64.9958 385.043 64.9416 385.368 64.8333Z" fill="#FF61F6"/>
</g>
<g clip-path="url(#clip1_374_676)">
<path d="M489.689 25H437.751C434.575 25 432 27.5748 432 30.751V82.689C432 85.8652 434.575 88.44 437.751 88.44H489.689C492.865 88.44 495.44 85.8652 495.44 82.689V30.751C495.44 27.5748 492.865 25 489.689 25Z" fill="#DC395F"/>
<path d="M453.202 44.9571C455.31 44.9571 457.077 43.3042 457.077 41.1379C457.077 38.973 455.31 37.3203 453.202 37.3203C451.093 37.3203 449.327 38.973 449.327 41.1379C449.327 43.304 451.093 44.9571 453.202 44.9571ZM445.166 65.4066C444.938 66.3756 444.824 67.4219 444.824 68.2753C444.824 71.6384 446.648 73.8709 450.523 73.8709C453.737 73.8709 456.343 71.9623 458.219 68.8802L457.074 73.4779H463.456L467.104 58.8473C468.016 55.143 469.782 53.2202 472.461 53.2202C474.57 53.2202 475.881 54.5316 475.881 56.6965C475.881 57.3237 475.824 58.007 475.596 58.7482L473.715 65.4731C473.43 66.442 473.316 67.4114 473.316 68.3226C473.316 71.5152 475.196 73.8504 479.129 73.8504C482.491 73.8504 485.17 71.6857 486.652 66.4992L484.144 65.5313C482.89 69.0059 481.808 69.6341 480.953 69.6341C480.098 69.6341 479.642 69.0646 479.642 67.9254C479.642 67.4124 479.756 66.8432 479.927 66.1578L481.751 59.6061C482.207 58.0677 482.378 56.7035 482.378 55.45C482.378 50.5488 479.414 47.9909 475.824 47.9909C472.461 47.9909 469.041 51.0238 467.332 54.2159L468.585 48.4865H458.841L457.473 53.533H462.032L459.224 64.7737C457.02 69.675 452.97 69.7545 452.461 69.6408C451.627 69.4524 451.093 69.1355 451.093 68.051C451.093 67.4253 451.207 66.5265 451.492 65.4428L455.767 48.4865H444.938L443.57 53.533H448.072L445.166 65.4066Z" fill="white"/>
</g>
<g clip-path="url(#clip2_374_676)">
<path d="M251.516 25H293.515C299.882 25 305.031 30.1482 305.031 36.5158V76.8889C305.031 83.2565 299.882 88.4048 293.515 88.4048H251.516C245.148 88.4048 240 83.2565 240 76.8889V36.5158C240 30.1482 245.148 25 251.516 25Z" fill="#001E36"/>
<path d="M254.633 69.4636V41.5817C254.633 41.3921 254.714 41.2837 254.904 41.2837C255.364 41.2837 255.798 41.2837 256.421 41.2566C257.071 41.2295 257.749 41.2295 258.48 41.2024C259.212 41.1753 259.998 41.1753 260.838 41.1482C261.678 41.1211 262.491 41.1211 263.304 41.1211C265.525 41.1211 267.368 41.3921 268.885 41.9611C270.24 42.4217 271.487 43.1804 272.516 44.1829C273.383 45.05 274.061 46.1068 274.494 47.2719C274.901 48.4099 275.117 49.5751 275.117 50.7944C275.117 53.1246 274.576 55.0485 273.492 56.5658C272.408 58.0832 270.89 59.2213 269.129 59.8716C267.287 60.549 265.254 60.7928 263.033 60.7928C262.382 60.7928 261.949 60.7928 261.678 60.7657C261.407 60.7386 261.027 60.7386 260.513 60.7386V69.4365C260.54 69.6261 260.404 69.7887 260.215 69.8158C260.188 69.8158 260.16 69.8158 260.106 69.8158H254.958C254.741 69.8158 254.633 69.7074 254.633 69.4636ZM260.54 46.5132V55.6175C260.919 55.6446 261.271 55.6717 261.596 55.6717H263.033C264.089 55.6717 265.146 55.5091 266.149 55.1839C267.016 54.9401 267.774 54.4253 268.371 53.7479C268.94 53.0705 269.21 52.1492 269.21 50.957C269.238 50.117 269.021 49.277 268.587 48.5454C268.127 47.8409 267.476 47.299 266.691 47.0009C265.688 46.5945 264.604 46.4319 263.493 46.459C262.789 46.459 262.166 46.459 261.651 46.4861C261.109 46.459 260.729 46.4861 260.54 46.5132Z" fill="#31A8FF"/>
<path d="M292.028 53.9636C291.215 53.53 290.348 53.232 289.427 53.0423C288.424 52.8255 287.421 52.69 286.392 52.69C285.85 52.6629 285.281 52.7442 284.766 52.8797C284.414 52.961 284.116 53.1507 283.926 53.4216C283.791 53.6384 283.709 53.9094 283.709 54.1532C283.709 54.3971 283.818 54.641 283.98 54.8577C284.224 55.1558 284.549 55.3996 284.901 55.5893C285.525 55.9145 286.175 56.2125 286.825 56.4835C288.288 56.9712 289.697 57.6486 290.998 58.4615C291.892 59.0305 292.624 59.7892 293.139 60.7105C293.572 61.5775 293.789 62.5259 293.762 63.5014C293.789 64.7749 293.41 66.0484 292.705 67.1051C291.946 68.189 290.89 69.029 289.67 69.5167C288.343 70.0857 286.717 70.3838 284.766 70.3838C283.52 70.3838 282.3 70.2754 281.081 70.0315C280.133 69.8689 279.184 69.5709 278.317 69.1644C278.127 69.0561 277.992 68.8664 278.019 68.6496V63.9349C278.019 63.8536 278.046 63.7452 278.127 63.691C278.209 63.6368 278.29 63.6639 278.371 63.7181C279.428 64.3413 280.539 64.7749 281.731 65.0458C282.761 65.3168 283.845 65.4523 284.929 65.4523C285.958 65.4523 286.69 65.3168 287.178 65.0729C287.611 64.8833 287.909 64.4226 287.909 63.9349C287.909 63.5556 287.692 63.2033 287.259 62.8511C286.825 62.4988 285.931 62.0924 284.603 61.5775C283.222 61.0898 281.948 60.4395 280.756 59.6266C279.916 59.0305 279.211 58.2447 278.696 57.3235C278.263 56.4564 278.046 55.508 278.073 54.5597C278.073 53.3945 278.398 52.2836 278.995 51.281C279.672 50.1972 280.674 49.3301 281.84 48.7882C283.113 48.1379 284.712 47.8398 286.636 47.8398C287.747 47.8398 288.885 47.9211 289.996 48.0837C290.808 48.1921 291.594 48.4089 292.326 48.7069C292.434 48.734 292.543 48.8424 292.597 48.9508C292.624 49.0592 292.651 49.1675 292.651 49.2759V53.6926C292.651 53.801 292.597 53.9094 292.515 53.9636C292.272 54.0177 292.136 54.0177 292.028 53.9636Z" fill="#31A8FF"/>
</g>
<g clip-path="url(#clip3_374_676)">
<path d="M62.6732 93.0026C68.9292 93.0026 74.0065 87.9253 74.0065 81.6693V70.3359H62.6732C56.4172 70.3359 51.3398 75.4133 51.3398 81.6693C51.3398 87.9253 56.4172 93.0026 62.6732 93.0026Z" fill="#0ACF83"/>
<path d="M51.3398 58.9974C51.3398 52.7414 56.4172 47.6641 62.6732 47.6641H74.0065V70.3307H62.6732C56.4172 70.3307 51.3398 65.2534 51.3398 58.9974Z" fill="#A259FF"/>
<path d="M51.3398 36.3333C51.3398 30.0773 56.4172 25 62.6732 25H74.0065V47.6667H62.6732C56.4172 47.6667 51.3398 42.5893 51.3398 36.3333Z" fill="#F24E1E"/>
<path d="M74.0078 25H85.3411C91.5971 25 96.6745 30.0773 96.6745 36.3333C96.6745 42.5893 91.5971 47.6667 85.3411 47.6667H74.0078V25Z" fill="#FF7262"/>
<path d="M96.6745 58.9974C96.6745 65.2534 91.5971 70.3307 85.3411 70.3307C79.0851 70.3307 74.0078 65.2534 74.0078 58.9974C74.0078 52.7414 79.0851 47.6641 85.3411 47.6641C91.5971 47.6641 96.6745 52.7414 96.6745 58.9974Z" fill="#1ABCFE"/>
</g>
<defs>
<clipPath id="clip0_374_676">
<rect width="65.0297" height="63.404" fill="white" transform="translate(336 25)"/>
</clipPath>
<clipPath id="clip1_374_676">
<rect width="63.44" height="63.44" fill="white" transform="translate(432 25)"/>
</clipPath>
<clipPath id="clip2_374_676">
<rect width="65.0305" height="63.4048" fill="white" transform="translate(240 25)"/>
</clipPath>
<clipPath id="clip3_374_676">
<rect width="45.3424" height="68" fill="white" transform="translate(51.3359 25)"/>
</clipPath>
</defs>
</svg>
