<svg width="40" height="40" viewBox="0 0 40 40" fill="none" xmlns="http://www.w3.org/2000/svg">
<rect width="40" height="40" rx="8" fill="#2C303D"/>
<path fill-rule="evenodd" clip-rule="evenodd" d="M28.3098 14.883C28.5699 15.1504 28.7546 15.4816 28.8453 15.843C29.0875 17.1824 29.2051 18.5412 29.1965 19.9021C29.2014 21.2427 29.0838 22.581 28.8453 23.9003C28.7546 24.2618 28.5699 24.5929 28.3098 24.8604C28.0497 25.1278 27.7235 25.3221 27.3641 25.4235C26.0508 25.7738 20.7977 25.7738 20.7977 25.7738C20.7977 25.7738 15.5446 25.7738 14.2313 25.4235C13.8792 25.3274 13.5579 25.1423 13.2984 24.8862C13.0389 24.63 12.8501 24.3115 12.7501 23.9613C12.5079 22.6219 12.3903 21.2631 12.3989 19.9021C12.3922 18.5514 12.5097 17.2028 12.7501 15.8735C12.8408 15.512 13.0255 15.1809 13.2856 14.9134C13.5457 14.646 13.8719 14.4517 14.2313 14.3503C15.5446 14 20.7977 14 20.7977 14C20.7977 14 26.0508 14 27.3641 14.3199C27.7235 14.4213 28.0497 14.6155 28.3098 14.883ZM23.4684 19.9024L19.0781 22.3927V17.4121L23.4684 19.9024Z" fill="white"/>
</svg>
