<svg width="170" height="132" viewBox="0 0 170 132" fill="none" xmlns="http://www.w3.org/2000/svg">
<path d="M56.7797 112.315C50.3596 105.943 45.3336 98.3231 42.016 89.9337C38.6984 81.5443 37.1606 72.5656 37.499 63.5592C37.8373 54.5528 40.0444 45.7127 43.9823 37.5919C47.9201 29.471 53.5039 22.2443 60.3843 16.3637C67.2647 10.4832 75.2936 6.07537 83.9688 3.41612C92.6439 0.756868 101.779 -0.096619 110.801 0.909058C119.824 1.91473 128.54 4.75793 136.405 9.26077C144.27 13.7636 151.115 19.8292 156.51 27.078L103.438 66L56.7797 112.315Z" fill="#FFDA54"/>
<ellipse cx="66.5633" cy="66" rx="65.9852" ry="65.5" fill="#FF8E06"/>
</svg>
