<svg width="189" height="189" viewBox="0 0 189 189" fill="none" xmlns="http://www.w3.org/2000/svg">
<path d="M147.924 44.4488L99.6893 83.0004L160.055 69.5414C159.445 67.271 158.714 65.0361 157.865 62.8464C157.072 60.6542 156.162 58.5068 155.139 56.4132C154 54.3493 153.027 52.2631 151.765 50.3019C150.606 48.2745 149.323 46.3201 147.924 44.4488Z" fill="#2417C0"/>
<path d="M34.5905 59.9106C28.9981 69.5968 25.8377 80.4946 25.3802 91.6699C24.9226 102.845 27.1815 113.965 31.9633 124.076C36.7451 134.187 43.9071 142.988 52.8356 149.724C61.7642 156.46 72.1929 160.932 83.2281 162.754C94.2633 164.577 105.576 163.696 116.196 160.189C126.817 156.681 136.428 150.651 144.207 142.614C151.986 134.578 157.701 124.775 160.861 114.046C164.021 103.317 164.533 91.982 162.352 81.012L94.5011 94.5L34.5905 59.9106Z" fill="#0099FF"/>
</svg>
