<svg width="88" height="87" viewBox="0 0 88 87" fill="none" xmlns="http://www.w3.org/2000/svg">
<rect x="0.980469" width="86.8642" height="86.8642" fill="white"/>
<path d="M37.8199 56.7973C37.8199 56.7973 35.9514 57.9341 39.1206 58.2598C42.9276 58.7463 44.9685 58.6659 49.1921 57.8538C49.1921 57.8538 50.3289 58.5834 51.8728 59.1545C42.3692 63.2152 30.3488 58.9113 37.821 56.7995L37.8199 56.7973ZM36.6017 51.5184C36.6017 51.5184 34.5713 53.0623 37.7385 53.387C41.8807 53.793 45.1409 53.8734 50.735 52.7377C50.735 52.7377 51.4646 53.5498 52.6839 53.9559C41.2314 57.3673 28.3978 54.2795 36.6017 51.5184ZM59.0203 60.7777C59.0203 60.7777 60.4014 61.9145 57.4764 62.8081C52.0346 64.4324 34.6528 64.9199 29.7788 62.8081C28.0731 62.0784 31.3228 61.0104 32.3781 60.8591C33.4356 60.6159 34.0024 60.6159 34.0024 60.6159C32.1349 59.3152 21.5749 63.2966 28.641 64.4229C48.0532 67.59 64.054 63.0418 59.0182 60.7682L59.0203 60.7777ZM38.7124 45.9952C38.7124 45.9952 29.8592 48.107 35.5442 48.8377C37.9807 49.1623 42.7732 49.0809 47.24 48.7563C50.8946 48.4316 54.5504 47.7813 54.5504 47.7813C54.5504 47.7813 53.2497 48.3502 52.3571 48.918C43.341 51.2731 26.0406 50.2187 30.996 47.7813C35.2196 45.7509 38.7124 45.9835 38.7124 45.9835V45.9952ZM54.5514 54.8484C63.6479 50.1373 59.4243 45.5891 56.5004 46.158C55.7707 46.3209 55.4429 46.4827 55.4429 46.4827C55.4429 46.4827 55.6861 45.9962 56.255 45.8334C62.0215 43.803 66.5708 51.9245 54.3865 55.0927C54.3865 55.0927 54.4679 55.0113 54.5493 54.8495L54.5514 54.8484ZM39.6071 67.681C48.3789 68.2499 61.7825 67.3563 62.1061 63.2142C62.1061 63.2142 61.4568 64.8384 54.8771 66.0567C47.405 67.4377 38.1456 67.2749 32.7017 66.3813C32.7017 66.3813 33.8385 67.3553 39.6071 67.681Z" fill="#4E7896"/>
<path d="M49.0278 19.1914C49.0278 19.1914 54.0635 24.3096 44.2353 32.025C36.357 38.279 42.4376 41.8533 44.2353 45.914C39.6056 41.7718 36.2756 38.1172 38.5492 34.7047C41.8803 29.6689 51.0582 27.2325 49.0278 19.1914ZM46.4285 42.5026C48.7835 45.1833 45.7782 47.6208 45.7782 47.6208C45.7782 47.6208 51.7889 44.5329 49.0267 40.7154C46.5099 37.0607 44.5599 35.2736 55.1178 29.1814C55.1178 29.1814 38.4667 33.3236 46.4274 42.5015L46.4285 42.5026Z" fill="#F58219"/>
</svg>
