<svg width="210" height="210" viewBox="0 0 210 210" fill="none" xmlns="http://www.w3.org/2000/svg">
<circle cx="105" cy="105" r="105" fill="#2417C0"/>
<path d="M131.144 126.022L134.981 128.242C134.305 129.295 133.573 130.311 132.787 131.286L129.229 128.641C129.911 127.801 130.55 126.927 131.144 126.022Z" fill="white"/>
<path d="M129.232 128.64L132.79 131.285C132.007 132.258 131.171 133.188 130.285 134.069L127.063 131.025C127.824 130.27 128.541 129.477 129.232 128.64Z" fill="white"/>
<path d="M127.52 136.559L129.359 138.753C128.31 139.607 127.218 140.405 126.086 141.144L124.514 138.76C125.556 138.083 126.56 137.348 127.52 136.559Z" fill="white"/>
<path d="M118.009 118.446L128.727 124.623C128.19 125.437 127.607 126.221 126.983 126.97L117.083 119.601C117.406 119.207 117.711 118.846 118.009 118.446Z" fill="white"/>
<path d="M124.675 133.157L127.516 136.543C126.556 137.333 125.552 138.067 124.51 138.744L122.081 135.059C122.978 134.47 123.843 133.835 124.675 133.157Z" fill="white"/>
<path d="M117.076 119.591L126.975 126.961C126.341 127.709 125.707 128.419 125.022 129.104L116.042 120.631C116.405 120.304 116.751 119.957 117.076 119.591Z" fill="white"/>
<path d="M119.306 136.673L121.285 140.618C120.18 141.181 119.045 141.685 117.886 142.127L116.383 138.005C117.38 137.613 118.356 137.168 119.306 136.673Z" fill="white"/>
<path d="M113.771 122.43L120.551 132.729C119.743 133.249 118.915 133.731 118.065 134.175L112.535 123.166C112.953 122.944 113.365 122.697 113.771 122.43Z" fill="white"/>
<path d="M112.529 123.167L118.059 134.176C117.202 134.618 116.324 135.016 115.427 135.368L111.209 123.782C111.66 123.601 112.101 123.396 112.529 123.167Z" fill="white"/>
<path d="M116.384 138.006L117.887 142.128C116.725 142.574 115.54 142.955 114.336 143.27L113.333 139.021C114.374 138.729 115.39 138.391 116.384 138.006Z" fill="white"/>
<path d="M115.411 135.368L116.368 138.006C115.375 138.395 114.358 138.733 113.318 139.021L112.684 136.294C113.609 136.035 114.519 135.726 115.411 135.368Z" fill="white"/>
<path d="M106.944 112.049L116.045 120.636C115.693 120.971 115.325 121.289 114.941 121.587L106.944 112.049Z" fill="white"/>
<path d="M106.944 112.049L114.948 121.562C114.571 121.865 114.177 122.147 113.768 122.405L106.944 112.049Z" fill="white"/>
<path d="M106.944 112.049L113.768 122.43C113.362 122.697 112.95 122.944 112.5 123.166L106.944 112.049Z" fill="white"/>
<path d="M109.85 124.277L112.691 136.327C111.759 136.587 110.82 136.803 109.856 136.961L108.436 124.671C108.905 124.569 109.38 124.436 109.85 124.277Z" fill="white"/>
<path d="M106.944 112.049L112.532 123.166C112.104 123.402 111.664 123.614 111.212 123.8L106.944 112.049Z" fill="white"/>
<path d="M110.68 144.035L111.022 146.876C109.671 147.079 108.31 147.208 106.944 147.263V144.409C108.195 144.35 109.442 144.225 110.68 144.035Z" fill="white"/>
<path d="M110.179 139.715L110.68 144.034C109.442 144.224 108.195 144.349 106.944 144.408V140.083C108.028 140.016 109.108 139.893 110.179 139.715Z" fill="white"/>
<path d="M108.435 124.669L109.855 136.96C108.898 137.118 107.953 137.245 106.944 137.309V124.91C107.445 124.856 107.942 124.776 108.435 124.669Z" fill="white"/>
<path d="M132.828 95.1674L136.633 92.9541C137.231 94.0626 137.767 95.2038 138.237 96.3724L134.172 98.1354C133.776 97.1233 133.327 96.1326 132.828 95.1674Z" fill="white"/>
<path d="M134.145 98.1414L138.241 96.3721C138.697 97.5364 139.085 98.7265 139.402 99.9362L135.153 101.205C134.87 100.167 134.534 99.1442 134.145 98.1414Z" fill="white"/>
<path d="M140.142 103.583L142.958 103.088C143.177 104.421 143.323 105.766 143.395 107.115L140.542 107.286C140.479 106.045 140.345 104.808 140.142 103.583Z" fill="white"/>
<path d="M119.699 102.746L130.41 96.563C130.844 97.4351 131.23 98.3307 131.564 99.2456L120.231 104.135C120.075 103.666 119.897 103.203 119.699 102.746Z" fill="white"/>
<path d="M135.786 104.349L140.142 103.582C140.346 104.808 140.479 106.044 140.542 107.285L136.103 107.539C136.057 106.47 135.951 105.405 135.786 104.349Z" fill="white"/>
<path d="M120.231 104.138L131.564 99.2485C131.905 100.155 132.199 101.078 132.446 102.014L120.625 105.546C120.521 105.069 120.39 104.599 120.231 104.138Z" fill="white"/>
<path d="M136.144 110.742L140.545 111.002C140.48 112.24 140.349 113.474 140.152 114.699L135.827 113.938C135.989 112.879 136.095 111.812 136.144 110.742Z" fill="white"/>
<path d="M121.031 108.426L133.341 107.716C133.392 108.667 133.392 109.618 133.341 110.589L121.038 109.866C121.061 109.386 121.059 108.906 121.031 108.426Z" fill="white"/>
<path d="M121.052 109.856L133.355 110.579C133.305 111.537 133.216 112.481 133.07 113.452L120.932 111.308C120.995 110.833 121.033 110.325 121.052 109.856Z" fill="white"/>
<path d="M135.824 113.939L140.149 114.7C139.952 115.929 139.69 117.146 139.362 118.347L135.177 117.078C135.448 116.044 135.664 114.996 135.824 113.939Z" fill="white"/>
<path d="M133.069 113.449L135.828 113.937C135.674 115.005 135.462 116.063 135.194 117.108L132.511 116.303C132.751 115.363 132.937 114.41 133.069 113.449Z" fill="white"/>
<path d="M108.627 109.132L120.619 105.543C120.733 106.016 120.822 106.494 120.886 106.976L108.627 109.132Z" fill="white"/>
<path d="M108.627 109.133L120.886 106.977C120.961 107.454 121.007 107.934 121.025 108.417L108.627 109.133Z" fill="white"/>
<path d="M108.627 109.132L121.025 108.422C121.051 108.901 121.051 109.382 121.025 109.861L108.627 109.132Z" fill="white"/>
<path d="M120.677 112.742L132.492 116.287C132.251 117.227 131.964 118.154 131.629 119.065L120.29 114.169C120.442 113.699 120.569 113.217 120.677 112.742Z" fill="white"/>
<path d="M108.627 109.131L121.044 109.854C121.044 110.342 120.987 110.83 120.924 111.306L108.627 109.131Z" fill="white"/>
<path d="M138.2 121.898L140.825 123.027C140.328 124.299 139.761 125.541 139.126 126.75L136.652 125.323C137.226 124.209 137.743 123.066 138.2 121.898Z" fill="white"/>
<path d="M134.203 120.173L138.198 121.898C137.741 123.065 137.225 124.208 136.651 125.322L132.903 123.16C133.391 122.189 133.825 121.192 134.203 120.173Z" fill="white"/>
<path d="M120.292 114.167L131.631 119.063C131.295 119.981 130.912 120.88 130.483 121.759L119.766 115.569C119.966 115.112 120.142 114.644 120.292 114.167Z" fill="white"/>
<path d="M106.944 78.2733V73.834C108.193 73.8935 109.438 74.0206 110.673 74.2145L110.166 78.6157C109.099 78.4476 108.023 78.3333 106.944 78.2733Z" fill="white"/>
<path d="M110.168 78.6166L110.675 74.2153C111.91 74.4061 113.134 74.6644 114.341 74.9891L113.32 79.3015C112.288 79.0267 111.238 78.7984 110.168 78.6166Z" fill="white"/>
<path d="M117.891 76.1396L118.867 73.457C120.132 73.9369 121.37 74.4831 122.577 75.0932L121.309 77.63C120.197 77.072 119.056 76.5745 117.891 76.1396Z" fill="white"/>
<path d="M106.944 93.4408V81.0742C107.916 81.1344 108.884 81.2487 109.843 81.4167L108.435 93.6755C107.927 93.574 107.439 93.4979 106.944 93.4408Z" fill="white"/>
<path d="M116.375 80.3009L117.89 76.1406C119.052 76.5822 120.189 77.086 121.296 77.65L119.304 81.601C118.352 81.115 117.374 80.681 116.375 80.3009Z" fill="white"/>
<path d="M108.436 93.6729L109.862 81.4141C110.819 81.5711 111.765 81.7829 112.697 82.0482L109.85 94.0471C109.386 93.8955 108.914 93.7706 108.436 93.6729Z" fill="white"/>
<path d="M122.09 83.1949L124.512 79.5103C125.554 80.1866 126.559 80.9169 127.525 81.6982L124.703 85.0657C123.866 84.3955 122.994 83.771 122.09 83.1949Z" fill="white"/>
<path d="M112.526 95.1042L118.056 84.0884C118.906 84.5196 119.743 84.9953 120.555 85.5153L113.782 95.8081C113.376 95.5629 112.957 95.3283 112.526 95.1042Z" fill="white"/>
<path d="M113.783 95.8221L120.556 85.5293C121.355 86.043 122.142 86.6074 122.903 87.2099L114.975 96.6529C114.595 96.3739 114.195 96.0821 113.783 95.8221Z" fill="white"/>
<path d="M124.697 85.0633L127.519 81.6958C128.485 82.4799 129.408 83.3162 130.284 84.2008L127.113 87.1942C126.346 86.4419 125.539 85.7306 124.697 85.0633Z" fill="white"/>
<path d="M122.897 87.2051L124.698 85.0615C125.536 85.7292 126.338 86.4405 127.102 87.1924L125.066 89.095C124.377 88.4265 123.653 87.7956 122.897 87.2051Z" fill="white"/>
<path d="M106.944 106.22L109.83 94.0371C110.293 94.1766 110.756 94.3352 111.206 94.5191L106.944 106.22Z" fill="white"/>
<path d="M106.944 106.214L111.206 94.5132C111.656 94.6907 112.096 94.8918 112.525 95.1157L106.944 106.214Z" fill="white"/>
<path d="M106.944 106.216L112.525 95.1182C112.948 95.3338 113.371 95.5684 113.794 95.8221L106.944 106.216Z" fill="white"/>
<path d="M116.091 97.585L125.065 89.1187C125.754 89.7993 126.413 90.5117 127.043 91.2559L117.131 98.6314C116.801 98.2763 116.446 97.9148 116.091 97.585Z" fill="white"/>
<path d="M106.944 106.212L113.781 95.8179C114.193 96.0779 114.593 96.3569 114.973 96.6487L106.944 106.212Z" fill="white"/>
<path d="M132.778 86.9872L135.068 85.2749C135.918 86.3435 136.709 87.4571 137.44 88.6107L134.966 90.0376C134.289 88.9843 133.559 87.9662 132.778 86.9872Z" fill="white"/>
<path d="M129.288 89.5874L132.782 86.9873C133.563 87.9663 134.293 88.9844 134.97 90.0377L131.228 92.2003C130.628 91.2959 129.98 90.4238 129.288 89.5874Z" fill="white"/>
<path d="M117.132 98.6285L127.045 91.2529C127.679 92.0013 128.25 92.7813 128.801 93.5994L118.084 99.7827C117.787 99.3813 117.47 98.996 117.132 98.6285Z" fill="white"/>
<path d="M79.3671 92.2359L75.562 90.0226C76.2363 88.9679 76.9689 87.9517 77.7563 86.9785L81.3141 89.6167C80.6101 90.4602 79.9633 91.329 79.3671 92.2359Z" fill="white"/>
<path d="M81.2941 89.6161L77.7363 86.9779C78.5292 86.0012 79.3761 85.0696 80.2731 84.1875L83.4947 87.2316C82.702 87.9863 81.9854 88.76 81.2941 89.6161Z" fill="white"/>
<path d="M82.9993 81.6965L81.1602 79.5085C82.2097 78.6537 83.3042 77.8557 84.4389 77.1177L86.0053 79.5022C84.963 80.1768 83.9594 80.9093 82.9993 81.6965Z" fill="white"/>
<path d="M92.5063 99.8213L81.8013 93.638C82.34 92.8271 82.9222 92.0459 83.5453 91.2979L93.4449 98.6671C93.1151 99.0413 92.8044 99.4218 92.5063 99.8213Z" fill="white"/>
<path d="M85.8426 85.0911L83.0015 81.6982C83.9616 80.911 84.9652 80.1785 86.0075 79.5039L88.4364 83.2012C87.5388 83.7845 86.673 84.4154 85.8426 85.0911Z" fill="white"/>
<path d="M93.4426 98.6661L83.543 91.2969C84.1572 90.5496 84.8092 89.8342 85.4963 89.1533L94.4827 97.6387C94.1158 97.9602 93.7685 98.3032 93.4426 98.6661Z" fill="white"/>
<path d="M91.2116 81.5814L89.2329 77.6431C90.3383 77.0797 91.473 76.5759 92.6321 76.1338L94.1352 80.256C93.139 80.6485 92.1633 81.0909 91.2116 81.5814Z" fill="white"/>
<path d="M96.7535 95.8316L89.9741 85.5323C90.7817 85.0123 91.6103 84.5282 92.4601 84.0801L97.9902 95.1022C97.5654 95.3232 97.1525 95.5667 96.7535 95.8316Z" fill="white"/>
<path d="M97.9862 95.1055L92.4561 84.0897C93.3125 83.6497 94.1909 83.2539 95.0879 82.9038L99.2989 94.4713C98.8504 94.6592 98.4121 94.8709 97.9862 95.1055Z" fill="white"/>
<path d="M94.1349 80.2584L92.6318 76.1362C93.7936 75.6902 94.9792 75.3091 96.1833 74.9946L97.1853 79.2437C96.1516 79.5354 95.1179 79.8842 94.1349 80.2584Z" fill="white"/>
<path d="M95.1134 82.8961L94.1558 80.2579C95.1514 79.871 96.1725 79.5349 97.2062 79.2432L97.8404 81.9702C96.9142 82.2258 96.0037 82.5349 95.1134 82.8961Z" fill="white"/>
<path d="M103.569 106.214L94.481 97.6398C94.8294 97.3008 95.1979 96.9831 95.5844 96.6885L103.569 106.214Z" fill="white"/>
<path d="M103.569 106.216L95.5723 96.7029C95.9477 96.3977 96.3417 96.116 96.7518 95.8594L103.569 106.216Z" fill="white"/>
<path d="M103.573 106.214L96.7554 95.8324C97.1542 95.5653 97.567 95.3198 97.992 95.0967L103.573 106.214Z" fill="white"/>
<path d="M100.671 93.9777L97.8301 81.9726C98.7623 81.7125 99.7326 81.4969 100.665 81.3384L102.092 93.6035C101.612 93.7023 101.138 93.8272 100.671 93.9777Z" fill="white"/>
<path d="M103.569 106.213L97.9883 95.102C98.4143 94.8673 98.8525 94.6557 99.301 94.4678L103.569 106.213Z" fill="white"/>
<path d="M99.841 74.228L99.5049 71.3868C100.854 71.1839 102.213 71.0548 103.576 71V73.8538C102.326 73.9138 101.079 74.0387 99.841 74.228Z" fill="white"/>
<path d="M100.338 78.5524L99.8374 74.2272C101.075 74.0379 102.322 73.913 103.573 73.853V78.1782C102.489 78.2443 101.409 78.3692 100.338 78.5524Z" fill="white"/>
<path d="M102.096 93.5993L100.663 81.3215C101.621 81.1629 102.566 81.0424 103.574 80.9727V93.3456C103.077 93.4044 102.584 93.4891 102.096 93.5993Z" fill="white"/>
<path d="M77.6997 123.122L73.8628 125.336C73.2847 124.224 72.7702 123.081 72.3218 121.911L76.3869 120.148C76.7709 121.162 77.2091 122.155 77.6997 123.122Z" fill="white"/>
<path d="M76.3873 120.149L72.3222 121.912C71.8668 120.749 71.4772 119.561 71.1553 118.354L75.4043 117.085C75.6785 118.123 76.0066 119.145 76.3873 120.149Z" fill="white"/>
<path d="M70.3862 114.712L67.5704 115.213C67.3571 113.877 67.2132 112.531 67.1392 111.18L69.9866 111.008C70.0525 112.249 70.1859 113.486 70.3862 114.712Z" fill="white"/>
<path d="M90.8197 115.524L80.121 121.739C79.6851 120.866 79.2977 119.971 78.9604 119.056L90.2933 114.128C90.4455 114.61 90.6231 115.073 90.8197 115.524Z" fill="white"/>
<path d="M74.73 113.938L70.3795 114.711C70.1792 113.485 70.0459 112.248 69.98 111.008L74.4193 110.748C74.4626 111.816 74.5663 112.881 74.73 113.938Z" fill="white"/>
<path d="M90.292 114.128L78.9591 119.024C78.6187 118.12 78.3244 117.199 78.0776 116.265L89.8988 112.72C90.0033 113.197 90.1346 113.667 90.292 114.128Z" fill="white"/>
<path d="M74.3812 107.546L69.98 107.292C70.043 106.054 70.1721 104.819 70.3668 103.595L74.692 104.349C74.5285 105.408 74.4247 106.475 74.3812 107.546Z" fill="white"/>
<path d="M89.4945 109.866L77.185 110.589C77.1343 109.637 77.1279 108.686 77.185 107.716L89.4755 108.426C89.4568 108.906 89.4631 109.387 89.4945 109.866Z" fill="white"/>
<path d="M89.4726 108.422L77.1694 107.718C77.2138 106.76 77.309 105.816 77.4485 104.845L89.5931 106.976C89.5297 107.445 89.4917 107.927 89.4726 108.422Z" fill="white"/>
<path d="M74.686 104.349L70.3799 103.594C70.5717 102.363 70.8321 101.144 71.1599 99.9414L75.3455 101.21C75.0732 102.244 74.8531 103.292 74.686 104.349Z" fill="white"/>
<path d="M77.4457 104.837L74.687 104.349C74.8447 103.282 75.0563 102.223 75.3212 101.178L78.0101 101.983C77.7684 102.923 77.58 103.876 77.4457 104.837Z" fill="white"/>
<path d="M101.892 109.131L89.9055 112.733C89.7866 112.261 89.6955 111.782 89.6328 111.3L101.892 109.131Z" fill="white"/>
<path d="M101.889 109.131L89.6302 111.3C89.5555 110.823 89.5089 110.342 89.4907 109.86L101.889 109.131Z" fill="white"/>
<path d="M101.892 109.128L89.4936 109.857C89.4683 109.375 89.4683 108.893 89.4936 108.411L101.892 109.128Z" fill="white"/>
<path d="M89.8402 105.537L77.9937 102.004C78.2298 101.062 78.5156 100.133 78.8498 99.2202L90.1954 104.11C90.0519 104.579 89.9334 105.055 89.8402 105.537Z" fill="white"/>
<path d="M101.892 109.133L89.4746 108.423C89.4746 107.935 89.5317 107.453 89.5951 106.977L101.892 109.133Z" fill="white"/>
<path d="M72.2891 96.3716L69.6636 95.249C70.16 93.9762 70.7252 92.7314 71.3569 91.52L73.8302 92.9469C73.2567 94.0606 72.7423 95.2038 72.2891 96.3716Z" fill="white"/>
<path d="M76.3083 98.1139L72.2876 96.3699C72.7408 95.2021 73.2552 94.059 73.8287 92.9453L77.5767 95.1079C77.1011 96.0868 76.6777 97.0902 76.3083 98.1139Z" fill="white"/>
<path d="M90.223 104.111L78.8774 99.2217C79.2157 98.3127 79.5983 97.4142 80.0253 96.5264L90.7494 102.716C90.5489 103.171 90.3732 103.637 90.223 104.111Z" fill="white"/>
<path d="M102.179 114.409C102.224 114.58 102.23 148.604 102.179 148.611C102.129 148.617 99.909 144.806 97.2138 140.125C94.5185 135.445 92.2544 131.621 92.2354 131.615C92.2164 131.608 87.7581 131.583 82.3548 131.615C76.9515 131.646 72.5439 131.615 72.5376 131.57C72.5313 131.526 79.1902 127.664 87.3395 122.945C95.4888 118.227 102.091 114.441 102.179 114.409Z" fill="white"/>
</svg>
