<svg width="108" height="108" viewBox="0 0 108 108" fill="none" xmlns="http://www.w3.org/2000/svg">
<g clip-path="url(#clip0_490_743)">
<path fill-rule="evenodd" clip-rule="evenodd" d="M80.5899 37.8797C80.6101 37.9544 80.6204 38.0315 80.6206 38.1089V50.1422C80.6206 50.2967 80.5798 50.4484 80.5024 50.582C80.425 50.7157 80.3137 50.8265 80.1797 50.9034L70.0799 56.7182V68.2438C70.0799 68.5574 69.9132 68.847 69.6412 69.0049L48.5588 81.1413C48.5105 81.1687 48.4579 81.1863 48.4052 81.2049C48.3855 81.2115 48.3669 81.2235 48.346 81.229C48.1986 81.2678 48.0437 81.2678 47.8964 81.229C47.8722 81.2224 47.8503 81.2093 47.8273 81.2005C47.779 81.183 47.7286 81.1676 47.6825 81.1413L26.6045 69.0049C26.4706 68.928 26.3593 68.8171 26.2819 68.6835C26.2045 68.5498 26.1637 68.3982 26.1636 68.2438V32.1438C26.1636 32.0648 26.1745 31.9881 26.1943 31.9135C26.2009 31.8883 26.2162 31.8652 26.225 31.84C26.2414 31.794 26.2568 31.7468 26.2809 31.704C26.2974 31.6755 26.3215 31.6525 26.3412 31.6262C26.3665 31.5911 26.3895 31.5549 26.4191 31.5242C26.4443 31.4989 26.4772 31.4803 26.5058 31.4584C26.5376 31.432 26.5661 31.4035 26.6023 31.3827L37.1429 25.3145C37.2764 25.2377 37.4277 25.1973 37.5816 25.1973C37.7356 25.1973 37.8869 25.2377 38.0203 25.3145L48.5599 31.3827H48.5621C48.5972 31.4046 48.6268 31.432 48.6586 31.4573C48.6871 31.4792 48.7189 31.4989 48.7441 31.5231C48.7748 31.5549 48.7968 31.5911 48.8231 31.6262C48.8417 31.6525 48.867 31.6755 48.8823 31.704C48.9075 31.7479 48.9218 31.794 48.9394 31.84C48.9481 31.8652 48.9635 31.8883 48.9701 31.9146C48.9903 31.9893 49.0006 32.0664 49.0008 32.1438V54.6915L57.7834 49.6344V38.1078C57.7834 38.0311 57.7943 37.9532 57.8141 37.8797C57.8218 37.8534 57.836 37.8304 57.8448 37.8051C57.8623 37.7591 57.8777 37.7119 57.9018 37.6691C57.9183 37.6406 57.9424 37.6176 57.9611 37.5913C57.9874 37.5562 58.0093 37.52 58.04 37.4893C58.0652 37.464 58.097 37.4454 58.1256 37.4235C58.1585 37.3971 58.187 37.3686 58.2221 37.3478L68.7638 31.2796C68.8972 31.2027 69.0485 31.1622 69.2025 31.1622C69.3565 31.1622 69.5078 31.2027 69.6412 31.2796L80.1808 37.3478C80.2181 37.3697 80.2466 37.3971 80.2795 37.4224C80.3069 37.4443 80.3387 37.464 80.3639 37.4882C80.3946 37.52 80.4166 37.5562 80.4429 37.5913C80.4626 37.6176 80.4868 37.6406 80.5021 37.6691C80.5274 37.7119 80.5416 37.7591 80.5592 37.8051C80.569 37.8304 80.5833 37.8534 80.5899 37.8797ZM78.8636 49.6344V39.6279L75.1753 41.7512L70.0799 44.6849V54.6915L78.8647 49.6344H78.8636ZM68.324 67.736V57.7228L63.312 60.5853L48.9997 68.7537V78.8612L68.324 67.736ZM27.9205 33.6628V67.736L47.2427 78.8601V68.7548L37.1484 63.042L37.1451 63.0398L37.1407 63.0376C37.1067 63.0178 37.0782 62.9893 37.0464 62.9652C37.019 62.9433 36.9872 62.9257 36.9631 62.9016L36.9609 62.8983C36.9324 62.8709 36.9126 62.8369 36.8885 62.8062C36.8666 62.7766 36.8402 62.7513 36.8227 62.7206L36.8216 62.7173C36.8018 62.6844 36.7898 62.6449 36.7755 62.6077C36.7613 62.5748 36.7426 62.544 36.7339 62.509C36.7229 62.4673 36.7207 62.4223 36.7163 62.3795C36.7119 62.3466 36.7031 62.3137 36.7031 62.2808V62.2786V38.7198L31.6088 35.785L27.9205 33.6628ZM37.5827 27.089L28.8012 32.1438L37.5805 37.1986L46.3609 32.1427L37.5805 27.089H37.5827ZM42.1495 58.6353L47.2438 55.7027V33.6628L43.5555 35.786L38.4601 38.7198V60.7597L42.1495 58.6353ZM69.2025 33.0541L60.4221 38.1089L69.2025 43.1637L77.9818 38.1078L69.2025 33.0541ZM68.324 44.6849L63.2286 41.7512L59.5403 39.6279V49.6344L64.6346 52.5671L68.324 54.6915V44.6849ZM48.1201 67.2348L60.999 59.8823L67.4368 56.2082L58.663 51.1567L48.561 56.9727L39.3539 62.2732L48.1201 67.2348Z" fill="#FF2D20"/>
</g>
<defs>
<clipPath id="clip0_490_743">
<rect width="54.8365" height="57.0299" fill="white" transform="translate(26.1636 25.1973)"/>
</clipPath>
</defs>
</svg>
