<svg width="69" height="69" viewBox="0 0 69 69" fill="none" xmlns="http://www.w3.org/2000/svg">
<circle cx="34.5" cy="34.5" r="34.5" fill="white"/>
<path d="M45.6454 30.228C45.4713 30.363 42.399 32.0942 42.399 35.9436C42.399 40.396 46.3084 41.9712 46.4254 42.0102C46.4074 42.1062 45.8044 44.1674 44.3642 46.2676C43.0801 48.1158 41.739 49.961 39.6988 49.961C37.6586 49.961 37.1335 48.7759 34.7783 48.7759C32.483 48.7759 31.667 50 29.8008 50C27.9346 50 26.6325 48.2898 25.1353 46.1896C23.4011 43.7234 22 39.892 22 36.2556C22 30.423 25.7924 27.3297 29.5248 27.3297C31.5079 27.3297 33.1611 28.6319 34.4062 28.6319C35.5914 28.6319 37.4395 27.2517 39.6958 27.2517C40.5509 27.2517 43.6232 27.3297 45.6454 30.228ZM38.6247 24.7825C39.5578 23.6754 40.2178 22.1392 40.2178 20.6031C40.2178 20.39 40.1998 20.174 40.1608 20C38.6427 20.057 36.8365 21.0111 35.7474 22.2742C34.8923 23.2463 34.0942 24.7825 34.0942 26.3396C34.0942 26.5737 34.1332 26.8077 34.1512 26.8827C34.2472 26.9007 34.4032 26.9217 34.5593 26.9217C35.9214 26.9217 37.6346 26.0096 38.6247 24.7825Z" fill="black"/>
</svg>
