<svg width="95" height="95" viewBox="0 0 95 95" fill="none" xmlns="http://www.w3.org/2000/svg">
<circle cx="47.1553" cy="47.1553" r="47.1553" fill="black"/>
<path d="M61.9508 40.9555C61.7304 41.1265 57.8388 43.3193 57.8388 48.1952C57.8388 53.835 62.7907 55.8302 62.9389 55.8796C62.9161 56.0012 62.1522 58.6121 60.328 61.2723C58.7015 63.6134 57.0027 65.9506 54.4184 65.9506C51.8342 65.9506 51.1691 64.4494 48.1858 64.4494C45.2785 64.4494 44.2448 66 41.881 66C39.5172 66 37.8678 63.8338 35.9714 61.1735C33.7748 58.0496 32 53.1965 32 48.5905C32 41.2025 36.8037 37.2843 41.5314 37.2843C44.0434 37.2843 46.1374 38.9337 47.7146 38.9337C49.2157 38.9337 51.5568 37.1855 54.4146 37.1855C55.4977 37.1855 59.3893 37.2843 61.9508 40.9555ZM53.0579 34.0578C54.2398 32.6555 55.0759 30.7097 55.0759 28.7639C55.0759 28.494 55.0531 28.2204 55.0037 28C53.0807 28.0722 50.7929 29.2807 49.4133 30.8807C48.3302 32.112 47.3193 34.0578 47.3193 36.0302C47.3193 36.3266 47.3687 36.6231 47.3915 36.7181C47.5132 36.7409 47.7108 36.7675 47.9084 36.7675C49.6338 36.7675 51.8038 35.6122 53.0579 34.0578Z" fill="white"/>
</svg>
