<svg width="150" height="150" viewBox="0 0 150 150" fill="none" xmlns="http://www.w3.org/2000/svg">
<circle cx="75" cy="75" r="75" fill="white"/>
<path d="M94.4089 67.0467C94.1189 67.2717 88.9984 70.157 88.9984 76.5727C88.9984 83.9934 95.514 86.6187 95.7091 86.6837C95.6791 86.8437 94.674 90.279 92.2737 93.7794C90.1335 96.8597 87.8983 99.935 84.498 99.935C81.0976 99.935 80.2225 97.9598 76.2971 97.9598C72.4717 97.9598 71.1116 100 68.0013 100C64.891 100 62.7208 97.1497 60.2255 93.6494C57.3352 89.539 55 83.1533 55 77.0927C55 67.3717 61.3206 62.2162 67.5413 62.2162C70.8466 62.2162 73.6019 64.3864 75.6771 64.3864C77.6523 64.3864 80.7326 62.0862 84.4929 62.0862C85.9181 62.0862 91.0386 62.2162 94.4089 67.0467ZM82.7078 57.9708C84.2629 56.1256 85.363 53.5654 85.363 51.0051C85.363 50.6501 85.333 50.29 85.268 50C82.7378 50.095 79.7275 51.6852 77.9123 53.7904C76.4871 55.4105 75.157 57.9708 75.157 60.5661C75.157 60.9561 75.222 61.3461 75.252 61.4711C75.412 61.5012 75.6721 61.5362 75.9321 61.5362C78.2023 61.5362 81.0576 60.016 82.7078 57.9708Z" fill="black"/>
</svg>
