<svg width="96" height="97" viewBox="0 0 96 97" fill="none" xmlns="http://www.w3.org/2000/svg">
<circle cx="48" cy="48.7061" r="48" fill="white"/>
<g clip-path="url(#clip0_73_1705)">
<path d="M47.5004 54.4407C50.3062 54.4407 52.5808 52.1661 52.5808 49.3602C52.5808 46.5544 50.3062 44.2798 47.5004 44.2798C44.6945 44.2798 42.4199 46.5544 42.4199 49.3602C42.4199 52.1661 44.6945 54.4407 47.5004 54.4407Z" fill="#61DAFB"/>
<path d="M47.4996 59.7637C62.5554 59.7637 74.7605 55.1035 74.7605 49.355C74.7605 43.6064 62.5554 38.9463 47.4996 38.9463C32.4439 38.9463 20.2388 43.6064 20.2388 49.355C20.2388 55.1035 32.4439 59.7637 47.4996 59.7637Z" stroke="#61DAFB" stroke-width="2.47826"/>
<path d="M38.4863 54.5608C46.0142 67.5994 56.1526 75.8393 61.131 72.965C66.1094 70.0907 64.0426 57.1907 56.5147 44.1521C48.9868 31.1134 38.8485 22.8735 33.8701 25.7478C28.8917 28.6221 30.9584 41.5221 38.4863 54.5608Z" stroke="#61DAFB" stroke-width="2.47826"/>
<path d="M38.4862 44.1501C30.9583 57.1888 28.8915 70.0888 33.87 72.9631C38.8484 75.8373 48.9867 67.5975 56.5146 54.5588C64.0425 41.5201 66.1092 28.6201 61.1308 25.7458C56.1524 22.8716 46.0141 31.1114 38.4862 44.1501Z" stroke="#61DAFB" stroke-width="2.47826"/>
</g>
<defs>
<clipPath id="clip0_73_1705">
<rect width="57" height="50.7138" fill="white" transform="translate(19 23.999)"/>
</clipPath>
</defs>
</svg>
