<svg width="95" height="95" viewBox="0 0 95 95" fill="none" xmlns="http://www.w3.org/2000/svg">
<circle cx="47.1553" cy="47.1553" r="47.1553" fill="black"/>
<g clip-path="url(#clip0_73_486)">
<path d="M46.7817 52.4852C49.6582 52.4852 51.9901 50.1533 51.9901 47.2768C51.9901 44.4002 49.6582 42.0684 46.7817 42.0684C43.9051 42.0684 41.5732 44.4002 41.5732 47.2768C41.5732 50.1533 43.9051 52.4852 46.7817 52.4852Z" fill="white"/>
<path d="M46.7816 57.9473C62.2166 57.9473 74.7291 53.1697 74.7291 47.2764C74.7291 41.383 62.2166 36.6055 46.7816 36.6055C31.3465 36.6055 18.834 41.383 18.834 47.2764C18.834 53.1697 31.3465 57.9473 46.7816 57.9473Z" stroke="white" stroke-width="2"/>
<path d="M37.5411 52.6086C45.2586 65.9757 55.6523 74.4231 60.7561 71.4764C65.8599 68.5298 63.7411 55.3048 56.0236 41.9377C48.3061 28.5706 37.9124 20.1231 32.8085 23.0698C27.7047 26.0165 29.8236 39.2415 37.5411 52.6086Z" stroke="white" stroke-width="2"/>
<path d="M37.5417 41.9377C29.8242 55.3048 27.7054 68.5298 32.8092 71.4764C37.913 74.4231 48.3068 65.9757 56.0243 52.6086C63.7418 39.2415 65.8606 26.0165 60.7568 23.0698C55.653 20.1231 45.2592 28.5706 37.5417 41.9377Z" stroke="white" stroke-width="2"/>
</g>
<defs>
<clipPath id="clip0_73_486">
<rect width="58.4358" height="51.9913" fill="white" transform="translate(17.5635 21.2734)"/>
</clipPath>
</defs>
</svg>
